<svg xmlns="http://www.w3.org/2000/svg" xmlns:xlink="http://www.w3.org/1999/xlink" version="1.1" viewBox="15 329 307 471">
   <path  d="M189 336q6 4 31.5 15t36.5 20q8 10 17 31t13 27q4 -1 12 -1q18 0 23 13q-1 13 -10.5 42t-6.5 45l-129 161l-21 9q-5 14 -6.5 28.5t-1.5 39.5q-8 12 -17.5 18t-32.5 16q-21 -4 -34.5 -10t-47.5 -24q4 -15 4 -33q0 -6 -1 -19t-1 -21q0 -13 3 -28q0 -31 8 -95t8 -94 q-1 -12 -1 -17v-9q6 -7 42 -37t46 -53q3 -2 20 -16.5t28 -14.5q10 0 18 7zM169 336q-5 5 -3 8q29 12 59 24q15 4 26 26t14 25l4 -14q-2 -5 -6 -14t-14 -12l3 -3q-25 -14 -44.5 -24t-38.5 -16zM151 349l-4 14l-4 -6q1 7 -5 10q-1 -1 -1 -10q-17 18 -41.5 49t-52.5 67 q1 8 0 23.5t-1 16.5q0 8 1 11l1 -3q0 -34 40 -76t47 -56q7 -6 14 -7.5t15 -1.5q12 0 30 2.5t23 1.5q14 12 22.5 19t18.5 11l-8 -19q-2 -6 -7 -6t-6 -1l2 -5q-37 -22 -84 -34zM148 387q3 6 -2.5 11t-6.5 7q-2 -6 -4 -10q-37 40 -73 80q-21 58 -30 115t-9 123q4 7 4 15 q0 4 -3.5 16t-3.5 18l69 29q0 -14 2.5 -36.5t2.5 -29.5q-8 2 -14 2q-7 0 -11 -4l24 -4q-6 0 -12.5 -2.5t-11.5 -5.5l2 -2q6 3 12 3q5 0 18.5 -5.5t16.5 -5.5q16 -13 24.5 -36.5t8.5 -45.5q1 -4 1 -10q0 -9 -6.5 -31.5t-6.5 -31.5q0 -5 2 -15l-4 -12q-4 -6 -11 -2l2 -4l-8 -4 q2 -1 12 -1q9 -4 12 -12.5t3 -32.5h-4q0 12 -1 14q-3 -16 -9 -19l6 -1q16 -9 19 -26q-5 -8 -9 -17q6 9 19 9q10 -1 15 -1q0 -1 7 -5t5 -9q4 20 19.5 29.5t28.5 13.5q9 -4 13.5 -9.5t0.5 -13.5q-20 -16 -40 -33l-10 8v-12zM73 423q-1 2 -17.5 12t-16.5 23q11 -6 19.5 -15 t13.5 -14zM275 423l6 12zM192 429q-13 7 -18 10.5t-5 9.5q-7 18 -14 35q0 10 15.5 19.5t35.5 20.5q4 0 9 -3q3 -5 18 -21t15 -27q4 -6 -3 -13q-11 0 -27.5 -14.5t-25.5 -16.5zM163 437v-4l-2 6zM291 433q-1 1 1 6q2 13 -7 19q-7 0 -16 6t-12 7q-7 17 -8 30q9 11 18.5 19.5 t17.5 8.5q-4 4 -9 4t-14.5 -9.5t-13.5 -11.5q-3 -10 -7 -9q-20 9 -20 23q0 7 10.5 25t10.5 26q-7 -9 -14.5 -24.5t-10.5 -20.5l-7 -1l32 62q25 -24 36 -38t19 -29q-2 -2 3 -8q-2 -15 6 -39t9 -32q-1 -8 -8 -12t-16 -2zM267 445q-5 -5 -9 1t-7 11q2 2 5.5 3t5.5 1 q9 -3 11 -11zM285 442h-6l2 9h4v-9zM156 460l-3 3zM156 503q-6 23 -6 48t7 43l5 1v34t1 34q-5 7 -11 10.5t-4 9.5h15q20 -13 34 -29t26 -34.5t12 -26.5q0 -10 -12 -28t-14 -23q-7 2 -12 3q7 0 8 2q-18 3 -35 6q3 -3 10.5 -6t8.5 -4l-3 -3q2 0 5.5 -1.5t6.5 -2t4 -2.5 q-8 -7 -23 -16.5t-23 -14.5zM153 665q3 -3 4 -9.5t1 -9.5zM138 708l-3 -1zM112 721h5q5 -2 3 -8q-8 3 -8 8zM134 717q-6 11 -8 28t-3 32q7 -3 11.5 -8.5t4.5 -16.5q-1 -17 -1 -35h-4zM119 727l-9 -2q-5 13 -7 28t-2 30q0 6 6.5 3.5t7.5 -2.5zM171 539l6 -2zM179 540l6 -1z "/>
</svg>