<?xml version="1.0" encoding="utf-8"?>
<!-- Generator: Adobe Illustrator 26.4.1, SVG Export Plug-In . SVG Version: 6.00 Build 0)  -->
<svg version="1.1" id="Layer_1" xmlns="http://www.w3.org/2000/svg" xmlns:xlink="http://www.w3.org/1999/xlink" x="0px" y="0px"
	 viewBox="0 0 471 471" style="enable-background:new 0 0 471 471;" xml:space="preserve">
<path d="M256,7c4,2.7,14.5,7.7,31.5,15s29.2,14,36.5,20c5.3,6.7,11,17,17,31s10.3,23,13,27c2.7-0.7,6.7-1,12-1c12,0,19.7,4.3,23,13
	c-0.7,8.7-4.2,22.7-10.5,42s-8.5,34.3-6.5,45L243,360l-21,9c-3.3,9.3-5.5,18.8-6.5,28.5S214,420.3,214,437c-5.3,8-11.2,14-17.5,18
	c-6.3,4-17.2,9.3-32.5,16c-14-2.7-25.5-6-34.5-10s-24.8-12-47.5-24c2.7-10,4-21,4-33c0-4-0.3-10.3-1-19s-1-15.7-1-21
	c0-8.7,1-18,3-28c0-20.7,2.7-52.3,8-95c5.3-42.7,8-74,8-94c-0.7-8-1-13.7-1-17v-9c4-4.7,18-17,42-37s39.3-37.7,46-53
	c2-1.3,8.7-6.8,20-16.5S230.7,0,238,0C244.7,0,250.7,2.3,256,7z M236,7c-3.3,3.3-4.3,6-3,8c19.3,8,39,16,59,24
	c10,2.7,18.7,11.3,26,26c7.3,14.7,12,23,14,25l4-14c-1.3-3.3-3.3-8-6-14s-7.3-10-14-12l3-3c-16.7-9.3-31.5-17.3-44.5-24
	S248.7,11,236,7z M218,20l-4,14l-4-6c0.7,4.7-1,8-5,10c-0.7-0.7-1-4-1-10c-11.3,12-25.2,28.3-41.5,49s-33.8,43-52.5,67
	c0.7,5.3,0.7,13.2,0,23.5s-1,15.8-1,16.5c0,5.3,0.3,9,1,11l1-3c0-22.7,13.3-48,40-76s42.3-46.7,47-56c4.7-4,9.3-6.5,14-7.5
	s9.7-1.5,15-1.5c8,0,18,0.8,30,2.5s19.7,2.2,23,1.5c9.3,8,16.8,14.3,22.5,19s11.8,8.3,18.5,11l-8-19c-1.3-4-3.7-6-7-6s-5.3-0.3-6-1
	l2-5C277.3,39.3,249.3,28,218,20z M215,58c2,4,1.2,7.7-2.5,11s-5.8,5.7-6.5,7c-1.3-4-2.7-7.3-4-10c-24.7,26.7-49,53.3-73,80
	c-14,38.7-24,77-30,115s-9,79-9,123c2.7,4.7,4,9.7,4,15c0,2.7-1.2,8-3.5,16S87,429,87,433l69,29c0-9.3,0.8-21.5,2.5-36.5
	s2.5-24.8,2.5-29.5c-5.3,1.3-10,2-14,2c-4.7,0-8.3-1.3-11-4l24-4c-4,0-8.2-0.8-12.5-2.5s-8.2-3.5-11.5-5.5l2-2c4,2,8,3,12,3
	c3.3,0,9.5-1.8,18.5-5.5S183,372,185,372c10.7-8.7,18.8-20.8,24.5-36.5s8.5-30.8,8.5-45.5c0.7-2.7,1-6,1-10c0-6-2.2-16.5-6.5-31.5
	S206,223,206,217c0-3.3,0.7-8.3,2-15l-4-12c-2.7-4-6.3-4.7-11-2l2-4l-8-4c1.3-0.7,5.3-1,12-1c6-2.7,10-6.8,12-12.5s3-16.5,3-32.5h-4
	c0,8-0.3,12.7-1,14c-2-10.7-5-17-9-19l6-1c10.7-6,17-14.7,19-26c-3.3-5.3-6.3-11-9-17c4,6,10.3,9,19,9c6.7-0.7,11.7-1,15-1
	c0-0.7,2.3-2.3,7-5c4.7-2.7,6.3-5.7,5-9c2.7,13.3,9.2,23.2,19.5,29.5s19.8,10.8,28.5,13.5c6-2.7,10.5-5.8,13.5-9.5s3.2-8.2,0.5-13.5
	c-13.3-10.7-26.7-21.7-40-33l-10,8V62L215,58z M140,94c-0.7,1.3-6.5,5.3-17.5,12S106,120.3,106,129c7.3-4,13.8-9,19.5-15
	c5.7-6,10.2-10.7,13.5-14L140,94z M342,94l6,12L342,94z M259,100c-8.7,4.7-14.7,8.2-18,10.5s-5,5.5-5,9.5c-4.7,12-9.3,23.7-14,35
	c0,6.7,5.2,13.2,15.5,19.5s22.2,13.2,35.5,20.5c2.7,0,5.7-1,9-3c2-3.3,8-10.3,18-21s15-19.7,15-27c2.7-4,1.7-8.3-3-13
	c-7.3,0-16.5-4.8-27.5-14.5S265,101.3,259,100z M230,108v-4l-2,6L230,108z M358,104c-0.7,0.7-0.3,2.7,1,6c1.3,8.7-1,15-7,19
	c-4.7,0-10,2-16,6s-10,6.3-12,7c-4.7,11.3-7.3,21.3-8,30c6,7.3,12.2,13.8,18.5,19.5s12.2,8.5,17.5,8.5c-2.7,2.7-5.7,4-9,4
	s-8.2-3.2-14.5-9.5c-6.3-6.3-10.8-10.2-13.5-11.5c-2-6.7-4.3-9.7-7-9c-13.3,6-20,13.7-20,23c0,4.7,3.5,13,10.5,25s10.5,20.7,10.5,26
	c-4.7-6-9.5-14.2-14.5-24.5S286,206.3,284,203l-7-1l32,62c16.7-16,28.7-28.7,36-38s13.7-19,19-29c-1.3-1.3-0.3-4,3-8
	c-1.3-10,0.7-23,6-39s8.3-26.7,9-32c-0.7-5.3-3.3-9.3-8-12S364,102.7,358,104z M334,116c-3.3-3.3-6.3-3-9,1c-2.7,4-5,7.7-7,11
	c1.3,1.3,3.2,2.3,5.5,3c2.3,0.7,4.2,1,5.5,1c6-2,9.7-5.7,11-11L334,116z M352,113h-6l2,9h4V113z M223,131l-3,3L223,131z M223,174
	c-4,15.3-6,31.3-6,48s2.3,31,7,43l5,1v34c0,0,0.3,11.3,1,34c-3.3,4.7-7,8.2-11,10.5s-5.3,5.5-4,9.5h15c13.3-8.7,24.7-18.3,34-29
	c9.3-10.7,18-22.2,26-34.5s12-21.2,12-26.5c0-6.7-4-16-12-28s-12.7-19.7-14-23c-4.7,1.3-8.7,2.3-12,3c4.7,0,7.3,0.7,8,2
	c-12,2-23.7,4-35,6c2-2,5.5-4,10.5-6s7.8-3.3,8.5-4l-3-3c1.3,0,3.2-0.5,5.5-1.5s4.5-1.7,6.5-2s3.3-1.2,4-2.5
	c-5.3-4.7-13-10.2-23-16.5C236,182.2,228.3,177.3,223,174z M220,336c2-2,3.3-5.2,4-9.5s1-7.5,1-9.5L220,336z M205,379l-3-1L205,379z
	 M179,392h5c3.3-1.3,4.3-4,3-8C181.7,386,179,388.7,179,392z M201,388c-4,7.3-6.7,16.7-8,28s-2.3,22-3,32c4.7-2,8.5-4.8,11.5-8.5
	s4.5-9.2,4.5-16.5c-0.7-11.3-1-23-1-35H201z M186,398l-9-2c-3.3,8.7-5.7,18-7,28s-2,20-2,30c0,4,2.2,5.2,6.5,3.5s6.8-2.5,7.5-2.5
	L186,398z M238,210l6-2L238,210z M246,211l6-1L246,211z"/>
</svg>
