<?xml version="1.0" encoding="utf-8"?>
<!-- Generator: Adobe Illustrator 26.4.1, SVG Export Plug-In . SVG Version: 6.00 Build 0)  -->
<svg version="1.1" id="Layer_1" xmlns="http://www.w3.org/2000/svg" xmlns:xlink="http://www.w3.org/1999/xlink" x="0px" y="0px"
	 viewBox="0 0 667 667" style="enable-background:new 0 0 667 667;" xml:space="preserve">
<path d="M360,0c18,0,31.3,8,40,24c7.3,21.3,13,36.3,17,45c8,36,16.3,74,25,114s13,75.7,13,107c8,8,14,22,18,42s7.7,32.8,11,38.5
	s5,13.2,5,22.5c0,8-1.7,17-5,27s-6.5,19-9.5,27s-8.7,24.7-17,50s-18.8,44-31.5,56c-2.7,16-4,34-4,54c0,10,0.3,17.7,1,23
	c-16.7,10.7-35.3,19.5-56,26.5S326.3,667,307,667c-21.3,0-41-4.3-59-13c-2.7-14-5-27.8-7-41.5s-3-28.2-3-43.5
	c-17.3-29.3-30.7-60.7-40-94s-16-70-20-110l15-51c1.3-1.3,12.2-6.8,32.5-16.5s29.8-22.8,28.5-39.5c5.3-9.3,12.8-15.7,22.5-19
	s20.8-5,33.5-5c4-6.7,8.3-13.7,13-21s10.8-12,18.5-14s13.8-2.7,18.5-2c1.3-10.7,1-22.8-1-36.5s-4-29.5-6-47.5c0-5.3,0.3-9.3,1-12
	c-5.3-22-10.3-44-15-66c0-8,1-14.5,3-19.5S350,5.3,360,0z M377,10c-4-2-8.7-3-14-3c-8,0-13.7,2.7-17,8c-0.7,3.3-1,8.3-1,15
	c0,8,1.3,17.8,4,29.5S355,84,359,98c11.3-2.7,21.2-5,29.5-7s15.5-3,21.5-3c-0.7-6.7-1.2-12.3-1.5-17s-2.3-11.2-6-19.5
	s-7.2-16.3-10.5-24S383.7,14,377,10z M414,99c-4-4-8.7-6-14-6s-13,2.2-23,6.5s-15.7,6.8-17,7.5c0.7,2.7,1.7,11.5,3,26.5
	s3.7,25.8,7,32.5c13.3-8.7,29.3-13,48-13c2.7,2.7,5.7,5,9,7c1.3-4,1-9.5-1-16.5s-4-13.8-6-20.5L414,99z M416,160l-8-2L416,160z
	 M371,171c-2,4-3,7.3-3,10c0,4,3.5,10.7,10.5,20s11.5,16.5,13.5,21.5s8.3,8.8,19,11.5c13.3,2,23,3.3,29,4c1.3-6,0.3-15.7-3-29
	s-4.7-22.3-4-27c0-12-5.7-18-17-18C400.7,166.7,385.7,169,371,171z M338,206c-4,2.7-7.8,7.7-11.5,15s-6.2,13-7.5,17
	c6.7,6.7,11.2,16.7,13.5,30s5.2,29.2,8.5,47.5s7.3,39.8,12,64.5c0-7.3,4.3-14,13-20c6.7-2.7,13-2.3,19,1s9.7,8,11,14l-1-19
	c-2-0.7-5.5-4.5-10.5-11.5S374,334,368,334l-8,2c-2,1.3-3.8,1-5.5-1s-3.2-4.3-4.5-7h18l-17-33c-2-6-3-12.3-3-19c0-15.3,4-28,12-38
	c7.3-5.3,12.7-9.2,16-11.5s5.3-5.2,6-8.5c-2-10-7.7-15-17-15C352.3,205,343.3,206,338,206z M358,262c-0.7,2.7-1,6.7-1,12
	c0,14.7,5.2,28.7,15.5,42s22.8,25,37.5,35l-4,3c0.7,1.3,3,2.8,7,4.5s5.7,3.8,5,6.5c-4.7,0-9-0.3-13-1c0,6,2.8,12.2,8.5,18.5
	c5.7,6.3,9.8,11.2,12.5,14.5c-2.7,1.3-5.3,1.5-8,0.5c-2.7-1-5.3-2.5-8-4.5c0,2,2.3,5.3,7,10c4.7,4.7,5.7,8.3,3,11
	c4,3.3,7.3,6.2,10,8.5s7,3.8,13,4.5s8.7,2.3,8,5c-22.7,0-36.5-5.7-41.5-17s-9.2-17-12.5-17c-2.7,0-7,1.5-13,4.5s-10.3,4.5-13,4.5
	s-5.7-1-9-3c-4.7,2-8.5,6-11.5,12s-6.3,12-10,18s-5.5,13.3-5.5,22c0,10.7,3.7,22.5,11,35.5s14.7,25.2,22,36.5c9.3,4.7,19.7,7,31,7
	c8.7,0,17.7-1,27-3c11.3-7.3,19.8-20.2,25.5-38.5s11.2-36.2,16.5-53.5c8-10.7,12-23.3,12-38c0-11.3-2-23.8-6-37.5s-8-26.8-12-39.5
	c-5.3,5.3-10,9.7-14,13s-8,5-12,5l19-18l-10.5,7c0,0-2.8,0.7-8.5,2c6-4.7,11-9,15-13s5.3-8.3,4-13c-8,5.3-14.3,12-19,20l-6-6l4-4
	l2,2l22-18c-6-7.3-12.5-14.2-19.5-20.5S423.3,268.7,414,262c-0.7,6-4.7,12-12,18c-6,4-13,2.8-21-3.5s-13-9.8-15-10.5
	c-1.3-5.3-1-11,1-17s5.3-11,10-15c-4.7,1.3-8.5,3.8-11.5,7.5S360,252,358,262z M386,234c-8.7,6-13,14.7-13,26c4,8,11.3,12.7,22,14
	l10-19c-2-1.3-4.5-5.2-7.5-11.5S390.7,234,386,234z M296,242c-8.7,0-14.8,1.8-18.5,5.5s-8.8,10.8-15.5,21.5l2-14l-6,12
	c-1.3,15.3,4.3,33.7,17,55s20,35.7,22,43c2.7,4,5,12.2,7,24.5c2,12.3,5.3,20.5,10,24.5c0-1.3,1.7-4,5-8s4.3-7.3,3-10
	c1.3-3.3,5.2-6.8,11.5-10.5s9.5-7.8,9.5-12.5c-2.7-21.3-5-43-7-65h-4l-8-46C322,248.7,312.7,242,296,242z M414,245
	c1.3,6.7,6.2,12.8,14.5,18.5S443,273.3,447,276c0-12-1.7-21.3-5-28L414,245z M403,271l3-6L403,271z M229,312l1-5
	c-5.3,1.3-9.8,5.7-13.5,13s-5.8,11.3-6.5,12c1.3-6.7,2.5-12,3.5-16s3.5-7,7.5-9c-11.3,4.7-18.7,8.7-22,12c0,6-1.8,14.8-5.5,26.5
	S188,365.3,188,370c0,6,1.3,11.3,4,16c2.7-2,9-3.7,19-5s16.3-4.3,19-9c-2-5.3-7.7-8.7-17-10s-14-5-14-11c3.3,2.7,5.8,2.5,7.5-0.5
	s3.5-4.5,5.5-4.5c11.3,5.3,23.2,18.5,35.5,39.5S272,419.3,284,424c0-4.7-0.7-7-2-7c-0.7-5.3,1.3-10,6-14c4.7-4,8-6.7,10-8
	c-1.3-9.3-2.7-15-4-17c-4,0-6.7,1-8,3s-4.7,3-10,3c-4,0-6.7-1-8-3c0.7-2,2.2-3,4.5-3s3.8-0.7,4.5-2c8,0,12-4,12-12
	c0-3.3-1.2-6.2-3.5-8.5s-7.5-12.7-15.5-31S254.7,297,248,297C242.7,297,236.3,302,229,312z M382,368c-8.7,2.7-15.7,4.7-21,6
	s-6,6-2,14c2.7,0.7,7.3,1,14,1c3.3,0,7.7-0.7,13-2c2.7-2,3.3-5.2,2-9.5C386.7,373.2,384.7,370,382,368z M232,380
	c-9.3,6.7-22.3,10-39,10c0,15.3,1.3,29.5,4,42.5s8.5,32.8,17.5,59.5s16.8,47,23.5,61s19,20.3,37,19c14.7-5.3,27-10.3,37-15
	s17.3-9,22-13s7-8.2,7-12.5s1-6.5,3-6.5c2,1.3,2.5,3.7,1.5,7s0.5,8.5,4.5,15.5s6.3,24,7,51s1.7,43.8,3,50.5c10.7-2.7,19.7-5,27-7
	s13.3-5.3,18-10c0-9.3-0.3-22.7-1-40s-1-30.3-1-39h-25c-9.3,0-16-2-20-6l19-1c-14.7-8-25.2-17.8-31.5-29.5S333.7,494,329,484l-5,8
	c-1.3-3.3-2-8.3-2-15c0-7.3,1.5-17.3,4.5-30s4.5-19.3,4.5-20c-4.7-2.7-9-4-13-4c-4.7,0-10.8,1.8-18.5,5.5s-14.2,4.8-19.5,3.5
	c-10-2.7-19.8-11.3-29.5-26S234.7,382.7,232,380z M329,397c-5.3,6.7-7,12.3-5,17h5c11.3-2,17.3-7.7,18-17c-0.7-4-3.5-4.8-8.5-2.5
	S330.3,397.7,329,397z M298,402l-2-2L298,402z M294,408c-5.3,2-7.3,5-6,9s4,6,8,6c5.3-3.3,7.7-6.3,7-9c1.3-2.7,0.8-4.3-1.5-5
	S296.7,408,294,408z M350,562l-6-9c-2,2.7-3,9.3-3,20c0,6.7,0.7,14.7,2,24l4,55c4.7-0.7,7-1.7,7-3L350,562z M414,553h-4v20L414,553z
	 M329,560l-4,6l6-2L329,560z M292,578c4.7-0.7,9.8-1.7,15.5-3s9.2-3.7,10.5-7c-5.3,1.3-10.5,3.2-15.5,5.5S294,577.3,292,578z
	 M331,572c-2,4-3,8.3-3,13c1.3,14,2,24.3,2,31c0,4-0.3,7-1,9l-8-47c-8.7,2.7-16,4.7-22,6s-11.3,2-16,2c-6,0-10.7-1.3-14-4
	c-0.7,2.7-1,7.3-1,14c0,7.3,0.8,16.2,2.5,26.5s3.5,20.2,5.5,29.5c12,2,24,3.7,36,5c8,0,14.7-1.7,20-5c-1.3-8-2.7-16.3-4-25
	c2-1.3,3.3-0.8,4,1.5s1.3,4.8,2,7.5L331,572z M252,581c0,19.3,0.5,32.7,1.5,40s3.2,15.3,6.5,24c0-8-1.2-19.3-3.5-34
	S252.7,586.3,252,581z M340,614v-17V614z M430,325v7V325z M308,364l28-10c-6,5.3-11,9.2-15,11.5S312.7,367.3,308,364z"/>
</svg>
