<svg xmlns="http://www.w3.org/2000/svg" xmlns:xlink="http://www.w3.org/1999/xlink" version="1.1" viewBox="14 133 293 667">
   <path  d="M103 133q25 0 40 20q27 104 42 214q7 3 11.5 1t14.5 -8q11 -19 18 -60.5t12 -54.5q1 -30 4 -52t20 -32q16 -6 32 7q6 10 8 28t2 21q0 14 -1 28l-2 28q-3 8 -3 22q0 17 -2 27q-14 31 -18.5 72t-4.5 93v54v23q0 37 -4 65q-6 25 -9.5 32t-12.5 14q-2 8 -3 20t-1 24v27.5 t1 26.5l-8 7q-25 7 -31 9t-21 11q-60 -5 -120 -11q-1 -3 -2 -11t-1 -19v-18t1 -18q0 -17 -2.5 -29.5t-17.5 -26.5q-5 -20 -18 -66t-13 -78q0 -36 17 -66l27 -20q-3 -9 -3 -17q0 -19 16 -31q7 -7 19 -7q9 0 15 3l9 6q2 -23 -5 -52.5t-11 -49.5q1 -6 1 -19q0 -17 -8.5 -58 t-8.5 -57q6 -19 21 -22zM94 145q-4 12 -4 27t4 31t9 31l50 -5l-9 -52q-2 -12 -12 -25t-23 -13q-7 0 -15 6zM273 164q-20 4 -22.5 28t-3.5 46q1 1 13 1t13 6l-20 -2q-9 9 -12 25t-5 31q1 2 6 2t8.5 5.5t18 5.5t20.5 3l8 -58q-1 -4 -1 -13q0 -11 1 -22.5t2 -22.5 q0 -15 -5 -23.5t-21 -11.5zM127 234q-14 0 -19.5 4.5t-5.5 13.5q0 6 3.5 21t1.5 22q6 -3 12 -3q12 2 25 3l-36 9q8 40 16 79q12 0 25 -6l26 -12l-8 -70l-10 -4q6 0 9 -1q0 -15 -4.5 -30.5t-7.5 -23.5q-5 1 -12 0t-15 -2zM236 307q-5 8 -11 30t-14 32q-12 7 -42.5 11 t-43.5 14q8 16 33 24t33 14q11 -4 26.5 -5t29.5 -2l2 3q-23 0 -34 1.5t-22 9.5l27 30q16 -4 33 -8l-16 12q10 0 12 2l-20 2q3 8 19 22t20 24q0 -30 0.5 -60t3.5 -58q-4 -10 -17 -17q-18 -7 -25 -10l2 5q-12 -2 -19 -12q7 -1 17 2l20 6q4 0 11.5 7.5t11.5 4.5q1 -3 8 -30.5 t7 -40.5zM87 388q-9 0 -14 5.5t-11 18.5v13.5t5 7.5q0 -13 6.5 -24.5t18.5 -19.5zM94 403q-6 10 -6 19q0 4 3 9q6 3 13 6t14 0q-2 -5 2.5 -13t4.5 -10l-22 -16q-4 0 -9 5zM85 405q-7 9 -9 22q0 13 4.5 22t14.5 19q14 11 27 19t22 7q6 10 18.5 19.5t20.5 15.5q7 1 12 1.5 t6 5.5q-11 2 -24 -2q0 8 11.5 15t12.5 12q-8 -1 -26 -12q3 10 11.5 19t16.5 17q-14 -5 -23 -15.5t-17 -24.5q-9 20 -15.5 35.5t-8.5 26.5q0 39 28 65q20 6 39 6h12q8 -2 12 -2q12 -4 19.5 -15t11.5 -26q1 -12 1.5 -20.5t0.5 -14.5q0 -11 -1 -33t-1 -31q-3 6 -4.5 10t-6.5 7 q2 -5 2 -7l-6 6q6 -11 9 -18t1 -16q-19 -18 -36 -35.5t-31 -35.5l-6 4l1 -7l-7 -1l3 -4l-11 5l6 -12l-40 -17q0 17 -12 26q-5 4 -11.5 2t-10.5 -2q-9 -2 -13.5 -9.5t-4.5 -15.5v-6q2 -4 2 -5zM128 421q-2 2 -4.5 5t-0.5 6q9 -7 5 -11zM60 445q-22 16 -22 37q-5 -9 -1 -17h-4 q-3 4 -8 18t-5 27q0 5 2 15q18 6 30 5q-1 -7 -12.5 -15t-13.5 -11h5l2 -8l32 36q9 21 15.5 28.5t15.5 9.5q0 -12 -1 -13q-1 -7 5 -11.5t11 -4.5l-8 -25q-10 -26 -18.5 -44t-24.5 -27zM103 489q5 25 10 40t18 28v-28q0 -6 5 -9t12 -7q-4 -8 -12 -8q-3 0 -9.5 1.5t-11.5 -1.5 q7 0 9 -4q-3 -3 -8.5 -7.5t-12.5 -4.5zM137 529q-1 6 0 13.5t2 13.5q7 -2 12.5 -16t5.5 -15q-3 2 -10 2t-10 2zM22 534q0 36 11.5 73t19.5 64t41 27q8 2 12 2q12 0 23 -8q13 -12 18 -17l-8 13h4q12 -4 12 -10q0 -4 -8 -14t-8 -15q-7 -20 -7 -42q0 -20 9 -38l-16 -3 q-6 6 -10 18t-7 22q-3 -6 0.5 -17.5t3.5 -13.5l-21 2q-8 -2 -14.5 -10t-18.5 -31zM103 547l4 3l1 -3h-5zM101 561q4 4 6 4q4 -1 7 -5.5t0 -7.5q-1 2 -8 2t-5 7zM160 681q3 6 20 6zM147 705v-15q-10 10 -21.5 13.5t-30.5 3.5q4 1 12 1q9 0 19.5 -4t16.5 -6q-1 9 -2 17 q-4 1 -4 -3t-2 -5q-7 1 -17 3t-16 2q-10 0 -17 -4l3 -3q-11 0 -13 -1l-1 23l-3 53q2 -13 4 -27q1 3 1 13.5v14.5q10 4 24 6t28 2h18l-7 -39l2 -3l-2 -32l4 4l3 -9v31q0 16 1.5 27t5.5 23q1 -1 7 -2l3 -65v52q0 6 1.5 12.5t10.5 2.5h14q2 -2 20 -9.5t18 -18.5q0 -2 -2 -10 q4 1 4.5 3.5t2.5 6.5q-3 -7 1.5 -9.5t7.5 -3.5h-5q-4 -3 -4 -11q1 -13 1 -19.5t-1 -9.5l-3 40q-2 2 -6 -2q3 -12 3 -25q0 -9 -0.5 -17t-0.5 -15q-8 2 -15.5 3t-18.5 1q-8 0 -12 -1l-4 13q-3 -16 -12 -17l-2 22q-2 -4 -3 -10.5t-1 -13.5q-6 11 -10 17zM177 444l-14 21 q-3 -4 -0.5 -8.5t5.5 -9.5q9 1 9 -3zM290 245l3 4l-16 -4h13zM241 451l5 -2zM175 461l2 2l-9 8zM233 383h4h-4zM99 514q-4 9 -17 11l-3 -4q4 0 11 -3.5t9 -3.5zM163 717v4l-2 -7zM75 740l1 4z"/>
</svg>