<?xml version="1.0" encoding="utf-8"?>
<!-- Generator: Adobe Illustrator 26.4.1, SVG Export Plug-In . SVG Version: 6.00 Build 0)  -->
<svg version="1.1" id="Layer_1" xmlns="http://www.w3.org/2000/svg" xmlns:xlink="http://www.w3.org/1999/xlink" x="0px" y="0px"
	 viewBox="0 0 667 667" style="enable-background:new 0 0 667 667;" xml:space="preserve">
<path d="M276,0c16.7,0,30,6.7,40,20c18,69.3,32,140.7,42,214c4.7,2,8.5,2.3,11.5,1s7.8-4,14.5-8c7.3-12.7,13.3-32.8,18-60.5
	s8.7-45.8,12-54.5c0.7-20,2-37.3,4-52s8.7-25.3,20-32c10.7-4,21.3-1.7,32,7c4,6.7,6.7,16,8,28s2,19,2,21c0,9.3-0.3,18.7-1,28l-2,28
	c-2,5.3-3,12.7-3,22c0,11.3-0.7,20.3-2,27c-9.3,20.7-15.5,44.7-18.5,72s-4.5,58.3-4.5,93v54v23c0,24.7-1.3,46.3-4,65
	c-4,16.7-7.2,27.3-9.5,32s-6.5,9.3-12.5,14c-1.3,5.3-2.3,12-3,20s-1,16-1,24v27.5c0,0,0.3,8.8,1,26.5l-8,7c-16.7,4.7-27,7.7-31,9
	s-11,5-21,11c-40-3.3-80-7-120-11c-0.7-2-1.3-5.7-2-11s-1-11.7-1-19v-18c0,0,0.3-6,1-18c0-11.3-0.8-21.2-2.5-29.5
	c-1.7-8.3-7.5-17.2-17.5-26.5c-3.3-13.3-9.3-35.3-18-66s-13-56.7-13-78c0-24,5.7-46,17-66l27-20c-2-6-3-11.7-3-17
	c0-12.7,5.3-23,16-31c4.7-4.7,11-7,19-7c6,0,11,1,15,3l9,6c1.3-15.3-0.3-32.8-5-52.5s-8.3-36.2-11-49.5c0.7-4,1-10.3,1-19
	c0-11.3-2.8-30.7-8.5-58S255,32.7,255,22C259,9.3,266,2,276,0z M267,12c-2.7,8-4,17-4,27s1.3,20.3,4,31s5.7,21,9,31l50-5l-9-52
	c-1.3-8-5.3-16.3-12-25c-6.7-8.7-14.3-13-23-13C277.3,6,272.3,8,267,12z M446,31c-13.3,2.7-20.8,12-22.5,28s-2.8,31.3-3.5,46
	c0.7,0.7,5,1,13,1s12.3,2,13,6l-20-2c-6,6-10,14.3-12,25s-3.7,21-5,31c0.7,1.3,2.7,2,6,2s6.2,1.8,8.5,5.5s8.3,5.5,18,5.5
	s16.5,1,20.5,3l8-58c-0.7-2.7-1-7-1-13c0-7.3,0.3-14.8,1-22.5s1.3-15.2,2-22.5c0-10-1.7-17.8-5-23.5S456.7,33,446,31z M300,101
	c-9.3,0-15.8,1.5-19.5,4.5S275,113,275,119c0,4,1.2,11,3.5,21s2.8,17.3,1.5,22c4-2,8-3,12-3c8,1.3,16.3,2.3,25,3l-36,9
	c5.3,26.7,10.7,53,16,79c8,0,16.3-2,25-6l26-12l-8-70l-10-4c4,0,7-0.3,9-1c0-10-1.5-20.2-4.5-30.5c-3-10.3-5.5-18.2-7.5-23.5
	c-3.3,0.7-7.3,0.7-12,0S305.3,101.7,300,101z M409,174c-3.3,5.3-7,15.3-11,30s-8.7,25.3-14,32c-8,4.7-22.2,8.3-42.5,11
	s-34.8,7.3-43.5,14c5.3,10.7,16.3,18.7,33,24s27.7,10,33,14c7.3-2.7,16.2-4.3,26.5-5s20.2-1.3,29.5-2l2,3c-15.3,0-26.7,0.5-34,1.5
	s-14.7,4.2-22,9.5l27,30c10.7-2.7,21.7-5.3,33-8l-16,12c6.7,0,10.7,0.7,12,2l-20,2c2,5.3,8.3,12.7,19,22c10.7,9.3,17.3,17.3,20,24
	c0-20,0.2-40,0.5-60s1.5-39.3,3.5-58c-2.7-6.7-8.3-12.3-17-17c-12-4.7-20.3-8-25-10l2,5c-8-1.3-14.3-5.3-19-12c4.7-0.7,10.3,0,17,2
	l20,6c2.7,0,6.5,2.5,11.5,7.5s8.8,6.5,11.5,4.5c0.7-2,3.3-12.2,8-30.5s7-31.8,7-40.5L409,174z M260,255c-6,0-10.7,1.8-14,5.5
	s-7,9.8-11,18.5v13.5c0,0,1.7,2.5,5,7.5c0-8.7,2.2-16.8,6.5-24.5S257,261.3,265,256L260,255z M267,270c-4,6.7-6,13-6,19
	c0,2.7,1,5.7,3,9c4,2,8.3,4,13,6s9.3,2,14,0c-1.3-3.3-0.5-7.7,2.5-13s4.5-8.7,4.5-10l-22-16C273.3,265,270.3,266.7,267,270z
	 M258,272c-4.7,6-7.7,13.3-9,22c0,8.7,1.5,16,4.5,22s7.8,12.3,14.5,19c9.3,7.3,18.3,13.7,27,19c8.7,5.3,16,7.7,22,7
	c4,6.7,10.2,13.2,18.5,19.5c8.3,6.3,15.2,11.5,20.5,15.5c4.7,0.7,8.7,1.2,12,1.5s5.3,2.2,6,5.5c-7.3,1.3-15.3,0.7-24-2
	c0,5.3,3.8,10.3,11.5,15s11.8,8.7,12.5,12c-5.3-0.7-14-4.7-26-12c2,6.7,5.8,13,11.5,19s11.2,11.7,16.5,17c-9.3-3.3-17-8.5-23-15.5
	s-11.7-15.2-17-24.5c-6,13.3-11.2,25.2-15.5,35.5s-7.2,19.2-8.5,26.5c0,26,9.3,47.7,28,65c13.3,4,26.3,6,39,6h12c5.3-1.3,9.3-2,12-2
	c8-2.7,14.5-7.7,19.5-15s8.8-16,11.5-26c0.7-8,1.2-14.8,1.5-20.5S436,471,436,467c0-7.3-0.3-18.3-1-33s-1-25-1-31
	c-2,4-3.5,7.3-4.5,10s-3.2,5-6.5,7c1.3-3.3,2-5.7,2-7l-6,6c4-7.3,7-13.3,9-18s2.3-10,1-16c-12.7-12-24.7-23.8-36-35.5
	S371.3,326,362,314l-6,4l1-7l-7-1l3-4l-11,5l6-12l-40-17c0,11.3-4,20-12,26c-3.3,2.7-7.2,3.3-11.5,2s-7.8-2-10.5-2
	c-6-1.3-10.5-4.5-13.5-9.5S256,288.3,256,283v-6C257.3,274.3,258,272.7,258,272z M301,288c-1.3,1.3-2.8,3-4.5,5s-1.8,4-0.5,6
	C302,294.3,303.7,290.7,301,288z M233,312c-14.7,10.7-22,23-22,37c-3.3-6-3.7-11.7-1-17h-4c-2,2.7-4.7,8.7-8,18s-5,18.3-5,27
	c0,3.3,0.7,8.3,2,15c12,4,22,5.7,30,5c-0.7-4.7-4.8-9.7-12.5-15c-7.7-5.3-12.2-9-13.5-11h5l2-8l32,36c6,14,11.2,23.5,15.5,28.5
	s9.5,8.2,15.5,9.5c0-8-0.3-12.3-1-13c-0.7-4.7,1-8.5,5-11.5s7.7-4.5,11-4.5l-8-25c-6.7-17.3-12.8-32-18.5-44S243.7,318,233,312z
	 M276,356c3.3,16.7,6.7,30,10,40s9.3,19.3,18,28v-28c0-4,1.7-7,5-9s7.3-4.3,12-7c-2.7-5.3-6.7-8-12-8c-2,0-5.2,0.5-9.5,1.5
	c-4.3,1-8.2,0.5-11.5-1.5c4.7,0,7.7-1.3,9-4c-2-2-4.8-4.5-8.5-7.5S280.7,356,276,356z M310,396c-0.7,4-0.7,8.5,0,13.5
	s1.3,9.5,2,13.5c4.7-1.3,8.8-6.7,12.5-16s5.5-14.3,5.5-15c-2,1.3-5.3,2-10,2S312,394.7,310,396z M195,401c0,24,3.8,48.3,11.5,73
	s14.2,46,19.5,64s19,27,41,27c5.3,1.3,9.3,2,12,2c8,0,15.7-2.7,23-8c8.7-8,14.7-13.7,18-17l-8,13h4c8-2.7,12-6,12-10
	c0-2.7-2.7-7.3-8-14s-8-11.7-8-15c-4.7-13.3-7-27.3-7-42c0-13.3,3-26,9-38l-16-3c-4,4-7.3,10-10,18s-5,15.3-7,22
	c-2-4-1.8-9.8,0.5-17.5s3.5-12.2,3.5-13.5l-21,2c-5.3-1.3-10.2-4.7-14.5-10S239,418.3,231,403L195,401z M276,414l4,3l1-3H276z
	 M274,428c2.7,2.7,4.7,4,6,4c2.7-0.7,5-2.5,7-5.5s2-5.5,0-7.5c-0.7,1.3-3.3,2-8,2S272.7,423.3,274,428z M333,548c2,4,8.7,6,20,6
	L333,548z M320,572v-15c-6.7,6.7-13.8,11.2-21.5,13.5c-7.7,2.3-17.8,3.5-30.5,3.5c2.7,0.7,6.7,1,12,1c6,0,12.5-1.3,19.5-4
	s12.5-4.7,16.5-6c-0.7,6-1.3,11.7-2,17c-2.7,0.7-4-0.3-4-3s-0.7-4.3-2-5c-4.7,0.7-10.3,1.7-17,3s-12,2-16,2c-6.7,0-12.3-1.3-17-4
	l3-3c-7.3,0-11.7-0.3-13-1l-1,23l-3,53c1.3-8.7,2.7-17.7,4-27c0.7,2,1,6.5,1,13.5V648c6.7,2.7,14.7,4.7,24,6s18.7,2,28,2h18l-7-39
	l2-3l-2-32l4,4l3-9v31c0,10.7,0.5,19.7,1.5,27s2.8,15,5.5,23c0.7-0.7,3-1.3,7-2l3-65v52c0,4,0.5,8.2,1.5,12.5s4.5,5.2,10.5,2.5h14
	c1.3-1.3,8-4.5,20-9.5s18-11.2,18-18.5c0-1.3-0.7-4.7-2-10c2.7,0.7,4.2,1.8,4.5,3.5s1.2,3.8,2.5,6.5c-2-4.7-1.5-7.8,1.5-9.5
	s5.5-2.8,7.5-3.5h-5c-2.7-2-4-5.7-4-11c0.7-8.7,1-15.2,1-19.5s-0.3-7.5-1-9.5l-3,40c-1.3,1.3-3.3,0.7-6-2c2-8,3-16.3,3-25
	c0-6-0.2-11.7-0.5-17s-0.5-10.3-0.5-15c-5.3,1.3-10.5,2.3-15.5,3s-11.2,1-18.5,1c-5.3,0-9.3-0.3-12-1l-4,13c-2-10.7-6-16.3-12-17
	l-2,22c-1.3-2.7-2.3-6.2-3-10.5s-1-8.8-1-13.5C326,562.3,322.7,568,320,572z M350,311l-14,21c-2-2.7-2.2-5.5-0.5-8.5
	s3.5-6.2,5.5-9.5C347,314.7,350,313.7,350,311z M463,112l3,4l-16-4H463z M414,318l5-2L414,318z M348,328l2,2l-9,8L348,328z M406,250
	h4H406z M272,381c-2.7,6-8.3,9.7-17,11l-3-4c2.7,0,6.3-1.2,11-3.5S270.7,381,272,381z M336,584v4l-2-7L336,584z M248,607l1,4
	L248,607z"/>
</svg>
