<?xml version="1.0" encoding="utf-8"?>
<!-- Generator: Adobe Illustrator 26.4.1, SVG Export Plug-In . SVG Version: 6.00 Build 0)  -->
<svg version="1.1" id="Layer_1" xmlns="http://www.w3.org/2000/svg" xmlns:xlink="http://www.w3.org/1999/xlink" x="0px" y="0px"
	 viewBox="0 0 666 666" style="enable-background:new 0 0 666 666;" xml:space="preserve">
<path d="M326,9c6-6,14.7-9,26-9c12.7,0,21,6,25,18s7,26,9,42s3,32,3,48c0,20-1.5,48-4.5,84s-4.5,56-4.5,60c0,18.7,0.5,31.5,1.5,38.5
	s3.2,17.5,6.5,31.5c7.3-5.3,24.8-23,52.5-53s55.2-45,82.5-45h9c6,2,12.7,6.7,20,14c3.3,5.3,5,10,5,14c0,6.7-6.8,13-20.5,19
	s-22.2,11-25.5,15c-4,10.7-15.8,31.5-35.5,62.5S444.7,405,442,425c-2,2-6.8,8-14.5,18s-13.8,16.3-18.5,19c-2.7,12-9.7,26-21,42
	s-20,28.3-26,37c-2,11.3-3.8,24.7-5.5,40s-2.5,26.3-2.5,33c0,8,0.3,14,1,18c-12,12-26.7,20.7-44,26s-36.3,8-57,8h-16
	c-6.7-1.3-11.7-2-15-2l-52-32v-15c0-22.7-1.3-40.8-4-54.5s-9.3-26.5-20-38.5l-38-140c0-14,2.3-27,7-39l26-28c4.7-7.3,6.3-15.3,5-24
	c8.7-7.3,15.8-13,21.5-17s12.2-6,19.5-6c4.7,0,9.7,2,15,6l7,1c0.7-2.7,1-6.7,1-12c0-13.3-6-30.8-18-52.5s-18.7-35.2-20-40.5
	c-1.3-16.7-9-40.5-23-71.5S128,46.3,126,31c0.7-5.3,3-9.7,7-13s9.3-6.3,16-9c7.3-0.7,13.5,0.8,18.5,4.5s9.8,9.2,14.5,16.5
	c28.7,62,51.2,110.2,67.5,144.5S276.3,226,281,226c3.3,0,6-1.3,8-4c16-12.7,24.7-38.3,26-77s3.7-62.7,7-72c-1.3-9.3-2-16.3-2-21
	c0-6.7,0.7-13.7,2-21L326,9z M362,9c-3.3-2-7-3-11-3s-7.5,0.7-10.5,2s-5.2,2.3-6.5,3c-2.7,8.7-4.7,16.8-6,24.5s-2,16.8-2,27.5v12
	c1.3,5.3,2,9.3,2,12c7.3-2,15.7-3,25-3h15c6,1.3,10,2,12,2c-1.3-18-2.7-33.3-4-46S370,17,362,9z M133,29c0,13.3,3.5,27.7,10.5,43
	s13.8,30,20.5,44c8.7-6,16-10.5,22-13.5s12.7-5.5,20-7.5l-12-28c-6.7-12.7-13.3-24.3-20-35s-14-16-22-16C146,16,139.7,20.3,133,29z
	 M343,88c-8.7,2-14.2,5.5-16.5,10.5S323,111.3,323,122v18c0,4-0.3,7-1,9c4-1.3,7.7-2,11-2c14,2,24.3,3,31,3l7,3c0.7-2,2.5-3,5.5-3
	s4.8-0.3,5.5-1l-2-50c-2-6.7-9-10-21-10C351.7,89,346.3,88.7,343,88z M167,124c2.7,11.3,5.8,23.2,9.5,35.5S185.3,182,192,190
	c4.7-6,10.2-11.2,16.5-15.5s15.2-8.8,26.5-13.5c0.7,0.7,1,5,1,13c-11.3,2-20.5,5-27.5,9S196,193.7,192,203c4,4.7,9.2,13.5,15.5,26.5
	S219,251.7,223,257c2.7-2.7,9-7.8,19-15.5s16.7-13.5,20-17.5c-4.7-9.3-12.2-28.3-22.5-57s-20.8-50-31.5-64
	C190.7,106.3,177,113.3,167,124z M322,160c-2,15.3-3.7,26.5-5,33.5s-3.7,13.5-7,19.5c10.7,1.3,21.7,2.7,33,4c11.3,2.7,21,7.3,29,14
	l-3,2l10-64c-6.7-8.7-18-13-34-13C335.7,156,328,157.3,322,160z M299,220c-26.7,20-53,39.7-79,59c-1.3,4.7-1.2,9.7,0.5,15
	s4.2,10.7,7.5,16c6-14,11.2-23.8,15.5-29.5S254,269,262,263l2,2c-3.3,5.3-6.3,10.7-9,16l23-20l2,2c-2.7,4-10.5,12.7-23.5,26
	s-21.2,25.3-24.5,36l14,20c13.3-4.7,27-9.3,41-14c-4,2.7-10.3,6.2-19,10.5s-14.7,7.5-18,9.5l16,20l41-48c5.3-9.3,13-15.7,23-19
	s24-6.3,42-9v-50c-7.3-8.7-18.2-14.3-32.5-17C325.2,225.3,311.7,222.7,299,220z M525,231c-16,2-30.7,6.2-44,12.5S456,259,446,271
	c-5.3,4-4.5,9.5,2.5,16.5s10.8,11.8,11.5,14.5c-4.7,1.3-9.3-0.8-14-6.5s-8.7-8.2-12-7.5c-12,12-22.2,22.3-30.5,31
	s-13.2,17.7-14.5,27c3.3,6.7,6.8,14.7,10.5,24c3.7,9.3,5.5,16.7,5.5,22c-4-4-8-9.8-12-17.5c-4-7.7-8.3-16.2-13-25.5l-8,4
	c-0.7,10,0.5,19.7,3.5,29c3,9.3,7.5,18.7,13.5,28c-1.3,0.7-2.5,0.7-3.5,0s-3-2.7-6-6s-6.2-12.3-9.5-27c-3.3-14.7-7.7-24.7-13-30
	c-2.7-0.7-6.7-1-12-1c-12.7,0-24,3.3-34,10s-20.3,16.3-31,29l-2-3c6.7-12,15-21.2,25-27.5s17.7-10.7,23-13s9.7-1.8,13,1.5
	c2.7-0.7,6.7-1,12-1h16c5.3,0,9.7-1.3,13-4c-0.7-7.3-1.5-15.2-2.5-23.5S372.7,302,366,302c-20,0-38,7.3-54,22s-30,32.7-42,54
	c8,8,14,15.2,18,21.5s6,13.5,6,21.5c-3.3,12.7-11.7,22-25,28c-4-2-7.3-3-10-3c-4.7,0-11,3.8-19,11.5s-15.7,10.2-23,7.5
	c-12-5.3-20.5-10-25.5-14s-22.8-20.7-53.5-50c-10,0-15.7,0.7-17,2c3.3,17.3,8.3,37,15,59s11.7,38.2,15,48.5
	c3.3,10.3,6.5,18.3,9.5,24s8.7,9.8,17,12.5s13.7,4,16,4h9.5c19.3,0,34.3-6.3,45-19c3.3-3.3,5.5-3.7,6.5-1s1.8,5,2.5,7
	c5.3-3.3,8-7.7,8-13c0-4-2-9.7-6-17s-6-12.7-6-16c-0.7,3.3-1.3,7.8-2,13.5s-1,9.5-1,11.5c0,2.7,0.7,6,2,10c-2.7-6-4-13-4-21
	c0-6,0.3-12.3,1-19l2-20c0-5.3-0.3-9.3-1-12l3-2c0.7,7.3,1.5,13.8,2.5,19.5S260,491.3,266,512c4.7,8,12.7,13.3,24,16
	c14.7,2,25.3,3.7,32,5c24.7,0,47.3-16.7,68-50s34-52.7,40-58l20-53c1.3-5.3,6.2-13,14.5-23s11.2-17.7,8.5-23h6l1-16l11,2
	c5.3-16,13-30,23-42s22-18,36-18v-7c-5.3-5.3-9.5-9-12.5-11S530.3,231,525,231z M534,263h4l4-6c-1.3-0.7-2.8,0-4.5,2
	S534.7,262.3,534,263z M203,281c-3.3-2.7-8.3-4-15-4c-6,0-11.3,1.5-16,4.5s-9.5,7.2-14.5,12.5s-7.5,11-7.5,17c0,3.3,1,7,3,11
	c32,38.7,64.3,77,97,115l-2-6c-3.3-5.3-5-11-5-17c0-7.3,3.3-12.3,10-15c4.7-2.7,9.5-2.3,14.5,1s9.8,6.3,14.5,9
	c-21.3-27.3-39.3-53.3-54-78c-4-4.7-8.2-13-12.5-25C211.2,294,207,285.7,203,281z M123,346c-0.7,3.3-1.3,8.2-2,14.5s-1,10.8-1,13.5
	c0,9.3,1.8,15,5.5,17s9.2,2.3,16.5,1c12.7,12.7,26,25.8,40,39.5s27,21.5,39,23.5c-2-6.7-4-13.7-6-21c0-4.7,2-9,6-13
	c-11.3-10-24.5-26-39.5-48s-25.2-36-30.5-42c-4.7-0.7-9.7,0.7-15,4S126.3,342,123,346z M256,408l-4,4L256,408z M278,413
	c-2.7-4.7-5-7-7-7s-5.3,2.3-10,7s-8.7,7.3-12,8l8,16c10,0,17-3.7,21-11V413z M221,439c1.3,4,2.5,7,3.5,9s3.5,2.3,7.5,1
	c3.3-2,6-4.7,8-8c-2.7-4.7-6-7-10-7C227.3,434,224.3,435.7,221,439z M250,538l-11,10c3.3,0.7,4,3,2,7s-3.3,7-4,9l-2-6l-42,10
	c-5.3,0-10.3-1.3-15-4l5,60c5.3,9.3,12.3,16.2,21,20.5s19.3,7.2,32,8.5v-5c0-10,1-15.3,3-16v19l31,2c-1.3-5.3-2.3-11.8-3-19.5
	s-1-15.5-1-23.5v-27v-12c0-12.7-1.3-23.3-4-32c-2,6-3.5,13.2-4.5,21.5S256,578.3,256,589v23c0,11.3-1,22.7-3,34c-4.7-2-7-3.7-7-5
	c-2-13.3-3-26.3-3-39c0-8.7,0.7-18.3,2-29S248,550.7,250,538z M273,541c-0.7,6.7-1.2,12.7-1.5,18s-0.5,9.7-0.5,13
	c0,16.7,0.7,29.8,2,39.5s3.7,22.8,7,39.5c13.3,2,26.3-0.7,39-8c0-6.7,1.2-21,3.5-43s3.5-37.7,3.5-47c-9.3,0.7-18,0.2-26-1.5
	S283,546.3,273,541z M255,542c-4,18-6,37.3-6,58c0,12,1,22.7,3,32v-33v-28C252,571,253,561.3,255,542z M307,544c3.3,1.3,8.7,2,16,2
	c5.3,0,9-0.3,11-1L307,544z M339,565l4-18L339,565z M328,589c2.7-4.7,4.5-11.7,5.5-21s1.8-15,2.5-17L328,589z M336,574l-6,38
	C334,600.7,336,588,336,574z M343,601l1-4L343,601z M342,603l-3,27L342,603z M147,338c-12.7,5.3-19,17.3-19,36
	c-2-7.3-1.7-14.2,1-20.5s7-11.2,13-14.5L147,338z M248,372c-5.3,14-15,21-29,21c3.3-1.3,8-4.7,14-10C239,377.7,244,374,248,372z
	 M196,403l-2,4l9-2c-3.3,3.3-6.8,6.3-10.5,9s-6.8,3.7-9.5,3L196,403z"/>
</svg>
