<svg xmlns="http://www.w3.org/2000/svg" xmlns:xlink="http://www.w3.org/1999/xlink" version="1.1" viewBox="22 134 448 666">
   <path fill="currentColor" d="M239 143q9 -9 26 -9q19 0 25 18t9 42t3 48q0 30 -4.5 84t-4.5 60q0 28 1.5 38.5t6.5 31.5q11 -8 52.5 -53t82.5 -45h9q9 3 20 14q5 8 5 14q0 10 -20.5 19t-25.5 15q-6 16 -35.5 62.5t-33.5 76.5q-3 3 -14.5 18t-18.5 19q-4 18 -21 42t-26 37q-3 17 -5.5 40t-2.5 33 q0 12 1 18q-18 18 -44 26t-57 8h-16q-10 -2 -15 -2l-52 -32v-15q0 -34 -4 -54.5t-20 -38.5l-38 -140q0 -21 7 -39l26 -28q7 -11 5 -24q13 -11 21.5 -17t19.5 -6q7 0 15 6l7 1q1 -4 1 -12q0 -20 -18 -52.5t-20 -40.5q-2 -25 -23 -71.5t-24 -69.5q1 -8 7 -13t16 -9 q11 -1 18.5 4.5t14.5 16.5q43 93 67.5 144.5t31.5 51.5q5 0 8 -4q24 -19 26 -77t7 -72q-2 -14 -2 -21q0 -10 2 -21zM275 143q-5 -3 -11 -3t-10.5 2t-6.5 3q-4 13 -6 24.5t-2 27.5v12q2 8 2 12q11 -3 25 -3h15q9 2 12 2q-2 -27 -4 -46t-14 -31zM46 163q0 20 10.5 43t20.5 44 q13 -9 22 -13.5t20 -7.5l-12 -28q-10 -19 -20 -35t-22 -16q-9 0 -19 13zM256 222q-13 3 -16.5 10.5t-3.5 23.5v18q0 6 -1 9q6 -2 11 -2q21 3 31 3l7 3q1 -3 5.5 -3t5.5 -1l-2 -50q-3 -10 -21 -10q-11 0 -16 -1zM80 258q4 17 9.5 35.5t15.5 30.5q7 -9 16.5 -15.5t26.5 -13.5 q1 1 1 13q-17 3 -27.5 9t-16.5 20q6 7 15.5 26.5t15.5 27.5q4 -4 19 -15.5t20 -17.5q-7 -14 -22.5 -57t-31.5 -64q-26 5 -41 21zM235 294q-3 23 -5 33.5t-7 19.5q16 2 33 4q17 4 29 14l-3 2l10 -64q-10 -13 -34 -13q-14 0 -23 4zM212 354q-40 30 -79 59q-2 7 0.5 15t7.5 16 q9 -21 15.5 -29.5t18.5 -17.5l2 2q-5 8 -9 16l23 -20l2 2q-4 6 -23.5 26t-24.5 36l14 20q20 -7 41 -14q-6 4 -19 10.5t-18 9.5l16 20l41 -48q8 -14 23 -19t42 -9v-50q-11 -13 -32.5 -17t-40.5 -8zM438 365q-24 3 -44 12.5t-35 27.5q-8 6 2.5 16.5t11.5 14.5q-7 2 -14 -6.5 t-12 -7.5q-18 18 -30.5 31t-14.5 27q5 10 10.5 24t5.5 22q-6 -6 -12 -17.5t-13 -25.5l-8 4q-1 15 3.5 29t13.5 28q-2 1 -3.5 0t-6 -6t-9.5 -27t-13 -30q-4 -1 -12 -1q-19 0 -34 10t-31 29l-2 -3q10 -18 25 -27.5t23 -13t13 1.5q4 -1 12 -1h16q8 0 13 -4q-1 -11 -2.5 -23.5 t-11.5 -12.5q-30 0 -54 22t-42 54q12 12 18 21.5t6 21.5q-5 19 -25 28q-6 -3 -10 -3q-7 0 -19 11.5t-23 7.5q-18 -8 -25.5 -14t-53.5 -50q-15 0 -17 2q5 26 15 59t15 48.5t9.5 24t17 12.5t16 4h9.5q29 0 45 -19q5 -5 6.5 -1t2.5 7q8 -5 8 -13q0 -6 -6 -17t-6 -16 q-1 5 -2 13.5t-1 11.5q0 4 2 10q-4 -9 -4 -21q0 -9 1 -19l2 -20q0 -8 -1 -12l3 -2q1 11 2.5 19.5t10.5 39.5q7 12 24 16q22 3 32 5q37 0 68 -50t40 -58l20 -53q2 -8 14.5 -23t8.5 -23h6l1 -16l11 2q8 -24 23 -42t36 -18v-7q-8 -8 -12.5 -11t-12.5 -3zM447 397h4l4 -6 q-2 -1 -4.5 2t-3.5 4zM116 415q-5 -4 -15 -4q-9 0 -16 4.5t-14.5 12.5t-7.5 17q0 5 3 11q48 58 97 115l-2 -6q-5 -8 -5 -17q0 -11 10 -15q7 -4 14.5 1t14.5 9q-32 -41 -54 -78q-6 -7 -12.5 -25t-12.5 -25zM36 480q-1 5 -2 14.5t-1 13.5q0 14 5.5 17t16.5 1q19 19 40 39.5 t39 23.5q-3 -10 -6 -21q0 -7 6 -13q-17 -15 -39.5 -48t-30.5 -42q-7 -1 -15 4t-13 11zM169 542l-4 4zM191 547q-4 -7 -7 -7t-10 7t-12 8l8 16q15 0 21 -11v-13zM134 573q2 6 3.5 9t7.5 1q5 -3 8 -8q-4 -7 -10 -7q-4 0 -9 5zM163 672l-11 10q5 1 2 7t-4 9l-2 -6l-42 10 q-8 0 -15 -4l5 60q8 14 21 20.5t32 8.5v-5q0 -15 3 -16v19l31 2q-2 -8 -3 -19.5t-1 -23.5v-27v-12q0 -19 -4 -32q-3 9 -4.5 21.5t-1.5 28.5v23q0 17 -3 34q-7 -3 -7 -5q-3 -20 -3 -39q0 -13 2 -29t5 -35zM186 675q-1 10 -1.5 18t-0.5 13q0 25 2 39.5t7 39.5q20 3 39 -8 q0 -10 3.5 -43t3.5 -47q-14 1 -26 -1.5t-27 -10.5zM168 676q-6 27 -6 58q0 18 3 32v-33v-28t3 -29zM220 678q5 2 16 2q8 0 11 -1zM252 699l4 -18zM241 723q4 -7 5.5 -21t2.5 -17zM249 708l-6 38q6 -17 6 -38zM256 735l1 -4zM255 737l-3 27zM60 472q-19 8 -19 36 q-3 -11 1 -20.5t13 -14.5zM161 506q-8 21 -29 21q5 -2 14 -10t15 -11zM109 537l-2 4l9 -2q-5 5 -10.5 9t-9.5 3z"/>
</svg>