<svg xmlns="http://www.w3.org/2000/svg" xmlns:xlink="http://www.w3.org/1999/xlink" version="1.1" viewBox="19 133.2 376 665.8">
   <path fill="currentColor" d="M227 134q14 -2 23.5 1t13.5 14q5 37 9 74t4 71v38q-3 16 -4 23q1 7 1.5 12t5.5 7q25 0 25 -19q6 -26 15.5 -62t9.5 -64q3 -21 5 -35.5t16 -20.5q10 -1 15 -1q13 0 21 9q4 8 6 19t2 22q0 17 -2.5 32t-10 68.5t-19.5 138.5q2 7 3.5 23.5t1.5 33.5q0 35 -3.5 57t-15.5 71 q-9 9 -13 22.5t-4 27.5q0 12 3.5 37t3.5 33q-51 33 -105 33q-38 0 -67 -18l-9 -6q-2 -11 0.5 -31.5t2.5 -25.5q0 -16 -4.5 -26.5t-18.5 -18.5q-17 -38 -28.5 -100.5t-17.5 -95.5q-33 -53 -53 -90.5t-20 -76.5q0 -6 6.5 -10.5t9.5 -6.5q25 -3 35.5 21.5t20.5 47.5 q17 29 26.5 42.5t19.5 22.5q9 1 14 -12q-12 -45 -18.5 -106t-12.5 -118q7 -10 10.5 -14t11.5 -5q23 0 30 17q17 97 35 194q5 0 5.5 -4t0.5 -8q-5 -23 -5 -55q0 -18 2 -58.5t2 -42.5q0 -33 -5 -56q2 -18 20 -25zM217 147q-3 12 -3 24q0 13 1.5 23t3.5 22q19 -3 29 -3 q8 0 15 4q-3 2 -11.5 2h-15.5q-2 3 -6.5 4.5t-10.5 2.5q0 12 -1 22l-2 20q0 9 1 15h28q17 0 24 6v-4l-12 -132q-4 -13 -21 -13q-10 0 -19 7zM142 179q-9 2 -15 12q-1 5 -1 15q0 17 2.5 28.5t9.5 31.5q4 -6 23 -8t16 -15q-2 -5 -6.5 -34.5t-28.5 -29.5zM360 179 q-21 9 -22.5 34t-2.5 42q23 -4 39 8q-2 1 -5.5 1h-7.5q-8 -4 -15 -4q-16 0 -17.5 26.5t-5.5 32.5q13 2 27 3q13 3 21 13q2 -12 9.5 -51.5t7.5 -62.5q0 -13 -3.5 -27.5t-24.5 -14.5zM177 262q-10 -4 -22 4.5t-17 8.5q0 13 1 26.5t4 26.5q10 -4 19.5 -6.5t23.5 -2.5zM217 294 q-1 5 -1 17q0 10 2 35.5t2 27.5h7v-5l3 -4h5.5t1.5 2l-4 2l33 5q3 -3 -0.5 -5t-3.5 -4q3 -12 4.5 -32t2.5 -38q-9 -1 -26 -1h-26zM40 298q-5 2 -8.5 3.5t-5.5 5.5q-2 9 -0.5 17.5t9.5 34.5q5 12 12 12q4 0 14 -9t17 -9q-8 -26 -14.5 -39t-23.5 -16zM143 340q0 38 15 65 l14 -18q10 -6 17 -6t10 6q0 -17 -4 -34.5t-6 -27.5q-23 8 -46 15zM321 328l-12 44q13 -3 23.5 1.5t18.5 14.5h-4l11 9l11 -53q-19 -16 -48 -16zM81 359q-8 0 -17.5 7.5t-14.5 11.5q1 9 5.5 17.5t10.5 15.5l30 -22zM303 379q-9 3 -20 3q-6 0 -20.5 -1t-22.5 -1q-23 0 -34 15 q12 14 22 18t42 14l31 30h53l4 -52l-5 -6q-6 -8 -15 -12t-35 -8zM189 388q-7 3 -7 12q0 3 2 9q5 3 12 6.5t11 2.5q5 -10 -5 -19t-13 -11zM175 393l-6 6q-3 37 19 62q12 11 20 17.5t15 6.5q4 0 11 -5q-3 7 -4 10q25 25 59 30q-4 7 -18 5v4q7 9 14 10q-10 4 -21 -11t-21 -15 q-6 8 -12 32.5t-7.5 28.5t-1.5 12q0 19 10 40.5t13 29.5q9 5 20 7t23 2q22 0 42 -6q10 -22 16.5 -50t10.5 -61q-4 -2 -6 -11.5t-6 -11.5q-3 12 -8 10q3 -8 5 -13.5t0 -10.5q-8 -12 -34 -35t-37 -35l-16 18q-8 -3 -0.5 -12.5t7.5 -13.5h-5q-8 4 -12 17q-2 1 -6 -3l12 -16 q-13 -10 -30 -13q-7 10 -21 8q-18 -11 -23 -18t-2 -15zM101 397q-19 8 -31 23l25 41q8 -2 14.5 -9.5t15.5 -19.5q-5 -12 -10 -20.5t-14 -14.5zM158 417q-6 11 -26 25.5t-24 18.5q-5 8 -5 22q0 9 3 20.5t7 21.5q36 -30 90 -38q0 -4 -6 -7.5t-8 -6.5q-11 -8 -18 -28.5 t-13 -27.5zM267 439l-7 8zM353 463h-17q-18 0 -25 3q5 7 25.5 23.5t20.5 35.5zM223 496q-24 -3 -44 4.5t-64 28.5q0 43 10.5 80.5t33.5 71.5q13 10 30 10q13 0 22 -2.5t23 -9.5l5 6q-6 23 -6 51q0 15 3 27l5 -47v26q0 14 -1 22.5t-6 16.5q-2 -2 -4 -2v5q4 10 15 4 q1 -14 3.5 -34.5t2.5 -24.5q0 -19 -6 -36l-2 8l-2 -2q-1 -9 -1 -14q0 -6 5 -9l4 5q2 5 3.5 15t1.5 21q0 8 -1 26.5t-1 27.5q0 12 1 18q16 2 29.5 -5t22.5 -13q2 -5 3 -13t3 -13q7 -1 8 -2l-9 -2q-2 -10 -2 -26q1 -21 1 -34q-5 0 -17.5 2t-13.5 2q-11 0 -15 -8 q-16 1 -25.5 -12.5t-14.5 -22.5v27q-12 -50 -12 -100q-4 4 -8.5 16.5t-11.5 15.5q18 -41 36 -83q-9 8 -14.5 13.5t-7.5 12.5q-5 9 -14 19.5t-16 13.5q0 -3 10 -13q17 -38 49 -61q-3 1 -5.5 -3t-5.5 -4zM152 505q5 0 11.5 -2.5t9.5 -3.5q-11 3 -21 6zM326 676q-6 5 -6 17 q0 7 1 13.5t2 12.5zM230 688l-5 1l4 4q-3 11 -3 20t1.5 22.5t1.5 14.5zM182 702l-9 -1zM172 711q1 8 0 24t-1 23q0 10 1 15q18 6 28 8.5t23 2.5v-43q0 -20 -3 -40q-9 2 -23.5 6t-24.5 4zM168 720l1 -7zM168 740l1 -11zM173 578l-4 7zM241 705l2 10z"/>
</svg>