<?xml version="1.0" encoding="utf-8"?>
<!-- Generator: Adobe Illustrator 26.4.1, SVG Export Plug-In . SVG Version: 6.00 Build 0)  -->
<svg version="1.1" id="Layer_1" xmlns="http://www.w3.org/2000/svg" xmlns:xlink="http://www.w3.org/1999/xlink" x="0px" y="0px"
	 viewBox="0 0 665.8 665.8" style="enable-background:new 0 0 665.8 665.8;" xml:space="preserve">
<path d="M352.9,0.8c9.3-1.3,17.2-1,23.5,1c6.3,2,10.8,6.7,13.5,14c3.3,24.7,6.3,49.3,9,74s4,48.3,4,71v38c-2,10.7-3.3,18.3-4,23
	c0.7,4.7,1.2,8.7,1.5,12s2.2,5.7,5.5,7c16.7,0,25-6.3,25-19c4-17.3,9.2-38,15.5-62s9.5-45.3,9.5-64c2-14,3.7-25.8,5-35.5
	s6.7-16.5,16-20.5c6.7-0.7,11.7-1,15-1c8.7,0,15.7,3,21,9c2.7,5.3,4.7,11.7,6,19c1.3,7.3,2,14.7,2,22c0,11.3-0.8,22-2.5,32
	c-1.7,10-5,32.8-10,68.5c-5,35.7-11.5,81.8-19.5,138.5c1.3,4.7,2.5,12.5,3.5,23.5s1.5,22.2,1.5,33.5c0,23.3-1.2,42.3-3.5,57
	s-7.5,38.3-15.5,71c-6,6-10.3,13.5-13,22.5s-4,18.2-4,27.5c0,8,1.2,20.3,3.5,37s3.5,27.7,3.5,33c-34,22-69,33-105,33
	c-25.3,0-47.7-6-67-18l-9-6c-1.3-7.3-1.2-17.8,0.5-31.5c1.7-13.7,2.5-22.2,2.5-25.5c0-10.7-1.5-19.5-4.5-26.5s-9.2-13.2-18.5-18.5
	c-11.3-25.3-20.8-58.8-28.5-100.5c-7.7-41.7-13.5-73.5-17.5-95.5c-22-35.3-39.7-65.5-53-90.5c-13.3-25-20-50.5-20-76.5
	c0-4,2.2-7.5,6.5-10.5c4.3-3,7.5-5.2,9.5-6.5c16.7-2,28.5,5.2,35.5,21.5s13.8,32.2,20.5,47.5c11.3,19.3,20.2,33.5,26.5,42.5
	c6.3,9,12.8,16.5,19.5,22.5c6,0.7,10.7-3.3,14-12c-8-30-14.2-65.3-18.5-106c-4.3-40.7-8.5-80-12.5-118c4.7-6.7,8.2-11.3,10.5-14
	c2.3-2.7,6.2-4.3,11.5-5c15.3,0,25.3,5.7,30,17c11.3,64.7,23,129.3,35,194c3.3,0,5.2-1.3,5.5-4c0.3-2.7,0.5-5.3,0.5-8
	c-3.3-15.3-5-33.7-5-55c0-12,0.7-31.5,2-58.5c1.3-27,2-41.2,2-42.5c0-22-1.7-40.7-5-56C334.2,13.8,340.9,5.5,352.9,0.8z M342.9,13.8
	c-2,8-3,16-3,24c0,8.7,0.5,16.3,1.5,23s2.2,14,3.5,22c12.7-2,22.3-3,29-3c5.3,0,10.3,1.3,15,4c-2,1.3-5.8,2-11.5,2h-15.5
	c-1.3,2-3.5,3.5-6.5,4.5s-6.5,1.8-10.5,2.5c0,8-0.3,15.3-1,22l-2,20c0,6,0.3,11,1,15h28c11.3,0,19.3,2,24,6v-4l-12-132
	c-2.7-8.7-9.7-13-21-13C355.2,6.8,348.9,9.1,342.9,13.8z M267.9,45.8c-6,1.3-11,5.3-15,12c-0.7,3.3-1,8.3-1,15
	c0,11.3,0.8,20.8,2.5,28.5c1.7,7.7,4.8,18.2,9.5,31.5c2.7-4,10.3-6.7,23-8c12.7-1.3,18-6.3,16-15c-1.3-3.3-3.5-14.8-6.5-34.5
	S283.9,45.8,267.9,45.8z M485.9,45.8c-14,6-21.5,17.3-22.5,34s-1.8,30.7-2.5,42c15.3-2.7,28.3,0,39,8c-1.3,0.7-3.2,1-5.5,1h-7.5
	c-5.3-2.7-10.3-4-15-4c-10.7,0-16.5,8.8-17.5,26.5s-2.8,28.5-5.5,32.5c8.7,1.3,17.7,2.3,27,3c8.7,2,15.7,6.3,21,13
	c1.3-8,4.5-25.2,9.5-51.5s7.5-47.2,7.5-62.5c0-8.7-1.2-17.8-3.5-27.5S499.9,45.8,485.9,45.8z M302.9,128.8c-6.7-2.7-14-1.2-22,4.5
	s-13.7,8.5-17,8.5c0,8.7,0.3,17.5,1,26.5c0.7,9,2,17.8,4,26.5c6.7-2.7,13.2-4.8,19.5-6.5c6.3-1.7,14.2-2.5,23.5-2.5L302.9,128.8z
	 M342.9,160.8c-0.7,3.3-1,9-1,17c0,6.7,0.7,18.5,2,35.5c1.3,17,2,26.2,2,27.5h7v-5l3-4h5.5c0,0,0.5,0.7,1.5,2l-4,2l33,5
	c2-2,1.8-3.7-0.5-5s-3.5-2.7-3.5-4c2-8,3.5-18.7,4.5-32s1.8-26,2.5-38c-6-0.7-14.7-1-26-1H342.9z M165.9,164.8
	c-3.3,1.3-6.2,2.5-8.5,3.5c-2.3,1-4.2,2.8-5.5,5.5c-1.3,6-1.5,11.8-0.5,17.5s4.2,17.2,9.5,34.5c3.3,8,7.3,12,12,12c2.7,0,7.3-3,14-9
	c6.7-6,12.3-9,17-9c-5.3-17.3-10.2-30.3-14.5-39C185.1,172.1,177.2,166.8,165.9,164.8z M268.9,206.8c0,25.3,5,47,15,65l14-18
	c6.7-4,12.3-6,17-6c4.7,0,8,2,10,6c0-11.3-1.3-22.8-4-34.5c-2.7-11.7-4.7-20.8-6-27.5C299.6,197.1,284.2,202.1,268.9,206.8z
	 M446.9,194.8l-12,44c8.7-2,16.5-1.5,23.5,1.5s13.2,7.8,18.5,14.5h-4l11,9l11-53C482.2,200.1,466.2,194.8,446.9,194.8z M206.9,225.8
	c-5.3,0-11.2,2.5-17.5,7.5c-6.3,5-11.2,8.8-14.5,11.5c0.7,6,2.5,11.8,5.5,17.5s6.5,10.8,10.5,15.5l30-22L206.9,225.8z M428.9,245.8
	c-6,2-12.7,3-20,3c-4,0-10.8-0.3-20.5-1s-17.2-1-22.5-1c-15.3,0-26.7,5-34,15c8,9.3,15.3,15.3,22,18c6.7,2.7,20.7,7.3,42,14l31,30
	h53l4-52l-5-6c-4-5.3-9-9.3-15-12S446.2,248.5,428.9,245.8z M314.9,254.8c-4.7,2-7,6-7,12c0,2,0.7,5,2,9c3.3,2,7.3,4.2,12,6.5
	c4.7,2.3,8.3,3.2,11,2.5c3.3-6.7,1.7-13-5-19C321.2,259.8,316.9,256.1,314.9,254.8z M300.9,259.8l-6,6c-2,24.7,4.3,45.3,19,62
	c8,7.3,14.7,13.2,20,17.5c5.3,4.3,10.3,6.5,15,6.5c2.7,0,6.3-1.7,11-5c-2,4.7-3.3,8-4,10c16.7,16.7,36.3,26.7,59,30
	c-2.7,4.7-8.7,6.3-18,5v4c4.7,6,9.3,9.3,14,10c-6.7,2.7-13.7-1-21-11s-14.3-15-21-15c-4,5.3-8,16.2-12,32.5s-6.5,25.8-7.5,28.5
	s-1.5,6.7-1.5,12c0,12.7,3.3,26.2,10,40.5c6.7,14.3,11,24.2,13,29.5c6,3.3,12.7,5.7,20,7s15,2,23,2c14.7,0,28.7-2,42-6
	c6.7-14.7,12.2-31.3,16.5-50s7.8-39,10.5-61c-2.7-1.3-4.7-5.2-6-11.5s-3.3-10.2-6-11.5c-2,8-4.7,11.3-8,10c2-5.3,3.7-9.8,5-13.5
	s1.3-7.2,0-10.5c-5.3-8-16.7-19.7-34-35s-29.7-27-37-35l-16,18c-5.3-2-5.5-6.2-0.5-12.5s7.5-10.8,7.5-13.5h-5
	c-5.3,2.7-9.3,8.3-12,17c-1.3,0.7-3.3-0.3-6-3l12-16c-8.7-6.7-18.7-11-30-13c-4.7,6.7-11.7,9.3-21,8c-12-7.3-19.7-13.3-23-18
	C299.6,270.1,298.9,265.1,300.9,259.8z M226.9,263.8c-12.7,5.3-23,13-31,23l25,41c5.3-1.3,10.2-4.5,14.5-9.5
	c4.3-5,9.5-11.5,15.5-19.5c-3.3-8-6.7-14.8-10-20.5C237.6,272.6,232.9,267.8,226.9,263.8z M283.9,283.8c-4,7.3-12.7,15.8-26,25.5
	c-13.3,9.7-21.3,15.8-24,18.5c-3.3,5.3-5,12.7-5,22c0,6,1,12.8,3,20.5s4.3,14.8,7,21.5c24-20,54-32.7,90-38c0-2.7-2-5.2-6-7.5
	s-6.7-4.5-8-6.5c-7.3-5.3-13.3-14.8-18-28.5C292.2,297.6,287.9,288.5,283.9,283.8z M392.9,305.8l-7,8L392.9,305.8z M478.9,329.8h-17
	c-12,0-20.3,1-25,3c3.3,4.7,11.8,12.5,25.5,23.5s20.5,22.8,20.5,35.5L478.9,329.8z M348.9,362.8c-16-2-30.7-0.5-44,4.5
	c-13.3,5-34.7,14.5-64,28.5c0,28.7,3.5,55.5,10.5,80.5s18.2,48.8,33.5,71.5c8.7,6.7,18.7,10,30,10c8.7,0,16-0.8,22-2.5
	s13.7-4.8,23-9.5l5,6c-4,15.3-6,32.3-6,51c0,10,1,19,3,27l5-47v26c0,9.3-0.3,16.8-1,22.5c-0.7,5.7-2.7,11.2-6,16.5
	c-1.3-1.3-2.7-2-4-2v5c2.7,6.7,7.7,8,15,4c0.7-9.3,1.8-20.8,3.5-34.5c1.7-13.7,2.5-21.8,2.5-24.5c0-12.7-2-24.7-6-36l-2,8l-2-2
	c-0.7-6-1-10.7-1-14c0-4,1.7-7,5-9l4,5c1.3,3.3,2.5,8.3,3.5,15s1.5,13.7,1.5,21c0,5.3-0.3,14.2-1,26.5c-0.7,12.3-1,21.5-1,27.5
	c0,8,0.3,14,1,18c10.7,1.3,20.5-0.3,29.5-5s16.5-9,22.5-13c1.3-3.3,2.3-7.7,3-13s1.7-9.7,3-13c4.7-0.7,7.3-1.3,8-2l-9-2
	c-1.3-6.7-2-15.3-2-26c0.7-14,1-25.3,1-34c-3.3,0-9.2,0.7-17.5,2s-12.8,2-13.5,2c-7.3,0-12.3-2.7-15-8c-10.7,0.7-19.2-3.5-25.5-12.5
	c-6.3-9-11.2-16.5-14.5-22.5v27c-8-33.3-12-66.7-12-100c-2.7,2.7-5.5,8.2-8.5,16.5s-6.8,13.5-11.5,15.5c12-27.3,24-55,36-83
	c-6,5.3-10.8,9.8-14.5,13.5c-3.7,3.7-6.2,7.8-7.5,12.5c-3.3,6-8,12.5-14,19.5s-11.3,11.5-16,13.5c0-2,3.3-6.3,10-13
	c11.3-25.3,27.7-45.7,49-61c-2,0.7-3.8-0.3-5.5-3C352.7,364.1,350.9,362.8,348.9,362.8z M277.9,371.8c3.3,0,7.2-0.8,11.5-2.5
	c4.3-1.7,7.5-2.8,9.5-3.5C291.6,367.8,284.6,369.8,277.9,371.8z M451.9,542.8c-4,3.3-6,9-6,17c0,4.7,0.3,9.2,1,13.5s1.3,8.5,2,12.5
	L451.9,542.8z M355.9,554.8l-5,1l4,4c-2,7.3-3,14-3,20s0.5,13.5,1.5,22.5s1.5,13.8,1.5,14.5L355.9,554.8z M307.9,568.8l-9-1
	L307.9,568.8z M297.9,577.8c0.7,5.3,0.7,13.3,0,24c-0.7,10.7-1,18.3-1,23c0,6.7,0.3,11.7,1,15c12,4,21.3,6.8,28,8.5
	c6.7,1.7,14.3,2.5,23,2.5v-43c0-13.3-1-26.7-3-40c-6,1.3-13.8,3.3-23.5,6C312.7,576.5,304.6,577.8,297.9,577.8z M293.9,586.8l1-7
	L293.9,586.8z M293.9,606.8l1-11L293.9,606.8z M298.9,444.8l-4,7L298.9,444.8z M366.9,571.8l2,10L366.9,571.8z"/>
</svg>
