<?xml version="1.0" encoding="utf-8"?>
<!-- Generator: Adobe Illustrator 26.4.1, SVG Export Plug-In . SVG Version: 6.00 Build 0)  -->
<svg version="1.1" id="Layer_1" xmlns="http://www.w3.org/2000/svg" xmlns:xlink="http://www.w3.org/1999/xlink" x="0px" y="0px"
	 viewBox="0 0 667 667" style="enable-background:new 0 0 667 667;" xml:space="preserve">
<path d="M286.3,12c6-8,14.7-12,26-12c14,0,22.3,6.3,25,19c6,64.7,9.8,108.3,11.5,131s2.5,53,2.5,91c5.3,7.3,11,9,17,5
	c12.7-28,22.2-57.7,28.5-89s9.5-64.3,9.5-99c2-5.3,4.3-9.8,7-13.5s6.3-5.2,11-4.5c8.7,0,15.7,0.8,21,2.5s9,6.2,11,13.5
	c4.7,9.3,7,19.3,7,30c0,6-1.3,17.2-4,33.5s-3.3,28.8-2,37.5c0,17.3-3.3,46.2-10,86.5s-10,67.8-10,82.5s0.5,25.3,1.5,32
	s3,14.5,6,23.5s7.2,13.5,12.5,13.5s10-3,14-9c4.7-3.3,19.7-17.2,45-41.5c25.3-24.3,46.7-36.5,64-36.5c10,0,18.5,1.7,25.5,5
	s11,8.7,12,16s1.5,12.3,1.5,15c0,7.3-4.7,12.3-14,15s-16.5,6.5-21.5,11.5s-9.5,10.2-13.5,15.5s-7.3,12.7-10,22
	c-8,5.3-26,26.5-54,63.5c-28,37-49.2,58.5-63.5,64.5s-23.2,12.7-26.5,20s-5,17-5,29v37c2,4,3,7.7,3,11c0,8.7-8.5,15.3-25.5,20
	s-27.2,8.3-30.5,11c-10,2-20,3-30,3c-21.3,0-39.7-2.7-55-8c-15.3-5.3-31-11.7-47-19c-0.7-3.3-1-8.3-1-15c0-6,0.7-16.5,2-31.5
	s2-22.8,2-23.5c0-5.3-0.3-9.3-1-12c-18-22-32.5-58.5-43.5-109.5s-23.2-86.8-36.5-107.5c-30.7-32-52.8-55.8-66.5-71.5
	S56.9,236.3,48.3,217c-1.3-6-0.2-11.3,3.5-16c3.7-4.7,8.5-9,14.5-13c10-0.7,18,1.5,24,6.5s14,13.8,24,26.5l73,75
	c4.7,1.3,8.5,1.3,11.5,0s8.8-5.7,17.5-13c2-5.3,3-10.3,3-15c0-5.3-3.2-17.7-9.5-37s-9.5-33.7-9.5-43c0-11.3-2.8-30-8.5-56
	s-8.5-43.3-8.5-52c0-12,2.3-23,7-33c8-4,15.3-6,22-6c5.3,0,9.3,1.3,12,4c8,21.3,15.3,46.7,22,76s13,59,19,89c0,8.7,1,16.3,3,23
	s5,14.3,9,23c4,0.7,7.7-2.7,11-10c-1.3-20-2.7-39.5-4-58.5s-2-36.5-2-52.5c0-20,1-39.7,3-59c-3.3-10-5-21-5-33
	C280.3,31.7,282.3,21.3,286.3,12z M296.3,248l10,2l-6,2c-7.3,6.7-21.8,13-43.5,19s-37.2,13.7-46.5,23c-8,1.3-13.8,4-17.5,8
	s-12.8,18-27.5,42l17,51c3.3,1.3,7.5-0.5,12.5-5.5s8.5-7.8,10.5-8.5l-23,25c6,31.3,12.8,58.5,20.5,81.5s18.8,45.2,33.5,66.5
	c4,4,8.8,6.7,14.5,8c5.7,1.3,11.8,2,18.5,2c9.3,0,19.7-1.3,31-4s19.7-4.7,25-6l1,4l8-4c3.3,7.3,5,17,5,29c0,8.7-0.3,17.7-1,27
	s-1.3,18.3-2,27c0,8,0.3,13.7,1,17h7c-2-12-3-23.3-3-34c0-10,0.5-23,1.5-39s1.5-24.3,1.5-25c2,12,3,23.3,3,34v24c0,14.7,1.7,28,5,40
	c4.7,0,8.7-0.7,12-2s6.7-3,10-5c0.7-6.7,1.7-13.3,3-20l1,3h4c0.7,4,1.7,8,3,12c2-9.3,4-21.8,6-37.5s3-28.8,3-39.5c-2.7,0.7-4,3-4,7
	c0,5.3-1,8.7-3,10l-2-12l-5,16c-0.7-7.3-1.3-12.7-2-16c-10.7,1.3-19.3-1.3-26-8l4-4c-12.7-13.3-21.8-24-27.5-32s-8.5-18-8.5-30
	c3.3-22.7,8.8-41.8,16.5-57.5s20.2-30.2,37.5-43.5c0.7,0,2.5-0.5,5.5-1.5s4.8-0.5,5.5,1.5c-17.3,9.3-31,23.3-41,42s-16,39-18,61
	c2,10,6,19.5,12,28.5s12.3,14.3,19,16s13.7,2.5,21,2.5c25.3,0,48.8-8.7,70.5-26s39.5-38.3,53.5-63c8.7-9.3,16.2-17.7,22.5-25
	c6.3-7.3,9.5-13.3,9.5-18l8-1l-7-8c12,3.3,22.8-2.8,32.5-18.5c9.7-15.7,15.5-24.5,17.5-26.5s7.8-4.8,17.5-8.5s14.5-8.2,14.5-13.5
	c0-2-1-5-3-9c-5.3-6-13.3-9.7-24-11c-12.7-2-25.2-0.2-37.5,5.5s-26.5,18.2-42.5,37.5c0,16.7,3.3,31,10,43c-4.7-2-8-4.3-10-7
	c-2-2.7-5.7-10.7-11-24c-6.7,3.3-13.7,8.8-21,16.5s-12,12.8-14,15.5c0,6.7,1.8,15.2,5.5,25.5s5.5,17.2,5.5,20.5
	c-6-13.3-10.7-23.8-14-31.5s-6.3-13.2-9-16.5l-8,2c2.7,10,5.5,20.2,8.5,30.5s4.5,20.5,4.5,30.5c-3.3-11.3-7-23.2-11-35.5
	s-9.3-22.8-16-31.5c-6,0-11.3-3.8-16-11.5c-4.7-7.7-8.7-12.5-12-14.5c1.3,0.7,6.5,3.8,15.5,9.5c9,5.7,15.5,8.2,19.5,7.5l-31-34v-4
	c3.3,1.3,8,5.5,14,12.5s11,11.2,15,12.5c-1.3-14-3.7-22.7-7-26l2-79c-9.3-2.7-18.2-5.7-26.5-9s-18.2-7.3-29.5-12c-6,2-11.3,3-16,3
	c-3.3,0-10.2-1-20.5-3s-18.2-2.7-23.5-2l24-6c-5.3-1.3-9.3-2-12-2C319.6,240,309.6,242.7,296.3,248z M424.3,45
	c-6,3.3-10.2,7.8-12.5,13.5S408.3,71,408.3,79c0.7,10.7,1,18.7,1,24c0,6.7-1,13-3,19c2.7,0.7,9.7,1.3,21,2s19.3,2,24,4
	c1.3-13.3,2.7-27,4-41c0-9.3-1-16.8-3-22.5s-5.7-10.5-11-14.5S430.3,44.3,424.3,45z M201.3,48c-8.7,8-13,18.7-13,32
	c0,8.7,1.3,18.2,4,28.5s5.3,20.2,8,29.5c12-4.7,24.3-9.3,37-14l-7-50c-4-14-7-22.3-9-25s-5.3-4-10-4C208.6,45,205.3,46,201.3,48z
	 M406.3,131c-2.7,4.7-4.5,9.7-5.5,15s-2.5,18.7-4.5,40l48,7c4.7-17.3,7-35.7,7-55c-5.3-7.3-14.7-11-28-11
	C416.6,127,410.9,128.3,406.3,131z M202.3,152c0,21.3,3.3,40,10,56l42-15c0-8-2.3-19-7-33s-7.3-23-8-27
	C225.3,135,212.9,141.3,202.3,152z M289.3,162l5,81l46-9l1-72c-6-2-12-3-18-3c-5.3,0-11,0.3-17,1S294.6,161.3,289.3,162z M402.3,191
	l21,6c-3.3,0.7-8.3,1-15,1c-5.3,0-9.3-0.3-12-1c-4,5.3-7,12.2-9,20.5s-3.7,16.5-5,24.5c16.7,5.3,33.3,10.3,50,15l12-57l-20-3l8-3
	c-2.7-2-7.7-3-15-3H402.3z M67.3,195c-8,3.3-12,9.7-12,19c2.7,10,7,19.2,13,27.5s14.3,16.8,25,25.5l27-31c-6-10-13.8-19-23.5-27
	S77.3,196.3,67.3,195z M253.3,200c-4.7,0.7-8.7,1.2-12,1.5s-7,1.5-11,3.5c5.3,0,8.3,0.3,9,1c-2,1.3-6.3,3-13,5s-11,4.7-13,8
	c4.7,11.3,8.2,21.2,10.5,29.5s3.5,16.8,3.5,25.5c1.3-0.7,5.7-2.5,13-5.5s12.7-4.5,16-4.5c-3.3,1.3-5.7,2.7-7,4c8.7-2,13-3.3,13-4
	c-4.7,0-7.3-0.7-8-2l10-4l-8-53h-18L253.3,200z M301.3,7c-5.3,4-9.3,9-12,15s-4,12.3-4,19c0,6,0.8,13.2,2.5,21.5s3.5,16.2,5.5,23.5
	c8.7-1.3,17.7-2.7,27-4c4.7,0,9,1,13,3c-1.3,0.7-7.8,1.3-19.5,2s-19.5,3.7-23.5,9l-4,56c14.7-0.7,26.3-1,35-1c7.3,0,14,1,20,3
	c0-14.7-1.8-38-5.5-70s-5.5-53.7-5.5-65c0-9.3-6.7-14-20-14C308.3,5,305.3,5.7,301.3,7z M121.3,243c-6,4.7-11.3,9.5-16,14.5
	s-7,10.5-7,16.5c4,6.7,7.7,11.8,11,15.5s7.3,7.2,12,10.5c3.3-7.3,7.5-13.8,12.5-19.5s10.8-10.2,17.5-13.5c-4.7-4.7-9.3-9.5-14-14.5
	C132.6,247.5,127.3,244.3,121.3,243z M410.3,257l-18-7L410.3,257z M158.3,272c-7.3,2-12.8,5.3-16.5,10c-3.7,4.7-8.5,13-14.5,25
	c10,11.3,20.3,22.3,31,33l26-38L158.3,272z M326.3,568l1-4L326.3,568z M239.3,568l-2,68l5,5c1.3-8,2.3-19.8,3-35.5s1-27.5,1-35.5
	L239.3,568z M290.3,575c13.3,0,22.7-2.3,28-7L290.3,575z M332.3,572l-2,3c-4-2.7-6.8-1.7-8.5,3s-2.8,7-3.5,7v-7
	c-4.7,1.3-12.2,3-22.5,5s-18.2,3-23.5,3c-8.7,0-15.7-1.3-21-4v62c8.7,4,16.7,6.8,24,8.5c7.3,1.7,15.3,2.5,24,2.5c6,0,10.3-0.3,13-1
	l2-18c2,0.7,3.2,3.7,3.5,9s1.2,8.3,2.5,9c3.3-2.7,5-9.2,5-19.5s3-15.8,9-16.5v-25C334.3,583.7,333.6,576.7,332.3,572z M399.3,590
	l-5,46L399.3,590z M330.3,654v-29l-4,29H330.3z M392.3,345l-11,14L392.3,345z M361.3,352l-8,7L361.3,352z M208.3,380
	c3.3-4,13.7-8.3,31-13s28.3-8.7,33-12c-6.7,5.3-17.7,9.8-33,13.5S213.6,376,208.3,380z M385.3,585l-1,43L385.3,585z M347.3,359
	c-18,7.3-35.2,18.5-51.5,33.5s-27.2,30.8-32.5,47.5c2-12,9.3-25,22-39S318.6,373,347.3,359z M378.3,596l2,5L378.3,596z M316.3,613
	l2,10L316.3,613z M378.3,613l2,7L378.3,613z M308.3,248h6H308.3z M315.3,628v5V628z"/>
</svg>
