<?xml version="1.0" encoding="utf-8"?>
<!-- Generator: Adobe Illustrator 26.4.1, SVG Export Plug-In . SVG Version: 6.00 Build 0)  -->
<svg version="1.1" id="Layer_1" xmlns="http://www.w3.org/2000/svg" xmlns:xlink="http://www.w3.org/1999/xlink" x="0px" y="0px"
	 viewBox="0 0 667 667" style="enable-background:new 0 0 667 667;" xml:space="preserve">
<path d="M290,8c6.7-5.3,14-8,22-8c13.3,0,21.7,5.3,25,16c6,12,10.7,34,14,66s7.7,53.3,13,64c0,16,0.2,31.8,0.5,47.5
	s2.5,30.8,6.5,45.5c5.3,3.3,10,3,14-1s6.7-8.7,8-14l7-57c3.3-8,5.5-16.3,6.5-25s1.5-19.7,1.5-33c0-11.3,0.2-22.8,0.5-34.5
	s1.8-22.2,4.5-31.5c5.3-9.3,13.7-14,25-14c6,0,11.5,2.2,16.5,6.5S463.3,45,466,51c7.3,24.7,11,50.7,11,78c0,20.7-3.3,53.7-10,99
	s-10,76-10,92c0,14.7,0.3,25.7,1,33s3,18.3,7,33c-5.3,11.3-8,24.3-8,39c0,8.7,0.8,20.7,2.5,36s2.5,25,2.5,29
	c0,10.7-1.5,20.5-4.5,29.5S449.3,537,442,545c-2.7,10.7-4,24.7-4,42c0,18,1.3,33.3,4,46c-4.7,6-11,10.8-19,14.5s-20.3,7.8-37,12.5
	s-28.7,7-36,7c-12.7,0-26.5-2.8-41.5-8.5S279.3,647.3,266,642v-12c0-7.3,0.3-14.8,1-22.5s1.3-15.5,2-23.5c0-9.3-1.5-18.2-4.5-26.5
	s-8.2-15.8-15.5-22.5c-18-46-31.5-87.5-40.5-124.5S195,334,195,292c0-18,8-30,24-36c4,0,7.3-2,10-6c-14-44-24-78.3-30-103
	s-9-50.3-9-77c2.7-5.3,5.3-9.8,8-13.5s7.3-5.5,14-5.5c7.3,0,14.2,4.5,20.5,13.5S243.3,80,246,84c2.7,16.7,9.5,40.2,20.5,70.5
	s17.8,52.8,20.5,67.5c2.7,7.3,4.7,13.3,6,18s3.7,9.3,7,14l5-6c-6.7-68-11.8-119.8-15.5-155.5S284,35.7,284,29C284,21,286,14,290,8z
	 M293,16c-0.7,4-1,10-1,18s0.7,16.5,2,25.5s3.7,19.8,7,32.5l42-3l-6-56c0.7-7.3-1.5-13.7-6.5-19S319.3,6,312,6
	C304,6,297.7,9.3,293,16z M431,36c-9.3,6-14.5,16.3-15.5,31s-1.8,28.7-2.5,42l50,4c0.7-3.3,1-7.7,1-13c0-6-0.5-13.5-1.5-22.5
	S461,63.7,461,63c-3.3-6-6.3-12.3-9-19C446.7,36.7,439.7,34,431,36z M199,67c-2,6-3,12-3,18c0,8,2.3,20.7,7,38s7.3,27.3,8,30l39-21
	c-2-17.3-6.7-35-14-53c0-5.3-2.3-10.3-7-15s-9.7-7-15-7C208,57,203,60.3,199,67z M345,96c-5.3-2-11.5-1.7-18.5,1s-14.8,5.3-23.5,8
	c-1.3,10.7-2,18.7-2,24c0,10.7,1,21,3,31l50-12L345,96z M463,119c-5.3-2-11-3-17-3c-4.7,0-9.5,0.3-14.5,1s-9.8,1.3-14.5,2
	c-4.7,20-7,38-7,54l53,9V119z M249,140c-14.7,4-26.7,11.7-36,23c2,10,4,18,6,24s5.3,15,10,27l39-21c-3.3-11.3-6.3-23-9-35
	C256.3,150,253,144,249,140z M305,172c-0.7,2.7-1,6.7-1,12c0,8,1,16.8,3,26.5s4.7,20.5,8,32.5l46-7c-2-7.3-3.3-19.2-4-35.5
	s-1.7-29.8-3-40.5c-0.7,0-7.5,1-20.5,3S311,168,305,172z M407,186c-2,10.7-3.7,20-5,28s-3.3,14.7-6,20c5.3,2.7,14.3,5.8,27,9.5
	c12.7,3.7,21.3,7.8,26,12.5l10-64c-10-4.7-21.7-7-35-7C416,185,410.3,185.3,407,186z M231,222c2,21.3,11.3,36,28,44
	c3.3-2.7,8-5,14-7l15-5c-0.7-8-3.3-17.8-8-29.5s-7-17.8-7-18.5c-4.7,1.3-11.5,4-20.5,8S236.3,220.7,231,222z M393,243
	c-8,2.7-18.3,4-31,4h-18c-13.3,0-23.7,1.7-31,5c-2,6.7-8.8,11.8-20.5,15.5c-11.7,3.7-19.2,7.2-22.5,10.5l7,14
	c8.7,0,19.2,2.8,31.5,8.5c12.3,5.7,19.8,8.8,22.5,9.5c9.3-4,17.2-7.2,23.5-9.5s11.8-3.5,16.5-3.5l-34,18l36,24
	c22-16.7,44.7-25,68-25l-22,25l6,1l-18,23c10,7.3,20.3,14.3,31,21c7.3,6,12.3,12.3,15,19c2-7.3,3-14.3,3-21c0-8.7-1.8-21.2-5.5-37.5
	S445,318.3,445,315c3.3-6.7,5-15.7,5-27c0-10.7-1.3-19-4-25L393,243z M219,264c-8.7,2.7-13.8,7.7-15.5,15s-2.5,17-2.5,29
	c12-2.7,22.2,2.2,30.5,14.5s12.8,18.8,13.5,19.5l4-25c0-4,3.2-8.5,9.5-13.5s9.5-8.8,9.5-11.5c0-3.3-1.7-6.3-5-9l-4,3l4,6l-32,12
	c0-6,3-10.5,9-13.5s12-5.8,18-8.5l-2-8c-4-3.3-8.3-6.5-13-9.5c-4.7-3-9-4.5-13-4.5C225.3,260,221.7,261.3,219,264z M281,262h2H281z
	 M280,305c-6.7,4.7-11.3,9.8-14,15.5s-5,13.2-7,22.5c8,6,18,9,30,9c-1.3-6,0.3-11.7,5-17s7.7-9,9-11C297.7,316,290,309.7,280,305z
	 M293,305c8,8,13.7,14.7,17,20s3.7,11.3,1,18c-2.7,11.3-9.3,17-20,17c-4,0-9-0.8-15-2.5s-11.7-3.5-17-5.5c5.3,6,12.5,12.5,21.5,19.5
	s15.2,11.8,18.5,14.5c11.3,3.3,26.2,10.5,44.5,21.5S375,425.3,383,428l-3,2l-29-7l26,33c-4.7-1.3-9.5-4.7-14.5-10S352,434.7,346,428
	c0,7.3,2.3,16,7,26s8,17.3,10,22c-6.7-6.7-12-14-16-22s-8-17.3-12-28l-11,21c-0.7,3.3-1,8.3-1,15c0,31.3,12,58,36,80
	c7.3,2.7,15.3,4,24,4c10.7,0,21.7-2.2,33-6.5s21.3-10.2,30-17.5c1.3-6.7,2.3-14.3,3-23s1-16.7,1-24c0-24-2.3-45.7-7-65
	c-2.7,7.3-4.7,13.5-6,18.5s-3.7,8.8-7,11.5c0-2.7,1.3-8,4-16c2.7-8,4-14,4-18c0-6-3.2-11.3-9.5-16c-6.3-4.7-25.7-18.5-58-41.5
	S312.3,311,293,305z M207,316c-2,6-3,12.3-3,19c0,10,1.7,19.5,5,28.5s8,19.8,14,32.5l46-22c-7.3,0.7-14.7-3.8-22-13.5
	c-7.3-9.7-11.7-15.2-13-16.5c-2.7,2.7-6.8,3.5-12.5,2.5s-9.2-1.2-10.5-0.5l18-14C221.7,322,214.3,316.7,207,316z M389,351
	c4.7-1.3,8.7-3.2,12-5.5s10.3-8.8,21-19.5c-9.3-4-17-1-23,9S389.7,350.3,389,351z M305,331c-4,1.3-6.7,3.8-8,7.5s-2,7.8-2,12.5l5-2
	C304,338.3,305.7,332.3,305,331z M385,340l-5,4c2-0.7,4.3-1.3,7-2L385,340z M289,389c-4.7-4.7-10-7-16-7c-5.3,0-12.2,1.8-20.5,5.5
	S235,395.3,225,400l-3,6c2.7,25.3,7.8,49.7,15.5,73c7.7,23.3,18.2,47.7,31.5,73c10.7,8.7,26,13,46,13c3.3,0,8-2,14-6s10.3-6,13-6
	c3.3,0,6.3,1.3,9,4l13,90c-4-8-6.8-20.2-8.5-36.5s-3.2-27.8-4.5-34.5h-4c-0.7,4-1,8.7-1,14v12v21.5c0,0,0.3,7.2,1,21.5l-4,3
	c-2.7-5.3-4-15-4-29v-20c0-4-0.7-10-2-18l-22,7c-5.3-1.3-10-2.3-14-3s-6.7-2.3-8-5l3-3c4,2,8,3,12,3c3.3,0,12-2.7,26-8
	c-13.3,2.7-28.7,4-46,4l-7,64c24.7,10,48.7,15,72,15c16,0,31.7-3,47-9l7-6c0-8,0.3-16,1-24l2-24c0-8.7-1-17.7-3-27
	c-10,1.3-17.7,2-23,2c-8.7,0-13.7-3.7-15-11c-13.3-2-24-10.3-32-25c-8-19.3-14-32.8-18-40.5s-6-14.8-6-21.5c0-8.7,3.2-19.8,9.5-33.5
	s9.8-22.2,10.5-25.5c-4-2.7-7.3-4.3-10-5c-5.3-0.7-9.7,3.8-13,13.5s-6.7,15.2-10,16.5l7-27l-50,62c4-10.7,11.5-23,22.5-37
	s19.2-24.7,24.5-32v-5L289,389z M422,560l-4,32c-1.3-2-2-5.7-2-11c0-9.3-1-15-3-17l-2,72c2-12.7,4.3-25.3,7-38c-0.7,8-1,14-1,18
	c0,7.3,1.7,13,5,17c0-6,0.5-15.2,1.5-27.5s1.5-18.8,1.5-19.5C425,576.7,424,568,422,560z M276,570c-3.3,6-5,13-5,21
	c0,2.7,0.3,7,1,13s1,10.7,1,14s-0.7,8.3-2,15l4,2c0-7.3,0.8-16.2,2.5-26.5s2.5-16.2,2.5-17.5C280,583,278.7,576,276,570z M368,368
	l-5,8l8-24L368,368z M392,290c10.7-4.7,19-7,25-7c2.7,0,5.3,0.7,8,2L392,290z M335,371c-2-3.3-1.3-7.5,2-12.5s7.3-9.8,12-14.5
	c-3.3,2.7-6.3,6.8-9,12.5S335.7,367,335,371z M357,344c-0.7,1.3-3.2,5.8-7.5,13.5s-5.8,13.8-4.5,18.5l19-25c-4,8-8.2,14.8-12.5,20.5
	S344,381.7,342,385c-2.7-6-1.8-12.7,2.5-20S353,350.7,357,344z M366,570l5,18L366,570z M369,591l7,34L369,591z"/>
</svg>
