<svg xmlns="http://www.w3.org/2000/svg" xmlns:xlink="http://www.w3.org/1999/xlink" version="1.1" viewBox="14 133 287 667">
   <path  d="M114 141q10 -8 22 -8q20 0 25 16q9 18 14 66t13 64q0 24 0.5 47.5t6.5 45.5q8 5 14 -1t8 -14l7 -57q5 -12 6.5 -25t1.5 -33q0 -17 0.5 -34.5t4.5 -31.5q8 -14 25 -14q9 0 16.5 6.5t11.5 15.5q11 37 11 78q0 31 -10 99t-10 92q0 22 1 33t7 33q-8 17 -8 39q0 13 2.5 36 t2.5 29q0 16 -4.5 29.5t-15.5 25.5q-4 16 -4 42q0 27 4 46q-7 9 -19 14.5t-37 12.5t-36 7q-19 0 -41.5 -8.5t-42.5 -16.5v-12q0 -11 1 -22.5t2 -23.5q0 -14 -4.5 -26.5t-15.5 -22.5q-27 -69 -40.5 -124.5t-13.5 -118.5q0 -27 24 -36q6 0 10 -6q-21 -66 -30 -103t-9 -77 q4 -8 8 -13.5t14 -5.5q11 0 20.5 13.5t13.5 19.5q4 25 20.5 70.5t20.5 67.5q4 11 6 18t7 14l5 -6q-10 -102 -15.5 -155.5t-5.5 -63.5q0 -12 6 -21zM117 149q-1 6 -1 18t2 25.5t7 32.5l42 -3l-6 -56q1 -11 -6.5 -19t-18.5 -8q-12 0 -19 10zM255 169q-14 9 -15.5 31t-2.5 42 l50 4q1 -5 1 -13q0 -9 -1.5 -22.5t-1.5 -14.5q-5 -9 -9 -19q-8 -11 -21 -8zM23 200q-3 9 -3 18q0 12 7 38t8 30l39 -21q-3 -26 -14 -53q0 -8 -7 -15t-15 -7q-9 0 -15 10zM169 229q-8 -3 -18.5 1t-23.5 8q-2 16 -2 24q0 16 3 31l50 -12zM287 252q-8 -3 -17 -3q-7 0 -14.5 1 t-14.5 2q-7 30 -7 54l53 9v-63zM73 273q-22 6 -36 23q3 15 6 24t10 27l39 -21q-5 -17 -9 -35q-4 -12 -10 -18zM129 305q-1 4 -1 12q0 12 3 26.5t8 32.5l46 -7q-3 -11 -4 -35.5t-3 -40.5q-1 0 -20.5 3t-28.5 9zM231 319q-3 16 -5 28t-6 20q8 4 27 9.5t26 12.5l10 -64 q-15 -7 -35 -7q-12 0 -17 1zM55 355q3 32 28 44q5 -4 14 -7l15 -5q-1 -12 -8 -29.5t-7 -18.5q-7 2 -20.5 8t-21.5 8zM217 376q-12 4 -31 4h-18q-20 0 -31 5q-3 10 -20.5 15.5t-22.5 10.5l7 14q13 0 31.5 8.5t22.5 9.5q14 -6 23.5 -9.5t16.5 -3.5l-34 18l36 24q33 -25 68 -25 l-22 25l6 1l-18 23q15 11 31 21q11 9 15 19q3 -11 3 -21q0 -13 -5.5 -37.5t-5.5 -29.5q5 -10 5 -27q0 -16 -4 -25zM43 397q-13 4 -15.5 15t-2.5 29q18 -4 30.5 14.5t13.5 19.5l4 -25q0 -6 9.5 -13.5t9.5 -11.5q0 -5 -5 -9l-4 3l4 6l-32 12q0 -9 9 -13.5t18 -8.5l-2 -8 q-6 -5 -13 -9.5t-13 -4.5q-7 0 -11 4zM105 395h2h-2zM104 438q-10 7 -14 15.5t-7 22.5q12 9 30 9q-2 -9 5 -17t9 -11q-8 -12 -23 -19zM117 438q12 12 17 20t1 18q-4 17 -20 17q-6 0 -15 -2.5t-17 -5.5q8 9 21.5 19.5t18.5 14.5q17 5 44.5 21.5t39.5 20.5l-3 2l-29 -7l26 33 q-7 -2 -14.5 -10t-16.5 -18q0 11 7 26t10 22q-10 -10 -16 -22t-12 -28l-11 21q-1 5 -1 15q0 47 36 80q11 4 24 4q16 0 33 -6.5t30 -17.5q2 -10 3 -23t1 -24q0 -36 -7 -65q-4 11 -6 18.5t-7 11.5q0 -4 4 -16t4 -18q0 -9 -9.5 -16t-58 -41.5t-77.5 -43.5zM31 449q-3 9 -3 19 q0 15 5 28.5t14 32.5l46 -22q-11 1 -22 -13.5t-13 -16.5q-4 4 -12.5 2.5t-10.5 -0.5l18 -14q-11 -15 -22 -16zM213 484q7 -2 12 -5.5t21 -19.5q-14 -6 -23 9t-10 16zM129 464q-6 2 -8 7.5t-2 12.5l5 -2q6 -16 5 -18zM209 473l-5 4q3 -1 7 -2zM113 522q-7 -7 -16 -7 q-8 0 -20.5 5.5t-27.5 12.5l-3 6q4 38 15.5 73t31.5 73q16 13 46 13q5 0 14 -6t13 -6q5 0 9 4l13 90q-6 -12 -8.5 -36.5t-4.5 -34.5h-4q-1 6 -1 14v12v21.5t1 21.5l-4 3q-4 -8 -4 -29v-20q0 -6 -2 -18l-22 7q-8 -2 -14 -3t-8 -5l3 -3q6 3 12 3q5 0 26 -8q-20 4 -46 4l-7 64 q37 15 72 15q24 0 47 -9l7 -6q0 -12 1 -24l2 -24q0 -13 -3 -27q-15 2 -23 2q-13 0 -15 -11q-20 -3 -32 -25q-12 -29 -18 -40.5t-6 -21.5q0 -13 9.5 -33.5t10.5 -25.5q-6 -4 -10 -5q-8 -1 -13 13.5t-10 16.5l7 -27l-50 62q6 -16 22.5 -37t24.5 -32v-5zM246 693l-4 32 q-2 -3 -2 -11q0 -14 -3 -17l-2 72q3 -19 7 -38q-1 12 -1 18q0 11 5 17q0 -9 1.5 -27.5t1.5 -19.5q0 -14 -3 -26zM100 703q-5 9 -5 21q0 4 1 13t1 14t-2 15l4 2q0 -11 2.5 -26.5t2.5 -17.5q0 -12 -4 -21zM192 501l-5 8l8 -24zM216 423q16 -7 25 -7q4 0 8 2zM159 504 q-3 -5 2 -12.5t12 -14.5q-5 4 -9 12.5t-5 14.5zM181 477q-1 2 -7.5 13.5t-4.5 18.5l19 -25q-6 12 -12.5 20.5t-9.5 13.5q-4 -9 2.5 -20t12.5 -21zM190 703l5 18zM193 724l7 34z"/>
</svg>