<svg xmlns="http://www.w3.org/2000/svg" xmlns:xlink="http://www.w3.org/1999/xlink" version="1.1" viewBox="17.85 133 365.15 666">
   <path fill="currentColor" d="M201 141q10 -8 25 -8q19 0 23 14l6 19l-22 -24q-10 -2 -15 -2q-8 0 -14 8.5t-6 23.5q0 11 4.5 32.5t4.5 22.5q9 1 18 0t18 -3q8 0 12 1q3 -6 3 -14q0 -7 -3.5 -21t-3.5 -20h4q11 53 22 105v35q0 31 5 57h13l13 -52t11.5 -62.5t11.5 -85.5q8 -4 20 -4q10 0 18 6 q7 14 10.5 31.5t3.5 36.5q0 14 -2 48t-2 35l-8 45l-4 1q0 27 1 82t1 86q-1 5 -1 17q0 7 1 25.5t1 29.5q0 23 -4 37t-17 26q-1 4 -1 8v6q0 11 2.5 29.5t2.5 22.5q0 13 -4 22q-17 28 -47 35t-79 7q-13 -2 -25.5 -9t-24.5 -14q-1 -5 -1 -17q0 -6 1 -17.5t1 -16.5 q0 -16 -3.5 -26.5t-15.5 -19.5q-14 -29 -21.5 -57t-32.5 -149q-26 -35 -51 -70q-27 -42 -32 -82q-1 -7 4.5 -11.5t11.5 -6.5q10 -5 17 0.5t16 17.5q6 20 35.5 58t31.5 44q-8 -26 -15 -52q0 -4 2 -12q14 -19 35 -19q6 0 14.5 4.5t21.5 18.5t19 20q7 -6 6 -8q-8 -58 -15 -116 q0 -15 3 -30q-4 -13 -7 -27.5t-3 -29.5q0 -17 6 -31zM343 169q-10 4 -13 12.5t-3 15.5q0 6 2 20t2 20l42 2q2 -16 2 -24q0 -18 -6 -36q-8 -13 -26 -10zM211 234q0 11 -1 21.5t-2 20.5l2 17q10 -2 21 -5q-4 4 -9 8.5t-11 4.5q0 14 6 41.5t6 30.5l46 -6v-26.5t1 -27.5 q0 -27 -1.5 -42t-7.5 -38q-9 -5 -26 -5q-15 0 -24 6zM362 243q-4 5 -12 5q-16 -3 -22 -4l-8 51q4 2 13 3t12 3q0 6 -7 6l-18 -2q-4 6 -6.5 17t-3.5 17q-4 18 20 21.5t29 9.5q5 -8 6 -20t4 -19q6 -6 0.5 -11.5t-12.5 -6.5l16 -6v-39q-1 -9 -1 -15v-9zM39 308q-14 2 -16 15 q4 15 8.5 30.5t15.5 24.5q19 -12 30 -23q-10 -20 -16.5 -33.5t-21.5 -13.5zM127 360q-3 5 -3 9t5.5 12t13 13t23 21.5t25.5 26.5q0 -6 -4.5 -16t-4.5 -12q0 -8 11 -14q3 -3 10 -2t10 2q-4 -4 -24.5 -28.5t-36.5 -24.5q-12 0 -25 13zM80 362q-15 4 -28 20q1 9 6.5 17.5 t13.5 15.5l29 -25l3 3q-8 -13 -12.5 -19t-11.5 -12zM315 363q3 3 18 6t19 10l-40 -8q-12 6 -32 6h-16q-18 0 -26 1.5t-17 10.5q0 17 13 22q14 2 37.5 21.5t40.5 19.5q6 0 9 -1l-2 2l3 2q-3 4 -5 1t-7 -2q25 36 50 71v-36q0 -14 -1 -22q0 -7 -5.5 -9.5t-14.5 -3.5l20 -2v-79 q-6 -3 -18 -5t-26 -5zM231 378q4 1 10 -3zM107 398q-6 3 -15.5 11t-14.5 14q5 10 13.5 21.5t16.5 20.5q6 -6 12 -14l12 -16q-4 -5 -11 -18.5t-13 -18.5zM137 402q0 4 2 9t5 12q9 3 13 -6q-2 -5 -10 -8.5t-10 -6.5zM198 410q-10 1 -10 8q0 3 3.5 9t6.5 10q3 -7 8 -12t11 -10 q-3 -5 -9.5 -8t-9.5 3zM226 425q-9 6 -12.5 14.5t-3.5 20.5l16 12q8 3 10 3q6 0 8.5 -13.5t8.5 -16.5q-5 -7 -12.5 -13t-14.5 -7zM178 441q-5 -13 -15 -13q-6 0 -13 4t-13 8q-1 2 -14 17.5t-12 26.5q4 16 7.5 27.5t13.5 11.5q-7 2 -9 5q9 41 19.5 84.5t30.5 72.5 q12 12 36 12q7 0 21 -2q9 -5 19 -10q-8 11 -23 17t-45 6l4 66q11 5 24 10.5t23 5.5q6 0 9 -1l5 -50q1 12 3 23q0 -3 2 -7l4 -8q-3 21 -5 42h5q5 -1 11 -3.5t3 -11.5h6l2 10q8 2 16 0t17 -5q23 -4 23 -25q0 -6 -4 -22.5t-1 -22.5l-4 -8q-5 0 -5.5 5t-3.5 7q-2 -6 -14.5 -9.5 t-15.5 -6.5q-2 -5 -13.5 -11t-13.5 -11l3 -3q15 6 23.5 8.5t21.5 2.5q7 0 22 -5.5t23.5 -27t8.5 -53.5q0 -15 -0.5 -27.5t-0.5 -21.5q-6 -11 -11 -23q-7 -2 -14.5 -15.5t-12.5 -16.5q-5 7 -10 12.5t-9 5.5q7 -7 12 -13t3 -11q-3 -3 -6 1.5t-4 4.5q0 3 1 6q-8 10 -13 14.5 t-13 5.5q-5 -10 -1 -19q3 -6 10 -13t12 -8l-11 12q-4 6 -6 10t1 7q8 -5 16 -15t12 -20q-9 -9 -31 -21.5t-31 -19.5q7 6 10 12q2 9 -4 18q-10 11 -14 17q-5 3 -12 1t-14 -6q-14 -4 -14 -24q0 -6 1 -9l-5 10q6 22 23 40t43 33q6 2 12.5 4.5t10.5 7.5l-12 3l14 14 q-10 -4 -15 -4q4 10 12 20.5t16 16.5q-14 -4 -24 -18.5t-19 -28.5q-13 18 -21 33.5t-8 33.5q0 19 5.5 36.5t18.5 27.5q-3 1 -5 -0.5t-9 -7t-12.5 -20t-5.5 -33.5v-12q2 -8 1.5 -14.5t14 -25.5t14.5 -25q0 -11 -21 -16q-2 2 -8.5 10.5t-10.5 12.5l-2 -4q-2 1 -7.5 6.5 t-9.5 5.5q4 -5 15 -15t18 -18q0 -4 -4 -8t-4 -6q-7 -11 -17 -11q-8 0 -25.5 10t-23.5 10q7 -9 27.5 -18t22.5 -10q-1 -2 -10.5 -17t-16.5 -23zM255 453l-6 11q3 -3 5 -6.5t1 -4.5zM341 682q-1 2 -1 7.5v8.5q0 14 1 19v-35zM335 720l-3 -20l3 49v-29zM344 739l-1 -4l1 8v-4z M351 308l7 1zM214 539l-4 9zM195 548l-17 33q-1 -8 5 -16.5t12 -16.5zM356 549q1 6 -2.5 13t-9.5 13zM211 561l-10 52q0 -25 10 -52zM201 615v6v-6zM174 370q0 2 -3 3t-3 4l5 2l-18 12q0 -6 4.5 -10t14.5 -11zM268 689q0 14 5 15l2 17q-3 -10 -5 -10l-1 45q1 -4 1 -12 q0 -9 -2.5 -24t-2.5 -17q0 -8 3 -14zM188 711q6 -1 18 -1h15q11 0 20 -2t17 -8q-13 8 -12 21q0 -4 -0.5 -6.5t-2.5 -3.5q-5 0 -19.5 3.5t-22.5 3.5q-7 0 -13 -3v-4zM363 306l-3 -1zM258 731v7v-7zM246 732l2 5zM248 288l9 -1zM319 752l1 4zM270 769l-1 -8z"/>
</svg>