<?xml version="1.0" encoding="utf-8"?>
<!-- Generator: Adobe Illustrator 26.4.1, SVG Export Plug-In . SVG Version: 6.00 Build 0)  -->
<svg version="1.1" id="Layer_1" xmlns="http://www.w3.org/2000/svg" xmlns:xlink="http://www.w3.org/1999/xlink" x="0px" y="0px"
	 viewBox="0 0 666 666" style="enable-background:new 0 0 666 666;" xml:space="preserve">
<path d="M333.6,8c6.7-5.3,15-8,25-8c12.7,0,20.3,4.7,23,14l6,19l-22-24c-6.7-1.3-11.7-2-15-2c-5.3,0-10,2.8-14,8.5s-6,13.5-6,23.5
	c0,7.3,1.5,18.2,4.5,32.5s4.5,21.8,4.5,22.5c6,0.7,12,0.7,18,0s12-1.7,18-3c5.3,0,9.3,0.3,12,1c2-4,3-8.7,3-14
	c0-4.7-1.2-11.7-3.5-21s-3.5-16-3.5-20h4c7.3,35.3,14.7,70.3,22,105v35c0,20.7,1.7,39.7,5,57h13l13-52c0,0,3.8-20.8,11.5-62.5
	s11.5-70.2,11.5-85.5c5.3-2.7,12-4,20-4c6.7,0,12.7,2,18,6c4.7,9.3,8.2,19.8,10.5,31.5c2.3,11.7,3.5,23.8,3.5,36.5
	c0,9.3-0.7,25.3-2,48c-1.3,22.7-2,34.3-2,35l-8,45l-4,1c0,18,0.3,45.3,1,82s1,65.3,1,86c-0.7,3.3-1,9-1,17c0,4.7,0.3,13.2,1,25.5
	s1,22.2,1,29.5c0,15.3-1.3,27.7-4,37s-8.3,18-17,26c-0.7,2.7-1,5.3-1,8v6c0,7.3,0.8,17.2,2.5,29.5s2.5,19.8,2.5,22.5
	c0,8.7-1.3,16-4,22c-11.3,18.7-27,30.3-47,35s-46.3,7-79,7c-8.7-1.3-17.2-4.3-25.5-9c-8.3-4.7-16.5-9.3-24.5-14c-0.7-3.3-1-9-1-17
	c0-4,0.3-9.8,1-17.5c0.7-7.7,1-13.2,1-16.5c0-10.7-1.2-19.5-3.5-26.5c-2.3-7-7.5-13.5-15.5-19.5c-9.3-19.3-16.5-38.3-21.5-57
	s-15.8-68.3-32.5-149c-17.3-23.3-34.3-46.7-51-70c-18-28-28.7-55.3-32-82c-0.7-4.7,0.8-8.5,4.5-11.5c3.7-3,7.5-5.2,11.5-6.5
	c6.7-3.3,12.3-3.2,17,0.5c4.7,3.7,10,9.5,16,17.5c4,13.3,15.8,32.7,35.5,58s30.2,40,31.5,44c-5.3-17.3-10.3-34.7-15-52
	c0-2.7,0.7-6.7,2-12c9.3-12.7,21-19,35-19c4,0,8.8,1.5,14.5,4.5c5.7,3,12.8,9.2,21.5,18.5c8.7,9.3,15,16,19,20c4.7-4,6.7-6.7,6-8
	c-5.3-38.7-10.3-77.3-15-116c0-10,1-20,3-30c-2.7-8.7-5-17.8-7-27.5s-3-19.5-3-29.5C327.6,27.7,329.6,17.3,333.6,8z M475.6,36
	c-6.7,2.7-11,6.8-13,12.5s-3,10.8-3,15.5c0,4,0.7,10.7,2,20s2,16,2,20l42,2c1.3-10.7,2-18.7,2-24c0-12-2-24-6-36
	C496.2,37.3,487.6,34,475.6,36z M343.6,101c0,7.3-0.3,14.5-1,21.5c-0.7,7-1.3,13.8-2,20.5l2,17c6.7-1.3,13.7-3,21-5
	c-2.7,2.7-5.7,5.5-9,8.5c-3.3,3-7,4.5-11,4.5c0,9.3,2,23.2,6,41.5s6,28.5,6,30.5l46-6v-26.5c0,0,0.3-9.2,1-27.5c0-18-0.5-32-1.5-42
	s-3.5-22.7-7.5-38c-6-3.3-14.7-5-26-5C357.6,95,349.6,97,343.6,101z M494.6,110c-2.7,3.3-6.7,5-12,5c-10.7-2-18-3.3-22-4l-8,51
	c2.7,1.3,7,2.3,13,3s10,1.7,12,3c0,4-2.3,6-7,6l-18-2c-2.7,4-4.8,9.7-6.5,17s-2.8,13-3.5,17c-2.7,12,4,19.2,20,21.5s25.7,5.5,29,9.5
	c3.3-5.3,5.3-12,6-20s2-14.3,4-19c4-4,4.2-7.8,0.5-11.5s-7.8-5.8-12.5-6.5l16-6v-39c-0.7-6-1-11-1-15v-9L494.6,110z M171.6,175
	c-9.3,1.3-14.7,6.3-16,15c2.7,10,5.5,20.2,8.5,30.5s8.2,18.5,15.5,24.5c12.7-8,22.7-15.7,30-23c-6.7-13.3-12.2-24.5-16.5-33.5
	C188.7,179.5,181.6,175,171.6,175z M259.6,227c-2,3.3-3,6.3-3,9s1.8,6.7,5.5,12c3.7,5.3,8,9.7,13,13s12.7,10.5,23,21.5
	c10.3,11,18.8,19.8,25.5,26.5c0-4-1.5-9.3-4.5-16s-4.5-10.7-4.5-12c0-5.3,3.7-10,11-14c2-2,5.3-2.7,10-2c4.7,0.7,8,1.3,10,2
	c-2.7-2.7-10.8-12.2-24.5-28.5c-13.7-16.3-25.8-24.5-36.5-24.5C276.6,214,268.2,218.3,259.6,227z M212.6,229c-10,2.7-19.3,9.3-28,20
	c0.7,6,2.8,11.8,6.5,17.5c3.7,5.7,8.2,10.8,13.5,15.5l29-25l3,3c-5.3-8.7-9.5-15-12.5-19S217.2,233,212.6,229z M447.6,230
	c2,2,8,4,18,6s16.3,5.3,19,10l-40-8c-8,4-18.7,6-32,6h-16c-12,0-20.7,0.5-26,1.5c-5.3,1-11,4.5-17,10.5c0,11.3,4.3,18.7,13,22
	c9.3,1.3,21.8,8.5,37.5,21.5c15.7,13,29.2,19.5,40.5,19.5c4,0,7-0.3,9-1l-2,2l3,2c-2,2.7-3.7,3-5,1s-3.7-2.7-7-2
	c16.7,24,33.3,47.7,50,71v-36c0-9.3-0.3-16.7-1-22c0-4.7-1.8-7.8-5.5-9.5s-8.5-2.8-14.5-3.5l20-2v-79c-4-2-10-3.7-18-5
	S456.9,232,447.6,230z M363.6,245c2.7,0.7,6-0.3,10-3L363.6,245z M239.6,265c-4,2-9.2,5.7-15.5,11c-6.3,5.3-11.2,10-14.5,14
	c3.3,6.7,7.8,13.8,13.5,21.5c5.7,7.7,11.2,14.5,16.5,20.5c4-4,8-8.7,12-14l12-16c-2.7-3.3-6.3-9.5-11-18.5
	C247.9,274.5,243.6,268.3,239.6,265z M269.6,269c0,2.7,0.7,5.7,2,9c1.3,3.3,3,7.3,5,12c6,2,10.3,0,13-6c-1.3-3.3-4.7-6.2-10-8.5
	C274.2,273.2,270.9,271,269.6,269z M330.6,277c-6.7,0.7-10,3.3-10,8c0,2,1.2,5,3.5,9c2.3,4,4.5,7.3,6.5,10c2-4.7,4.7-8.7,8-12
	c3.3-3.3,7-6.7,11-10c-2-3.3-5.2-6-9.5-8C335.7,272,332.6,273,330.6,277z M358.6,292c-6,4-10.2,8.8-12.5,14.5
	c-2.3,5.7-3.5,12.5-3.5,20.5l16,12c5.3,2,8.7,3,10,3c4,0,6.8-4.5,8.5-13.5c1.7-9,4.5-14.5,8.5-16.5c-3.3-4.7-7.5-9-12.5-13
	S363.2,292.7,358.6,292z M310.6,308c-3.3-8.7-8.3-13-15-13c-4,0-8.3,1.3-13,4c-4.7,2.7-9,5.3-13,8c-0.7,1.3-5.3,7.2-14,17.5
	c-8.7,10.3-12.7,19.2-12,26.5c2.7,10.7,5.2,19.8,7.5,27.5c2.3,7.7,6.8,11.5,13.5,11.5c-4.7,1.3-7.7,3-9,5
	c6,27.3,12.5,55.5,19.5,84.5s17.2,53.2,30.5,72.5c8,8,20,12,36,12c4.7,0,11.7-0.7,21-2c6-3.3,12.3-6.7,19-10c-5.3,7.3-13,13-23,17
	s-25,6-45,6l4,66c7.3,3.3,15.3,6.8,24,10.5c8.7,3.7,16.3,5.5,23,5.5c4,0,7-0.3,9-1l5-50c0.7,8,1.7,15.7,3,23c0-2,0.7-4.3,2-7l4-8
	c-2,14-3.7,28-5,42h5c3.3-0.7,7-1.8,11-3.5s5-5.5,3-11.5h6l2,10c5.3,1.3,10.7,1.3,16,0s11-3,17-5c15.3-2.7,23-11,23-25
	c0-4-1.3-11.5-4-22.5s-3-18.5-1-22.5l-4-8c-3.3,0-5.2,1.7-5.5,5s-1.5,5.7-3.5,7c-1.3-4-6.2-7.2-14.5-9.5s-13.5-4.5-15.5-6.5
	c-1.3-3.3-5.8-7-13.5-11s-12.2-7.7-13.5-11l3-3c10,4,17.8,6.8,23.5,8.5s12.8,2.5,21.5,2.5c4.7,0,12-1.8,22-5.5s17.8-12.7,23.5-27
	s8.5-32.2,8.5-53.5c0-10-0.2-19.2-0.5-27.5s-0.5-15.5-0.5-21.5c-4-7.3-7.7-15-11-23c-4.7-1.3-9.5-6.5-14.5-15.5s-9.2-14.5-12.5-16.5
	c-3.3,4.7-6.7,8.8-10,12.5s-6.3,5.5-9,5.5c4.7-4.7,8.7-9,12-13s4.3-7.7,3-11c-2-2-4-1.5-6,1.5s-3.3,4.5-4,4.5c0,2,0.3,4,1,6
	c-5.3,6.7-9.7,11.5-13,14.5s-7.7,4.8-13,5.5c-3.3-6.7-3.7-13-1-19c2-4,5.3-8.3,10-13s8.7-7.3,12-8l-11,12c-2.7,4-4.7,7.3-6,10
	s-1,5,1,7c5.3-3.3,10.7-8.3,16-15s9.3-13.3,12-20c-6-6-16.3-13.2-31-21.5s-25-14.8-31-19.5c4.7,4,8,8,10,12c1.3,6,0,12-4,18
	c-6.7,7.3-11.3,13-14,17c-3.3,2-7.3,2.3-12,1c-4.7-1.3-9.3-3.3-14-6c-9.3-2.7-14-10.7-14-24c0-4,0.3-7,1-9l-5,10
	c4,14.7,11.7,28,23,40c11.3,12,25.7,23,43,33c4,1.3,8.2,2.8,12.5,4.5s7.8,4.2,10.5,7.5l-12,3l14,14c-6.7-2.7-11.7-4-15-4
	c2.7,6.7,6.7,13.5,12,20.5s10.7,12.5,16,16.5c-9.3-2.7-17.3-8.8-24-18.5s-13-19.2-19-28.5c-8.7,12-15.7,23.2-21,33.5
	c-5.3,10.3-8,21.5-8,33.5c0,12.7,1.8,24.8,5.5,36.5c3.7,11.7,9.8,20.8,18.5,27.5c-2,0.7-3.7,0.5-5-0.5c-1.3-1-4.3-3.3-9-7
	c-4.7-3.7-8.8-10.3-12.5-20c-3.7-9.7-5.5-20.8-5.5-33.5v-12c1.3-5.3,1.8-10.2,1.5-14.5c-0.3-4.3,4.3-12.8,14-25.5
	c9.7-12.7,14.5-21,14.5-25c0-7.3-7-12.7-21-16c-1.3,1.3-4.2,4.8-8.5,10.5c-4.3,5.7-7.8,9.8-10.5,12.5l-2-4c-1.3,0.7-3.8,2.8-7.5,6.5
	c-3.7,3.7-6.8,5.5-9.5,5.5c2.7-3.3,7.7-8.3,15-15c7.3-6.7,13.3-12.7,18-18c0-2.7-1.3-5.3-4-8c-2.7-2.7-4-4.7-4-6
	c-4.7-7.3-10.3-11-17-11c-5.3,0-13.8,3.3-25.5,10c-11.7,6.7-19.5,10-23.5,10c4.7-6,13.8-12,27.5-18c13.7-6,21.2-9.3,22.5-10
	c-0.7-1.3-4.2-7-10.5-17C320.7,321,315.2,313.3,310.6,308z M387.6,320l-6,11c2-2,3.7-4.2,5-6.5C387.9,322.2,388.2,320.7,387.6,320z
	 M473.6,549c-0.7,1.3-1,3.8-1,7.5v8.5c0,9.3,0.3,15.7,1,19V549z M467.6,587l-3-20l3,49V587z M476.6,606l-1-4l1,8V606z M483.6,175
	l7,1L483.6,175z M346.6,406l-4,9L346.6,406z M327.6,415l-17,33c-0.7-5.3,1-10.8,5-16.5S323.6,420.3,327.6,415z M488.6,416
	c0.7,4-0.2,8.3-2.5,13s-5.5,9-9.5,13L488.6,416z M343.6,428l-10,52C333.6,463.3,336.9,446,343.6,428z M333.6,482v6V482z M306.6,237
	c0,1.3-1,2.3-3,3s-3,2-3,4l5,2l-18,12c0-4,1.5-7.3,4.5-10S299.9,241.7,306.6,237z M400.6,556c0,9.3,1.7,14.3,5,15l2,17
	c-2-6.7-3.7-10-5-10l-1,45c0.7-2.7,1-6.7,1-12c0-6-0.8-14-2.5-24s-2.5-15.7-2.5-17C397.6,564.7,398.6,560,400.6,556z M320.6,578
	c4-0.7,10-1,18-1h15c7.3,0,14-0.7,20-2s11.7-4,17-8c-8.7,5.3-12.7,12.3-12,21c0-2.7-0.2-4.8-0.5-6.5c-0.3-1.7-1.2-2.8-2.5-3.5
	c-3.3,0-9.8,1.2-19.5,3.5c-9.7,2.3-17.2,3.5-22.5,3.5c-4.7,0-9-1-13-3V578z M495.6,173l-3-1L495.6,173z M390.6,598v7V598z
	 M378.6,599l2,5L378.6,599z M380.6,155l9-1L380.6,155z M451.6,619l1,4L451.6,619z M402.6,636l-1-8L402.6,636z"/>
</svg>
