<svg xmlns="http://www.w3.org/2000/svg" xmlns:xlink="http://www.w3.org/1999/xlink" version="1.1" viewBox="19 133 392 666">
   <path fill="currentColor" d="M351 135q8 -2 10 -2q8 0 15.5 5.5t12.5 14.5q8 28 11 62.5t3 66.5q0 18 -1 54t-1 54q0 31 1.5 51t5 45t3.5 48q0 22 -1.5 56t-1.5 35q-1 6 -8 13t-9 11l9 100q-56 50 -126 50q-23 -5 -39 -8t-16 -19q0 -5 3 -13l-6 -50q-6 -28 -25 -42q-11 -19 -39.5 -115t-77.5 -130 q-2 -3 -27 -33t-28 -50q6 -19 18 -22q19 3 41.5 32.5t39.5 33.5q4 2 20.5 20.5t28.5 15.5l2 -2q-6 -23 -15.5 -52t-21.5 -62q-12 -27 -16.5 -43t-4.5 -26l2 -17q11 -10 28 -10q6 0 9 1q16 18 36 65.5t35 67.5q2 -5 3 -16t3 -16q7 -5 19.5 -7.5t24.5 -4.5q30 27 38 68 q15 -11 16.5 -34.5t3.5 -45.5l4 -132q3 -5 7.5 -11.5t10.5 -6.5zM351 141q-7 4 -10.5 12t-3.5 19q0 7 2 22t2 21q9 0 18.5 -1t18.5 -2q8 0 11 1q0 -21 -1.5 -31t-7.5 -25q-5 -21 -29 -16zM148 213q-5 -3 -10 -3q-4 0 -9 2.5t-11 9.5q-1 5 -1 13q0 18 8 38q12 23 16 34 q6 -7 19.5 -12t20.5 -7q-10 -32 -16.5 -48.5t-16.5 -26.5zM339 222q-1 7 -1 16v14q0 20 1 29q12 -2 17 -2q12 0 18.5 1.5t20.5 6.5l-2 -49q4 -22 -24 -22q-7 0 -16.5 2t-13.5 4zM337 288q-4 8 -4 25v18q0 8 -1 11q9 6 29.5 8.5t29.5 5.5l4 -62q-8 0 -23.5 -4.5t-21.5 -4.5 q-5 0 -13 3zM185 294q-9 0 -18.5 4.5t-20.5 10.5q-2 11 2 23.5t11 23.5l48 -24zM229 317q0 12 -0.5 23t-0.5 22q0 20 1 30t7 29l20 -24q11 -8 23 -8q5 0 8 1l1 -18q-2 -4 1.5 -15.5t3.5 -16.5q0 -7 -5 -12q0 -15 -8 -19t-16 -4q-19 0 -35 12zM28 329q-3 18 4.5 32t24.5 32 q7 -1 8 -3v11q6 10 10.5 16.5t12.5 7.5q3 -8 12.5 -17t14.5 -13q0 5 -9 12q4 -3 7 -4.5t6 0.5q-18 13 -26 28l32 32l28 -35q-31 -27 -61 -54h-13l4 -2v-9q-11 -15 -21 -27t-22 -12q-7 0 -12 5zM209 343q-12 0 -27.5 9t-22.5 13q6 8 9.5 21.5t6.5 26.5h5q3 -4 25 -16t16 -30z M362 359q-5 0 -15 -4t-15 -4q-10 0 -14 14q-3 6 -16 12t-8 18q2 1 30.5 22t43.5 21t27 -11l-2 -58zM380 357l-7 -2zM295 361v6q3 -1 0 -6zM219 395l-34 20q-18 2 -31.5 20t-24.5 34q39 105 79 209q6 5 12 7t13 2q13 0 27.5 -6.5t28.5 -13.5q-7 7 -14.5 12t-20.5 12 q22 -8 35 -20q2 4 2 14v9q-2 4 -2 5q-2 -15 -2 -18l-21 10.5t-29 9.5q-8 0 -15 -4q10 30 10 66q0 12 -1 17l60 11q-1 -10 -2 -21l2 3l4 -2l3 18q14 -2 15 -8l2 4q13 0 31.5 -12t22.5 -14v-20q0 -18 -1 -33.5t-5 -30.5l-20 4t-13 2q-11 0 -17 -7q24 0 39 -2.5t29 -10.5l4 45 v-48q-10 8 -24 11t-31 3q-16 0 -30 -3q-23 -12 -31 -41q-6 -36 -8 -51l6 14q-3 -19 9 -41t24 -42l-21 -15q-5 -5 -12.5 -1.5t-9.5 2.5q8 -5 12 -9l-10 -12q-6 -2 -17.5 1.5t-14.5 3.5q7 -4 9 -5.5t-1 -3.5q10 1 16 -2q-9 -13 -17 -32t-15 -40zM269 401q-17 9 -17 34 q9 7 15 11.5t14 2.5l-1 -6q3 -15 15 -24l2 2q-6 4 -8.5 9t-4.5 15h4q4 -6 8.5 -13t3.5 -14q-8 -11 -13 -15.5t-11 -4.5q-2 0 -7 3zM297 407l5 7q2 8 -0.5 18t-11.5 16.5t-13 6.5t-11.5 -5t-16.5 -12q-1 -4 -1 -12t3 -13q-7 7 -9 21q3 8 7.5 16t17.5 23q13 12 28.5 24t31.5 9 q1 5 6 5h8q0 3 -6 4t-14 2q3 13 9.5 24t15.5 15q-6 2 -11.5 -1.5t-9.5 -7.5q7 7 6 9q-3 1 -8 -2q-6 -6 -9.5 -20.5t-6.5 -18.5q-10 10 -18 23.5t-15 26.5v12q0 13 3 27.5t6.5 28.5t15 21t28.5 10q19 2 32 -5t36 -26q4 -9 5 -17.5t1 -20.5v-20q-2 -9 -2 -12q-5 1 -9 2 q14 -14 14 -30t-13 -35t-24 -37q-1 3 -2 8t-6 4q0 -1 4 -9t-1 -9q-8 13 -14.5 21t-12.5 12q-3 -3 -0.5 -8.5t2.5 -6.5q1 -3 11 -13t9 -16zM394 435q-4 4 -14 5t-14 3q5 10 13.5 22t19.5 27q0 -11 -1 -28t-4 -29zM136 455l1 -5zM353 461q-13 11 -11 19zM375 671q-4 16 -4 37 q0 11 0.5 17.5t3.5 28.5l4 -1zM79 375l-10 14zM252 360h6t5 3q-12 6 -18 7q14 -4 20 -5.5t9 -4.5q-4 -2 -12 -2q-4 0 -10 2zM348 450l-12 18zM240 365l-2 -2zM351 489l-2 3l10 -16zM195 558l-4 5l3 2l-17 26q2 -9 7 -17.5t11 -15.5zM227 609l-1 -20zM300 671q2 4 4 16.5 t3 18.5q-2 -10 -2.5 -18t-6.5 -12q-2 3 -2 10q0 8 -1 11q-1 -12 -1 -17q0 -7 6 -9zM236 372l6 -2zM319 693l2 4zM289 701l2 21zM321 708l-2 -6zM307 709l2 10zM309 732v4v-14v10z"/>
</svg>