<?xml version="1.0" encoding="utf-8"?>
<!-- Generator: Adobe Illustrator 26.4.1, SVG Export Plug-In . SVG Version: 6.00 Build 0)  -->
<svg version="1.1" id="Layer_1" xmlns="http://www.w3.org/2000/svg" xmlns:xlink="http://www.w3.org/1999/xlink" x="0px" y="0px"
	 viewBox="0 0 666 666" style="enable-background:new 0 0 666 666;" xml:space="preserve">
<path d="M469,2c5.3-1.3,8.7-2,10-2c5.3,0,10.5,1.8,15.5,5.5S503.7,14,507,20c5.3,18.7,9,39.5,11,62.5s3,45.2,3,66.5
	c0,12-0.3,30-1,54s-1,42-1,54c0,20.7,0.5,37.7,1.5,51s2.7,28.3,5,45s3.5,32.7,3.5,48c0,14.7-0.5,33.3-1.5,56s-1.5,34.3-1.5,35
	c-0.7,4-3.3,8.3-8,13s-7.7,8.3-9,11l9,100c-37.3,33.3-79.3,50-126,50c-15.3-3.3-28.3-6-39-8s-16-8.3-16-19c0-3.3,1-7.7,3-13l-6-50
	c-4-18.7-12.3-32.7-25-42c-7.3-12.7-20.5-51-39.5-115S224.7,311.7,192,289c-1.3-2-10.3-13-27-33s-26-36.7-28-50c4-12.7,10-20,18-22
	c12.7,2,26.5,12.8,41.5,32.5s28.2,30.8,39.5,33.5c2.7,1.3,9.5,8.2,20.5,20.5S277,288,285,286l2-2c-4-15.3-9.2-32.7-15.5-52
	S258,192,250,170c-8-18-13.5-32.3-16.5-43c-3-10.7-4.5-19.3-4.5-26l2-17c7.3-6.7,16.7-10,28-10c4,0,7,0.3,9,1
	c10.7,12,22.7,33.8,36,65.5s25,54.2,35,67.5c1.3-3.3,2.3-8.7,3-16s1.7-12.7,3-16c4.7-3.3,11.2-5.8,19.5-7.5s16.5-3.2,24.5-4.5
	c20,18,32.7,40.7,38,68c10-7.3,15.5-18.8,16.5-34.5s2.2-30.8,3.5-45.5l4-132c2-3.3,4.5-7.2,7.5-11.5S465,2,469,2z M469,8
	c-4.7,2.7-8.2,6.7-10.5,12S455,31.7,455,39c0,4.7,0.7,12,2,22s2,17,2,21c6,0,12.2-0.3,18.5-1s12.5-1.3,18.5-2c5.3,0,9,0.3,11,1
	c0-14-0.5-24.3-1.5-31S502,34,498,24C494.7,10,485,4.7,469,8z M266,80c-3.3-2-6.7-3-10-3c-2.7,0-5.7,0.8-9,2.5
	c-3.3,1.7-7,4.8-11,9.5c-0.7,3.3-1,7.7-1,13c0,12,2.7,24.7,8,38c8,15.3,13.3,26.7,16,34c4-4.7,10.5-8.7,19.5-12s15.8-5.7,20.5-7
	c-6.7-21.3-12.2-37.5-16.5-48.5S272.7,86.7,266,80z M457,89c-0.7,4.7-1,10-1,16v14c0,13.3,0.3,23,1,29c8-1.3,13.7-2,17-2
	c8,0,14.2,0.5,18.5,1.5s11.2,3.2,20.5,6.5l-2-49c2.7-14.7-5.3-22-24-22c-4.7,0-10.2,0.7-16.5,2S459.7,87.7,457,89z M455,155
	c-2.7,5.3-4,13.7-4,25v18c0,5.3-0.3,9-1,11c6,4,15.8,6.8,29.5,8.5S503,221,509,223l4-62c-5.3,0-13.2-1.5-23.5-4.5S472,152,468,152
	C464.7,152,460.3,153,455,155z M303,161c-6,0-12.2,1.5-18.5,4.5S271.3,172,264,176c-1.3,7.3-0.7,15.2,2,23.5s6.3,16.2,11,23.5l48-24
	L303,161z M347,184c0,8-0.2,15.7-0.5,23s-0.5,14.7-0.5,22c0,13.3,0.3,23.3,1,30s3,16.3,7,29l20-24c7.3-5.3,15-8,23-8
	c3.3,0,6,0.3,8,1l1-18c-1.3-2.7-0.8-7.8,1.5-15.5s3.5-13.2,3.5-16.5c0-4.7-1.7-8.7-5-12c0-10-2.7-16.3-8-19s-10.7-4-16-4
	C369.3,172,357.7,176,347,184z M146,196c-2,12-0.5,22.7,4.5,32s13.2,20,24.5,32c4.7-0.7,7.3-1.7,8-3v11c4,6.7,7.5,12.2,10.5,16.5
	s7.2,6.8,12.5,7.5c2-5.3,6.2-11,12.5-17s11.2-10.3,14.5-13c0,3.3-3,7.3-9,12c2.7-2,5-3.5,7-4.5s4-0.8,6,0.5c-12,8.7-20.7,18-26,28
	l32,32l28-35c-20.7-18-41-36-61-54h-13l4-2v-9c-7.3-10-14.3-19-21-27c-6.7-8-14-12-22-12C153.3,191,149.3,192.7,146,196z M327,210
	c-8,0-17.2,3-27.5,9s-17.8,10.3-22.5,13c4,5.3,7.2,12.5,9.5,21.5s4.5,17.8,6.5,26.5h5c2-2.7,10.3-8,25-16s20-18,16-30L327,210z
	 M480,226c-3.3,0-8.3-1.3-15-4s-11.7-4-15-4c-6.7,0-11.3,4.7-14,14c-2,4-7.3,8-16,12s-11.3,10-8,18c1.3,0.7,11.5,8,30.5,22
	s33.5,21,43.5,21s19-3.7,27-11l-2-58L480,226z M498,224l-7-2L498,224z M413,228v6C415,233.3,415,231.3,413,228z M337,262l-34,20
	c-12,1.3-22.5,8-31.5,20s-17.2,23.3-24.5,34c26,70,52.3,139.7,79,209c4,3.3,8,5.7,12,7s8.3,2,13,2c8.7,0,17.8-2.2,27.5-6.5
	c9.7-4.3,19.2-8.8,28.5-13.5c-4.7,4.7-9.5,8.7-14.5,12s-11.8,7.3-20.5,12c14.7-5.3,26.3-12,35-20c1.3,2.7,2,7.3,2,14v9
	c-1.3,2.7-2,4.3-2,5c-1.3-10-2-16-2-18l-21,10.5c0,0-9.7,3.2-29,9.5c-5.3,0-10.3-1.3-15-4c6.7,20,10,42,10,66c0,8-0.3,13.7-1,17
	l60,11c-0.7-6.7-1.3-13.7-2-21l2,3l4-2l3,18c9.3-1.3,14.3-4,15-8l2,4c8.7,0,19.2-4,31.5-12s19.8-12.7,22.5-14v-20
	c0-12-0.3-23.2-1-33.5s-2.3-20.5-5-30.5l-20,4c0,0-4.3,0.7-13,2c-7.3,0-13-2.3-17-7c16,0,29-0.8,39-2.5s19.7-5.2,29-10.5l4,45v-48
	c-6.7,5.3-14.7,9-24,11s-19.7,3-31,3c-10.7,0-20.7-1-30-3c-15.3-8-25.7-21.7-31-41c-4-24-6.7-41-8-51l6,14c-2-12.7,1-26.3,9-41
	s16-28.7,24-42l-21-15c-3.3-3.3-7.5-3.8-12.5-1.5s-8.2,3.2-9.5,2.5c5.3-3.3,9.3-6.3,12-9l-10-12c-4-1.3-9.8-0.8-17.5,1.5
	S347,345,345,345c4.7-2.7,7.7-4.5,9-5.5s1-2.2-1-3.5c6.7,0.7,12,0,16-2c-6-8.7-11.7-19.3-17-32S341.7,276,337,262z M387,268
	c-11.3,6-17,17.3-17,34c6,4.7,11,8.5,15,11.5s8.7,3.8,14,2.5l-1-6c2-10,7-18,15-24l2,2c-4,2.7-6.8,5.7-8.5,9s-3.2,8.3-4.5,15h4
	c2.7-4,5.5-8.3,8.5-13s4.2-9.3,3.5-14c-5.3-7.3-9.7-12.5-13-15.5s-7-4.5-11-4.5C392.7,265,390.3,266,387,268z M415,274l5,7
	c1.3,5.3,1.2,11.3-0.5,18s-5.5,12.2-11.5,16.5s-10.3,6.5-13,6.5s-6.5-1.7-11.5-5s-10.5-7.3-16.5-12c-0.7-2.7-1-6.7-1-12s1-9.7,3-13
	c-4.7,4.7-7.7,11.7-9,21c2,5.3,4.5,10.7,7.5,16s8.8,13,17.5,23c8.7,8,18.2,16,28.5,24s20.8,11,31.5,9c0.7,3.3,2.7,5,6,5h8
	c0,2-2,3.3-6,4s-8.7,1.3-14,2c2,8.7,5.2,16.7,9.5,24s9.5,12.3,15.5,15c-4,1.3-7.8,0.8-11.5-1.5s-6.8-4.8-9.5-7.5
	c4.7,4.7,6.7,7.7,6,9c-2,0.7-4.7,0-8-2c-4-4-7.2-10.8-9.5-20.5S427,384.7,425,382c-6.7,6.7-12.7,14.5-18,23.5s-10.3,17.8-15,26.5v12
	c0,8.7,1,17.8,3,27.5s4.2,19.2,6.5,28.5s7.3,16.3,15,21s17.2,8,28.5,10c12.7,1.3,23.3-0.3,32-5s20.7-13.3,36-26
	c2.7-6,4.3-11.8,5-17.5s1-12.5,1-20.5v-20c-1.3-6-2-10-2-12c-3.3,0.7-6.3,1.3-9,2c9.3-9.3,14-19.3,14-30s-4.3-22.3-13-35
	c-8.7-12.7-16.7-25-24-37c-0.7,2-1.3,4.7-2,8s-2.7,4.7-6,4c0-0.7,1.3-3.7,4-9s2.3-8.3-1-9c-5.3,8.7-10.2,15.7-14.5,21
	s-8.5,9.3-12.5,12c-2-2-2.2-4.8-0.5-8.5s2.5-5.8,2.5-6.5c0.7-2,4.3-6.3,11-13s9.7-12,9-16L415,274z M512,302c-2.7,2.7-7.3,4.3-14,5
	s-11.3,1.7-14,3c3.3,6.7,7.8,14,13.5,22s12.2,17,19.5,27c0-7.3-0.3-16.7-1-28S514,310,512,302z M254,322l1-5L254,322z M471,328
	c-8.7,7.3-12.3,13.7-11,19L471,328z M493,538c-2.7,10.7-4,23-4,37c0,7.3,0.2,13.2,0.5,17.5s1.5,13.8,3.5,28.5l4-1L493,538z M197,242
	l-10,14L197,242z M370,227h6c0,0,1.7,1,5,3c-8,4-14,6.3-18,7c9.3-2.7,16-4.5,20-5.5s7-2.5,9-4.5c-2.7-1.3-6.7-2-12-2
	C377.3,225,374,225.7,370,227z M466,317l-12,18L466,317z M358,232l-2-2L358,232z M469,356l-2,3l10-16L469,356z M313,425l-4,5l3,2
	l-17,26c1.3-6,3.7-11.8,7-17.5S309,429.7,313,425z M345,476l-1-20L345,476z M418,538c1.3,2.7,2.7,8.2,4,16.5s2.3,14.5,3,18.5
	c-1.3-6.7-2.2-12.7-2.5-18s-2.5-9.3-6.5-12c-1.3,2-2,5.3-2,10c0,5.3-0.3,9-1,11c-0.7-8-1-13.7-1-17C412,542.3,414,539.3,418,538z
	 M354,239l6-2L354,239z M437,560l2,4L437,560z M407,568l2,21L407,568z M439,575l-2-6L439,575z M425,576l2,10L425,576z M427,599v4
	v-14V599z"/>
</svg>
