<svg xmlns="http://www.w3.org/2000/svg" xmlns:xlink="http://www.w3.org/1999/xlink" version="1.1" viewBox="20.79 133.14 416.21 665.86">
   <path fill="currentColor" d="M229 134q29 -5 36 19q19 53 33 106t21 106q11 -17 18.5 -29t18.5 -19q20 0 30.5 1.5t19.5 9.5q8 13 11 31t3 35q0 9 -1 27.5t-1 27.5q12 17 14.5 47.5t4.5 57.5q-10 41 -17 68t-23 48l-12 9q-6 50 -6 96q-40 24 -96 24l-79 -24q-5 -10 -5 -26q0 -9 3 -27t3 -26 q0 -24 -18 -37l-52 -162q-4 0 -5 -4t1 -8q-10 -18 -56 -65t-54 -81q-2 -17 15 -29q23 -2 45.5 29.5t25.5 34.5l57 54q13 0 19 -17q-3 -14 -11 -30.5t-15 -32.5q-22 -77 -44 -155q1 -9 10 -12.5t18 -7.5q14 -2 19 6t11 20q12 39 31.5 85t38.5 89l4.5 4.5t5.5 0.5 q0 -25 -14 -77.5t-14 -73.5q2 -11 -7 -38t-9 -30q0 -19 22 -25zM233 139q-17 0 -21 13q4 25 7 41.5t10 32.5q9 -3 22 -6t23 -3q-6 -33 -11 -55.5t-30 -22.5zM131 182q-8 3 -12 11t-4 18l26 56q9 -5 21 -8.5t19 -5.5l-16 -51q-4 -22 -25 -22q-3 0 -9 2zM278 221 q-13 -1 -24 1.5t-25 10.5q0 28 9 60q14 -7 25 -4q-10 3 -15.5 5t-7.5 6l51 -13l-22 -2q16 -4 26 -3q1 -7 -0.5 -12t-2.5 -11zM153 270q-7 6 -7 13t7.5 25t7.5 25q21 -8 43 -16q1 5 7 4l-28 -62q-9 0 -17 4t-13 7zM295 293q-30 0 -54 12l16 64q2 5 13.5 1.5t16.5 -1.5l-11 5 q10 -2 17.5 -3t11.5 -4l-14 -2l17 -4zM53 317q-13 -5 -23 4q-1 4 -1 10q0 18 8.5 33t24.5 30q4 -9 10.5 -16.5t16.5 -15.5q-7 -12 -16 -23t-20 -22zM354 326q-16 23 -23.5 39.5t-7.5 39.5q4 -5 9 -10t10 -5q11 -4 18.5 9t15.5 12q0 -14 15 -35t13 -36q-8 -17 -32 -17 q-9 0 -18 3zM211 326q-10 0 -22 5t-22 9q0 11 3.5 20t19.5 37l39 -23q-4 -27 -18 -48zM407 364l-5 12l4 -2l3 3q-2 4 -11.5 7t-8.5 11l15 2q-1 3 -7 4t-6 3l18 3q4 -7 4 -17q0 -8 -2 -15t-4 -11zM93 369l-24 24q-3 9 6 18q13 10 18 14l24 -30zM312 377q-16 -2 -46.5 5 t-32.5 7q-29 7 -47 25.5t-49 60.5q5 21 7.5 28t10.5 16q3 -1 11.5 -8.5t13.5 -5.5q-2 4 -13.5 9.5t-11.5 12.5q8 18 21.5 72t40.5 80q16 4 33 7q8 0 18 -5.5t23 -13.5q1 3 -1 5l-3 3q0 19 -1 52.5t-1 50.5q0 -47 -6 -94q-2 4 -3.5 11t-1.5 10l-5 -5q0 8 -1 27t-1 28v12 l5 -37q0 28 -4 52h-5q-1 -6 -1 -18v-22t1 -23v-15q-22 0 -40 -8l2 -3l-10 -3q0 8 -2 30t-2 23q0 12 3 24q23 9 40 14t31 5q8 0 12 -1q2 -20 2 -33q0 -11 -1 -34t-1 -34q6 38 6 79q0 16 -1 24l29 -2q15 -2 20.5 -9.5t5.5 -21.5q0 -9 -1.5 -24t-1.5 -16q0 -5 2 -15 q-3 -3 -22 -5t-23 -14q15 2 31 4q-7 -5 -16 -4q-10 -4 -17.5 -8.5t-7.5 -10.5q16 6 28 9.5t23 3.5q7 0 15 -3q31 0 40 -32t18 -62h-10q10 -6 13 -14.5t3 -21.5q0 -9 -2 -21t-4 -23l-3 4q-9 7 -15 3q11 -5 18 -16q-9 8 -20 13.5t-19 2.5q14 -8 22.5 -13t14.5 -13 q-2 -11 -18.5 -25t-21.5 -22q2 3 0.5 12t-7 14t-10.5 5q-8 0 -16.5 -6.5t-16.5 -13.5q0 -22 18 -37h-6q-11 2 -17.5 15l-8.5 17q13 54 56 84q-6 -2 -10 0q-2 2 -0.5 6.5t0.5 5.5q0 5 5.5 13.5t5.5 11.5q-6 -6 -12 -12.5t-8 -14.5q-2 10 2.5 25t6.5 21q-9 -7 -13.5 -18 t-4.5 -36q-12 8 -21.5 13t-17.5 3q-11 22 -17.5 39t-6.5 33q0 21 13 38l-6 -2q-15 -15 -15 -35q0 -16 10 -39q8 -15 11 -22q0 -18 23 -26t27 -14q-3 -16 -13 -16q-18 5 -35 9q4 -5 17 -9t17 -7q-6 -10 -10 -17.5t-10 -12.5q-20 11 -52.5 20.5t-49.5 14.5l-4 -4 q35 -10 60.5 -17.5t45.5 -17.5q2 -35 5 -71zM333 399l22 -2q-5 -3 -11 -3t-11 5zM112 412q-14 8 -14 16q0 7 16 19.5t17 17.5l24 -34q-4 -2 -14 -15t-17 -13t-12 9zM361 412q-5 -3 -10.5 0t-10 11.5t-4.5 11.5q0 7 12 13t13 7l16 -20zM382 419q7 8 14 15t11 7q2 -4 2 -12 v-15q-11 -2 -17 -2q-9 0 -10 7zM157 438l-11 15zM376 442l-7 12q12 -5 7 -12zM352 683l-5 1zM372 683q0 14 -2.5 37.5t-2.5 29.5q0 12 1 18zM363 691q-5 28 -5 54q0 14 3 28q-1 -5 -1 -15q0 -9 2 -31.5t2 -23.5q0 -8 -1 -12zM190 497l-3 4zM257 540l19 -17zM241 547l-4 10z M340 359h12q14 0 22.5 2.5t10.5 9.5q-23 -6 -45 -12zM263 287l6 -2zM411 476l2 2l-14 11zM272 713l2 16z"/>
</svg>