<?xml version="1.0" encoding="utf-8"?>
<!-- Generator: Adobe Illustrator 26.4.1, SVG Export Plug-In . SVG Version: 6.00 Build 0)  -->
<svg version="1.1" id="Layer_1" xmlns="http://www.w3.org/2000/svg" xmlns:xlink="http://www.w3.org/1999/xlink" x="0px" y="0px"
	 viewBox="0 0 413 413" style="enable-background:new 0 0 413 413;" xml:space="preserve">
<path d="M318.5,0c12,0,19,1.3,21,4c0.7,5.3,0.5,13.2-0.5,23.5s-1.5,15.8-1.5,16.5c8,19.3,13,31.8,15,37.5s3,10.8,3,15.5
	c0,6.7-1.7,13.7-5,21c-3.3,7.3-6.5,22.8-9.5,46.5s-9,43.2-18,58.5s-17.3,29.5-25,42.5c-7.7,13-16.8,24.5-27.5,34.5v41.5
	c0,0,0.3,13.5,1,40.5l-46,28c-13.3,2-26.3,3-39,3c-29.3,0-55-5.3-77-16l-4-81c-16.7-20-28.8-44.2-36.5-72.5S57.5,186.3,57.5,157
	c0-12.7,0.3-22,1-28c7.3-17.3,13.7-31.8,19-43.5c5.3-11.7,15.3-17.5,30-17.5c8.7,3.3,16-0.3,22-11s12-16,18-16c12-1.3,20.7,1.7,26,9
	c6-6.7,11.7-12.5,17-17.5s11.7-6.5,19-4.5c10.7,0,18.3,1.7,23,5c2.7,4,5.7,7.7,9,11c2.7-4.7,6-7.8,10-9.5s9.7-2.5,17-2.5
	c4,0,10,0.7,18,2c5.3-9.3,10-17.3,14-24S310.5,0,318.5,0z M314.5,8c-8,4.7-13.5,10.7-16.5,18s-4.5,16-4.5,26c0,9.3,0.7,16.7,2,22
	s2.2,9.5,2.5,12.5s3,4.8,8,5.5s7.5,2.3,7.5,5h-18c-1.3,4-3.3,9.5-6,16.5s-3.3,12.8-2,17.5l2,14l-5-3c-3.3,6-6.3,11.7-9,17
	c8.7,8.7,16,16.3,22,23s9.7,13.7,11,21c-2.7-1.3-6.3-5.3-11-12c-4.7-6.7-8-10.3-10-11c4.7,8,8.5,14.7,11.5,20s4.5,10.7,4.5,16
	l-11-18c-3.3-5.3-7-11.2-11-17.5s-8.3-10.2-13-11.5c-3.3,4-8.3,6-15,6c-6-0.7-10.3-1-13-1c-6.7,0-10.3,2.3-11,7
	c-3.3,7.3-9.7,11.3-19,12s-15.7,1.3-19,2c-6.7,8.7-10,18.3-10,29c0,8.7,1.5,16.7,4.5,24s8.2,17.7,15.5,31c4.7,4,9.7,6.8,15,8.5
	s12,2.5,20,2.5l23-2c6-3.3,11.5-7.2,16.5-11.5s10.2-10.5,15.5-18.5c17.3-20.7,30.3-50.5,39-89.5s13.7-61.2,15-66.5
	c-1.3-1.3-4-2.5-8-3.5s-5.3-3.5-4-7.5c0.7-2,2.2-3.3,4.5-4s4.5-1.3,6.5-2c-4-0.7-7.7-1.7-11-3l11-2c-3.3-10-6-18.3-8-25
	s-6.3-11.7-13-15c0-6,0.2-12,0.5-18s2.5-11.3,6.5-16C321.2,6,315.8,6.7,314.5,8z M333.5,13l-2,19c0-3.3,0.5-7.2,1.5-11.5
	S334.2,13.7,333.5,13z M207.5,35c-12.7,0-21.3,7.3-26,22c0,12,0.3,30.7,1,56c0.7,25.3,1,43.7,1,55l3,1c1.3-9.3,3.3-14.8,6-16.5
	s6.7-2.5,12-2.5c4,0,7,1.3,9,4c4,9.3,6,16,6,20c0,0.7-0.7,3-2,7l6-3l3-57c0-7.3,1.8-19.2,5.5-35.5s5.5-26.8,5.5-31.5
	C232.2,38.7,222.2,32.3,207.5,35z M251.5,46c-5.3,18.7-9.7,34.7-13,48s-4.3,26-3,38l16-1c4,4,6.7,9.3,8,16l3,15
	c6.7-5.3,11.7-12.8,15-22.5s5-19.5,5-29.5c6.7-6,10-13.3,10-22c0-4.7-1.7-12.5-5-23.5s-4.3-18.8-3-23.5c-8-0.7-14-1-18-1
	C259.2,40,254.2,42,251.5,46z M147.5,50c-5.3,2-9.7,5.8-13,11.5s-6.3,11.2-9,16.5c8.7,14,14.5,29.5,17.5,46.5s4.5,36.8,4.5,59.5l3,3
	l3-21c0.7-4.7,4.3-7.2,11-7.5c6.7-0.3,11-0.5,13-0.5l-1-26c-5.3,1.3-9.7,2.7-13,4s-6.3,0.7-9-2c-0.7-4,2.5-6.3,9.5-7
	s11.2-1.7,12.5-3l-3-64C170.8,52,162.2,48.7,147.5,50z M115.5,78c-4-1.3-7.7-2-11-2c-7.3,0-13.7,3-19,9c-2,5.3-3,10-3,14
	c0,7.3,2.7,15.8,8,25.5c5.3,9.7,10,17.8,14,24.5s7,12.5,9,17.5s5,7.8,9,8.5v-13c2-7.3,7.7-10.3,17-9c-2-12-3.3-19-4-21l-13,4
	c-2,0.7-4.3,0.5-7-0.5s-3-2.8-1-5.5c11.3,1.3,18.3-1,21-7C130.8,104.3,124.2,89.3,115.5,78z M79.5,106c-3.3,0.7-5.7,2.8-7,6.5
	s-2.3,6.2-3,7.5l16,8L79.5,106z M69.5,129c-3.3,2.7-5,7-5,13c0.7,4.7,1,8,1,10l32-3c0-6-4.2-10-12.5-12S71.5,132.3,69.5,129z
	 M237.5,141c-5.3,3.3-6.7,9-4,17c4,1.3,7.7,2,11,2c4.7,0,8-1,10-3c2.7-6.7,1.3-10.7-4-12S240.8,142.3,237.5,141z M64.5,178
	c8,45.3,14.8,75.2,20.5,89.5s15.2,27.5,28.5,39.5c7.3,4,16,6,26,6c14.7,0,28-4.3,40-13c5.3,5.3,8,13,8,23c0,5.3-0.3,11.3-1,18
	s-1,10.3-1,11c0,6.7,0.7,11.3,2,14c1.3-2,2-6.3,2-13c0-14.7,0.7-23,2-25c2,7.3,3,14.3,3,21c0,5.3-0.2,10.5-0.5,15.5
	s-0.5,9.8-0.5,14.5c0,10,1,17.7,3,23l6-1c-2.7-8-4.3-15.3-5-22s-1-14.7-1-24c0-10,0.3-21.3,1-34s1-20.3,1-23l-7,28
	c-2-3.3-3-6.7-3-10c0.7-8,1.7-16.3,3-25l-18-45l6-39h-4c-6,12-11.7,23.7-17,35l9-35c-7.3,1.3-14.3-2.5-21-11.5s-13.7-12.2-21-9.5
	c-6-0.7-11.2-4.5-15.5-11.5c-4.3-7-7.5-12.2-9.5-15.5c-9.3-1.3-16.7-2-22-2c-11.3,0-17,3.3-17,10C61.5,170.3,62.5,174,64.5,178z
	 M197.5,158c-2,0-3.3,1.7-4,5s-1.3,5.3-2,6c0,4,1.8,6.5,5.5,7.5s6.5,1.5,8.5,1.5c6-4,8.7-6.7,8-8c2.7-5.3,1.7-8.5-3-9.5
	S201.5,158.7,197.5,158z M165.5,164h6H165.5z M129.5,166v7h4c2-1.3,4-3,6-5C138.8,166.7,135.5,166,129.5,166z M158.5,170l-3,16
	c0.7,3.3,3,5,7,5c6-0.7,10.3-1,13-1c2,0,3.8-1.2,5.5-3.5s1.8-4.2,0.5-5.5c0-6.7-3-10-9-10C164.5,171,159.8,170.7,158.5,170z
	 M205.5,294c0,5.3-0.3,14.5-1,27.5s-1,22.8-1,29.5c0,11.3,0.5,20.5,1.5,27.5s2.8,14.2,5.5,21.5c6,0,11.8-1.7,17.5-5s10.2-6,13.5-8
	c-0.7-3.3-1-8.3-1-15c0-5.3,0.7-13.3,2-24s2-18.7,2-24s-0.3-9.3-1-12c-16.7,0-26.7-2.7-30-8c1.3-3.3,4.3-3.8,9-1.5s8.3,2.8,11,1.5
	c-1.3-0.7-3.8-1.5-7.5-2.5S215.5,298,205.5,294z M132.5,326c6,1.3,13.8,0.5,23.5-2.5s15.8-4.5,18.5-4.5c-10.7,10.7-24.7,16-42,16
	c-3.3,0-5.3-2-6-6s-3.7-5-9-3v55l5,11l52,10c5.3,0,9.3-0.3,12-1c-2.7-12.7-4.3-25-5-37s-1-26-1-42v-12c-11.3,6-20,10.2-26,12.5
	S141.2,326,132.5,326z M249.5,320l2-4L249.5,320z M249.5,329l2-3L249.5,329z M249.5,334c0,3.3-0.7,9-2,17s-2,14.3-2,19
	c0,2.7,0.7,6.7,2,12h4c0-8.7-0.3-18.2-1-28.5S249.5,336.7,249.5,334z M239.5,113c2.7,1.3,6.7,2,12,2h16c-2.7,3.3-6,5-10,5
	c-6.7-1.3-12-2-16-2L239.5,113z M195.5,125c11.3-1.3,20-2,26-2c-3.3,6.7-9.3,9.3-18,8c-1.3,0.7-3,0.5-5-0.5S195.5,127.7,195.5,125z"
	/>
</svg>
