<svg xmlns="http://www.w3.org/2000/svg" xmlns:xlink="http://www.w3.org/1999/xlink" version="1.1" viewBox="15 387 298 413">
   <path d="M276 387q18 0 21 4q1 8 -0.5 23.5t-1.5 16.5q12 29 15 37.5t3 15.5q0 10 -5 21t-9.5 46.5t-18 58.5t-25 42.5t-27.5 34.5v41.5t1 40.5l-46 28q-20 3 -39 3q-44 0 -77 -16l-4 -81q-25 -30 -36.5 -72.5t-11.5 -86.5q0 -19 1 -28q11 -26 19 -43.5t30 -17.5q13 5 22 -11 t18 -16q18 -2 26 9q9 -10 17 -17.5t19 -4.5q16 0 23 5q4 6 9 11q4 -7 10 -9.5t17 -2.5q6 0 18 2q8 -14 14 -24t18 -10zM272 395q-12 7 -16.5 18t-4.5 26q0 14 2 22t2.5 12.5t8 5.5t7.5 5h-18q-2 6 -6 16.5t-2 17.5l2 14l-5 -3q-5 9 -9 17q13 13 22 23t11 21q-4 -2 -11 -12 t-10 -11q7 12 11.5 20t4.5 16l-11 -18q-5 -8 -11 -17.5t-13 -11.5q-5 6 -15 6q-9 -1 -13 -1q-10 0 -11 7q-5 11 -19 12t-19 2q-10 13 -10 29q0 13 4.5 24t15.5 31q7 6 15 8.5t20 2.5l23 -2q9 -5 16.5 -11.5t15.5 -18.5q26 -31 39 -89.5t15 -66.5q-2 -2 -8 -3.5t-4 -7.5 q1 -3 4.5 -4t6.5 -2q-6 -1 -11 -3l11 -2q-5 -15 -8 -25t-13 -15q0 -9 0.5 -18t6.5 -16q-14 0 -16 2zM291 400l-2 19q0 -5 1.5 -11.5t0.5 -7.5zM165 422q-19 0 -26 22q0 18 1 56t1 55l3 1q2 -14 6 -16.5t12 -2.5q6 0 9 4q6 14 6 20q0 1 -2 7l6 -3l3 -57q0 -11 5.5 -35.5 t5.5 -31.5q-8 -23 -30 -19zM209 433q-8 28 -13 48t-3 38l16 -1q6 6 8 16l3 15q10 -8 15 -22.5t5 -29.5q10 -9 10 -22q0 -7 -5 -23.5t-3 -23.5q-12 -1 -18 -1q-11 0 -15 6zM105 437q-8 3 -13 11.5t-9 16.5q13 21 17.5 46.5t4.5 59.5l3 3l3 -21q1 -7 11 -7.5t13 -0.5l-1 -26 q-8 2 -13 4t-9 -2q-1 -6 9.5 -7t12.5 -3l-3 -64q-4 -12 -26 -10zM73 465q-6 -2 -11 -2q-11 0 -19 9q-3 8 -3 14q0 11 8 25.5t14 24.5t9 17.5t9 8.5v-13q3 -11 17 -9q-3 -18 -4 -21l-13 4q-3 1 -7 -0.5t-1 -5.5q17 2 21 -7q-7 -28 -20 -45zM37 493q-5 1 -7 6.5t-3 7.5l16 8z M27 516q-5 4 -5 13q1 7 1 10l32 -3q0 -9 -12.5 -12t-15.5 -8zM195 528q-8 5 -4 17q6 2 11 2q7 0 10 -3q4 -10 -4 -12t-13 -4zM22 565q12 68 20.5 89.5t28.5 39.5q11 6 26 6q22 0 40 -13q8 8 8 23q0 8 -1 18t-1 11q0 10 2 14q2 -3 2 -13q0 -22 2 -25q3 11 3 21q0 8 -0.5 15.5 t-0.5 14.5q0 15 3 23l6 -1q-4 -12 -5 -22t-1 -24q0 -15 1 -34t1 -23l-7 28q-3 -5 -3 -10q1 -12 3 -25l-18 -45l6 -39h-4q-9 18 -17 35l9 -35q-11 2 -21 -11.5t-21 -9.5q-9 -1 -15.5 -11.5t-9.5 -15.5q-14 -2 -22 -2q-17 0 -17 10q0 5 3 11zM155 545q-3 0 -4 5t-2 6 q0 6 5.5 7.5t8.5 1.5q9 -6 8 -8q4 -8 -3 -9.5t-13 -2.5zM123 551h6h-6zM87 553v7h4q3 -2 6 -5q-1 -2 -10 -2zM116 557l-3 16q1 5 7 5q9 -1 13 -1q3 0 5.5 -3.5t0.5 -5.5q0 -10 -9 -10q-12 0 -14 -1zM163 681q0 8 -1 27.5t-1 29.5q0 17 1.5 27.5t5.5 21.5q9 0 17.5 -5 t13.5 -8q-1 -5 -1 -15q0 -8 2 -24t2 -24t-1 -12q-25 0 -30 -8q2 -5 9 -1.5t11 1.5q-2 -1 -7.5 -2.5t-20.5 -7.5zM90 713q9 2 23.5 -2.5t18.5 -4.5q-16 16 -42 16q-5 0 -6 -6t-9 -3v55l5 11l52 10q8 0 12 -1q-4 -19 -5 -37t-1 -42v-12q-17 9 -26 12.5t-22 3.5zM207 707l2 -4z M207 716l2 -3zM207 721q0 5 -2 17t-2 19q0 4 2 12h4q0 -13 -1 -28.5t-1 -19.5zM197 500q4 2 12 2h16q-4 5 -10 5q-10 -2 -16 -2zM153 512q17 -2 26 -2q-5 10 -18 8q-2 1 -5 -0.5t-3 -5.5z"/>
</svg>