<?xml version="1.0" encoding="utf-8"?>
<!-- Generator: Adobe Illustrator 26.4.1, SVG Export Plug-In . SVG Version: 6.00 Build 0)  -->
<svg version="1.1" id="Layer_1" xmlns="http://www.w3.org/2000/svg" xmlns:xlink="http://www.w3.org/1999/xlink" x="0px" y="0px"
	 viewBox="0 0 627 627" style="enable-background:new 0 0 627 627;" xml:space="preserve">
<path d="M316,0c19.3,0,31,6.7,35,20c-1.3,6.7,0,12,4,16c3.3-2,6.3-3,9-3c4,0,8.3,1,13,3s8,3.3,10,4c12,16,20,37.5,24,64.5
	s7.7,53.2,11,78.5c0,20,3.3,52.3,10,97c6.7,44.7,10,74.7,10,90c0,16.7-0.5,28.5-1.5,35.5S437,422.7,433,436
	c-10.7,24-19.2,50.2-25.5,78.5S396.7,572.7,394,604c-22,15.3-49.3,23-82,23c-33.3,0-64-7.3-92-22c0-8,1.2-19.8,3.5-35.5
	S227,543,227,537c0-8-0.7-14.3-2-19c-6-6.7-10.8-14-14.5-22s-7.5-18.3-11.5-31c-5.3-30.7-9-52.7-11-66s-3-29.7-3-49
	c0-24.7,3.3-47.3,10-68c6.7-54.7,12-97.2,16-127.5s11.2-46.2,21.5-47.5c10.3-1.3,14.8-5.7,13.5-13c1.3-17.3,3-34.7,5-52
	c3.3-10,10.3-16,21-18c3.3-1.3,7.5-1.3,12.5,0s8.5,2,10.5,2c4-7.3,7.2-13,9.5-17S310.7,2,316,0z M341,12c-2-3.3-6-5-12-5h-10
	c-6.7,4-11.5,8.5-14.5,13.5S300,31.3,300,38c0,3.3,1,10.7,3,22s2.3,20.3,1,27h41c-0.7-7.3-0.7-15.2,0-23.5s1.3-16.5,2-24.5
	C347,28.3,345,19.3,341,12z M271,30c-6.7,3.3-11.2,8.5-13.5,15.5S254,61.3,254,72v21c0,4.7-0.7,10.3-2,17h41l2-66
	c0-6-3.3-9.8-10-11.5S273.7,30,271,30z M361,40c-2.7,2.7-4.8,6.3-6.5,11S352,62,352,70c0,5.3,0.8,11.8,2.5,19.5
	c1.7,7.7,3.5,15.8,5.5,24.5h44c0-6.7-0.7-14.8-2-24.5c-1.3-9.7-3-19.5-5-29.5c-2.7-7.3-7.3-13.2-14-17.5S369,37.3,361,40z M304,98
	c-2,5.3-3,10.3-3,15c0,2.7,0.7,9,2,19s2,17.3,2,22c2.7-0.7,6.5-1.2,11.5-1.5s9.8-0.8,14.5-1.5h20v-31c0-8-0.3-14-1-18
	c-5.3-6.7-14.3-10-27-10C315.7,92,309.3,94,304,98z M235,110c-13.3,4.7-20.7,14.5-22,29.5s-2.3,27.2-3,36.5c4-1.3,10.3-2,19-2
	c8,0,13.7,0.3,17,1c1.3-12,2.5-22.3,3.5-31s1.5-16.3,1.5-23C251,113.7,245.7,110,235,110z M260,116c0,10-0.3,20-1,30l-2,30
	c4.7-0.7,11.3-1.7,20-3s14.7-1.7,18-1l2-44c-0.7-8.7-6.7-13-18-13C269.7,115.7,263.3,116,260,116z M360,122c-2,8-3,16-3,24
	s1.3,15,4,21c3.3-2.7,7.7-4,13-4c1.3,0,7.2,1.2,17.5,3.5s17.8,3.2,22.5,2.5l-4-30c3.3-14-3.3-21-20-21c-9.3,0-15.8,0.5-19.5,1.5
	S363.3,121.3,360,122z M305,161c-0.7,4.7-1,11-1,19c0,6,0.5,12.7,1.5,20s1.8,13.3,2.5,18c2,5.3,5.3,8,10,8c8.7-2,15.5-3.3,20.5-4
	s8.8-0.3,11.5,1c3.3-8.7,5-18.7,5-30s-1.7-22-5-32c-2.7-0.7-6.7-1-12-1C326.7,160.7,315.7,161,305,161z M362,178v18
	c0,0,1.3,7.3,4,22c4.7,8,12.3,14,23,18s21,7.7,31,11c0-10.7-0.3-21-1-31s-2-20.3-4-31c-5.3-8-15-12-29-12
	C376.7,173,368.7,174.7,362,178z M282,178c-0.7,0.7-5.2,1.7-13.5,3s-12.5,5-12.5,11c0.7,2.7,1,7,1,13c0,14.7,0.8,24.3,2.5,29
	s8.2,6,19.5,4c5.3,0,10-2.5,14-7.5s6-13.2,6-24.5c-0.7-9.3-1.5-17-2.5-23S290.7,175.3,282,178z M223,180c-8.7,0-13,4.7-13,14
	c0.7,7.3,1,13,1,17c0,2.7-0.7,6-2,10l39-2l2-26c0-6.7-3-10.7-9-12C232.3,180.3,226.3,180,223,180z M209,232l-4,47
	c7.3-3.3,15-6.7,23-10c8-4.7,11.3-11.7,10-21c4.7-6,9.3-12.3,14-19c-2.7-2.7-5.7-4-9-4C231.7,227.7,220.3,230,209,232z M334,232
	c-6,0.7-12,1.5-18,2.5s-10,4.2-12,9.5c2.7,2.7,10.7,5.3,24,8s22,8,26,16c4.7,1.3,9.5-0.2,14.5-4.5s8.2-6.8,9.5-7.5c2,4,1.3,7.3-2,10
	l-10,8c4,7.3,7.8,13,11.5,17s8.2,7,13.5,9c2.7,4.7,10.2,12.8,22.5,24.5s19.2,22.2,20.5,31.5c-2-27.3-3.5-47.5-4.5-60.5
	s-3.2-24.8-6.5-35.5c-6.7-6-15.3-10.5-26-13.5s-21-6.2-31-9.5c-2.7,1.3-4.3,3.3-5,6s-1.3,5-2,7c3.3-8.7,1.7-14-5-16
	C344,233.3,337.3,232.7,334,232z M260,240c-6,3.3-9,8.7-9,16l5,4c4,2,7.7,3,11,3c6,0,9.3-3.7,10-11c-1.3-2-4-4-8-6S262,242,260,240z
	 M289,245c5.3,2,8.7,2.3,10,1c-1.3-2-3.3-3.3-6-4S289,242.3,289,245z M243,254c-3.3,12,0,23.7,10,35c8.7,7.3,17.7,13.5,27,18.5
	s18,7.5,26,7.5c4.7,0,9.7-1,15-3c-2.7,3.3-4.3,6-5,8c4.7,9.3,15.7,18.8,33,28.5c17.3,9.7,27,20.8,29,33.5c-4.7,0.7-8.3-1.8-11-7.5
	s-5.3-9.2-8-10.5l-2,6c-5.3-6.7-10.7-12.2-16-16.5s-11.3-6.5-18-6.5l-25,62l20,76c11.3,9.3,27,15.7,47,19c8.7,0,16.3-1.5,23-4.5
	s13.7-7.8,21-14.5c9.3-39.3,14-81,14-125l-8,10l2-30c-22.7-21.3-45-43-67-65c-1.3,6.7-4,11-8,13c2-7.3,3-14,3-20c-2.7-2-6,0-10,6h6
	c-2.7,8-7.3,13.7-14,17c-2.7-1.3-3.2-4.2-1.5-8.5s3.8-9.2,6.5-14.5l-11,16c-1.3-2.7-0.5-6.7,2.5-12s4.2-9,3.5-11l-34-5
	c-2,0.7-4.7,3.3-8,8s-6.7,6.7-10,6c-9.3-1.3-17-2.7-23-4S243,260.7,243,254z M233,276c-2.7,3.3-8.2,6.3-16.5,9s-13.5,5-15.5,7
	c-3.3,9.3-5.7,19.2-7,29.5s-2,20.5-2,30.5c0,11.3,0.2,19.3,0.5,24s2.8,21.3,7.5,50c4,15.3,8.7,31.3,14,48s12.3,30,21,40
	c7.3,2.7,16,4,26,4c17.3,0,33.3-4.7,48-14c1.3,2.7,0.7,5-2,7s-5,3.7-7,5l4,2l-2,6c-9.3,4.7-17,8-23,10s-12.7,3-20,3
	c-9.3,0-17-2.7-23-8c0,4-1.2,14.3-3.5,31s-3.5,29.3-3.5,38c12,4.7,24.7,8.7,38,12s25.7,5,37,5v-15c0-8.7,1-22.7,3-42s3-34,3-44l5-5
	l-5,74c2.7-9.3,4.3-19,5-29s1-21,1-33c-0.7-2.7,0.7-6,4-10s5-6.7,5-8c0-2.7-2.3-4.3-7-5l-4,5c-3.3-6-7.5-18.8-12.5-38.5
	s-9.2-32.8-12.5-39.5c0-10,2-21.7,6-35s8-26,12-38c-0.7-0.7-2.3-0.5-5,0.5c-2.7,1-4.3,0.2-5-2.5c1.3-2,4.5-3.7,9.5-5s7.8-4,8.5-8
	c-10.7-11.3-24-17-40-17c-8.7,0-21.7,2-39,6s-30,6-38,6c10-6,20.8-10.2,32.5-12.5c11.7-2.3,25.2-3.5,40.5-3.5
	c-5.3-4-11.5-9.7-18.5-17S239,284,233,276z M327,513c-3.3,11.3-5.8,25.8-7.5,43.5S316,593.7,314,615h4c1.3-14,3.2-32.2,5.5-54.5
	S327,522.3,327,513z M387,518c-4.7,16.7-7,32.7-7,48L387,518z M334,519c0,8-1,19.7-3,35s-3,27-3,35s1,15.7,3,23
	c14,0,22.5-0.5,25.5-1.5s6.5-3.8,10.5-8.5l10-82h-20c-7.3,0-11.7,2-13,6C343.3,520.7,340,518.3,334,519z M387,570l3-14L387,570z
	 M377,594l1-10L377,594z M243,381c12-4.7,20.2-8,24.5-10s8.2-6.3,11.5-13C267,366,255,373.7,243,381z M339,560l2-3L339,560z
	 M342,534l2,13L342,534z"/>
</svg>
