<svg xmlns="http://www.w3.org/2000/svg" xmlns:xlink="http://www.w3.org/1999/xlink" version="1.1" viewBox="13 173 257 627">
   <path fill="currentColor" d="M144 173q29 0 35 20q-2 10 4 16q5 -3 9 -3q6 0 13 3t10 4q18 24 24 64.5t11 78.5q0 30 10 97t10 90q0 25 -1.5 35.5t-7.5 30.5q-16 36 -25.5 78.5t-13.5 89.5q-33 23 -82 23q-50 0 -92 -22q0 -12 3.5 -35.5t3.5 -32.5q0 -12 -2 -19q-9 -10 -14.5 -22t-11.5 -31 q-8 -46 -11 -66t-3 -49q0 -37 10 -68q10 -82 16 -127.5t21.5 -47.5t13.5 -13q2 -26 5 -52q5 -15 21 -18q5 -2 12.5 0t10.5 2q6 -11 9.5 -17t11.5 -9zM169 185q-3 -5 -12 -5h-10q-10 6 -14.5 13.5t-4.5 17.5q0 5 3 22t1 27h41q-1 -11 0 -23.5t2 -24.5q0 -16 -6 -27zM99 203 q-10 5 -13.5 15.5t-3.5 26.5v21q0 7 -2 17h41l2 -66q0 -9 -10 -11.5t-14 -2.5zM189 213q-4 4 -6.5 11t-2.5 19q0 8 2.5 19.5t5.5 24.5h44q0 -10 -2 -24.5t-5 -29.5q-4 -11 -14 -17.5t-22 -2.5zM132 271q-3 8 -3 15q0 4 2 19t2 22q4 -1 11.5 -1.5t14.5 -1.5h20v-31 q0 -12 -1 -18q-8 -10 -27 -10q-11 0 -19 6zM63 283q-20 7 -22 29.5t-3 36.5q6 -2 19 -2q12 0 17 1q2 -18 3.5 -31t1.5 -23q0 -11 -16 -11zM88 289q0 15 -1 30l-2 30q7 -1 20 -3t18 -1l2 -44q-1 -13 -18 -13q-14 1 -19 1zM188 295q-3 12 -3 24t4 21q5 -4 13 -4q2 0 17.5 3.5 t22.5 2.5l-4 -30q5 -21 -20 -21q-14 0 -19.5 1.5t-10.5 2.5zM133 334q-1 7 -1 19q0 9 1.5 20t2.5 18q3 8 10 8q13 -3 20.5 -4t11.5 1q5 -13 5 -30t-5 -32q-4 -1 -12 -1q-17 1 -33 1zM190 351v18t4 22q7 12 23 18t31 11q0 -16 -1 -31t-4 -31q-8 -12 -29 -12q-14 0 -24 5z M110 351q-1 1 -13.5 3t-12.5 11q1 4 1 13q0 22 2.5 29t19.5 4q8 0 14 -7.5t6 -24.5q-1 -14 -2.5 -23t-14.5 -5zM51 353q-13 0 -13 14q1 11 1 17q0 4 -2 10l39 -2l2 -26q0 -10 -9 -12q-13 -1 -18 -1zM37 405l-4 47q11 -5 23 -10q12 -7 10 -21q7 -9 14 -19q-4 -4 -9 -4 q-17 4 -34 7zM162 405q-9 1 -18 2.5t-12 9.5q4 4 24 8t26 16q7 2 14.5 -4.5t9.5 -7.5q3 6 -2 10l-10 8q6 11 11.5 17t13.5 9q4 7 22.5 24.5t20.5 31.5q-3 -41 -4.5 -60.5t-6.5 -35.5q-10 -9 -26 -13.5t-31 -9.5q-4 2 -5 6t-2 7q5 -13 -5 -16q-15 -1 -20 -2zM88 413 q-9 5 -9 16l5 4q6 3 11 3q9 0 10 -11q-2 -3 -8 -6t-9 -6zM117 418q8 3 10 1q-2 -3 -6 -4t-4 3zM71 427q-5 18 10 35q13 11 27 18.5t26 7.5q7 0 15 -3q-4 5 -5 8q7 14 33 28.5t29 33.5q-7 1 -11 -7.5t-8 -10.5l-2 6q-8 -10 -16 -16.5t-18 -6.5l-25 62l20 76q17 14 47 19 q13 0 23 -4.5t21 -14.5q14 -59 14 -125l-8 10l2 -30q-34 -32 -67 -65q-2 10 -8 13q3 -11 3 -20q-4 -3 -10 6h6q-4 12 -14 17q-4 -2 -1.5 -8.5t6.5 -14.5l-11 16q-2 -4 2.5 -12t3.5 -11l-34 -5q-3 1 -8 8t-10 6q-14 -2 -23 -4t-9 -12zM61 449q-4 5 -16.5 9t-15.5 7 q-5 14 -7 29.5t-2 30.5q0 17 0.5 24t7.5 50q6 23 14 48t21 40q11 4 26 4q26 0 48 -14q2 4 -2 7t-7 5l4 2l-2 6q-14 7 -23 10t-20 3q-14 0 -23 -8q0 6 -3.5 31t-3.5 38q18 7 38 12t37 5v-15q0 -13 3 -42t3 -44l5 -5l-5 74q4 -14 5 -29t1 -33q-1 -4 4 -10t5 -8q0 -4 -7 -5 l-4 5q-5 -9 -12.5 -38.5t-12.5 -39.5q0 -15 6 -35t12 -38q-1 -1 -5 0.5t-5 -2.5q2 -3 9.5 -5t8.5 -8q-16 -17 -40 -17q-13 0 -39 6t-38 6q15 -9 32.5 -12.5t40.5 -3.5q-8 -6 -18.5 -17t-19.5 -23zM155 686q-5 17 -7.5 43.5t-5.5 58.5h4q2 -21 5.5 -54.5t3.5 -47.5zM215 691 q-7 25 -7 48zM162 692q0 12 -3 35t-3 35t3 23q21 0 25.5 -1.5t10.5 -8.5l10 -82h-20q-11 0 -13 6q-1 -8 -10 -7zM215 743l3 -14zM205 767l1 -10zM71 554q18 -7 24.5 -10t11.5 -13q-18 12 -36 23zM167 733l2 -3zM170 707l2 13z"/>
</svg>