<svg xmlns="http://www.w3.org/2000/svg" xmlns:xlink="http://www.w3.org/1999/xlink" version="1.1" viewBox="25 267 490 533">
   <path fill="currentColor" d="M297 268q7 -1 21 -1q44 0 82.5 17.5t72.5 48.5q7 19 -3 24t-23 15t-23 9q-7 1 -23 -8t-20 -9q-6 0 -13 7h-29q-10 12 -21.5 42t-19.5 42q2 18 13.5 37t23.5 36q8 4 16 4t26 -13t28 -13q26 -20 37.5 -27t28.5 -7q9 0 18 3q15 9 20 14t6 12q0 16 -21 29.5t-25 18.5 q-11 30 -51.5 46t-53 19t-36 31.5t-41.5 34.5q-19 4 -37 8q-21 7 -33 30t-23.5 43t-27 24.5t-37.5 9.5t-33 5q-8 0 -12 -1q-33 -32 -59 -80q16 -38 32 -77q67 -139 81.5 -172.5t27.5 -79.5q26 -13 51 -42q27 -35 42 -53q7 -2 16.5 -9.5t21.5 -17.5zM321 325q-2 4 -5.5 6.5 t-6.5 -0.5q-22 3 -36 5t-24 12q-3 5 -7 10t-9 0q-14 24 -37.5 50t-44.5 49q-39 92 -62.5 143t-23.5 61q0 16 -13 19l-18 42q0 7 6 12t24 30t33 25q8 0 16 -4q0 -17 7.5 -35.5t15.5 -35.5l-25 -3q-6 -5 -9.5 -8.5t-1.5 -7.5q16 11 31 8l-14 -4q-5 -2 -9 -6.5t0 -8.5 q13 8 37 8h15q10 -2 14 -2q34 -23 47.5 -61t13.5 -87q0 -11 -1 -23.5t-1 -19.5q-8 3 -13 3q-7 0 -13.5 -2.5t-15.5 -7.5h21q22 0 33 -7q11 -30 22 -61q-8 0 -8 2q-6 3 -13 3t-10 -4q20 0 27.5 -10.5t7.5 -18.5q0 -9 -11 -15q9 2 19 3q12 -6 20.5 -11.5t7.5 -16.5q12 9 32 9 q8 0 16.5 -1t16.5 -2q6 -3 12 -9.5t1 -15.5q-10 1 -27.5 -6.5t-24.5 -7.5q-4 0 -12 2zM271 297q-16 13 -49 56.5t-48 55.5l-15 30q4 -6 6 -10q17 -12 35.5 -36.5t41.5 -55.5l66 -20l75 5q9 16 9 30q0 6 -1 9q12 6 19 9t16 3q6 0 12 -3.5t9.5 -6.5t2.5 -9q-7 -1 -15 -1.5 t-11.5 -10.5t-16.5 -17t-25 -14q-5 -4 -13.5 0t-11.5 4l3 -12q-14 0 -44 -3t-45 -3zM443 321q-4 6 0 10t7 6q4 3 8.5 4t6.5 -4q-10 -12 -22 -16zM364 279q-7 0 -21 -2t-22 -2q-9 0 -16 2t-13 9h-6.5t-1.5 3l76 6q14 6 39.5 18.5t35.5 15.5l-4 -9q8 -7 0 -13q-12 -6 -14 -8 l-16 -2l2 -5q-8 -4 -21 -7.5t-18 -5.5zM375 328l-7 -1zM427 335q-3 3 0 5.5t6 4.5q4 4 11 -1zM458 354h4q3 -4 6 -9q-13 0 -10 9zM297 388q13 6 18 5q5 -2 8.5 -9.5t5.5 -11.5q-9 -4 -18.5 4.5t-13.5 11.5zM185 383q-8 9 -15 18zM290 392l-3 21q-8 9 -15 30.5t-13 31.5 q7 -4 12.5 -18t9.5 -16q-6 13 -8.5 19.5t-1.5 11.5q17 -11 25.5 -29.5t12.5 -41.5q-5 1 -11 -4t-8 -5zM284 399q-7 11 -4 14zM242 500l5 52q3 12 3 24q0 21 -6 40t-12.5 32t-12 21.5t-2.5 14.5l80 -25l49 -48q-4 -29 -8 -50t-20 -32q2 -10 -9.5 -15.5t-13.5 -12.5 q-2 -18 -3 -36q-25 22 -50 35zM412 508q3 33 12 57q-9 -9 -14 -25t-7 -24l-7 2q-12 7 -20.5 11.5t-8.5 13.5q0 4 3 10q-5 -19 -25 -16q0 18 6 33q0 11 1 23t5 17q38 -18 76 -37q10 -1 20.5 -13.5t15.5 -18.5q3 -9 21 -18.5t18 -18.5q0 -5 -4 -12q-13 -13 -31 -13 q-16 0 -32 8.5t-29 20.5zM298 482q-1 10 10 23zM346 577l-2 -18zM235 624l6 -23zM213 695q-15 24 -25 41t-13 33q8 -20 18.5 -38t23.5 -34zM193 701q-13 14 -22.5 31t-9.5 31zM153 711q-14 12 -21.5 31.5t-11.5 42.5q9 2 14.5 0.5t14.5 -6.5q0 -15 12.5 -41.5t13.5 -28.5 q-14 1 -22 2zM256 548q9 -7 17 -10.5t17 -2.5q-19 3 -34 13z"/>
</svg>