<?xml version="1.0" encoding="utf-8"?>
<!-- Generator: Adobe Illustrator 26.4.1, SVG Export Plug-In . SVG Version: 6.00 Build 0)  -->
<svg version="1.1" id="Layer_1" xmlns="http://www.w3.org/2000/svg" xmlns:xlink="http://www.w3.org/1999/xlink" x="0px" y="0px"
	 viewBox="0 0 533 533" style="enable-background:new 0 0 533 533;" xml:space="preserve">
<path d="M293.5,1c4.7-0.7,11.7-1,21-1c29.3,0,56.8,5.8,82.5,17.5s49.8,27.8,72.5,48.5c4.7,12.7,3.7,20.7-3,24s-14.3,8.3-23,15
	s-16.3,9.7-23,9c-4.7,0.7-12.3-2-23-8s-17.3-9-20-9c-4,0-8.3,2.3-13,7h-29c-6.7,8-13.8,22-21.5,42s-14.2,34-19.5,42
	c1.3,12,5.8,24.3,13.5,37s15.5,24.7,23.5,36c5.3,2.7,10.7,4,16,4s14-4.3,26-13c12-8.7,21.3-13,28-13c17.3-13.3,29.8-22.3,37.5-27
	s17.2-7,28.5-7c6,0,12,1,18,3c10,6,16.7,10.7,20,14c3.3,3.3,5.3,7.3,6,12c0,10.7-7,20.5-21,29.5s-22.3,15.2-25,18.5
	c-7.3,20-24.5,35.3-51.5,46s-44.7,17-53,19s-20.3,12.5-36,31.5S295.5,409,283.5,413c-12.7,2.7-25,5.3-37,8c-14,4.7-25,14.7-33,30
	s-15.8,29.7-23.5,43s-16.7,21.5-27,24.5s-22.8,6.2-37.5,9.5s-25.7,5-33,5c-5.3,0-9.3-0.3-12-1c-22-21.3-41.7-48-59-80
	c10.7-25.3,21.3-51,32-77c44.7-92.7,71.8-150.2,81.5-172.5s18.8-48.8,27.5-79.5c17.3-8.7,34.3-22.7,51-42c18-23.3,32-41,42-53
	c4.7-1.3,10.2-4.5,16.5-9.5S285.5,7.7,293.5,1z M317.5,58c-1.3,2.7-3.2,4.8-5.5,6.5s-4.5,1.5-6.5-0.5c-14.7,2-26.7,3.7-36,5
	s-17.3,5.3-24,12c-2,3.3-4.3,6.7-7,10s-5.7,3.3-9,0c-9.3,16-21.8,32.7-37.5,50s-30.5,33.7-44.5,49c-26,61.3-46.8,109-62.5,143
	s-23.5,54.3-23.5,61c0,10.7-4.3,17-13,19l-18,42c0,4.7,2,8.7,6,12s12,13.3,24,30s23,25,33,25c5.3,0,10.7-1.3,16-4
	c0-11.3,2.5-23.2,7.5-35.5s10.2-24.2,15.5-35.5l-25-3c-4-3.3-7.2-6.2-9.5-8.5s-2.8-4.8-1.5-7.5c10.7,7.3,21,10,31,8l-14-4
	c-3.3-1.3-6.3-3.5-9-6.5s-2.7-5.8,0-8.5c8.7,5.3,21,8,37,8h15c6.7-1.3,11.3-2,14-2c22.7-15.3,38.5-35.7,47.5-61s13.5-54.3,13.5-87
	c0-7.3-0.3-15.2-1-23.5c-0.7-8.3-1-14.8-1-19.5c-5.3,2-9.7,3-13,3c-4.7,0-9.2-0.8-13.5-2.5s-9.5-4.2-15.5-7.5h21
	c14.7,0,25.7-2.3,33-7c7.3-20,14.7-40.3,22-61c-5.3,0-8,0.7-8,2c-4,2-8.3,3-13,3s-8-1.3-10-4c13.3,0,22.5-3.5,27.5-10.5
	s7.5-13.2,7.5-18.5c0-6-3.7-11-11-15c6,1.3,12.3,2.3,19,3c8-4,14.8-7.8,20.5-11.5s8.2-9.2,7.5-16.5c8,6,18.7,9,32,9
	c5.3,0,10.8-0.3,16.5-1s11.2-1.3,16.5-2c4-2,8-5.2,12-9.5s4.3-9.5,1-15.5c-6.7,0.7-15.8-1.5-27.5-6.5S334.2,56,329.5,56
	C326.8,56,322.8,56.7,317.5,58z M267.5,30c-10.7,8.7-27,27.5-49,56.5s-38,47.5-48,55.5l-15,30c2.7-4,4.7-7.3,6-10
	c11.3-8,23.2-20.2,35.5-36.5s26.2-34.8,41.5-55.5l66-20l75,5c6,10.7,9,20.7,9,30c0,4-0.3,7-1,9c8,4,14.3,7,19,9s10,3,16,3
	c4,0,8-1.2,12-3.5s7.2-4.5,9.5-6.5s3.2-5,2.5-9c-4.7-0.7-9.7-1.2-15-1.5S422.3,81.7,420,75s-7.8-12.3-16.5-17s-17-9.3-25-14
	c-3.3-2.7-7.8-2.7-13.5,0s-9.5,4-11.5,4l3-12c-9.3,0-24-1-44-3S277.5,30,267.5,30z M439.5,54c-2.7,4-2.7,7.3,0,10s5,4.7,7,6
	c2.7,2,5.5,3.3,8.5,4s5.2-0.7,6.5-4C454.8,62,447.5,56.7,439.5,54z M360.5,12c-4.7,0-11.7-0.7-21-2s-16.7-2-22-2c-6,0-11.3,0.7-16,2
	s-9,4.3-13,9H282c0,0-0.5,1-1.5,3l76,6c9.3,4,22.5,10.2,39.5,18.5S424.8,60,431.5,62l-4-9c5.3-4.7,5.3-9,0-13c-8-4-12.7-6.7-14-8
	l-16-2l2-5c-5.3-2.7-12.3-5.2-21-7.5S363.8,13.3,360.5,12z M371.5,61l-7-1L371.5,61z M423.5,68c-2,2-2,3.8,0,5.5s4,3.2,6,4.5
	c2.7,2.7,6.3,2.3,11-1L423.5,68z M454.5,87h4c2-2.7,4-5.7,6-9C455.8,78,452.5,81,454.5,87z M293.5,121c8.7,4,14.7,5.7,18,5
	c3.3-1.3,6.2-4.5,8.5-9.5s4.2-8.8,5.5-11.5c-6-2.7-12.2-1.2-18.5,4.5S296.2,119,293.5,121z M181.5,116c-5.3,6-10.3,12-15,18
	L181.5,116z M286.5,125l-3,21c-5.3,6-10.3,16.2-15,30.5s-9,24.8-13,31.5c4.7-2.7,8.8-8.7,12.5-18s6.8-14.7,9.5-16
	c-4,8.7-6.8,15.2-8.5,19.5s-2.2,8.2-1.5,11.5c11.3-7.3,19.8-17.2,25.5-29.5s9.8-26.2,12.5-41.5c-3.3,0.7-7-0.7-11-4
	S287.8,125,286.5,125z M280.5,132c-4.7,7.3-6,12-4,14L280.5,132z M238.5,233l5,52c2,8,3,16,3,24c0,14-2,27.3-6,40s-8.2,23.3-12.5,32
	s-8.3,15.8-12,21.5s-4.5,10.5-2.5,14.5l80-25l49-48c-2.7-19.3-5.3-36-8-50s-9.3-24.7-20-32c1.3-6.7-1.8-11.8-9.5-15.5
	c-7.7-3.7-12.2-7.8-13.5-12.5c-1.3-12-2.3-24-3-36C271.8,212.7,255.2,224.3,238.5,233z M408.5,241c2,22,6,41,12,57
	c-6-6-10.7-14.3-14-25s-5.7-18.7-7-24l-7,2c-8,4.7-14.8,8.5-20.5,11.5s-8.5,7.5-8.5,13.5c0,2.7,1,6,3,10c-3.3-12.7-11.7-18-25-16
	c0,12,2,23,6,33c0,7.3,0.3,15,1,23s2.3,13.7,5,17c25.3-12,50.7-24.3,76-37c6.7-0.7,13.5-5.2,20.5-13.5s12.2-14.5,15.5-18.5
	c2-6,9-12.2,21-18.5s18-12.5,18-18.5c0-3.3-1.3-7.3-4-12c-8.7-8.7-19-13-31-13c-10.7,0-21.3,2.8-32,8.5S417.2,233,408.5,241z
	 M294.5,215c-0.7,6.7,2.7,14.3,10,23L294.5,215z M342.5,310l-2-18L342.5,310z M231.5,357l6-23L231.5,357z M209.5,428
	c-10,16-18.3,29.7-25,41s-11,22.3-13,33c5.3-13.3,11.5-26,18.5-38s14.8-23.3,23.5-34L209.5,428z M189.5,434
	c-8.7,9.3-16.2,19.7-22.5,31s-9.5,21.7-9.5,31L189.5,434z M149.5,444c-9.3,8-16.5,18.5-21.5,31.5s-8.8,27.2-11.5,42.5
	c6,1.3,10.8,1.5,14.5,0.5s8.5-3.2,14.5-6.5c0-10,4.2-23.8,12.5-41.5s12.8-27.2,13.5-28.5C162.2,442.7,154.8,443.3,149.5,444z
	 M252.5,281c6-4.7,11.7-8.2,17-10.5s11-3.2,17-2.5C273.8,270,262.5,274.3,252.5,281z"/>
</svg>
