<?xml version="1.0" encoding="utf-8"?>
<!-- Generator: Adobe Illustrator 26.4.1, SVG Export Plug-In . SVG Version: 6.00 Build 0)  -->
<svg version="1.1" id="Layer_1" xmlns="http://www.w3.org/2000/svg" xmlns:xlink="http://www.w3.org/1999/xlink" x="0px" y="0px"
	 viewBox="0 0 666 666" style="enable-background:new 0 0 666 666;" xml:space="preserve">
<path d="M352.5,4c4.7-2.7,10-4,16-4c15.3,0,24,6.3,26,19c6,10.7,14.5,33,25.5,67s17.8,54,20.5,60c0,20.7,5.2,58,15.5,112
	s15.5,92,15.5,114c0,12-1,24-3,36c-3.3,9.3-5,20.3-5,33c0,8,0.3,16,1,24s1.3,15.7,2,23c0,12.7-1.5,23.2-4.5,31.5
	s-9.5,16.5-19.5,24.5c-11.3,4-17.5,12-18.5,24s-1.8,23.3-2.5,34l-5,37l-55,23c-8.7,2.7-18.7,4-30,4c-14.7,0-27.7-2-39-6
	s-26.7-11.3-46-22c-10-4-15-11-15-21c0-3.3,1.5-10.8,4.5-22.5s3.8-20.5,2.5-26.5c-2-13.3-9.5-36.8-22.5-70.5s-19.5-61.2-19.5-82.5
	c0-7.3-0.3-18.3-1-33c-0.7-14.7-1-25.3-1-32c0-13.3,0.3-24,1-32s2.3-15.5,5-22.5s8.5-11.3,17.5-13s12.8-6.2,11.5-13.5
	c0-8.7,1.5-16.5,4.5-23.5s9.7-12,20-15s19.2-3.5,26.5-1.5c1.3-9.3,3.2-16.5,5.5-21.5s6.5-8.8,12.5-11.5c8-1.3,14.8-2.5,20.5-3.5
	s9.2-1.5,10.5-1.5c5.3,0,10,1,14,3s7,6,9,12c3.3,6,6.7,12.5,10,19.5s6,13.8,8,20.5c1.3,0,3-0.3,5-1c0-3.3,0.3-6.7,1-10
	c-12.7-67.3-25-135-37-203c0.7-5.3,1.7-10.8,3-16.5S347.2,6,352.5,4z M347.5,16c-1.3,6.7-2,11.7-2,15c0,10.7,1.7,21.5,5,32.5
	s6.7,21.5,10,31.5c6.7,0.7,15.7-0.7,27-4s19.3-4.3,24-3c0-8.7-2.5-18.5-7.5-29.5S394.5,37,390.5,27c-0.7-8-3.7-13.3-9-16
	s-10.3-4-15-4C359.2,7,352.8,10,347.5,16z M411.5,94l-50,8c0.7,6.7,2.7,16.7,6,30c3.3,13.3,5,24,5,32c6,0,14-1.3,24-4s17.7-4,23-4
	c2.7,0,6.7,0.7,12,2c0-9.3-0.8-16.7-2.5-22S421.5,116.7,411.5,94z M396.5,167c4.7-2,9.7-4,15-6C406.2,163,401.2,165,396.5,167z
	 M431.5,164c-4.7,0-12,1.7-22,5s-17.7,5-23,5c-2.7,0-6.7-0.7-12-2l10,74c20.7,2.7,41.7,5,63,7L431.5,164z M334.5,198
	c-6.7-0.7-12.8,0-18.5,2s-12.8,5.7-21.5,11c-2,10-3,19.3-3,28c0,15.3,1.3,27.8,4,37.5s12.3,34.8,29,75.5l2-20c2.7-3.3,9.7-6.7,21-10
	c5.3,0.7,10.3,5.3,15,14s7.7,13.7,9,15c-7.3-32-11-65.7-11-101C358.5,230.7,349.8,213.3,334.5,198z M276.5,236
	c-2.7-0.7-6.8-0.7-12.5,0s-10.3,1.8-14,3.5s-6.3,4.3-8,8c-1.7,3.7-3.5,13.2-5.5,28.5c8.7,10.7,17.5,30.2,26.5,58.5
	s18.8,48.2,29.5,59.5l-3-32c3.3-8,11.3-12,24-12l-24-64c-1.3-3.3-2.8-11.2-4.5-23.5S280.5,241.3,276.5,236z M366.5,269
	c1.3,6.7,3,13.3,5,20c2.7-6.7,5-12.2,7-16.5s4.3-7.8,7-10.5l-4,21c-6.7,6-10,13.3-10,22c0,5.3,1.7,13.3,5,24s5,18.3,5,23
	c0.7,4,3.2,7.7,7.5,11s8.2,3.7,11.5,1l18-32c2.7,1.3,2.8,4.3,0.5,9s-3.5,8-3.5,10l7-1c-2,4-4.2,8.5-6.5,13.5s-5.2,8.5-8.5,10.5
	c-0.7,2.7,1.7,6.3,7,11s8.7,7.7,10,9c3.3-2.7,6.7-7.5,10-14.5c3.3-7,5.7-11.8,7-14.5c1.3,6,0.7,12.5-2,19.5s-5.3,13.5-8,19.5
	c7.3,9.3,15,18.7,23,28c4-23.3,6-47,6-71c0-33.3-1.7-57.8-5-73.5s-8-24.8-14-27.5c-3.3,2-7,3-11,3c-5.3,0-13.5-1.8-24.5-5.5
	s-17.8-5.5-20.5-5.5C376.2,252,369.8,257.7,366.5,269z M216.5,290c-7.3,1.3-11.5,5.2-12.5,11.5s-1.5,11.8-1.5,16.5v11
	c10,22,17.8,38.5,23.5,49.5s12.8,19.5,21.5,25.5c4,1.3,7.7,2,11,2c10,0,16.7-4,20-12c-4,1.3-7.3,2-10,2c-3.3,2-7.7,3-13,3
	c-4.7,0-8.3-1.3-11-4c-3.3-10.7-4-20-2-28c4.7-8,10.7-11,18-9l-15-46c-4-6.7-7.2-12.5-9.5-17.5s-5.8-7.5-10.5-7.5
	C222.8,287,219.8,288,216.5,290z M331.5,338c0,15.3,0.3,24.3,1,27c4,0,8.3-1.2,13-3.5s10-6.5,16-12.5c0-9.3-3-14-9-14
	C343.2,337,336.2,338,331.5,338z M362.5,359c-10.7,4-19.3,10.3-26,19c-6.7,8.7-10,18.7-10,30c2.7,10.7,7.5,20.3,14.5,29
	s14,15.3,21,20s15.3,7.8,25,9.5s16.2,4.5,19.5,8.5l-14,5l23,20c-5.3,1.3-10.5,0.2-15.5-3.5s-9.8-7.5-14.5-11.5l2,24
	c-4-2.7-7.2-9-9.5-19s-5.5-16-9.5-18c-5.3-1.3-11.7-6.3-19-15s-13.7-14-19-16c-6,8.7-9,19.3-9,32c0,8.7,1.7,18.5,5,29.5
	s6.7,21.5,10,31.5c6.7,10.7,15.3,17.3,26,20s20.3,4,29,4c4.7,0,11.7-0.7,21-2c14.7-8,25.8-20.3,33.5-37s11.5-34.7,11.5-54
	c-4-10.7-8-18-12-22l-25,29l-14-3c2-8,5-14.7,9-20s11-12.3,21-21c-2.7-10.7-11.8-22.8-27.5-36.5c-15.7-13.7-23.8-21.2-24.5-22.5
	c2,5.3,3.3,9.7,4,13c2.7,2.7,4,5.7,4,9c0,5.3-2.5,10.7-7.5,16s-9.8,10.3-14.5,15c-5.3,2-10,2.2-14,0.5s-10.7-7.2-20-16.5
	c0-9.3,3.3-17.5,10-24.5s15.3-13.8,26-20.5C369.8,358.3,366.5,357.7,362.5,359z M314.5,360c-1.3,3.3-4.8,5.3-10.5,6
	c-5.7,0.7-8.5,2.7-8.5,6c0.7,6,1.7,12.2,3,18.5s4.7,9.5,10,9.5c5.3,0,10.7-6,16-18C321.2,370,317.8,362.7,314.5,360z M204.5,367
	c-1.3,5.3-2,9.3-2,12c0.7,7.3,1.7,14.3,3,21h12c4,0,7-1.3,9-4c-1.3-1.3-4-6.5-8-15.5S209.8,367,204.5,367z M265.5,368
	c-6.7,3.3-12,5.7-16,7s-4.7,5.7-2,13c4,3.3,6.7,5,8,5c10-1.3,15.3-4.7,16-10L265.5,368z M371.5,372c-14.7,5.3-23.7,16-27,32
	c0.7,3.3,2.8,5.7,6.5,7s7.5,2.7,11.5,4l9-15c0.7-1.3,3.3-2.7,8-4s6.7-4,6-8c-1.3-1.3-3-4.5-5-9.5S375.5,371.3,371.5,372z M378.5,406
	l1-5l-5,7L378.5,406z M298.5,414c-9.3-6-15.3-9-18-9s-5.8,1.8-9.5,5.5s-7.8,5.5-12.5,5.5s-11.3-2-20-6c-8.7-4-14.7-6-18-6
	c-4.7,0-9.7,2-15,6c0,20,4,42.3,12,67c10.7,28,18.3,49,23,63c4,8.7,9.8,14.7,17.5,18s16.2,5,25.5,5c8.7,0,16-0.3,22-1s12.3-1.7,19-3
	v72l10-79c-6.7-10-12.2-19.7-16.5-29s-7.8-20-10.5-32l3-2l4,1v-6c-4-4-6-8.7-6-14s2.8-13.2,8.5-23.5s8.8-16.5,9.5-18.5l-4-6
	c-10.7,8.7-19.2,18.7-25.5,30s-13.2,26-20.5,44c3.3-32,17.3-58.7,42-80h-4c-8,6-17,14.3-27,25s-19.7,21-29,31h-6l45-50L298.5,414z
	 M310.5,408h6C315.8,406.7,313.8,406.7,310.5,408z M431.5,441c-5.3,4.7-9.3,8.3-12,11s-4.7,6.7-6,12c6.7-5.3,10.8-9.2,12.5-11.5
	S429.5,446.3,431.5,441z M314.5,494c2,6.7,4.3,13.5,7,20.5s5.3,11.5,8,13.5L314.5,494z M347.5,562c0,8.7-0.3,18-1,28s-1.3,19.7-2,29
	c0,11.3,1.3,21,4,29c1.3-0.7,6.3-1.3,15-2s14.7-3,18-7l4-56c-9.3-0.7-17.3-1.5-24-2.5s-11.3-5.2-14-12.5l3-2c3.3,2.7,8.8,4.7,16.5,6
	s13.8,2,18.5,2c-4.7,0-11.3-1.8-20-5.5S350.8,562.7,347.5,562z M321.5,565c-4,2-11,3.7-21,5s-16.7,3.3-20,6h16c4,0,6.7,0.7,8,2
	c-10,4-21,6-33,6c-6.7,0-11.3-0.3-14-1l3,45c9.3,8,17.8,13.8,25.5,17.5s14.5,5.5,20.5,5.5c2.7,0,6.7-0.7,12-2L321.5,565z M337.5,568
	c-2.7,12.7-4.3,25.5-5,38.5s-1,27.2-1,42.5h9c-1.3-9.3-2-16.3-2-21s0.2-10.3,0.5-17s0.8-14.3,1.5-23
	C340.5,580.7,339.5,574,337.5,568z M245.5,574l-1,48c4.7,4.7,8.3,6,11,4c-1.3-4-2.3-12.3-3-25S249.5,579.3,245.5,574z M408.5,608
	l3-34L408.5,608z M386.5,635h4c1.3-6.7,2.3-14.8,3-24.5s1-18.8,1-27.5L386.5,635z M288.5,314l-8,8l10-3c0,2-1.7,3.8-5,5.5l-9,4.5
	c-2.7-2.7-5.3-4-8-4C273.8,319.7,280.5,316,288.5,314z M444.5,322h6H444.5z M218.5,342c2-9.3,9.3-15.3,22-18c0,4-3.2,7.2-9.5,9.5
	S220.5,338.7,218.5,342z M334.5,279c2.7-0.7,5.2,0.2,7.5,2.5l6.5,6.5c-4-1.3-9.7-1.7-17-1s-12.3,1-15,1c1.3-1.3,4.7-2.3,10-3
	S334.5,282.3,334.5,279z"/>
</svg>
