<svg xmlns="http://www.w3.org/2000/svg" xmlns:xlink="http://www.w3.org/1999/xlink" version="1.1" viewBox="15 133 277 666">
   <path fill="currentColor" d="M173 137q7 -4 16 -4q23 0 26 19q9 16 25.5 67t20.5 60q0 31 15.5 112t15.5 114q0 18 -3 36q-5 14 -5 33q0 12 1 24t2 23q0 19 -4.5 31.5t-19.5 24.5q-17 6 -18.5 24t-2.5 34l-5 37l-55 23q-13 4 -30 4q-22 0 -39 -6t-46 -22q-15 -6 -15 -21q0 -5 4.5 -22.5t2.5 -26.5 q-3 -20 -22.5 -70.5t-19.5 -82.5q0 -11 -1 -33t-1 -32q0 -20 1 -32t5 -22.5t17.5 -13t11.5 -13.5q0 -13 4.5 -23.5t20 -15t26.5 -1.5q2 -14 5.5 -21.5t12.5 -11.5q12 -2 20.5 -3.5t10.5 -1.5q8 0 14 3t9 12q5 9 10 19.5t8 20.5q2 0 5 -1q0 -5 1 -10q-19 -101 -37 -203 q1 -8 3 -16.5t10 -11.5zM168 149q-2 10 -2 15q0 16 5 32.5t10 31.5q10 1 27 -4t24 -3q0 -13 -7.5 -29.5t-13.5 -31.5q-1 -12 -9 -16t-15 -4q-11 0 -19 9zM232 227l-50 8q1 10 6 30t5 32q9 0 24 -4t23 -4q4 0 12 2q0 -14 -2.5 -22t-17.5 -42zM217 300q7 -3 15 -6q-8 3 -15 6z M252 297q-7 0 -22 5t-23 5q-4 0 -12 -2l10 74q31 4 63 7zM155 331q-10 -1 -18.5 2t-21.5 11q-3 15 -3 28q0 23 4 37.5t29 75.5l2 -20q4 -5 21 -10q8 1 15 14t9 15q-11 -48 -11 -101q-3 -29 -26 -52zM97 369q-4 -1 -12.5 0t-14 3.5t-8 8t-5.5 28.5q13 16 26.5 58.5t29.5 59.5 l-3 -32q5 -12 24 -12l-24 -64q-2 -5 -4.5 -23.5t-8.5 -26.5zM187 402q2 10 5 20q4 -10 7 -16.5t7 -10.5l-4 21q-10 9 -10 22q0 8 5 24t5 23q1 6 7.5 11t11.5 1l18 -32q4 2 0.5 9t-3.5 10l7 -1q-3 6 -6.5 13.5t-8.5 10.5q-1 4 7 11t10 9q5 -4 10 -14.5t7 -14.5q2 9 -2 19.5 t-8 19.5q11 14 23 28q6 -35 6 -71q0 -50 -5 -73.5t-14 -27.5q-5 3 -11 3q-8 0 -24.5 -5.5t-20.5 -5.5q-14 0 -19 17zM37 423q-11 2 -12.5 11.5t-1.5 16.5v11q15 33 23.5 49.5t21.5 25.5q6 2 11 2q15 0 20 -12q-6 2 -10 2q-5 3 -13 3q-7 0 -11 -4q-5 -16 -2 -28q7 -12 18 -9 l-15 -46q-6 -10 -9.5 -17.5t-10.5 -7.5q-4 0 -9 3zM152 471q0 23 1 27q6 0 13 -3.5t16 -12.5q0 -14 -9 -14q-14 3 -21 3zM183 492q-16 6 -26 19t-10 30q4 16 14.5 29t21 20t25 9.5t19.5 8.5l-14 5l23 20q-8 2 -15.5 -3.5t-14.5 -11.5l2 24q-6 -4 -9.5 -19t-9.5 -18 q-8 -2 -19 -15t-19 -16q-9 13 -9 32q0 13 5 29.5t10 31.5q10 16 26 20t29 4q7 0 21 -2q22 -12 33.5 -37t11.5 -54q-6 -16 -12 -22l-25 29l-14 -3q3 -12 9 -20t21 -21q-4 -16 -27.5 -36.5t-24.5 -22.5q3 8 4 13q4 4 4 9q0 8 -7.5 16t-14.5 15q-8 3 -14 0.5t-20 -16.5 q0 -14 10 -24.5t26 -20.5q-4 -4 -10 -2zM135 493q-2 5 -10.5 6t-8.5 6q1 9 3 18.5t10 9.5t16 -18q-5 -18 -10 -22zM25 500q-2 8 -2 12q1 11 3 21h12q6 0 9 -4q-2 -2 -8 -15.5t-14 -13.5zM86 501q-10 5 -16 7t-2 13q6 5 8 5q15 -2 16 -10zM192 505q-22 8 -27 32q1 5 6.5 7 t11.5 4l9 -15q1 -2 8 -4t6 -8q-2 -2 -5 -9.5t-9 -6.5zM199 539l1 -5l-5 7zM119 547q-14 -9 -18 -9t-9.5 5.5t-12.5 5.5t-20 -6t-18 -6q-7 0 -15 6q0 30 12 67q16 42 23 63q6 13 17.5 18t25.5 5q13 0 22 -1t19 -3v72l10 -79q-10 -15 -16.5 -29t-10.5 -32l3 -2l4 1v-6 q-6 -6 -6 -14t8.5 -23.5t9.5 -18.5l-4 -6q-16 13 -25.5 30t-20.5 44q5 -48 42 -80h-4q-12 9 -27 25t-29 31h-6l45 -50zM131 541h6q-1 -2 -6 0zM252 574q-8 7 -12 11t-6 12q10 -8 12.5 -11.5t5.5 -11.5zM135 627q3 10 7 20.5t8 13.5zM168 695q0 13 -1 28t-2 29q0 17 4 29 q2 -1 15 -2t18 -7l4 -56q-14 -1 -24 -2.5t-14 -12.5l3 -2q5 4 16.5 6t18.5 2q-7 0 -20 -5.5t-18 -6.5zM142 698q-6 3 -21 5t-20 6h16q6 0 8 2q-15 6 -33 6q-10 0 -14 -1l3 45q14 12 25.5 17.5t20.5 5.5q4 0 12 -2zM158 701q-4 19 -5 38.5t-1 42.5h9q-2 -14 -2 -21t0.5 -17 t1.5 -23q0 -11 -3 -20zM66 707l-1 48q7 7 11 4q-2 -6 -3 -25t-7 -27zM229 741l3 -34zM207 768h4q2 -10 3 -24.5t1 -27.5zM109 447l-8 8l10 -3q0 3 -5 5.5l-9 4.5q-4 -4 -8 -4q8 -8 20 -11zM265 455h6h-6zM39 475q3 -14 22 -18q0 6 -9.5 9.5t-12.5 8.5zM155 412q4 -1 7.5 2.5 l6.5 6.5q-6 -2 -17 -1t-15 1q2 -2 10 -3t8 -6z"/>
</svg>