<svg xmlns="http://www.w3.org/2000/svg" xmlns:xlink="http://www.w3.org/1999/xlink" version="1.1" viewBox="14 326.9 279 473.1">
   <path  d="M170 327q8 1 16.5 2.5t11.5 9.5q-1 6 6 8q7 -4 17 -4q21 3 30 4q25 38 25 88q0 26 -7 47q-3 2 -7.5 6t-4.5 11q0 3 3 6q16 6 20.5 18t12.5 46l-30 78q-14 24 -37 33q-2 4 -2 12q2 17 2 25l-7 48q-18 12 -36 18t-58 17q-23 -6 -38 -10t-30 -11q0 -8 5 -31t5 -32 q0 -22 -16 -34q-23 -31 -30 -71.5t-7 -94.5q10 -50 16.5 -78.5t16 -33.5t11.5 -8q4 -21 7 -28t14 -13l23 -9l17 13q10 -15 23 -24t28 -8zM187 337q-10 -2 -15 -2q-24 0 -37 16q-7 6 -7 10q0 5 7.5 12.5t9.5 11.5q20 17 26.5 45.5t11.5 46.5q2 -12 2 -19q4 -18 19 -15 q7 -1 10.5 2.5t6.5 11.5q3 -12 3 -22q0 -14 -1.5 -21.5t-6.5 -22.5t-13 -28zM208 355q21 44 21 93q0 16 -1 24q0 -4 1.5 -7t3.5 -8q3 -14 20 -14q10 2 14 18q3 -18 3 -36q0 -32 -13 -55q0 -20 -26 -20q-15 0 -23 5zM73 367q-5 9 -7 15t-1 13q9 3 11 3q23 19 41 43t25 50h6 q-5 -8 -5 -21q0 -11 6 -17q9 -6 20 -8l-10 -24q-8 1 -15.5 2.5t-12.5 8.5q-1 -8 8 -11.5t17 -6.5q-17 -32 -49 -58q-6 -2 -13.5 0t-20.5 11zM43 415q-7 10 -9 22t-2 27v15h5q14 1 14 -3q0 -2 -7 -12t-5 -15q5 0 8.5 9t9.5 10l4 -7q6 16 21.5 27.5t34.5 18.5q-8 -18 -8 -26 q1 -5 16 -12q-4 -16 -18.5 -31.5t-27.5 -30.5q-5 -3 -9 -3q-6 0 -12.5 3.5t-14.5 7.5zM200 450q7 0 8 -1q-2 -2 -8 1zM244 450q12 2 13 -2q-7 1 -13 2zM241 455q-6 8 -6 15q0 4 4 7h16q8 0 7 -9q2 -11 -8 -11.5t-13 -1.5zM193 455q-6 12 -3 19l8 1q11 -2 16 -5.5t1 -12.5z M169 459l-20 4q0 18 1 22h17q9 -4 7 -10zM35 487q-14 6 -14 32q0 5 1 11t1 9q14 0 27.5 -6t26 -11t24.5 -10q-14 -10 -24 -17t-16 -14zM193 481l-6 -2zM125 482q-1 2 -6 3t-3 6q4 8 11 7q6 -5 6 -9q-4 -7 -8 -7zM181 488q-7 4 -7 10q0 2 3 10.5t0 13.5q-4 7 -14.5 11 t-20.5 4q-5 -3 -8 -12.5t-8 -11.5q-4 13 4 24q21 11 46.5 14.5t57.5 3.5q0 4 -8.5 6t-10.5 4q4 5 12.5 9.5t9.5 6.5q-7 3 -13.5 0.5t-13.5 -8.5q1 6 2.5 11t0.5 7q-3 -3 -6.5 -9.5t-9.5 -20.5l-31 -1q-12 21 -15.5 30.5t-3.5 21.5t6 23q2 12 9.5 17.5t21.5 11.5q8 7 20 7 q9 0 20 -5.5l21 -10.5q19 -44 38 -89q0 -21 -13.5 -41.5t-35.5 -31.5v19q-1 -3 -2.5 -10.5t-5.5 -10.5q1 8 2.5 13.5t-2.5 8.5q-2 -9 -2.5 -14t-5.5 -7q1 10 3 20q-4 -3 -5 -11.5t-5 -11.5zM136 516q5 12 17 12q5 0 11 -3q-2 -13 -3 -27q-11 -3 -20 2t-5 16zM166 501 q-2 5 -1 10.5t6 5.5l2 -8q-2 -3 -3 -6t-4 -2zM117 523q-9 -3 -17 -3q-14 0 -37.5 12t-37.5 14q-1 6 -1 20q0 11 0.5 18.5t3.5 24.5q12 28 21 48t22 33q11 4 24 4q17 0 32 -5.5t26 -9.5q5 10 6 18t1 21q0 6 -1 19t-1 21q0 7 2 21q2 -21 3.5 -43.5t1.5 -36.5q0 -17 -1 -25 q4 15 4.5 51t4.5 51q5 1 9.5 -2t11.5 -7l3 -72q-8 -2 -14 -2.5t-6 -7.5h17l-38 -20q-6 -6 -10.5 -19t-8 -23t-3.5 -15q0 -11 10.5 -30t11.5 -21q-6 0 -17.5 -4t-12.5 -4q-2 1 -3.5 5t-3.5 3q3 -7 2 -12q-16 12 -29 32l-2 -2q14 -19 20.5 -28.5t8.5 -18.5zM203 760 q3 -12 4 -30t1 -35zM149 698q0 21 -1 42.5t-2 42.5q6 4 7 -2q-2 -7 -2 -19t1.5 -30t1.5 -19q0 -10 -1 -15h-4zM99 706q10 1 12 -1q-12 0 -12 1zM142 705q-2 12 -2.5 19t-0.5 15q0 6 2 16zM80 706q-5 12 -6 36.5t-3 32.5q7 1 29.5 7.5t35.5 3.5q-1 -5 -2 -16t-1 -20v-16 q0 -6 -1 -14.5t-1 -13.5q-12 4 -20.5 7t-15.5 3q-8 -5 -15 -10zM89 459q-1 -5 4 -8.5t10 -7.5zM241 407q2 -2 7 -1.5t12 1.5q-9 4 -19 0zM179 416q4 -6 12.5 -7t18.5 0q-16 7 -31 7z"/>
</svg>