<?xml version="1.0" encoding="utf-8"?>
<!-- Generator: Adobe Illustrator 26.4.1, SVG Export Plug-In . SVG Version: 6.00 Build 0)  -->
<svg version="1.1" id="Layer_1" xmlns="http://www.w3.org/2000/svg" xmlns:xlink="http://www.w3.org/1999/xlink" x="0px" y="0px"
	 viewBox="0 0 473.1 473.1" style="enable-background:new 0 0 473.1 473.1;" xml:space="preserve">
<path d="M253.1,0.1c5.3,0.7,10.8,1.5,16.5,2.5c5.7,1,9.5,4.2,11.5,9.5c-0.7,4,1.3,6.7,6,8c4.7-2.7,10.3-4,17-4c14,2,24,3.3,30,4
	c16.7,25.3,25,54.7,25,88c0,17.3-2.3,33-7,47c-2,1.3-4.5,3.3-7.5,6s-4.5,6.3-4.5,11c0,2,1,4,3,6c10.7,4,17.5,10,20.5,18
	s7.2,23.3,12.5,46l-30,78c-9.3,16-21.7,27-37,33c-1.3,2.7-2,6.7-2,12c1.3,11.3,2,19.7,2,25l-7,48c-12,8-24,14-36,18
	c-12,4-31.3,9.7-58,17c-15.3-4-28-7.3-38-10s-20-6.3-30-11c0-5.3,1.7-15.7,5-31s5-26,5-32c0-14.7-5.3-26-16-34
	c-15.3-20.7-25.3-44.5-30-71.5c-4.7-27-7-58.5-7-94.5c6.7-33.3,12.2-59.5,16.5-78.5c4.3-19,9.7-30.2,16-33.5c6.3-3.3,10.2-6,11.5-8
	c2.7-14,5-23.3,7-28s6.7-9,14-13l23-9l17,13c6.7-10,14.3-18,23-24S243.1-0.6,253.1,0.1z M270,10.1c-6.7-1.3-11.7-2-15-2
	c-16,0-28.3,5.3-37,16c-4.7,4-7,7.3-7,10c0,3.3,2.5,7.5,7.5,12.5s8.2,8.8,9.5,11.5c13.3,11.3,22.2,26.5,26.5,45.5
	s8.2,34.5,11.5,46.5c1.3-8,2-14.3,2-19c2.7-12,9-17,19-15c4.7-0.7,8.2,0.2,10.5,2.5c2.3,2.3,4.5,6.2,6.5,11.5c2-8,3-15.3,3-22
	c0-9.3-0.5-16.5-1.5-21.5s-3.2-12.5-6.5-22.5c-3.3-10-7.7-19.3-13-28L270,10.1z M291,28.1c14,29.3,21,60.3,21,93
	c0,10.7-0.3,18.7-1,24c0-2.7,0.5-5,1.5-7s2.2-4.7,3.5-8c2-9.3,8.7-14,20-14c6.7,1.3,11.3,7.3,14,18c2-12,3-24,3-36
	c0-21.3-4.3-39.7-13-55c0-13.3-8.7-20-26-20C304,23.1,296.4,24.8,291,28.1z M156.1,40.1c-3.3,6-5.7,11-7,15c-1.3,4-1.7,8.3-1,13
	c6,2,9.7,3,11,3c15.3,12.7,29,27,41,43s20.3,32.7,25,50h6c-3.3-5.3-5-12.3-5-21c0-7.3,2-13,6-17c6-4,12.7-6.7,20-8l-10-24
	c-5.3,0.7-10.5,1.5-15.5,2.5s-9.2,3.8-12.5,8.5c-0.7-5.3,2-9.2,8-11.5s11.7-4.5,17-6.5c-11.3-21.3-27.7-40.7-49-58
	c-4-1.3-8.5-1.3-13.5,0S164.7,34.1,156.1,40.1z M126.1,88.1c-4.7,6.7-7.7,14-9,22c-1.3,8-2,17-2,27v15h5c9.3,0.7,14-0.3,14-3
	c0-1.3-2.3-5.3-7-12s-6.3-11.7-5-15c3.3,0,6.2,3,8.5,9s5.5,9.3,9.5,10l4-7c4,10.7,11.2,19.8,21.5,27.5c10.3,7.7,21.8,13.8,34.5,18.5
	c-5.3-12-8-20.7-8-26c0.7-3.3,6-7.3,16-12c-2.7-10.7-8.8-21.2-18.5-31.5c-9.7-10.3-18.8-20.5-27.5-30.5c-3.3-2-6.3-3-9-3
	c-4,0-8.2,1.2-12.5,3.5S131.4,85.4,126.1,88.1z M283,123.1c4.7,0,7.3-0.3,8-1C289.7,120.8,287,121.1,283,123.1z M327,123.1
	c8,1.3,12.3,0.7,13-2C335.4,121.8,331,122.4,327,123.1z M324,128.1c-4,5.3-6,10.3-6,15c0,2.7,1.3,5,4,7h16c5.3,0,7.7-3,7-9
	c1.3-7.3-1.3-11.2-8-11.5S326,128.8,324,128.1z M276,128.1c-4,8-5,14.3-3,19l8,1c7.3-1.3,12.7-3.2,16-5.5c3.3-2.3,3.7-6.5,1-12.5
	L276,128.1z M252.1,132.1l-20,4c0,12,0.3,19.3,1,22h17c6-2.7,8.3-6,7-10L252.1,132.1z M118.1,160.1c-9.3,4-14,14.7-14,32
	c0,3.3,0.3,7,1,11c0.7,4,1,7,1,9c9.3,0,18.5-2,27.5-6s17.7-7.7,26-11c8.3-3.3,16.5-6.7,24.5-10c-9.3-6.7-17.3-12.3-24-17
	c-6.7-4.7-12-9.3-16-14L118.1,160.1z M276,154.1l-6-2L276,154.1z M208.1,155.1c-0.7,1.3-2.7,2.3-6,3c-3.3,0.7-4.3,2.7-3,6
	c2.7,5.3,6.3,7.7,11,7c4-3.3,6-6.3,6-9C213.4,157.4,210.7,155.1,208.1,155.1z M264,161.1c-4.7,2.7-7,6-7,10c0,1.3,1,4.8,3,10.5
	c2,5.7,2,10.2,0,13.5c-2.7,4.7-7.5,8.3-14.5,11s-13.8,4-20.5,4c-3.3-2-6-6.2-8-12.5s-4.7-10.2-8-11.5c-2.7,8.7-1.3,16.7,4,24
	c14,7.3,29.5,12.2,46.5,14.5s36.2,3.5,57.5,3.5c0,2.7-2.8,4.7-8.5,6c-5.7,1.3-9.2,2.7-10.5,4c2.7,3.3,6.8,6.5,12.5,9.5
	c5.7,3,8.8,5.2,9.5,6.5c-4.7,2-9.2,2.2-13.5,0.5c-4.3-1.7-8.8-4.5-13.5-8.5c0.7,4,1.5,7.7,2.5,11s1.2,5.7,0.5,7
	c-2-2-4.2-5.2-6.5-9.5c-2.3-4.3-5.5-11.2-9.5-20.5l-31-1c-8,14-13.2,24.2-15.5,30.5s-3.5,13.5-3.5,21.5s2,15.7,6,23
	c1.3,8,4.5,13.8,9.5,17.5s12.2,7.5,21.5,11.5c5.3,4.7,12,7,20,7c6,0,12.7-1.8,20-5.5l21-10.5c12.7-29.3,25.3-59,38-89
	c0-14-4.5-27.8-13.5-41.5c-9-13.7-20.8-24.2-35.5-31.5v19c-0.7-2-1.5-5.5-2.5-10.5s-2.8-8.5-5.5-10.5c0.7,5.3,1.5,9.8,2.5,13.5
	s0.2,6.5-2.5,8.5c-1.3-6-2.2-10.7-2.5-14c-0.3-3.3-2.2-5.7-5.5-7c0.7,6.7,1.7,13.3,3,20c-2.7-2-4.3-5.8-5-11.5
	c-0.7-5.7-2.3-9.5-5-11.5L264,161.1z M219.1,189.1c3.3,8,9,12,17,12c3.3,0,7-1,11-3c-1.3-8.7-2.3-17.7-3-27c-7.3-2-14-1.3-20,2
	S216.4,181.8,219.1,189.1z M249.1,174.1c-1.3,3.3-1.7,6.8-1,10.5c0.7,3.7,2.7,5.5,6,5.5l2-8c-1.3-2-2.3-4-3-6
	S251.1,173.4,249.1,174.1z M200.1,196.1c-6-2-11.7-3-17-3c-9.3,0-21.8,4-37.5,12s-28.2,12.7-37.5,14c-0.7,4-1,10.7-1,20
	c0,7.3,0.2,13.5,0.5,18.5c0.3,5,1.5,13.2,3.5,24.5c8,18.7,15,34.7,21,48s13.3,24.3,22,33c7.3,2.7,15.3,4,24,4c11.3,0,22-1.8,32-5.5
	s18.7-6.8,26-9.5c3.3,6.7,5.3,12.7,6,18s1,12.3,1,21c0,4-0.3,10.3-1,19s-1,15.7-1,21c0,4.7,0.7,11.7,2,21c1.3-14,2.5-28.5,3.5-43.5
	s1.5-27.2,1.5-36.5c0-11.3-0.3-19.7-1-25c2.7,10,4.2,27,4.5,51s1.8,41,4.5,51c3.3,0.7,6.5,0,9.5-2s6.8-4.3,11.5-7l3-72
	c-5.3-1.3-10-2.2-14-2.5s-6-2.8-6-7.5h17l-38-20c-4-4-7.5-10.3-10.5-19s-5.7-16.3-8-23s-3.5-11.7-3.5-15c0-7.3,3.5-17.3,10.5-30
	s10.8-19.7,11.5-21c-4,0-9.8-1.3-17.5-4s-11.8-4-12.5-4c-1.3,0.7-2.5,2.3-3.5,5s-2.2,3.7-3.5,3c2-4.7,2.7-8.7,2-12
	c-10.7,8-20.3,18.7-29,32l-2-2c9.3-12.7,16.2-22.2,20.5-28.5c4.3-6.3,7.2-12.5,8.5-18.5L200.1,196.1z M286,433.1c2-8,3.3-18,4-30
	c0.7-12,1-23.7,1-35L286,433.1z M232.1,371.1c0,14-0.3,28.2-1,42.5s-1.3,28.5-2,42.5c4,2.7,6.3,2,7-2c-1.3-4.7-2-11-2-19
	s0.5-18,1.5-30s1.5-18.3,1.5-19c0-6.7-0.3-11.7-1-15H232.1z M182.1,379.1c6.7,0.7,10.7,0.3,12-1
	C186.1,378.1,182.1,378.4,182.1,379.1z M225.1,378.1c-1.3,8-2.2,14.3-2.5,19s-0.5,9.7-0.5,15c0,4,0.7,9.3,2,16L225.1,378.1z
	 M163.1,379.1c-3.3,8-5.3,20.2-6,36.5c-0.7,16.3-1.7,27.2-3,32.5c4.7,0.7,14.5,3.2,29.5,7.5s26.8,5.5,35.5,3.5
	c-0.7-3.3-1.3-8.7-2-16s-1-14-1-20v-16c0-4-0.3-8.8-1-14.5s-1-10.2-1-13.5c-8,2.7-14.8,5-20.5,7c-5.7,2-10.8,3-15.5,3
	C172.7,385.8,167.7,382.4,163.1,379.1z M172.1,132.1c-0.7-3.3,0.7-6.2,4-8.5c3.3-2.3,6.7-4.8,10-7.5L172.1,132.1z M324,80.1
	c1.3-1.3,3.7-1.8,7-1.5c3.3,0.3,7.3,0.8,12,1.5C337,82.8,330.7,82.8,324,80.1z M262,89.1c2.7-4,6.8-6.3,12.5-7
	c5.7-0.7,11.8-0.7,18.5,0C282.4,86.8,272,89.1,262,89.1z"/>
</svg>
