<svg xmlns="http://www.w3.org/2000/svg" xmlns:xlink="http://www.w3.org/1999/xlink" version="1.1" viewBox="16 142.4 320 657.6">
   <path fill="currentColor" d="M189 144q9 -4 19 2t15 26.5t6.5 50.5t1.5 82q0 3 -3.5 21t-2.5 26q16 -18 37 -18q7 0 15 3q11 16 18.5 34.5t7.5 36.5q0 13 -4 24q7 16 16 33.5t21 29.5q0 16 -10.5 53.5t-10.5 54.5l-58 82q-12 1 -18 11q-9 25 -13.5 32.5t-5.5 27t-9 26.5q-41 9 -81 18q-10 0 -24 -4 t-38.5 -19t-33.5 -19q7 -13 11 -42.5t10 -42.5q-13 -33 -26 -67q-13 -39 -13 -71q0 -21 6 -42q15 -74 31 -149q-1 -9 -1 -14v-9q6 -24 9.5 -36t11.5 -18q3 -2 11 -1t11 1q7 0 9 -8.5t2 -20.5q-1 -18 -1 -27q0 -15 4 -24t12 -12t11.5 -3h4.5q17 0 26 13q4 -16 7.5 -27 t18.5 -14zM176 157q-3 9 -4 23t-1 16q0 7 1 24t1 27q6 -1 22.5 -4t25.5 -2v-39v-15v-11q-2 -7 -3.5 -17.5t-20.5 -10.5q-12 0 -21 9zM127 178q-10 8 -13.5 18.5t-3.5 26.5q0 6 1 20.5t1 22.5l29 -5q12 1 14 0q0 -15 1 -28.5t2 -27.5q0 -12 -1 -18q-5 -9 -30 -9zM221 247 q-10 -2 -15 -2q-21 0 -33 9q-11 24 -11 44q0 5 2 13q8 0 26.5 -2t19.5 -2q7 0 11 1q2 -7 3 -22.5t1 -22.5zM152 267q-12 -2 -17 -1t-24 7q-4 7 -2.5 16.5t-0.5 21t-2 14.5q0 6 3 12l48 -8l-2 -56zM80 271q-11 2 -13 13l-11 53q3 4 9 4h27q-7 0 -11 1q-4 3 -12.5 5.5 t-11.5 4.5q0 47 -16 95q15 -6 31.5 -13t26.5 -18l3 -130q-2 -8 -7.5 -13t-14.5 -2zM165 325l-1 66l3 4q4 -1 13 -1.5t17 -1.5q12 0 17 -1q0 -15 3.5 -38.5t5.5 -35.5q-10 -2 -15 -2q-23 0 -43 10zM155 337q-11 -1 -27.5 5.5t-20.5 7.5q1 33 3 65l41 -18l8 -48zM273 342 q-10 -2 -16 -2q-17 0 -25 12q-2 8 -2 12q0 7 2.5 19.5t2.5 15.5q4 7 4 26.5t8 27.5q3 -5 4 -6q-5 -3 -2 -11.5t2 -14.5q0 -14 22 -14q9 -1 11.5 9t6.5 11q2 -6 4 -14.5t2 -18.5q0 -14 -6 -25zM167 399l-3 2q-22 3 -54 21.5t-47 23.5q-24 0 -30 23q-3 31 -5 43q2 0 5.5 -2.5 t5.5 0.5q-15 12 -15 31q0 9 3 20.5t5 18t16 49.5t28.5 50t20 8t12.5 1q10 0 33 -5q-19 14 -44 14q-8 0 -12 -1l8 3q6 1 16 1q14 0 27 -7q8 5 13.5 -3.5t6.5 -8.5l2 2q-6 39 -11 78q0 7 2 21l-3 3q-7 -13 -7 -27q0 -6 2 -22t2 -18q-7 15 -11 38t-6 31q19 2 33 -1.5t27 -8.5 q-2 -13 5 -39t8 -35h-9q-6 0 -12.5 -1.5t-7.5 -8.5q14 2 29 3q-2 -5 -11 -6t-17 -4.5t-13 -20t-8 -24.5q4 3 8 13.5t7 12.5q-3 -13 -5.5 -25.5t-2.5 -25.5q0 -9 1 -14l-8 39l-4 -4q-1 -4 -1 -12q0 -18 10.5 -39.5t16.5 -32.5q21 -12 36 -20t30 -10q4 -4 -1 -21t-3 -23l-15 6 l-38 10q-30 19 -44.5 31.5t-20.5 32.5h-8q3 -4 1 -13t0 -14l7 11q23 -28 53 -44t67 -25l4 -11q-7 -4 -16 -4q-19 3 -28 3q8 -3 18.5 -5.5t17.5 -2.5q0 -5 -1 -19t-1 -22q-15 -4 -17 -12zM258 421q-3 3 -3 10q0 6 2 10l6 -4q-1 7 -8 19t-9.5 18.5t-2.5 16.5q0 15 6.5 26.5 t20.5 27.5q-7 -2 -11 -1q1 6 2 11h-8q-3 5 -3 9q0 5 3.5 13.5t3.5 11.5q-8 -2 -11 -12.5t-4 -15.5q0 -6 3 -17.5t2 -16.5q-49 10 -78 42q-6 21 -6 48q0 25 8 47q9 12 24.5 15.5t37.5 3.5q20 -3 37.5 -31.5t22.5 -32.5q-3 -6 6 -10.5t10 -8.5l14 -68q-2 0 -8.5 3.5t-8.5 3.5 q-3 0 -5 -6q25 -7 30 -31q-3 -7 -9.5 -14.5t-14.5 -15.5q-5 2 -14 11t-16 9q-6 -2 -12.5 -9.5t-1.5 -17.5q5 -8 11.5 -14.5t12.5 -4.5q-13 9 -17 12.5t-5 12.5q3 12 14 14q4 -2 8 -10q15 0 15 -12q0 -2 -2 -12t0 -13q-5 -4 -12 -4q-6 0 -12.5 3t-9.5 4q-3 -6 8 -10t5 -12 q-3 -2 -11 -1t-10 3zM65 685q-8 10 -11 35t-6 31q33 17 67 34l16 -80q-5 0 -17 1t-18 1q-8 0 -13 -1t-7 -11t-11 -10zM202 772l5 -4q0 -11 8 -40.5t8 -30.5q-7 19 -14 38.5t-7 36.5zM129 751l14 -48q-5 9 -8.5 22t-5.5 26zM192 774q8 -25 12.5 -42t6.5 -29q-15 32 -18 43.5 t-1 27.5zM126 761l3 -4zM102 493q21 -2 53.5 -15t41.5 -15q-8 2 -43.5 17t-57.5 15q-17 0 -30 2.5t-25 9.5q12 -8 25 -12t24 -4q4 0 12 2zM322 509l-9 10zM245 387q7 -9 22 -9q11 0 16 6zM169 409q3 9 -3 24q-1 -3 2 -11.5t1 -12.5zM63 399q3 -6 9.5 -8.5t18.5 -3.5 q-7 1 -15 6t-13 6zM289 445q7 -4 9 -4q-7 5 -9 4zM101 442v10v-10z"/>
</svg>