<?xml version="1.0" encoding="utf-8"?>
<!-- Generator: Adobe Illustrator 26.4.1, SVG Export Plug-In . SVG Version: 6.00 Build 0)  -->
<svg version="1.1" id="Layer_1" xmlns="http://www.w3.org/2000/svg" xmlns:xlink="http://www.w3.org/1999/xlink" x="0px" y="0px"
	 viewBox="0 0 657.6 657.6" style="enable-background:new 0 0 657.6 657.6;" xml:space="preserve">
<path d="M341.8,1.6c6-2.7,12.3-2,19,2c6.7,4,11.7,12.8,15,26.5c3.3,13.7,5.5,30.5,6.5,50.5s1.5,47.3,1.5,82c0,2-1.2,9-3.5,21
	c-2.3,12-3.2,20.7-2.5,26c10.7-12,23-18,37-18c4.7,0,9.7,1,15,3c7.3,10.7,13.5,22.2,18.5,34.5s7.5,24.5,7.5,36.5
	c0,8.7-1.3,16.7-4,24c4.7,10.7,10,21.8,16,33.5s13,21.5,21,29.5c0,10.7-3.5,28.5-10.5,53.5s-10.5,43.2-10.5,54.5l-58,82
	c-8,0.7-14,4.3-18,11c-6,16.7-10.5,27.5-13.5,32.5s-4.8,14-5.5,27c-0.7,13-3.7,21.8-9,26.5c-27.3,6-54.3,12-81,18
	c-6.7,0-14.7-1.3-24-4c-9.3-2.7-22.2-9-38.5-19s-27.5-16.3-33.5-19c4.7-8.7,8.3-22.8,11-42.5s6-33.8,10-42.5
	c-8.7-22-17.3-44.3-26-67c-8.7-26-13-49.7-13-71c0-14,2-28,6-42c10-49.3,20.3-99,31-149c-0.7-6-1-10.7-1-14v-9c4-16,7.2-28,9.5-36
	s6.2-14,11.5-18c2-1.3,5.7-1.7,11-1c5.3,0.7,9,1,11,1c4.7,0,7.7-2.8,9-8.5c1.3-5.7,2-12.5,2-20.5c-0.7-12-1-21-1-27
	c0-10,1.3-18,4-24c2.7-6,6.7-10,12-12c5.3-2,9.2-3,11.5-3h4.5c11.3,0,20,4.3,26,13c2.7-10.7,5.2-19.7,7.5-27
	C325.6,8.3,331.8,3.6,341.8,1.6z M328.8,14.6c-2,6-3.3,13.7-4,23c-0.7,9.3-1,14.7-1,16c0,4.7,0.3,12.7,1,24c0.7,11.3,1,20.3,1,27
	c4-0.7,11.5-2,22.5-4s19.5-2.7,25.5-2v-39v-15v-11c-1.3-4.7-2.5-10.5-3.5-17.5s-7.8-10.5-20.5-10.5C341.8,5.6,334.8,8.6,328.8,14.6z
	 M279.8,35.6c-6.7,5.3-11.2,11.5-13.5,18.5c-2.3,7-3.5,15.8-3.5,26.5c0,4,0.3,10.8,1,20.5c0.7,9.7,1,17.2,1,22.5l29-5
	c8,0.7,12.7,0.7,14,0c0-10,0.3-19.5,1-28.5c0.7-9,1.3-18.2,2-27.5c0-8-0.3-14-1-18C306.5,38.6,296.5,35.6,279.8,35.6z M373.8,104.6
	c-6.7-1.3-11.7-2-15-2c-14,0-25,3-33,9c-7.3,16-11,30.7-11,44c0,3.3,0.7,7.7,2,13c5.3,0,14.2-0.7,26.5-2c12.3-1.3,18.8-2,19.5-2
	c4.7,0,8.3,0.3,11,1c1.3-4.7,2.3-12.2,3-22.5c0.7-10.3,1-17.8,1-22.5L373.8,104.6z M304.8,124.6c-8-1.3-13.7-1.7-17-1
	c-3.3,0.7-11.3,3-24,7c-2.7,4.7-3.5,10.2-2.5,16.5s0.8,13.3-0.5,21c-1.3,7.7-2,12.5-2,14.5c0,4,1,8,3,12l48-8l-2-56L304.8,124.6z
	 M232.8,128.6c-7.3,1.3-11.7,5.7-13,13l-11,53c2,2.7,5,4,9,4h27c-4.7,0-8.3,0.3-11,1c-2.7,2-6.8,3.8-12.5,5.5
	c-5.7,1.7-9.5,3.2-11.5,4.5c0,31.3-5.3,63-16,95c10-4,20.5-8.3,31.5-13s19.8-10.7,26.5-18l3-130c-1.3-5.3-3.8-9.7-7.5-13
	C243.6,127.3,238.8,126.6,232.8,128.6z M317.8,182.6l-1,66l3,4c2.7-0.7,7-1.2,13-1.5s11.7-0.8,17-1.5c8,0,13.7-0.3,17-1
	c0-10,1.2-22.8,3.5-38.5c2.3-15.7,4.2-27.5,5.5-35.5c-6.7-1.3-11.7-2-15-2C345.5,172.6,331.1,175.9,317.8,182.6z M307.8,194.6
	c-7.3-0.7-16.5,1.2-27.5,5.5s-17.8,6.8-20.5,7.5c0.7,22,1.7,43.7,3,65l41-18l8-48L307.8,194.6z M425.8,199.6c-6.7-1.3-12-2-16-2
	c-11.3,0-19.7,4-25,12c-1.3,5.3-2,9.3-2,12c0,4.7,0.8,11.2,2.5,19.5c1.7,8.3,2.5,13.5,2.5,15.5c2.7,4.7,4,13.5,4,26.5
	s2.7,22.2,8,27.5c2-3.3,3.3-5.3,4-6c-3.3-2-4-5.8-2-11.5s2.7-10.5,2-14.5c0-9.3,7.3-14,22-14c6-0.7,9.8,2.3,11.5,9s3.8,10.3,6.5,11
	c1.3-4,2.7-8.8,4-14.5s2-11.8,2-18.5c0-9.3-2-17.7-6-25L425.8,199.6z M319.8,256.6l-3,2c-14.7,2-32.7,9.2-54,21.5s-37,20.2-47,23.5
	c-16,0-26,7.7-30,23c-2,20.7-3.7,35-5,43c1.3,0,3.2-0.8,5.5-2.5c2.3-1.7,4.2-1.5,5.5,0.5c-10,8-15,18.3-15,31c0,6,1,12.8,3,20.5
	s3.7,13.7,5,18c1.3,4.3,6.7,20.8,16,49.5s18.8,45.3,28.5,50c9.7,4.7,16.3,7.3,20,8c3.7,0.7,7.8,1,12.5,1c6.7,0,17.7-1.7,33-5
	c-12.7,9.3-27.3,14-44,14c-5.3,0-9.3-0.3-12-1l8,3c4,0.7,9.3,1,16,1c9.3,0,18.3-2.3,27-7c5.3,3.3,9.8,2.2,13.5-3.5
	c3.7-5.7,5.8-8.5,6.5-8.5l2,2c-4,26-7.7,52-11,78c0,4.7,0.7,11.7,2,21l-3,3c-4.7-8.7-7-17.7-7-27c0-4,0.7-11.3,2-22
	c1.3-10.7,2-16.7,2-18c-4.7,10-8.3,22.7-11,38c-2.7,15.3-4.7,25.7-6,31c12.7,1.3,23.7,0.8,33-1.5c9.3-2.3,18.3-5.2,27-8.5
	c-1.3-8.7,0.3-21.7,5-39c4.7-17.3,7.3-29,8-35h-9c-4,0-8.2-0.5-12.5-1.5c-4.3-1-6.8-3.8-7.5-8.5c9.3,1.3,19,2.3,29,3
	c-1.3-3.3-5-5.3-11-6s-11.7-2.2-17-4.5c-5.3-2.3-9.7-9-13-20c-3.3-11-6-19.2-8-24.5c2.7,2,5.3,6.5,8,13.5c2.7,7,5,11.2,7,12.5
	c-2-8.7-3.8-17.2-5.5-25.5c-1.7-8.3-2.5-16.8-2.5-25.5c0-6,0.3-10.7,1-14l-8,39l-4-4c-0.7-2.7-1-6.7-1-12c0-12,3.5-25.2,10.5-39.5
	s12.5-25.2,16.5-32.5c14-8,26-14.7,36-20s20-8.7,30-10c2.7-2.7,2.3-9.7-1-21c-3.3-11.3-4.3-19-3-23l-15,6l-38,10
	c-20,12.7-34.8,23.2-44.5,31.5c-9.7,8.3-16.5,19.2-20.5,32.5h-8c2-2.7,2.3-7,1-13c-1.3-6-1.3-10.7,0-14l7,11
	c15.3-18.7,33-33.3,53-44s42.3-19,67-25l4-11c-4.7-2.7-10-4-16-4c-12.7,2-22,3-28,3c5.3-2,11.5-3.8,18.5-5.5s12.8-2.5,17.5-2.5
	c0-3.3-0.3-9.7-1-19c-0.7-9.3-1-16.7-1-22c-10-2.7-15.7-6.7-17-12L319.8,256.6z M410.8,278.6c-2,2-3,5.3-3,10c0,4,0.7,7.3,2,10l6-4
	c-0.7,4.7-3.3,11-8,19s-7.8,14.2-9.5,18.5c-1.7,4.3-2.5,9.8-2.5,16.5c0,10,2.2,18.8,6.5,26.5c4.3,7.7,11.2,16.8,20.5,27.5
	c-4.7-1.3-8.3-1.7-11-1c0.7,4,1.3,7.7,2,11h-8c-2,3.3-3,6.3-3,9c0,3.3,1.2,7.8,3.5,13.5c2.3,5.7,3.5,9.5,3.5,11.5
	c-5.3-1.3-9-5.5-11-12.5s-3.3-12.2-4-15.5c0-4,1-9.8,3-17.5s2.7-13.2,2-16.5c-32.7,6.7-58.7,20.7-78,42c-4,14-6,30-6,48
	c0,16.7,2.7,32.3,8,47c6,8,14.2,13.2,24.5,15.5c10.3,2.3,22.8,3.5,37.5,3.5c13.3-2,25.8-12.5,37.5-31.5s19.2-29.8,22.5-32.5
	c-2-4,0-7.5,6-10.5s9.3-5.8,10-8.5l14-68c-1.3,0-4.2,1.2-8.5,3.5s-7.2,3.5-8.5,3.5c-2,0-3.7-2-5-6c16.7-4.7,26.7-15,30-31
	c-2-4.7-5.2-9.5-9.5-14.5s-9.2-10.2-14.5-15.5c-3.3,1.3-8,5-14,11s-11.3,9-16,9c-4-1.3-8.2-4.5-12.5-9.5s-4.8-10.8-1.5-17.5
	c3.3-5.3,7.2-10.2,11.5-14.5s8.5-5.8,12.5-4.5c-8.7,6-14.3,10.2-17,12.5s-4.3,6.5-5,12.5c2,8,6.7,12.7,14,14c2.7-1.3,5.3-4.7,8-10
	c10,0,15-4,15-12c0-1.3-0.7-5.3-2-12s-1.3-11,0-13c-3.3-2.7-7.3-4-12-4c-4,0-8.2,1-12.5,3s-7.5,3.3-9.5,4c-2-4,0.7-7.3,8-10
	s9-6.7,5-12c-2-1.3-5.7-1.7-11-1S412.1,277.3,410.8,278.6z M217.8,542.6c-5.3,6.7-9,18.3-11,35s-4,27-6,31c22,11.3,44.3,22.7,67,34
	l16-80c-3.3,0-9,0.3-17,1s-14,1-18,1c-5.3,0-9.7-0.3-13-1c-3.3-0.7-5.7-4.3-7-11C227.5,545.9,223.8,542.6,217.8,542.6z M354.8,629.6
	l5-4c0-7.3,2.7-20.8,8-40.5c5.3-19.7,8-29.8,8-30.5c-4.7,12.7-9.3,25.5-14,38.5C357.1,606.1,354.8,618.3,354.8,629.6z M281.8,608.6
	l14-48c-3.3,6-6.2,13.3-8.5,22C285,591.3,283.1,599.9,281.8,608.6z M344.8,631.6c5.3-16.7,9.5-30.7,12.5-42s5.2-21,6.5-29
	c-10,21.3-16,35.8-18,43.5S343.5,620.9,344.8,631.6z M278.8,618.6l3-4L278.8,618.6z M254.8,350.6c14-1.3,31.8-6.3,53.5-15
	c21.7-8.7,35.5-13.7,41.5-15c-5.3,1.3-19.8,7-43.5,17c-23.7,10-42.8,15-57.5,15c-11.3,0-21.3,0.8-30,2.5c-8.7,1.7-17,4.8-25,9.5
	c8-5.3,16.3-9.3,25-12c8.7-2.7,16.7-4,24-4C245.5,348.6,249.5,349.3,254.8,350.6z M474.8,366.6l-9,10L474.8,366.6z M397.8,244.6
	c4.7-6,12-9,22-9c7.3,0,12.7,2,16,6L397.8,244.6z M321.8,266.6c2,6,1,14-3,24c-0.7-2,0-5.8,2-11.5S323.1,269.3,321.8,266.6z
	 M215.8,256.6c2-4,5.2-6.8,9.5-8.5c4.3-1.7,10.5-2.8,18.5-3.5c-4.7,0.7-9.7,2.7-15,6C223.5,253.9,219.1,255.9,215.8,256.6z
	 M441.8,302.6c4.7-2.7,7.7-4,9-4C446.1,301.9,443.1,303.3,441.8,302.6z M253.8,299.6v10V299.6z"/>
</svg>
