<svg xmlns="http://www.w3.org/2000/svg" xmlns:xlink="http://www.w3.org/1999/xlink" version="1.1" viewBox="28.5 499 574.5 301">
   <path  d="M266 499l109 4q9 -3 16 -3q18 0 44.5 21t34.5 24q36 24 50 36t21 34q5 6 30 22t32 27q0 35 -13.5 65t-39.5 56q-9 4 -20.5 9.5t-19.5 5.5h-6q-4 -2 -7.5 -5t-18.5 -12t-17 -10q-17 4 -41 4q-19 0 -60.5 -4t-52.5 -4q-21 -15 -35 -25.5t-12 -28.5q4 -5 4 -9q0 -5 -12 -9.5 t-14.5 -12.5t-4.5 -18t-2 -12q0 -11 6 -17q-21 -14 -21 -45q0 -6 2 -18q5 -5 4 -7l-4 -2q-17 3 -33 3q-10 0 -30 -1t-29 -1q-25 0 -41 5q-17 1 -25 1q-11 0 -19 -4q-15 -11 -12 -25q8 -22 34 -29q34 -5 48 -7q14 -5 25 -6t29 -1q10 0 31 1t32 1q18 0 38 -3zM395 645 q2 13 13.5 22.5t27.5 18.5l-3 3q-11 -1 -19.5 -8t-16.5 -18h-5q-6 4 -6 9q5 13 5 19q-6 16 -22.5 27t-32.5 21l-10 20l38 4q21 0 35 1t26 2q25 0 43.5 -7t28.5 -26l10 -32q3 6 7 12q7 3 9 -2q1 4 3.5 8t8.5 11l-4 -2q-5 -3 -8 3.5t-8.5 20.5t-25.5 14l22.5 -25.5t7.5 -17.5 q-6 -8 -10 -8q0 15 -5.5 29t-17.5 22q4 6 10.5 11t13.5 9q17 2 28 -7.5t25 -28.5l-16 -13l20 6l-56 -50q2 -2 -1.5 -7.5t-0.5 -8.5q29 10 48 30q-7 -3 -21 -11.5t-21 -10.5q8 10 14 15.5t40 32.5q4 4 8 0.5t5 -8.5l-25 -18q3 0 12.5 6.5t15.5 6.5q6 -7 8 -19.5t2 -23.5 q-7 -2 -23.5 -14t-21.5 -13l35 27q-9 0 -22 -10.5t-16 -12.5q-5 6 -8.5 10.5t-7.5 4.5q-3 -3 2 -9t5 -9q-8 15 -35.5 21t-29.5 7l-42 -9v7zM127 512q-7 2 -8 12.5t-3 13.5q4 2 5.5 9.5t3.5 9.5q6 -1 15 0t21 2q9 0 18 -3q-3 -8 -3 -17q0 -8 1 -16l2 -16q-4 -1 -14 -1 q-7 0 -19 2.5t-19 3.5zM319 506l1 10q-2 -3 -5 -3.5t-4 3.5l-5 -9q-2 0 -4 6q-3 -5 -7 -5q-16 7 -24 8q-9 -1 -11.5 10t-8.5 13q-14 2 -23 -2t-18 -15q-4 4 -2 10.5t2 10.5q6 14 19.5 19.5t33.5 5.5h25q17 0 23 -4t8 -13q-1 8 -1 15q14 2 23 -5l-6 10q9 3 24 3q19 0 28 -9 q9 -1 13 -1q6 0 9 4q-27 5 -42 17l48 63q22 8 38.5 13t29.5 5q23 0 36 -16q6 -11 8 -17t2 -16q0 -6 -7.5 -20.5t-51 -42.5t-53.5 -38q-4 2 -9 -1t-11 -8q-15 3 -30 3q-13 0 -27 -1.5t-21 -2.5zM114 516q-28 0 -45 4t-30 17q-2 6 -2 11q0 12 8 15q7 1 13.5 1h13.5q10 0 21 -1 t21 -4v-43zM216 518q8 22 31 15q-1 -10 -11.5 -11.5t-19.5 -3.5zM249 524q2 5 4 5v-4zM287 578q-11 0 -28.5 -2.5t-19.5 -2.5q-9 0 -17 3q0 24 2 34.5t16 16.5q15 3 37.5 4t25.5 1h30t31 -1l5 -5q-8 -12 -8 -22q0 -5 3 -11q-4 -8 -20.5 -11t-22.5 -7zM374 608q-2 6 -2 9 q0 5 3 8q2 2 5.5 0.5t3.5 -4.5zM371 637q2 9 4 16.5t9 7.5q0 -20 -2 -22q-9 -3 -11 -2zM243 640q-9 5 -9 14q4 13 5 20q3 6 8.5 9.5t13.5 6.5q59 -6 112 -22q-3 -6 -6 -13.5t0 -15.5q-8 1 -18 1h-15h-31.5t-31.5 -1q-18 0 -28 1zM557 642q7 7 18.5 16.5t19.5 11.5 q-8 -9 -20 -16.5t-18 -11.5zM188 507q0 8 -2.5 24t-2.5 21q2 5 12 5q10 -1 13 -1l-6 -12q-3 -6 -3 -14q0 -15 11 -21q7 0 22 4t23 4q14 0 22 -11q-23 0 -45 0.5t-44 0.5zM367 681q5 5 10 9l-1 -7q0 -6 -5 -6t-4 4zM357 680q-16 6 -46.5 11.5t-42.5 9.5q-3 5 -3 10q0 6 2 12 l4 12q19 13 29 19t19 7q8 -13 8 -14l-18 8q2 -4 -0.5 -5t-4.5 -3q20 -10 42 -22t35 -27q-9 4 -15.5 -2.5t-8.5 -15.5zM530 706l-3 -5zM547 720l3 3zM349 695l-1 16l-2 -21zM345 643q4 0 7 10l-6 18q1 -9 -1 -28zM343 590q3 1 6 9q-2 14 -8 22q-2 -5 0.5 -16t1.5 -15z M541 733l4 3l-9 -6z"/>
</svg>