<?xml version="1.0" encoding="utf-8"?>
<!-- Generator: Adobe Illustrator 26.4.1, SVG Export Plug-In . SVG Version: 6.00 Build 0)  -->
<svg version="1.1" id="Layer_1" xmlns="http://www.w3.org/2000/svg" xmlns:xlink="http://www.w3.org/1999/xlink" x="0px" y="0px"
	 viewBox="0 0 574.5 574.5" style="enable-background:new 0 0 574.5 574.5;" xml:space="preserve">
<path d="M237.5,136.8l109,4c6-2,11.3-3,16-3c12,0,26.8,7,44.5,21s29.2,22,34.5,24c24,16,40.7,28,50,36c9.3,8,16.3,19.3,21,34
	c3.3,4,13.3,11.3,30,22s27.3,19.7,32,27c0,23.3-4.5,45-13.5,65s-22.2,38.7-39.5,56c-6,2.7-12.8,5.8-20.5,9.5s-14.2,5.5-19.5,5.5h-6
	c-2.7-1.3-5.2-3-7.5-5s-8.5-6-18.5-12s-15.7-9.3-17-10c-11.3,2.7-25,4-41,4c-12.7,0-32.8-1.3-60.5-4s-45.2-4-52.5-4
	c-14-10-25.7-18.5-35-25.5s-13.3-16.5-12-28.5c2.7-3.3,4-6.3,4-9c0-3.3-4-6.5-12-9.5s-12.8-7.2-14.5-12.5s-3.2-11.3-4.5-18
	s-2-10.7-2-12c0-7.3,2-13,6-17c-14-9.3-21-24.3-21-45c0-4,0.7-10,2-18c3.3-3.3,4.7-5.7,4-7l-4-2c-11.3,2-22.3,3-33,3
	c-6.7,0-16.7-0.3-30-1s-23-1-29-1c-16.7,0-30.3,1.7-41,5c-11.3,0.7-19.7,1-25,1c-7.3,0-13.7-1.3-19-4c-10-7.3-14-15.7-12-25
	c5.3-14.7,16.7-24.3,34-29c22.7-3.3,38.7-5.7,48-7c9.3-3.3,17.7-5.3,25-6s17-1,29-1c6.7,0,17,0.3,31,1s24.7,1,32,1
	C211.5,139.8,224.2,138.8,237.5,136.8z M366.5,282.8c1.3,8.7,5.8,16.2,13.5,22.5s16.8,12.5,27.5,18.5l-3,3c-7.3-0.7-13.8-3.3-19.5-8
	s-11.2-10.7-16.5-18h-5c-4,2.7-6,5.7-6,9c3.3,8.7,5,15,5,19c-4,10.7-11.5,19.7-22.5,27s-21.8,14.3-32.5,21l-10,20l38,4
	c14,0,25.7,0.3,35,1s18,1.3,26,2c16.7,0,31.2-2.3,43.5-7s21.8-13.3,28.5-26l10-32c2,4,4.3,8,7,12c4.7,2,7.7,1.3,9-2
	c0.7,2.7,1.8,5.3,3.5,8s4.5,6.3,8.5,11l-4-2c-3.3-2-6-0.8-8,3.5s-4.8,11.2-8.5,20.5c-3.7,9.3-12.2,14-25.5,14l22.5-25.5
	c0,0,2.5-5.8,7.5-17.5c-4-5.3-7.3-8-10-8c0,10-1.8,19.7-5.5,29s-9.5,16.7-17.5,22c2.7,4,6.2,7.7,10.5,11s8.8,6.3,13.5,9
	c11.3,1.3,20.7-1.2,28-7.5s15.7-15.8,25-28.5l-16-13l20,6l-56-50c1.3-1.3,0.8-3.8-1.5-7.5s-2.5-6.5-0.5-8.5
	c19.3,6.7,35.3,16.7,48,30c-4.7-2-11.7-5.8-21-11.5s-16.3-9.2-21-10.5c5.3,6.7,10,11.8,14,15.5s17.3,14.5,40,32.5
	c2.7,2.7,5.3,2.8,8,0.5s4.3-5.2,5-8.5l-25-18c2,0,6.2,2.2,12.5,6.5s11.5,6.5,15.5,6.5c4-4.7,6.7-11.2,8-19.5s2-16.2,2-23.5
	c-4.7-1.3-12.5-6-23.5-14s-18.2-12.3-21.5-13l35,27c-6,0-13.3-3.5-22-10.5s-14-11.2-16-12.5c-3.3,4-6.2,7.5-8.5,10.5
	s-4.8,4.5-7.5,4.5c-2-2-1.3-5,2-9s5-7,5-9c-5.3,10-17.2,17-35.5,21c-18.3,4-28.2,6.3-29.5,7l-42-9v7L366.5,282.8z M98.5,149.8
	c-4.7,1.3-7.3,5.5-8,12.5s-1.7,11.5-3,13.5c2.7,1.3,4.5,4.5,5.5,9.5s2.2,8.2,3.5,9.5c4-0.7,9-0.7,15,0s13,1.3,21,2c6,0,12-1,18-3
	c-2-5.3-3-11-3-17c0-5.3,0.3-10.7,1-16l2-16c-2.7-0.7-7.3-1-14-1c-4.7,0-11,0.8-19,2.5S103.2,149.1,98.5,149.8z M290.5,143.8l1,10
	c-1.3-2-3-3.2-5-3.5s-3.3,0.8-4,3.5l-5-9c-1.3,0-2.7,2-4,6c-2-3.3-4.3-5-7-5c-10.7,4.7-18.7,7.3-24,8c-6-0.7-9.8,2.7-11.5,10
	s-4.5,11.7-8.5,13c-9.3,1.3-17,0.7-23-2s-12-7.7-18-15c-2.7,2.7-3.3,6.2-2,10.5s2,7.8,2,10.5c4,9.3,10.5,15.8,19.5,19.5
	s20.2,5.5,33.5,5.5h25c11.3,0,19-1.3,23-4s6.7-7,8-13c-0.7,5.3-1,10.3-1,15c9.3,1.3,17-0.3,23-5l-6,10c6,2,14,3,24,3
	c12.7,0,22-3,28-9c6-0.7,10.3-1,13-1c4,0,7,1.3,9,4c-18,3.3-32,9-42,17l48,63c14.7,5.3,27.5,9.7,38.5,13s20.8,5,29.5,5
	c15.3,0,27.3-5.3,36-16c4-7.3,6.7-13,8-17s2-9.3,2-16c0-4-2.5-10.8-7.5-20.5s-22-23.8-51-42.5s-46.8-31.3-53.5-38
	c-2.7,1.3-5.7,1-9-1s-7-4.7-11-8c-10,2-20,3-30,3c-8.7,0-17.7-0.5-27-1.5S295.2,144.4,290.5,143.8z M85.5,153.8
	c-18.7,0-33.7,1.3-45,4s-21.3,8.3-30,17c-1.3,4-2,7.7-2,11c0,8,2.7,13,8,15c4.7,0.7,9.2,1,13.5,1h13.5c6.7,0,13.7-0.3,21-1
	s14.3-2,21-4V153.8z M187.5,155.8c5.3,14.7,15.7,19.7,31,15c-0.7-6.7-4.5-10.5-11.5-11.5S193.5,157.1,187.5,155.8z M220.5,161.8
	c1.3,3.3,2.7,5,4,5v-4L220.5,161.8z M258.5,215.8c-7.3,0-16.8-0.8-28.5-2.5c-11.7-1.7-18.2-2.5-19.5-2.5c-6,0-11.7,1-17,3
	c0,16,0.7,27.5,2,34.5s6.7,12.5,16,16.5c10,2,22.5,3.3,37.5,4s23.5,1,25.5,1h30c0,0,10.3-0.3,31-1l5-5c-5.3-8-8-15.3-8-22
	c0-3.3,1-7,3-11c-2.7-5.3-9.5-9-20.5-11s-18.5-4.3-22.5-7L258.5,215.8z M345.5,245.8c-1.3,4-2,7-2,9c0,3.3,1,6,3,8
	c1.3,1.3,3.2,1.5,5.5,0.5s3.5-2.5,3.5-4.5L345.5,245.8z M342.5,274.8c1.3,6,2.7,11.5,4,16.5s4.3,7.5,9,7.5c0-13.3-0.7-20.7-2-22
	C347.5,274.8,343.8,274.1,342.5,274.8z M214.5,277.8c-6,3.3-9,8-9,14c2.7,8.7,4.3,15.3,5,20c2,4,4.8,7.2,8.5,9.5s8.2,4.5,13.5,6.5
	c39.3-4,76.7-11.3,112-22c-2-4-4-8.5-6-13.5s-2-10.2,0-15.5c-5.3,0.7-11.3,1-18,1h-15H274c0,0-10.5-0.3-31.5-1
	C230.5,276.8,221.2,277.1,214.5,277.8z M528.5,279.8c4.7,4.7,10.8,10.2,18.5,16.5s14.2,10.2,19.5,11.5c-5.3-6-12-11.5-20-16.5
	S532.5,282.4,528.5,279.8z M159.5,144.8c0,5.3-0.8,13.3-2.5,24s-2.5,17.7-2.5,21c1.3,3.3,5.3,5,12,5c6.7-0.7,11-1,13-1l-6-12
	c-2-4-3-8.7-3-14c0-10,3.7-17,11-21c4.7,0,12,1.3,22,4c10,2.7,17.7,4,23,4c9.3,0,16.7-3.7,22-11c-15.3,0-30.3,0.2-45,0.5
	S174.2,144.8,159.5,144.8z M338.5,318.8c3.3,3.3,6.7,6.3,10,9l-1-7c0-4-1.7-6-5-6S337.8,316.1,338.5,318.8z M328.5,317.8
	c-10.7,4-26.2,7.8-46.5,11.5s-34.5,6.8-42.5,9.5c-2,3.3-3,6.7-3,10c0,4,0.7,8,2,12l4,12c12.7,8.7,22.3,15,29,19s13,6.3,19,7
	c5.3-8.7,8-13.3,8-14l-18,8c1.3-2.7,1.2-4.3-0.5-5s-3.2-1.7-4.5-3c13.3-6.7,27.3-14,42-22s26.3-17,35-27c-6,2.7-11.2,1.8-15.5-2.5
	S329.8,323.8,328.5,317.8z M501.5,343.8l-3-5L501.5,343.8z M518.5,357.8l3,3L518.5,357.8z M320.5,332.8l-1,16l-2-21L320.5,332.8z
	 M316.5,280.8c2.7,0,5,3.3,7,10l-6,18C318.2,302.8,317.8,293.4,316.5,280.8z M314.5,227.8c2,0.7,4,3.7,6,9c-1.3,9.3-4,16.7-8,22
	c-1.3-3.3-1.2-8.7,0.5-16S315.2,230.4,314.5,227.8z M512.5,370.8l4,3l-9-6L512.5,370.8z"/>
</svg>
