<?xml version="1.0" encoding="utf-8"?>
<!-- Generator: Adobe Illustrator 26.4.1, SVG Export Plug-In . SVG Version: 6.00 Build 0)  -->
<svg version="1.1" id="Layer_1" xmlns="http://www.w3.org/2000/svg" xmlns:xlink="http://www.w3.org/1999/xlink" x="0px" y="0px"
	 viewBox="0 0 632.5 632.5" style="enable-background:new 0 0 632.5 632.5;" xml:space="preserve">
<path d="M182.5,154.8h40c0,0,13.3-0.3,40-1c34.7,0,59.7,1.2,75,3.5s32,6.5,50,12.5c23.3,0,51,11.3,83,34c32,22.7,53,35.7,63,39
	c6,12.7,19.3,27,40,43s32.7,25.3,36,28l23,24l-15,63c-20.7,29.3-38.2,49-52.5,59s-30.2,16.3-47.5,19l-42-37c-20,0-47.5-1.2-82.5-3.5
	s-56.8-3.5-65.5-3.5c-24.7-9.3-39.3-15.7-44-19s-10-9.3-16-18c2-10.7-3.7-19.3-17-26s-21-13.3-23-20l-4-42c-8-7.3-18-12.2-30-14.5
	s-25.7-3.5-41-3.5h-25c-11.3-2.7-28.3-4.7-51-6s-40.7-3.3-54-6c-12-5.3-19-13-21-23c-2-4.7-2-9.7,0-15l6-16c6.7-2,13.8-4,21.5-6
	s15.2-3,22.5-3c3.3-1.3,4.7-3,4-5s-1.3-4.3-2-7c0-7.3,1.2-13.5,3.5-18.5s6.5-8.8,12.5-11.5C106.8,168.1,144.5,161.4,182.5,154.8z
	 M203.5,163.8c-2.7,15.3-5,30.3-7,45c0,5.3,0.3,9.3,1,12c5.3,1.3,10.5,2,15.5,2h15.5c12,0,21.7-1.7,29-5
	c5.3-12.7,9.8-22.8,13.5-30.5c3.7-7.7,8.8-14.5,15.5-20.5L203.5,163.8z M305.5,163.8c-12,2.7-21.3,11-28,25c-4.7,12-9,24-13,36
	c9.3-6.7,18.7-11.8,28-15.5s19.3-5.5,30-5.5c4.7,0,7.7-3,9-9s3.3-9,6-9l3-4l-4-2c1.3-4.7,2.3-8,3-10L305.5,163.8z M136.5,172.8
	c-16.7,0.7-30.5,1.5-41.5,2.5s-20.8,4.5-29.5,10.5c-6.7,6.7-9.3,14.7-8,24c4,5.3,8.8,9,14.5,11s12.5,3,20.5,3c9.3,0,17.5-0.7,24.5-2
	s12.5-2.3,16.5-3L136.5,172.8z M349.5,172.8l-8,26l30-6c3.3-2,6.8-3.2,10.5-3.5s6.8-0.8,9.5-1.5c6.7,0,16.8,2.2,30.5,6.5
	c13.7,4.3,22.8,6.5,27.5,6.5c-9.3-6.7-19.8-11.8-31.5-15.5S383.5,177.4,349.5,172.8z M398.5,198.8c-30,6-59.7,11.7-89,17
	c-2.7,0-3.5,1.7-2.5,5s1.5,5.7,1.5,7c-2.7,2.7-4.8,2-6.5-2s-3.8-5.7-6.5-5c0,8,0.3,16,1,24c-6.7-6-11-12.7-13-20
	c-4,1.3-10,5.2-18,11.5s-14,10.5-18,12.5c5.3,6.7,8,12.7,8,18c0,2.7-1,5.7-3,9c-4.7,4-10,7.8-16,11.5s-12,4.2-18,1.5
	c2.7,5.3,6.3,9.3,11,12s10,4,16,4c4.7,0,11.3-1.2,20-3.5s15.7-3.8,21-4.5s12.5-5.8,21.5-15.5s13.8-14.8,14.5-15.5c2,2,2.3,4.3,1,7
	s-2.3,5-3,7c4-0.7,7.7-3,11-7s6-7,8-9v14c12-1.3,23.2-3.5,33.5-6.5s19.8-7.5,28.5-13.5c-3.3,8-9.7,13.8-19,17.5s-18.3,7.2-27,10.5
	c9.3,16,22,28,38,36s45.7,14.3,89,19c28,0,47.7-14.3,59-43c2-14.7-0.7-27.3-8-38c-16-14-32.8-24.8-50.5-32.5
	c-17.7-7.7-41.8-16.5-72.5-26.5c0,0.7,0.8,3.2,2.5,7.5s1.8,7.5,0.5,9.5c-3.3-4.7-6.3-8.7-9-12S399.8,200.1,398.5,198.8z M22.5,225.8
	c-6,3.3-10.5,6.2-13.5,8.5s-4.2,5.8-3.5,10.5c0,10.7,4.3,18.3,13,23c8.7,2.7,20.2,4.7,34.5,6s27.2,2,38.5,2c0-15.3,0.7-28.3,2-39
	c-6.7-0.7-16.2-3.2-28.5-7.5s-21.5-6.5-27.5-6.5C32.8,222.8,27.8,223.8,22.5,225.8z M96.5,235.8c-2,3.3-3,7-3,11c0,2.7,0.7,7.3,2,14
	c1.3,6.7,2,11.7,2,15c10.7,2.7,24,4,40,4h15c-2.7-6-4-12.3-4-19c0.7-10,1.3-20.3,2-31c-12.7,0.7-22.8,1.2-30.5,1.5
	S104.5,233.1,96.5,235.8z M156.5,230.8c-2.7,8-4,16-4,24c0,4.7,1,9.7,3,15c3.3-8.7,5-17,5-25C160.5,238.8,159.2,234.1,156.5,230.8z
	 M167.5,230.8c-2,6.7-3.7,14.7-5,24s-1.7,17.7-1,25l33,4c7.3,0.7,10.3-4.7,9-16c2.7-8,8.3-14,17-18l26-12L167.5,230.8z M240.5,256.8
	c-12-1.3-21.3,1-28,7c-0.7,5.3,0.8,10.2,4.5,14.5s9.5,6.2,17.5,5.5c0.7-0.7,3.5-2.7,8.5-6s6.5-6.7,4.5-10
	C242.8,261.8,240.5,258.1,240.5,256.8z M345.5,288.8c-10,0-22.7,3.2-38,9.5s-26.7,9.5-34,9.5c-2.7,1.3-10,2.3-22,3s-19.3,3.7-22,9
	c2.7,14,5.3,24.3,8,31s8.7,11,18,13c27.3-3.3,49.5-6.5,66.5-9.5s36.8-9.8,59.5-20.5c-14,2.7-21.8-3.7-23.5-19
	S352.2,290.8,345.5,288.8z M559.5,291.8l2,3c-3.3,10.7-9,20-17,28c3.3-3.3,6.3-9,9-17S558.2,293.1,559.5,291.8z M581.5,306.8l-5-3
	l8,6L581.5,306.8z M564.5,306.8l-1,5c6.7,4.7,16.8,12.8,30.5,24.5s21.5,18.2,23.5,19.5v-6c-5.3-4.7-13.3-12.2-24-22.5
	S573.2,310.1,564.5,306.8z M367.5,313.8l-1,5c-0.7,3.3,1.3,5,6,5c1.3,0,4-0.3,8-1c-0.7-2-2.5-3.8-5.5-5.5S369.5,314.4,367.5,313.8z
	 M557.5,317.8c-8,8-13.3,15.7-16,23l70,50l5-26c-15.3-14.7-27-25.5-35-32.5S565.5,320.4,557.5,317.8z M405.5,335.8
	c4,8,8.7,11.3,14,10c1.3-3.3-0.3-5.5-5-6.5S406.8,337.1,405.5,335.8z M395.5,341.8c1.3,3.3,2,8.3,2,15v9
	c-3.3,9.3-12.5,18.5-27.5,27.5s-22.5,19.2-22.5,30.5c5.3,2.7,10.7,4.3,16,5s12,1,20,1s16.7-0.3,26-1s14.3-1,15-1
	c4.7,0,10.2,0.5,16.5,1.5s10.8,1.5,13.5,1.5h5c10,0,19.3-2.7,28-8c16.7-18.7,25-39.7,25-63c0-5.3-0.3-9.7-1-13
	c8.7,4.7,19.3,13.2,32,25.5s26.7,25.8,42,40.5h9c-30.7-34.7-49.5-54.8-56.5-60.5s-17.5-8.5-31.5-8.5c-7.3,8-17,12-29,12l-56-6
	c4.7,2,9,4.2,13,6.5s8.3,5.5,13,9.5c-9.3,0-20.3-3.7-33-11C405.8,348.1,399.5,343.8,395.5,341.8z M381.5,344.8c0,2-0.3,4-1,6
	s-0.7,3.8,0,5.5s2.3,1.8,5,0.5c0.7-0.7,1-1.3,1-2s0.3-2.3,1-5c0.7-2,0.3-3.5-1-4.5S383.5,344.1,381.5,344.8z M477.5,347.8l-22-2
	L477.5,347.8z M366.5,350.8c-4,0-7.2,0.2-9.5,0.5s-3.5,1.8-3.5,4.5c4,6.7,6,11.7,6,15s-1.3,6-4,8l-10-22c-10.7,1.3-24,4.3-40,9
	s-27.3,7.3-34,8c-2,8.7,1,16.7,9,24c10.7,8,18,14,22,18c0.7-0.7,12.8-6.2,36.5-16.5s38.5-21.8,44.5-34.5
	C377.5,367.4,371.8,362.8,366.5,350.8z M373.5,350.8l2,3L373.5,350.8z M519.5,358.8c0.7,2.7,1,6.7,1,12c0,10.7-2.2,21.2-6.5,31.5
	s-9.5,19.2-15.5,26.5c20.7-16,31-37,31-63L519.5,358.8z M535.5,371.8c-3.3,15.3-8,28.5-14,39.5s-14.7,20.5-26,28.5
	c4,4.7,8.2,9.5,12.5,14.5s8.8,8.2,13.5,9.5c20-8,34.3-14.3,43-19s15.3-13,20-25L535.5,371.8z M572.5,372.8l21,23
	c7.3,3.3,11.3,4.7,12,4C596.2,389.8,585.2,380.8,572.5,372.8z M324.5,421.8l11,2c5.3-6.7,8-12,8-16c-4,0.7-6.7,1.5-8,2.5
	S330.5,415.1,324.5,421.8z M142.5,172.8c-1.3,5.3-2.3,10.2-3,14.5c-0.7,4.3-1,9.8-1,16.5v9c3.3,6,9,9,17,9c5.3,0,11.5-0.3,18.5-1
	s11.8-0.7,14.5,0c-1.3-8.7-1-17.8,1-27.5c2-9.7,4-19.5,6-29.5c-11.3,0-20,0.5-26,1.5S154.5,168.8,142.5,172.8z M334.5,297.8
	c3.3-0.7,6,1.2,8,5.5s3.7,7.2,5,8.5c-0.7,8-1,16-1,24c0-4.7-1.8-11.8-5.5-21.5S335.2,299.1,334.5,297.8z"/>
</svg>
