<svg xmlns="http://www.w3.org/2000/svg" xmlns:xlink="http://www.w3.org/1999/xlink" version="1.1" viewBox="31.5 475 632.5 325">
   <path fill="currentColor" d="M214 476h40t40 -1q52 0 75 3.5t50 12.5q35 0 83 34t63 39q9 19 40 43t36 28l23 24l-15 63q-31 44 -52.5 59t-47.5 19l-42 -37q-30 0 -82.5 -3.5t-65.5 -3.5q-37 -14 -44 -19t-16 -18q3 -16 -17 -26t-23 -20l-4 -42q-12 -11 -30 -14.5t-41 -3.5h-25q-17 -4 -51 -6t-54 -6 q-18 -8 -21 -23q-3 -7 0 -15l6 -16q10 -3 21.5 -6t22.5 -3q5 -2 4 -5t-2 -7q0 -11 3.5 -18.5t12.5 -11.5q56 -10 113 -20zM235 485q-4 23 -7 45q0 8 1 12q8 2 15.5 2h15.5q18 0 29 -5q8 -19 13.5 -30.5t15.5 -20.5zM337 485q-18 4 -28 25q-7 18 -13 36q14 -10 28 -15.5 t30 -5.5q7 0 9 -9t6 -9l3 -4l-4 -2q2 -7 3 -10zM168 494q-25 1 -41.5 2.5t-29.5 10.5q-10 10 -8 24q6 8 14.5 11t20.5 3q14 0 24.5 -2t16.5 -3zM381 494l-8 26l30 -6q5 -3 10.5 -3.5t9.5 -1.5q10 0 30.5 6.5t27.5 6.5q-14 -10 -31.5 -15.5t-68.5 -12.5zM430 520 q-45 9 -89 17q-4 0 -2.5 5t1.5 7q-4 4 -6.5 -2t-6.5 -5q0 12 1 24q-10 -9 -13 -20q-6 2 -18 11.5t-18 12.5q8 10 8 18q0 4 -3 9q-7 6 -16 11.5t-18 1.5q4 8 11 12t16 4q7 0 20 -3.5t21 -4.5t21.5 -15.5t14.5 -15.5q3 3 1 7t-3 7q6 -1 11 -7t8 -9v14q18 -2 33.5 -6.5 t28.5 -13.5q-5 12 -19 17.5t-27 10.5q14 24 38 36t89 19q42 0 59 -43q3 -22 -8 -38q-24 -21 -50.5 -32.5t-72.5 -26.5q0 1 2.5 7.5t0.5 9.5q-5 -7 -9 -12t-6 -7zM54 547q-9 5 -13.5 8.5t-3.5 10.5q0 16 13 23q13 4 34.5 6t38.5 2q0 -23 2 -39q-10 -1 -28.5 -7.5t-27.5 -6.5 q-7 0 -15 3zM128 557q-3 5 -3 11q0 4 2 14t2 15q16 4 40 4h15q-4 -9 -4 -19q1 -15 2 -31q-19 1 -30.5 1.5t-23.5 4.5zM188 552q-4 12 -4 24q0 7 3 15q5 -13 5 -25q0 -9 -4 -14zM199 552q-3 10 -5 24t-1 25l33 4q11 1 9 -16q4 -12 17 -18l26 -12zM272 578q-18 -2 -28 7 q-1 8 4.5 14.5t17.5 5.5q1 -1 8.5 -6t4.5 -10q-7 -9 -7 -11zM377 610q-15 0 -38 9.5t-34 9.5q-4 2 -22 3t-22 9q4 21 8 31t18 13q41 -5 66.5 -9.5t59.5 -20.5q-21 4 -23.5 -19t-12.5 -26zM591 613l2 3q-5 16 -17 28q5 -5 9 -17t6 -14zM613 628l-5 -3l8 6zM596 628l-1 5 q10 7 30.5 24.5t23.5 19.5v-6q-8 -7 -24 -22.5t-29 -20.5zM399 635l-1 5q-1 5 6 5q2 0 8 -1q-1 -3 -5.5 -5.5t-7.5 -3.5zM589 639q-12 12 -16 23l70 50l5 -26q-23 -22 -35 -32.5t-24 -14.5zM437 657q6 12 14 10q2 -5 -5 -6.5t-9 -3.5zM427 663q2 5 2 15v9q-5 14 -27.5 27.5 t-22.5 30.5q8 4 16 5t20 1t26 -1t15 -1q7 0 16.5 1.5t13.5 1.5h5q15 0 28 -8q25 -28 25 -63q0 -8 -1 -13q13 7 32 25.5t42 40.5h9q-46 -52 -56.5 -60.5t-31.5 -8.5q-11 12 -29 12l-56 -6q7 3 13 6.5t13 9.5q-14 0 -33 -11q-13 -10 -19 -13zM413 666q0 3 -1 6t0 5.5t5 0.5 q1 -1 1 -2t1 -5q1 -3 -1 -4.5t-5 -0.5zM509 669l-22 -2zM398 672q-6 0 -9.5 0.5t-3.5 4.5q6 10 6 15t-4 8l-10 -22q-16 2 -40 9t-34 8q-3 13 9 24q16 12 22 18q1 -1 36.5 -16.5t44.5 -34.5q-9 4 -17 -14zM405 672l2 3zM551 680q1 4 1 12q0 16 -6.5 31.5t-15.5 26.5 q31 -24 31 -63zM567 693q-5 23 -14 39.5t-26 28.5q6 7 12.5 14.5t13.5 9.5q30 -12 43 -19t20 -25zM604 694l21 23q11 5 12 4q-14 -15 -33 -27zM356 743l11 2q8 -10 8 -16q-6 1 -8 2.5t-11 11.5zM174 494q-2 8 -3 14.5t-1 16.5v9q5 9 17 9q8 0 18.5 -1t14.5 0q-2 -13 1 -27.5 t6 -29.5q-17 0 -26 1.5t-27 7.5zM366 619q5 -1 8 5.5t5 8.5q-1 12 -1 24q0 -7 -5.5 -21.5t-6.5 -16.5z"/>
</svg>