<svg xmlns="http://www.w3.org/2000/svg" xmlns:xlink="http://www.w3.org/1999/xlink" version="1.1" viewBox="17 277 335 523">
   <path fill="currentColor" d="M61 291l19 60q11 11 17.5 38.5t15.5 37.5q2 -3 7 -26t23 -27q11 -1 16 -1q17 0 23 9q5 -9 16.5 -13t24.5 -2q6 0 12.5 6t7.5 7q5 -15 25 -15h23q10 0 19 10q9 13 13 18q2 11 4.5 21t8.5 20q0 15 8 44t8 42q0 15 -7 29q-10 14 -29 59.5t-42 62.5l-3 8v74q-21 19 -34 31.5 t-31 12.5q-8 3 -15 3q-11 0 -32 -9.5t-32 -9.5q-5 -2 -16 -3.5t-17 -8.5v-49q0 -22 -3 -45q-8 -12 -12.5 -26.5t-7.5 -33t-6 -73t-7 -87.5q-14 -33 -22.5 -65.5t-18.5 -79.5q0 -16 8 -27q6 -6 15 -6q4 0 12 2zM50 287q-10 -6 -21 2q-7 10 -7 22q0 13 6 30q6 12 7 17 q7 -3 17 -5.5t19 -5.5q-3 -5 -7.5 -27.5t-13.5 -32.5zM61 355q-10 2 -16 5t-6 9q0 12 1.5 18t7.5 12l16 -13q2 -3 12.5 -5t10.5 -9q-6 -13 -10.5 -17t-15.5 0zM267 369q-5 3 -10.5 7t-3.5 10q10 10 27.5 16t26.5 9l8 -7q2 1 2 4.5v4.5q2 -12 -2.5 -23.5t-17 -16t-30.5 -4.5z M200 375q-10 5 -13 26q5 42 8 70t8 55l8 -15q12 -7 18 -2l-6 4q4 2 6 -1t5 -3l7 16q3 -18 3.5 -23t0.5 -18q0 -8 -1 -12q-4 0 -14 4.5t-17 2.5q-4 -2 -5 -5l-2 -6l11 2q14 4 22 -6q-20 -23 -25 -33t-5 -24q6 -21 22 -29q-8 -2 -14.5 -3.5t-16.5 0.5zM155 380q-12 -2 -18.5 5 t-9.5 19q0 29 10 63t20 64l6 -22q4 -5 12 -5q9 1 14 1q0 -32 -2 -50.5t-10 -64.5q-2 -5 -10.5 -7t-11.5 -3zM89 386q-8 0 -18 6.5t-19 12.5q1 11 8 29t7 19q9 -7 19 -14t17 -8zM225 397q-3 5 -3 10q0 10 9 10q7 4 11 4q5 0 9 -9t6 -11q-5 -13 -18 -13q-9 0 -14 9zM271 406 l-21 23q-8 0 -20.5 -7t-13.5 -7q9 24 28.5 42.5t42.5 21.5q-12 12 -10 16q1 13 13.5 20.5t20.5 11.5q-9 5 -19 -3.5t-16 -9.5q-3 1 -3 5v8q-12 -4 -24 10t-22 26q-2 -3 0.5 -6.5t1.5 -5.5q-8 1 -15 -0.5t-14 -3.5q-5 5 -9 13t-7 15q-8 9 -8 21t10 26.5t19 27.5 q14 7 29.5 11.5t29.5 2.5q26 -15 43.5 -60.5t31.5 -59.5q4 -11 4 -24q0 -15 -6.5 -35.5t-9.5 -30.5q-2 4 -7.5 7.5t-7.5 5.5l9 -13q3 -6 4.5 -10.5t-2.5 -6.5l-13 18l-6 -4q4 -8 8 -17q-5 3 -8 9l-6 12q-3 -7 2 -15.5t10 -16.5zM113 440q0 11 14 19v-4q1 -13 -14 -15z M101 441q-1 1 -19 11.5t-18 21.5q0 5 3 11q1 11 2.5 15t7.5 3q6 -4 20.5 -5t19.5 -3t12 0t8 -2q-4 -26 -26 -29l4 -5q-1 -1 -5 -9.5t-9 -8.5zM261 487q-4 0 -5 7t-2 8q-1 5 2.5 6t9.5 1q2 -3 4 -5.5t1 -5.5q-2 -4 -3.5 -8t-6.5 -3zM94 503q-11 2 -17.5 8t-5.5 16l12 112 q6 14 13 28q13 13 33 13q14 0 38 -7t28 -8q-8 -11 -17 -29.5t-15 -34.5l15 -48q-11 0 -13 2l-30 53l-2 -2q9 -24 26 -49v-8q-4 -5 -9 -5t-14 10t-11 11q1 -7 8 -14.5t14 -15.5l-5 -23q-5 -11 -20 -11zM191 522q-1 -8 -7 -8q-10 3 -19 5v17q8 2 11 2q10 0 16 -6zM234 521h-23 q-6 15 0 17q3 1 10 1q11 0 15 -7zM176 621l2 6q12 11 17.5 29t5.5 38q0 10 -1 30.5t-1 29.5q0 12 1 18q3 -23 6 -49.5t3 -39.5q-4 -5 -4 -9q5 0 11 -1q11 2 13 -1q-17 -3 -32 -22.5t-21 -28.5zM184 677l6 -6q-2 1 -3.5 3t-2.5 3zM171 681l-25 8q19 0 25 -8zM184 683 q-3 16 -5.5 32t-2.5 35v12q2 8 2 11l8 -28q2 7 -0.5 23t-1.5 21q5 -1 11 -3q-3 -14 -3 -27q0 -10 2 -35.5t2 -27.5q0 -10 -1 -15q-6 1 -11 2zM216 683q-4 22 -5 42.5t-1 46.5v12q14 -8 23 -13t9 -13q0 -4 -3 -9l-4 6q-4 -12 -4 -31v-16q2 -9 2 -13q1 -7 -17 -12zM115 689 l-12 -2q0 39 5 76l63 21q-1 -6 -1 -18q0 -13 2.5 -40.5t2.5 -36.5q-16 7 -26.5 10.5t-21.5 0.5q-2 -1 -7.5 -3.5t-4.5 -7.5zM243 689h-4q0 7 -0.5 15.5t-0.5 11.5q0 18 1 25zM252 689q-7 33 -7 60v12l2 -2q2 -35 5 -70zM155 470l26 2q-14 2 -19 2q-6 0 -7 -4z"/>
</svg>