<?xml version="1.0" encoding="utf-8"?>
<!-- Generator: Adobe Illustrator 26.4.1, SVG Export Plug-In . SVG Version: 6.00 Build 0)  -->
<svg version="1.1" id="Layer_1" xmlns="http://www.w3.org/2000/svg" xmlns:xlink="http://www.w3.org/1999/xlink" x="0px" y="0px"
	 viewBox="0 0 523 523" style="enable-background:new 0 0 523 523;" xml:space="preserve">
<path d="M138,14l19,60c7.3,7.3,13.2,20.2,17.5,38.5S184,143.3,190,150c1.3-2,3.7-10.7,7-26s11-24.3,23-27c7.3-0.7,12.7-1,16-1
	c11.3,0,19,3,23,9c3.3-6,8.8-10.3,16.5-13s15.8-3.3,24.5-2c4,0,8.2,2,12.5,6s6.8,6.3,7.5,7c3.3-10,11.7-15,25-15h23
	c6.7,0,13,3.3,19,10c6,8.7,10.3,14.7,13,18c1.3,7.3,2.8,14.3,4.5,21s4.5,13.3,8.5,20c0,10,2.7,24.7,8,44s8,33.3,8,42
	c0,10-2.3,19.7-7,29c-6.7,9.3-16.3,29.2-29,59.5s-26.7,51.2-42,62.5l-3,8v74c-14,12.7-25.3,23.2-34,31.5S295,520,283,520
	c-5.3,2-10.3,3-15,3c-7.3,0-18-3.2-32-9.5s-24.7-9.5-32-9.5c-3.3-1.3-8.7-2.5-16-3.5s-13-3.8-17-8.5v-49c0-14.7-1-29.7-3-45
	c-5.3-8-9.5-16.8-12.5-26.5s-5.5-20.7-7.5-33s-4-36.7-6-73s-4.3-65.5-7-87.5c-9.3-22-16.8-43.8-22.5-65.5
	C106.8,90.8,100.7,64.3,94,33c0-10.7,2.7-19.7,8-27c4-4,9-6,15-6c2.7,0,6.7,0.7,12,2L138,14z M127,10c-6.7-4-13.7-3.3-21,2
	c-4.7,6.7-7,14-7,22c0,8.7,2,18.7,6,30c4,8,6.3,13.7,7,17c4.7-2,10.3-3.8,17-5.5s13-3.5,19-5.5c-2-3.3-4.5-12.5-7.5-27.5
	S133,16.7,127,10z M138,78c-6.7,1.3-12,3-16,5s-6,5-6,9c0,8,0.5,14,1.5,18s3.5,8,7.5,12l16-13c1.3-2,5.5-3.7,12.5-5s10.5-4.3,10.5-9
	c-4-8.7-7.5-14.3-10.5-17S145.3,75.3,138,78z M344,92c-3.3,2-6.8,4.3-10.5,7c-3.7,2.7-4.8,6-3.5,10c6.7,6.7,15.8,12,27.5,16
	s20.5,7,26.5,9l8-7c1.3,0.7,2,2.2,2,4.5v4.5c1.3-8,0.5-15.8-2.5-23.5s-8.7-13-17-16S356,92,344,92z M277,98c-6.7,3.3-11,12-13,26
	c3.3,28,6,51.3,8,70s4.7,37,8,55l8-15c8-4.7,14-5.3,18-2l-6,4c2.7,1.3,4.7,1,6-1s3-3,5-3l7,16c2-12,3.2-19.7,3.5-23s0.5-9.3,0.5-18
	c0-5.3-0.3-9.3-1-12c-2.7,0-7.3,1.5-14,4.5s-12.3,3.8-17,2.5c-2.7-1.3-4.3-3-5-5l-2-6l11,2c9.3,2.7,16.7,0.7,22-6
	c-13.3-15.3-21.7-26.3-25-33s-5-14.7-5-24c4-14,11.3-23.7,22-29c-5.3-1.3-10.2-2.5-14.5-3.5S283.7,96.7,277,98z M232,103
	c-8-1.3-14.2,0.3-18.5,5s-7.5,11-9.5,19c0,19.3,3.3,40.3,10,63s13.3,44,20,64l6-22c2.7-3.3,6.7-5,12-5c6,0.7,10.7,1,14,1
	c0-21.3-0.7-38.2-2-50.5s-4.7-33.8-10-64.5c-1.3-3.3-4.8-5.7-10.5-7S234,103.7,232,103z M166,109c-5.3,0-11.3,2.2-18,6.5
	s-13,8.5-19,12.5c0.7,7.3,3.3,17,8,29c4.7,12,7,18.3,7,19c6-4.7,12.3-9.3,19-14s12.3-7.3,17-8L166,109z M302,120c-2,3.3-3,6.7-3,10
	c0,6.7,3,10,9,10c4.7,2.7,8.3,4,11,4c3.3,0,6.3-3,9-9s4.7-9.7,6-11c-3.3-8.7-9.3-13-18-13C310,111,305.3,114,302,120z M348,129
	l-21,23c-5.3,0-12.2-2.3-20.5-7s-12.8-7-13.5-7c6,16,15.5,30.2,28.5,42.5S348.7,200,364,202c-8,8-11.3,13.3-10,16
	c0.7,8.7,5.2,15.5,13.5,20.5s15.2,8.8,20.5,11.5c-6,3.3-12.3,2.2-19-3.5s-12-8.8-16-9.5c-2,0.7-3,2.3-3,5v8c-8-2.7-16,0.7-24,10
	s-15.3,18-22,26c-1.3-2-1.2-4.2,0.5-6.5s2.2-4.2,1.5-5.5c-5.3,0.7-10.3,0.5-15-0.5s-9.3-2.2-14-3.5c-3.3,3.3-6.3,7.7-9,13
	s-5,10.3-7,15c-5.3,6-8,13-8,21s3.3,16.8,10,26.5s13,18.8,19,27.5c9.3,4.7,19.2,8.5,29.5,11.5s20.2,3.8,29.5,2.5
	c17.3-10,31.8-30.2,43.5-60.5s22.2-50.2,31.5-59.5c2.7-7.3,4-15.3,4-24c0-10-2.2-21.8-6.5-35.5S406,183.7,404,177
	c-1.3,2.7-3.8,5.2-7.5,7.5s-6.2,4.2-7.5,5.5l9-13c2-4,3.5-7.5,4.5-10.5s0.2-5.2-2.5-6.5l-13,18l-6-4c2.7-5.3,5.3-11,8-17
	c-3.3,2-6,5-8,9l-6,12c-2-4.7-1.3-9.8,2-15.5s6.7-11.2,10-16.5L348,129z M190,163c0,7.3,4.7,13.7,14,19v-4
	C204.7,169.3,200,164.3,190,163z M178,164c-0.7,0.7-7,4.5-19,11.5s-18,14.2-18,21.5c0,3.3,1,7,3,11c0.7,7.3,1.5,12.3,2.5,15
	s3.5,3.7,7.5,3c4-2.7,10.8-4.3,20.5-5s16.2-1.7,19.5-3s7.3-1.3,12,0c4.7,1.3,7.3,0.7,8-2c-2.7-17.3-11.3-27-26-29l4-5
	c-0.7-0.7-2.3-3.8-5-9.5S181.3,164,178,164z M338,210c-2.7,0-4.3,2.3-5,7c-0.7,4.7-1.3,7.3-2,8c-0.7,3.3,0.2,5.3,2.5,6
	c2.3,0.7,5.5,1,9.5,1c1.3-2,2.7-3.8,4-5.5s1.7-3.5,1-5.5c-1.3-2.7-2.5-5.3-3.5-8S341.3,209.3,338,210z M171,226
	c-7.3,1.3-13.2,4-17.5,8s-6.2,9.3-5.5,16l12,112c4,9.3,8.3,18.7,13,28c8.7,8.7,19.7,13,33,13c9.3,0,22-2.3,38-7s25.3-7.3,28-8
	c-5.3-7.3-11-17.2-17-29.5s-11-23.8-15-34.5l15-48c-7.3,0-11.7,0.7-13,2l-30,53l-2-2c6-16,14.7-32.3,26-49v-8c-2.7-3.3-5.7-5-9-5
	s-8,3.3-14,10s-9.7,10.3-11,11c0.7-4.7,3.3-9.5,8-14.5s9.3-10.2,14-15.5l-5-23c-3.3-7.3-10-11-20-11L171,226z M268,245
	c-0.7-5.3-3-8-7-8c-6.7,2-13,3.7-19,5v17c5.3,1.3,9,2,11,2c6.7,0,12-2,16-6L268,245z M311,244h-23c-4,10-4,15.7,0,17
	c2,0.7,5.3,1,10,1c7.3,0,12.3-2.3,15-7L311,244z M253,344l2,6c8,7.3,13.8,17,17.5,29s5.5,24.7,5.5,38c0,6.7-0.3,16.8-1,30.5
	s-1,23.5-1,29.5c0,8,0.3,14,1,18c2-15.3,4-31.8,6-49.5s3-30.8,3-39.5c-2.7-3.3-4-6.3-4-9c3.3,0,7-0.3,11-1c7.3,1.3,11.7,1,13-1
	c-11.3-2-22-9.5-32-22.5S257,350,253,344z M261,400l6-6c-1.3,0.7-2.5,1.7-3.5,3S261.7,399.3,261,400z M248,404l-25,8
	C235.7,412,244,409.3,248,404z M261,406c-2,10.7-3.8,21.3-5.5,32c-1.7,10.7-2.5,22.3-2.5,35v12c1.3,5.3,2,9,2,11l8-28
	c1.3,4.7,1.2,12.3-0.5,23s-2.2,17.7-1.5,21c3.3-0.7,7-1.7,11-3c-2-9.3-3-18.3-3-27c0-6.7,0.7-18.5,2-35.5s2-26.2,2-27.5
	c0-6.7-0.3-11.7-1-15C268,404.7,264.3,405.3,261,406z M293,406c-2.7,14.7-4.3,28.8-5,42.5s-1,29.2-1,46.5v12c9.3-5.3,17-9.7,23-13
	s9-7.7,9-13c0-2.7-1-5.7-3-9l-4,6c-2.7-8-4-18.3-4-31v-16c1.3-6,2-10.3,2-13C310.7,413.3,305,409.3,293,406z M192,412l-12-2
	c0,26,1.7,51.3,5,76l63,21c-0.7-4-1-10-1-18c0-8.7,0.8-22.2,2.5-40.5S252,418,252,412c-10.7,4.7-19.5,8.2-26.5,10.5
	S211.3,425,204,423c-1.3-0.7-3.8-1.8-7.5-3.5S191.3,415.3,192,412z M320,412h-4c0,4.7-0.2,9.8-0.5,15.5S315,437,315,439
	c0,12,0.3,20.3,1,25L320,412z M329,412c-4.7,22-7,42-7,60v12l2-2C325.3,458.7,327,435.3,329,412z M232,193l26,2
	c-9.3,1.3-15.7,2-19,2C235,197,232.7,195.7,232,193z"/>
</svg>
