<?xml version="1.0" encoding="utf-8"?>
<!-- Generator: Adobe Illustrator 26.4.1, SVG Export Plug-In . SVG Version: 6.00 Build 0)  -->
<svg version="1.1" id="Layer_1" xmlns="http://www.w3.org/2000/svg" xmlns:xlink="http://www.w3.org/1999/xlink" x="0px" y="0px"
	 viewBox="0 0 500 500" style="enable-background:new 0 0 500 500;" xml:space="preserve">
<path d="M311,30c15.3,6,27,11,35,15s14.7,10,20,18c16,7.3,31.7,19.2,47,35.5s30.3,32.2,45,47.5c4,7.3,6,17,6,29c0,6-0.3,12.7-1,20
	s-1,11.7-1,13c0,6.7,1,13,3,19c2,11.3,3.2,19.7,3.5,25s0.5,12.3,0.5,21c0,10-1.3,20-4,30c11.3,24.7,23,49,35,73
	c-4.7,16-9,29.5-13,40.5s-12.3,19.3-25,25s-29.8,11.2-51.5,16.5s-37.8,9.3-48.5,12c-17.3-26-30.5-44.3-39.5-55s-21.8-18-38.5-22
	c-24-22.7-47.5-49.5-70.5-80.5S171.3,255.3,156,234c-6.7-6-25-21.2-55-45.5c-30-24.3-52.3-46.8-67-67.5c-2-4-3-8.7-3-14
	c0-4.7,1-9,3-13c7.3-6.7,14.7-10,22-10c9.3,0,21.8,7.8,37.5,23.5s25.8,24.8,30.5,27.5c8,2,18.8,8.8,32.5,20.5s20.8,17.8,21.5,18.5
	c-2-8.7-3.7-15.3-5-20s-2-8.7-2-12c0-7.3,3.3-14.3,10-21c9.3-7.3,15.7-12.5,19-15.5s8-3.3,14-1s9,0.8,9-4.5c0-6,2.8-11.8,8.5-17.5
	C237.2,76.8,243,72.3,249,69c2-2,4.7-3,8-3c8.7,1.3,14.3,2,17,2c4,0,6-2,6-6l-2-9c2-1.3,6.5-5.2,13.5-11.5S305,31.3,311,30z M18,173
	c2.7,6.7,7.7,10,15,10c4,0,7.7-1,11-3c-2.7,20-5.3,41-8,63s-4,42.3-4,61c0,14.7,0.3,25.7,1,33c2.7,9.3,6.8,17.8,12.5,25.5
	S57,375.3,63,378s11.7,4,17,4c8,0,15.7-3,23-9c-0.7-2-2.7-4-6-6s-7-4.3-11-7l68-37c0,13.3-1.5,26.8-4.5,40.5S142,391,136,405
	c-1.3-0.7-3.5-3.2-6.5-7.5s-5.5-7.2-7.5-8.5c-8,4-16.7,7.8-26,11.5S78.3,406,71,406c-4.7,0-12.2-1.5-22.5-4.5S29,391.3,21,380
	S7,354,3,336c-2-18-3-36-3-54c0-16,0.3-28.3,1-37s2.2-22.7,4.5-42s4.5-29.7,6.5-31S16,171,18,173z M188,193
	c-6,4.7-10.5,11.3-13.5,20s-4.5,17.3-4.5,26c10,12.7,27.3,35.7,52,69s48,59,70,77c9.3,4,17.7,6,25,6c12,0,23.2-3.3,33.5-10
	s22.8-16.7,37.5-30c4,1.3,7.5,5,10.5,11s5.2,12.3,6.5,19c-2.7-3.3-5-6.8-7-10.5s-4-7.5-6-11.5c-6.7,3.3-14,8.5-22,15.5
	s-13.3,12.8-16,17.5c2.7-0.7,7.5-3.2,14.5-7.5s12.5-7.2,16.5-8.5c-8,6-16.8,12.3-26.5,19S340,405,332,405c-1.3,0-4.7-0.7-10-2
	c8.7,5.3,18.2,15.7,28.5,31s16.8,24.3,19.5,27c20-6.7,40-13.7,60-21l-25-59l23,42l-1-16c-6.7-15.3-12-27.7-16-37s-9.3-18-16-26
	c-0.7-6,1.3-9,6-9c4.7,0.7,8.3,1,11,1c3.3,0,6-1.3,8-4c-4,0.7-10.3,1-19,1c-11.3,0-23.7-4.8-37-14.5s-24.2-18.8-32.5-27.5
	s-11.5-20.7-9.5-36v21.5c0,0,0.7,5.5,2,16.5c0,2.7,1.3,6.3,4,11s3.3,8,2,10c-6.7-6-10.7-14.2-12-24.5s-2.7-20.5-4-30.5l-11,6
	c-1.3,6-2,16-2,30s0.3,24.7,1,32c-5.3-12-8-23.7-8-35c0-4.7,0.7-11,2-19c0-3.3-1.2-5.8-3.5-7.5s-4.8-1.5-7.5,0.5c-2,9.3-4,14-6,14
	v-4c3.3-7.3,1.7-14-5-20s-13.3-11.7-20-17c-9.3,3.3-17.5,6.5-24.5,9.5S213.3,256,202,262c4-6.7,11.5-13.2,22.5-19.5
	s17.8-10.8,20.5-13.5c-3.3-9.3-12-15.5-26-18.5s-22.3-6.2-25-9.5c3.3,0,7.7,0.7,13,2s9.7,2,13,2L188,193z M296,81l-16-4
	c-3.3,0-6,1-8,3c-2,4.7-3.2,9-3.5,13s0.8,7,3.5,9c6.7,1.3,12.3,2,17,2s8.3-1.7,11-5l-4-4V81z M320,77c-8-2-12,1.3-12,10
	c0,7.3-0.7,11.7-2,13c-2,5.3-6.3,8.3-13,9s-11.7,1-15,1c-10,2-15-3.7-15-17c-2,5.3-2,10.5,0,15.5s4.7,9.2,8,12.5
	c14,5.3,24.7,9,32,11s16.3,3,27,3c14,0,25.7-3.7,35-11c0.7,2.7-0.5,6.3-3.5,11s-4.5,7.3-4.5,8c3.3,6.7,9.7,11.8,19,15.5
	s14.7,5.8,16,6.5c-0.7,2-2.7,3.5-6,4.5s-5.7,1.8-7,2.5c0,4,1.5,6.8,4.5,8.5c3,1.7,7.5,2.8,13.5,3.5s10,2,12,4c-2.7,0.7-6.7,1-12,1
	s-9-0.3-11-1c-1.3,0-3.5-1.7-6.5-5c-3-3.3-5.8-4.3-8.5-3c-3.3,5.3-7.2,14-11.5,26s-8.2,21.7-11.5,29l-9-1c-4,2.7-6,8.7-6,18v16
	c2.7,14.7,11.5,27.3,26.5,38s31.5,16,49.5,16c8,0,18.8-3.2,32.5-9.5S462,290.7,462,266c-5.3-35.3-8-73-8-113l-68-70
	c-2.7-0.7-5-1.2-7-1.5s-2.3-1.8-1-4.5h-4c-6.7-1.3-10.7,0.3-12,5s-2,11.3-2,20c-1.3-2-2-5.3-2-10c0-6,1.7-11.3,5-16
	c-14.7,0.7-25.7,1-33,1H320z M52,89c-5.3,0-10,2.3-14,7c-3.3,12,1.3,24.7,14,38c17.3,14,28.7,23.7,34,29c6-10.7,12.3-21.3,19-32
	c-10.7-11.3-19.8-20.7-27.5-28S61.3,91,52,89z M224,115c-3.3-2.7-7.3-4-12-4c-4,0-9.2,2.2-15.5,6.5S185.3,125,182,127
	c-2,6-3,12-3,18c0,8.7,3,16.7,9,24l92,80l-6-20c2-5.3,5-9.7,9-13s9-7,15-11c-7.3-10.7-13.5-19.5-18.5-26.5S269,165.7,263,161
	s-13.2-12.8-21.5-24.5S227.3,117.7,224,115z M110,135l-16,21c-2.7,7.3-1,13.8,5,19.5s11,10.2,15,13.5c4.7,0,9.5-4.5,14.5-13.5
	s10.2-14.2,15.5-15.5c-4-5.3-7.2-9-9.5-11S124,142.3,110,135z M354,150c-7.3,0-11.3,1.7-12,5l7,14c7.3,3.3,13.3,2,18-4
	C359,157,354.7,152,354,150z M158,167c-5.3-4-10.7-2.5-16,4.5s-9,10.8-11,11.5c-2,4-3,7.3-3,10c0,5.3,5.3,11.3,16,18s17,11.7,19,15
	c2.7-10,5.2-17.8,7.5-23.5S176.7,192,182,188L158,167z M312,36l-15,7.5c0,0-4,3.2-12,9.5c-5.3,7.3-4.7,12.7,2,16
	c6-0.7,13.2-0.7,21.5,0s16.2,1.3,23.5,2c10,0,18.7-2.3,26-7c-3.3-6.7-9.7-12-19-16S320.7,40,312,36z M228,94c-0.7,5.3,0,10,2,14
	s5.7,9.3,11,16c11.3,10.7,25.3,27,42,49s29,37.7,37,47v-3c-2-4-3-7.3-3-10s0.8-5.3,2.5-8s4.8-6,9.5-10c5.3-1.3,9.8-1,13.5,1
	s7.5,4.3,11.5,7c-4-8.7-7.5-15.2-10.5-19.5S335.7,167,329,159l-14,13c-4.7,0.7-8.2,1.5-10.5,2.5S300,175,298,173
	c9.3-6.7,15-10,17-10c4-2,7.7-4.5,11-7.5s2.7-6.5-2-10.5c-15.3-2-28-4.7-38-8s-19.3-9.3-28-18c-2.7-4.7-4-10.3-4-17
	c0-4.7,0.8-9.8,2.5-15.5S259.3,77,260,75c-6,0-11.5,1.7-16.5,5S233.3,88,228,94z M329,204c-4.7,0-7,1.7-7,5c2,6,3.3,10.7,4,14
	c6-0.7,10.3-0.7,13,0c5.3-3.3,9.3-6.3,12-9s3-5.7,1-9c-2-5.3-4.7-8-8-8C337.3,200.3,332.3,202.7,329,204z M292,218l-4,3L292,218z
	 M302,217c-6.7,6-13.3,11.7-20,17c1.3,4,2.8,8.3,4.5,13s5.5,5.3,11.5,2l12-6c4-3.3,6-7.7,6-13c-2-3.3-4-6.2-6-8.5
	S305.3,217.7,302,217z M301,255l9-4C308,251,305,252.3,301,255z M452,323l-3,2c0,6.7,3.3,16.5,10,29.5s10,21.8,10,26.5l-26-49
	c-6.7,2-12.8,4.3-18.5,7s-9.8,6-12.5,10l25,44c4,6.7,8.3,13.3,13,20s9.3,11.3,14,14c6-4.7,10.5-11,13.5-19s6.2-16,9.5-24
	c-4.7-6-11-16.8-19-32.5S454.7,326.3,452,323z M472,337c0.7,10,4.3,18.7,11,26C480.3,351.7,476.7,343,472,337z M416,368
	c6,15.3,11.2,28.2,15.5,38.5S442,426,450,434c3.3-0.7,5.3-1.3,6-2c-4-8.7-9.5-18.2-16.5-28.5S424.7,381.3,416,368z M435,425
	c2,7.3,4.7,11.3,8,12C441.7,430.3,439,426.3,435,425z M246,197c2-3.3,6-7,12-11s9.7-6.7,11-8c-1.3,2.7-2.8,5.3-4.5,8s-4.3,5.3-8,8
	S249.3,197.7,246,197z M370,83l2,4l-4,21L370,83z"/>
</svg>
