<svg xmlns="http://www.w3.org/2000/svg" xmlns:xlink="http://www.w3.org/1999/xlink" version="1.1" viewBox="25 360 500 440">
   <path fill="currentColor" d="M336 360q23 9 35 15t20 18q24 11 47 35.5t45 47.5q6 11 6 29q0 9 -1 20t-1 13q0 10 3 19q3 17 3.5 25t0.5 21q0 15 -4 30q17 37 35 73q-7 24 -13 40.5t-25 25t-51.5 16.5t-48.5 12q-26 -39 -39.5 -55t-38.5 -22q-36 -34 -70.5 -80.5t-57.5 -78.5q-10 -9 -55 -45.5 t-67 -67.5q-3 -6 -3 -14q0 -7 3 -13q11 -10 22 -10q14 0 37.5 23.5t30.5 27.5q12 3 32.5 20.5t21.5 18.5q-3 -13 -5 -20t-2 -12q0 -11 10 -21q14 -11 19 -15.5t14 -1t9 -4.5q0 -9 8.5 -17.5t17.5 -13.5q3 -3 8 -3q13 2 17 2q6 0 6 -6l-2 -9q3 -2 13.5 -11.5t19.5 -11.5z M43 503q4 10 15 10q6 0 11 -3q-4 30 -8 63t-4 61q0 22 1 33q4 14 12.5 25.5t17.5 15.5t17 4q12 0 23 -9q-1 -3 -6 -6t-11 -7l68 -37q0 20 -4.5 40.5t-13.5 41.5q-2 -1 -6.5 -7.5t-7.5 -8.5q-12 6 -26 11.5t-25 5.5q-7 0 -22.5 -4.5t-27.5 -21.5t-18 -44q-3 -27 -3 -54 q0 -24 1 -37t4.5 -42t6.5 -31t6 1zM213 523q-9 7 -13.5 20t-4.5 26q15 19 52 69t70 77q14 6 25 6q18 0 33.5 -10t37.5 -30q6 2 10.5 11t6.5 19q-4 -5 -7 -10.5t-6 -11.5q-10 5 -22 15.5t-16 17.5q4 -1 14.5 -7.5t16.5 -8.5q-12 9 -26.5 19t-26.5 10q-2 0 -10 -2 q13 8 28.5 31t19.5 27q30 -10 60 -21l-25 -59l23 42l-1 -16q-10 -23 -16 -37t-16 -26q-1 -9 6 -9q7 1 11 1q5 0 8 -4q-6 1 -19 1q-17 0 -37 -14.5t-32.5 -27.5t-9.5 -36v21.5t2 16.5q0 4 4 11t2 10q-10 -9 -12 -24.5t-4 -30.5l-11 6q-2 9 -2 30t1 32q-8 -18 -8 -35 q0 -7 2 -19q0 -5 -3.5 -7.5t-7.5 0.5q-3 14 -6 14v-4q5 -11 -5 -20t-20 -17q-14 5 -24.5 9.5t-27.5 13.5q6 -10 22.5 -19.5t20.5 -13.5q-5 -14 -26 -18.5t-25 -9.5q5 0 13 2t13 2zM321 411l-16 -4q-5 0 -8 3q-3 7 -3.5 13t3.5 9q10 2 17 2t11 -5l-4 -4v-14zM345 407 q-12 -3 -12 10q0 11 -2 13q-3 8 -13 9t-15 1q-15 3 -15 -17q-3 8 0 15.5t8 12.5q21 8 32 11t27 3q21 0 35 -11q1 4 -3.5 11t-4.5 8q5 10 19 15.5t16 6.5q-1 3 -6 4.5t-7 2.5q0 6 4.5 8.5t13.5 3.5t12 4q-4 1 -12 1t-11 -1q-2 0 -6.5 -5t-8.5 -3q-5 8 -11.5 26t-11.5 29 l-9 -1q-6 4 -6 18v16q4 22 26.5 38t49.5 16q12 0 32.5 -9.5t20.5 -46.5q-8 -53 -8 -113l-68 -70q-4 -1 -7 -1.5t-1 -4.5h-4q-10 -2 -12 5t-2 20q-2 -3 -2 -10q0 -9 5 -16q-22 1 -33 1h-10zM77 419q-8 0 -14 7q-5 18 14 38q26 21 34 29q9 -16 19 -32q-16 -17 -27.5 -28 t-25.5 -14zM249 445q-5 -4 -12 -4q-6 0 -15.5 6.5t-14.5 9.5q-3 9 -3 18q0 13 9 24l92 80l-6 -20q3 -8 9 -13t15 -11q-11 -16 -18.5 -26.5t-16.5 -17.5t-21.5 -24.5t-17.5 -21.5zM135 465l-16 21q-4 11 5 19.5t15 13.5q7 0 14.5 -13.5t15.5 -15.5q-6 -8 -9.5 -11t-24.5 -14z M379 480q-11 0 -12 5l7 14q11 5 18 -4q-12 -12 -13 -15zM183 497q-8 -6 -16 4.5t-11 11.5q-3 6 -3 10q0 8 16 18t19 15q4 -15 7.5 -23.5t11.5 -14.5zM337 366l-15 7.5t-12 9.5q-8 11 2 16q9 -1 21.5 0t23.5 2q15 0 26 -7q-5 -10 -19 -16t-27 -12zM253 424q-1 8 2 14t11 16 q17 16 42 49t37 47v-3q-3 -6 -3 -10t2.5 -8t9.5 -10q8 -2 13.5 1t11.5 7q-6 -13 -10.5 -19.5t-14.5 -18.5l-14 13q-7 1 -10.5 2.5t-6.5 -1.5q14 -10 17 -10q6 -3 11 -7.5t-2 -10.5q-23 -3 -38 -8t-28 -18q-4 -7 -4 -17q0 -7 2.5 -15.5t3.5 -11.5q-9 0 -16.5 5t-15.5 14z M354 534q-7 0 -7 5q3 9 4 14q9 -1 13 0q8 -5 12 -9t1 -9q-3 -8 -8 -8q-10 5 -15 7zM317 548l-4 3zM327 547q-10 9 -20 17q2 6 4.5 13t11.5 2l12 -6q6 -5 6 -13q-3 -5 -6 -8.5t-8 -4.5zM326 585l9 -4q-3 0 -9 4zM477 653l-3 2q0 10 10 29.5t10 26.5l-26 -49q-10 3 -18.5 7 t-12.5 10l25 44q6 10 13 20t14 14q9 -7 13.5 -19t9.5 -24q-7 -9 -19 -32.5t-16 -28.5zM497 667q1 15 11 26q-4 -17 -11 -26zM441 698q9 23 15.5 38.5t18.5 27.5q5 -1 6 -2q-6 -13 -16.5 -28.5t-23.5 -35.5zM460 755q3 11 8 12q-2 -10 -8 -12zM271 527q3 -5 12 -11t11 -8 q-2 4 -4.5 8t-8 8t-10.5 3zM395 413l2 4l-4 21z"/>
</svg>