<?xml version="1.0" encoding="utf-8"?>
<!-- Generator: Adobe Illustrator 26.4.1, SVG Export Plug-In . SVG Version: 6.00 Build 0)  -->
<svg version="1.1" id="Layer_1" xmlns="http://www.w3.org/2000/svg" xmlns:xlink="http://www.w3.org/1999/xlink" x="0px" y="0px"
	 viewBox="0 0 643 643" style="enable-background:new 0 0 643 643;" xml:space="preserve">
<path d="M289.1,0c11.3,0,19.3,2,24,6c8.7,19.3,15.3,48.8,20,88.5c4.7,39.7,8,63.8,10,72.5c3.3-7.3,8.3-11.7,15-13
	c6.7-1.3,16.7-2,30-2c4.7-12,7.7-31.8,9-59.5c1.3-27.7,4-47.2,8-58.5c4-6,10-9,18-9l11,2c10.7,4.7,17.7,13.7,21,27
	c0.7,7.3,1.2,14.3,1.5,21s0.5,14.7,0.5,24c0,24.7-2.7,61-8,109s-8,84-8,108c0,7.3,0.3,15.2,1,23.5s1,14.8,1,19.5c-2.7,10-4,22-4,36
	c0,6,0.3,15.5,1,28.5s1,22.8,1,29.5c0,17.3-1.5,31.5-4.5,42.5s-10.2,21.8-21.5,32.5c2.7,7.3,4,15.3,4,24c0,6.7-0.3,13.7-1,21
	c-0.7,7.3-1.3,14.3-2,21c0,6,0.3,10.7,1,14c-15.3,10-31.8,18.3-49.5,25c-17.7,6.7-34.2,10-49.5,10c-16,0-29.8-2.7-41.5-8
	s-22.2-10-31.5-14l-6-68c-6-2.7-11-8-15-16s-8.3-17-13-27c-8-52-16-104.3-24-157c-2-6-1.3-12.3,2-19c3.3-6.7,6.7-13,10-19
	c3.3-3.3,8.7-7,16-11c7.3-4,12.3-7.3,15-10c2-17.3,4-35,6-53c4.7-20,15.3-32.7,32-38c9.3-2,13.7-4.3,13-7c-2-8-3.3-16.3-4-25
	s-1-18-1-28v-30.5c0,0,0.3-10.2,1-30.5c0-10.7-0.3-20.5-1-29.5s-2.3-18.2-5-27.5C267.7,9.7,273.7,1.3,289.1,0z M275.1,16
	c0,12,1.3,24.3,4,37s5.3,25,8,37c15.3,0,28-1.7,38-5c0-16.7-0.5-29.5-1.5-38.5s-3.8-18.8-8.5-29.5c-2-8-8.7-12-20-12
	C285.1,5,278.4,8.7,275.1,16z M410.1,40c-3.3,11.3-5.5,24.2-6.5,38.5s-1.5,25.8-1.5,34.5h17c13.3,0,22,3,26,9c-12.7-2-22-3-28-3
	c-6.7,0-12,1.7-16,5l-16,86l22,42c1.3,1.3,3.3,9,6,23c2.7,14,9.7,19.3,21,16l5-94c-16-7.3-31.7-14.7-47-22c5.3-2,9.7-3,13-3
	c4.7,0,11.5,1.5,20.5,4.5s14.8,4.8,17.5,5.5c3.3-32,5-61,5-87c0-15.3-0.8-29.3-2.5-42s-8.8-19-21.5-19C418.7,34,414.1,36,410.1,40z
	 M327.1,92c-3.3,1.3-10.3,2.3-21,3c-10.7,0.7-17.7,3-21,7c0,8-0.3,15.7-1,23s-1.3,14.3-2,21c0,6,0.3,10.7,1,14c4,0.7,10.7,0.7,20,0
	s16.3-1,21-1c5.3,0,9,0.3,11,1L327.1,92z M351.1,167c-4.7,10.7-8,23.2-10,37.5s-3.7,26.2-5,35.5c0,4.7,1.7,8.5,5,11.5
	c3.3,3,6.7,5.8,10,8.5l-8,2l10,57c4,5.3,10.3,11.5,19,18.5c8.7,7,14,12.5,16,16.5c-4.7-0.7-11-3.8-19-9.5s-13-8.8-15-9.5
	c-4,1.3-6,4.7-6,10c0,8,0.3,15.7,1,23c-4.7,10.7-12,16-22,16c-1.3,2.7-2.7,10-4,22c-1.3,12-5,20-11,24c0,25.3,9,46,27,62h-11
	c1.3,6,1.3,9.3,0,10c-6.7-10-12.2-21.2-16.5-33.5c-4.3-12.3-6.5-23.8-6.5-34.5v-9c-12.7-2-23-7.5-31-16.5s-17-21.8-27-38.5
	c-14.7,0-25.5,0.7-32.5,2s-13.5,5.3-19.5,12c4,19.3,7.8,38.2,11.5,56.5c3.7,18.3,7.2,38.8,10.5,61.5c8.7,18,15.3,30.2,20,36.5
	c4.7,6.3,12.3,9.5,23,9.5c10,2,21.2-1,33.5-9s21.5-12.3,27.5-13l4,34c1.3-4,2.3-11.5,3-22.5c0.7-11,3.3-18.5,8-22.5
	c4,6,8.7,9.8,14,11.5c5.3,1.7,12.3,2.5,21,2.5h18c16-4.7,27.3-14.3,34-29c4.7-7.3,7.8-14.5,9.5-21.5s2.5-15.5,2.5-25.5
	c0-6.7-0.7-16.7-2-30s-2-23.7-2-31c0-12,1.3-23,4-33h-9l8-16c-8.7-14.7-15.5-27.2-20.5-37.5s-7.5-21.2-7.5-32.5
	c-5.3,2-9.8,3.7-13.5,5c-3.7,1.3-6.8,0.7-9.5-2l17-10c-9.3,0-14.7-1.3-16-4l15-10c-1.3-3.3-6.2-13.5-14.5-30.5
	c-8.3-17-12.5-30.2-12.5-39.5c0-8.7,2.3-16.7,7-24C369.1,156,359.7,159,351.1,167z M289.1,174c-4,6-6,11.7-6,17
	c0,6.7,5.8,17.8,17.5,33.5c11.7,15.7,18.2,27.2,19.5,34.5c5.3,0,9-1.3,11-4c-2-6-3-12-3-18c0-8.7,1.3-18,4-28c2.7-10,4.7-17.7,6-23
	c0.7-12.7-4-19-14-19c-4,0-10.3,1.2-19,3.5C296.4,172.8,291.1,174,289.1,174z M379.1,170c-2,8-1.3,13.3,2,16c2.7-6,3.7-12.3,3-19
	C383.4,169,381.7,170,379.1,170z M413.1,180c4.7,2.7,9.2,5,13.5,7c4.3,2,8.5,3,12.5,3c-5.3-3.3-10-6.2-14-8.5S417.1,178.7,413.1,180
	z M283.1,210c-4.7-3.3-10.8-2.8-18.5,1.5s-12.7,8.2-15,11.5c-2.3,3.3-2.5,7.7-0.5,13c-4,4-6.7,9.3-8,16c-1.3,6.7-2,13.7-2,21v14
	c5.3,0.7,8-1,8-5v-14c26,26,47.7,58.7,65,98v-25c5.3-9.3,13.3-14,24-14l-19-53L283.1,210z M330.1,269c-2.7,3.3-2.5,8.5,0.5,15.5
	s4.8,12.2,5.5,15.5l3-2C340.4,283.3,337.4,273.7,330.1,269z M250.1,292c-9.3,4-17,8.7-23,14s-9,12.3-9,21c-4,0-5.3-1.8-4-5.5
	c1.3-3.7,1.3-6.2,0-7.5c-10,3.3-15.7,11.2-17,23.5c-1.3,12.3-2.7,24.2-4,35.5l48-12c0.7-2.7-0.8-4.3-4.5-5c-3.7-0.7-6-1.3-7-2
	s-5.7-1.7-14-3c-8.3-1.3-13.2-4-14.5-8c6.7,0.7,11.7,1,15,1l1-9c11.3,6.7,20.5,13.2,27.5,19.5c7,6.3,12.5,14.2,16.5,23.5
	c7.3,8.7,13.5,15.8,18.5,21.5s9.8,9.2,14.5,10.5c-2-3.3-3-7-3-11c0-12,5.3-19.7,16-23c-6-14.7-13-29.2-21-43.5s-16.3-27.2-25-38.5
	L250.1,292z M426.1,301c-2,1.3-1.8,3.8,0.5,7.5c2.3,3.7,3.8,5.8,4.5,6.5l2-9C429.7,302.7,427.4,301,426.1,301z M333.1,343
	c-1.3,0.7-4,1-8,1s-6.7,0.7-8,2c-0.7,4-0.3,8.5,1,13.5c1.3,5,2,7.8,2,8.5h10l7-3.5c0,0,0.7-1.8,2-5.5
	C339.1,350.3,337.1,345,333.1,343z M303.1,387h4H303.1z M297.1,396c0.7,4,1.2,7.5,1.5,10.5s2.5,4.8,6.5,5.5c7.3-4,11-7.3,11-10
	c0-5.3-3.7-8-11-8C302.4,394,299.7,394.7,297.1,396z M333.1,530c-2,10-3,19.7-3,29c0,10,1,21.7,3,35c-1.3,11.3-2,20-2,26
	c0,5.3,0.7,9,2,11l6-3c-1.3-6-2.2-14.5-2.5-25.5c-0.3-11-0.5-19.8-0.5-26.5v-12C336.1,552.7,335.1,541.3,333.1,530z M316.1,531
	l-13,15l12-6C315.1,537.3,315.4,534.3,316.1,531z M343.1,533c0,8.7-0.2,17.2-0.5,25.5c-0.3,8.3-0.5,16.5-0.5,24.5
	c0,18,1.7,32.3,5,43c12.7,0,24.7-4,36-12v-61c-0.7-4.7-3.3-7-8-7c-8,2-14,3-18,3c-5.3,0-9.3-2.3-12-7c0-2.7,1.3-3.8,4-3.5
	c2.7,0.3,6,0.8,10,1.5L343.1,533z M403.1,541c-1.3,5.3-2,14-2,26v18c0,0,0.3,5.7,1,17l4-44C406.1,552,405.1,546.3,403.1,541z
	 M268.1,569c-9.3-1.3-13.7-4.3-13-9h-7l7,54c0.7,0,9.7,2.8,27,8.5s30,8.5,38,8.5c-0.7-4.7-1-9.2-1-13.5V608v-33v-11c0-4-0.7-10-2-18
	c-10.7,6.7-19.7,12.2-27,16.5S275.4,569,268.1,569z M391.1,569v41c0-2.7,0.5-7,1.5-13s1.5-10.3,1.5-13
	C394.1,579.3,393.1,574.3,391.1,569z M327.1,612l1-25L327.1,612z M283.1,352l4,5c-12,5.3-19,7.7-21,7c0.7-2.7,3.5-5.2,8.5-7.5
	C279.6,354.2,282.4,352.7,283.1,352z M291.1,304c3.3-0.7,7.7-1.7,13-3s10.3-4.3,15-9c0,1.3-2,4-6,8l2,4c-2,2.7-4.7,4-8,4L291.1,304z
	"/>
</svg>
