<svg xmlns="http://www.w3.org/2000/svg" xmlns:xlink="http://www.w3.org/1999/xlink" version="1.1" viewBox="13.88 157 271.13 643">
   <path  d="M117 157q17 0 24 6q13 29 20 88.5t10 72.5q5 -11 15 -13t30 -2q7 -18 9 -59.5t8 -58.5q6 -9 18 -9l11 2q16 7 21 27q1 11 1.5 21t0.5 24q0 37 -8 109t-8 108q0 11 1 23.5t1 19.5q-4 15 -4 36q0 9 1 28.5t1 29.5q0 26 -4.5 42.5t-21.5 32.5q4 11 4 24q0 10 -1 21t-2 21 q0 9 1 14q-23 15 -49.5 25t-49.5 10q-24 0 -41.5 -8t-31.5 -14l-6 -68q-9 -4 -15 -16t-13 -27q-12 -78 -24 -157q-3 -9 2 -19t10 -19q5 -5 16 -11t15 -10q3 -26 6 -53q7 -30 32 -38q14 -3 13 -7q-3 -12 -4 -25t-1 -28v-30.5t1 -30.5q0 -16 -1 -29.5t-5 -27.5q-5 -23 18 -25z M103 173q0 18 4 37t8 37q23 0 38 -5q0 -25 -1.5 -38.5t-8.5 -29.5q-3 -12 -20 -12q-15 0 -20 11zM238 197q-5 17 -6.5 38.5t-1.5 34.5h17q20 0 26 9q-19 -3 -28 -3q-10 0 -16 5l-16 86l22 42q2 2 6 23t21 16l5 -94q-24 -11 -47 -22q8 -3 13 -3q7 0 20.5 4.5t17.5 5.5 q5 -48 5 -87q0 -23 -2.5 -42t-21.5 -19q-8 0 -14 6zM155 249q-5 2 -21 3t-21 7q0 12 -1 23t-2 21q0 9 1 14q6 1 20 0t21 -1q8 0 11 1zM179 324q-7 16 -10 37.5t-5 35.5q0 7 5 11.5t10 8.5l-8 2l10 57q6 8 19 18.5t16 16.5q-7 -1 -19 -9.5t-15 -9.5q-6 2 -6 10q0 12 1 23 q-7 16 -22 16q-2 4 -4 22t-11 24q0 38 27 62h-11q2 9 0 10q-10 -15 -16.5 -33.5t-6.5 -34.5v-9q-19 -3 -31 -16.5t-27 -38.5q-22 0 -32.5 2t-19.5 12q6 29 11.5 56.5t10.5 61.5q13 27 20 36.5t23 9.5q15 3 33.5 -9t27.5 -13l4 34q2 -6 3 -22.5t8 -22.5q6 9 14 11.5t21 2.5 h18q24 -7 34 -29q7 -11 9.5 -21.5t2.5 -25.5q0 -10 -2 -30t-2 -31q0 -18 4 -33h-9l8 -16q-13 -22 -20.5 -37.5t-7.5 -32.5q-8 3 -13.5 5t-9.5 -2l17 -10q-14 0 -16 -4l15 -10q-2 -5 -14.5 -30.5t-12.5 -39.5q0 -13 7 -24q-15 -3 -28 9zM117 331q-6 9 -6 17q0 10 17.5 33.5 t19.5 34.5q8 0 11 -4q-3 -9 -3 -18q0 -13 4 -28t6 -23q1 -19 -14 -19q-6 0 -19 3.5t-16 3.5zM207 327q-3 12 2 16q4 -9 3 -19q-1 3 -5 3zM241 337q7 4 13.5 7t12.5 3q-8 -5 -14 -8.5t-12 -1.5zM111 367q-7 -5 -18.5 1.5t-15 11.5t-0.5 13q-6 6 -8 16t-2 21v14q8 1 8 -5v-14 q39 39 65 98v-25q8 -14 24 -14l-19 -53zM158 426q-4 5 0.5 15.5t5.5 15.5l3 -2q2 -22 -9 -29zM78 449q-14 6 -23 14t-9 21q-6 0 -4 -5.5t0 -7.5q-15 5 -17 23.5t-4 35.5l48 -12q1 -4 -4.5 -5t-7 -2t-14 -3t-14.5 -8q10 1 15 1l1 -9q17 10 27.5 19.5t16.5 23.5 q11 13 18.5 21.5t14.5 10.5q-3 -5 -3 -11q0 -18 16 -23q-9 -22 -21 -43.5t-25 -38.5zM254 458q-3 2 0.5 7.5t4.5 6.5l2 -9q-5 -5 -7 -5zM161 500q-2 1 -8 1t-8 2q-1 6 1 13.5t2 8.5h10l7 -3.5t2 -5.5q0 -13 -6 -16zM131 544h4h-4zM125 553q1 6 1.5 10.5t6.5 5.5 q11 -6 11 -10q0 -8 -11 -8q-4 0 -8 2zM161 687q-3 15 -3 29q0 15 3 35q-2 17 -2 26q0 8 2 11l6 -3q-2 -9 -2.5 -25.5t-0.5 -26.5v-12q0 -17 -3 -34zM144 688l-13 15l12 -6q0 -4 1 -9zM171 690q0 13 -0.5 25.5t-0.5 24.5q0 27 5 43q19 0 36 -12v-61q-1 -7 -8 -7q-12 3 -18 3 q-8 0 -12 -7q0 -4 4 -3.5t10 1.5zM231 698q-2 8 -2 26v18t1 17l4 -44q0 -9 -3 -17zM96 726q-14 -2 -13 -9h-7l7 54q1 0 27 8.5t38 8.5q-1 -7 -1 -13.5v-9.5v-33v-11q0 -6 -2 -18q-16 10 -27 16.5t-22 6.5zM219 726v41q0 -4 1.5 -13t1.5 -13q0 -7 -3 -15zM155 769l1 -25z M111 509l4 5q-18 8 -21 7q1 -4 8.5 -7.5t8.5 -4.5zM119 461q5 -1 13 -3t15 -9q0 2 -6 8l2 4q-3 4 -8 4z"/>
</svg>