<svg xmlns="http://www.w3.org/2000/svg" xmlns:xlink="http://www.w3.org/1999/xlink" version="1.1" viewBox="25 157 489.13 642">
   <path fill="currentColor" d="M229 158q4 -1 14 -1q8 0 17 3t16.5 18.5t12.5 58.5t7 54q0 35 8.5 106.5t8.5 101.5l6 16q7 -4 41.5 -18.5t50.5 -29.5q11 -5 28.5 -10t30.5 -5q12 0 27 5q9 7 14 14t2 17q-5 6 -23 14t-20 9q-16 26 -67 55.5t-66 56.5q-18 19 -44 35t-55 27q-11 16 -17.5 34.5t-10.5 41.5 q-22 12 -47 25t-49 13h-9q-20 -6 -38.5 -16.5t-39.5 -26.5q0 -17 6.5 -35.5t12.5 -36.5q0 -28 -10.5 -90t-10.5 -88q0 -21 1 -30.5t7 -29.5t29.5 -25t39.5 -9q2 -14 10.5 -21t44.5 -23l19 6q19 -21 49 -21v-45t1 -47v-12q0 -43 -7 -78q4 -10 10 -13zM231 166q-5 8 -5 20 q0 8 4 26t4 26l27 -3q12 0 12 5h8q-2 -15 -3.5 -31.5t-7.5 -27.5q-6 -7 -13 -13t-14 -6t-12 4zM281 247q-12 -3 -24 -3t-24 3q-2 12 -2 18q0 10 1 20l2 20h44q1 2 3.5 5t5.5 0q1 -5 1 -17q0 -9 -1 -19l-2 -20zM234 316q-1 13 -1 20q0 18 12 22q1 7 8 12t22 5q12 -1 17 -1 q0 -17 -2.5 -30t-4.5 -27q-11 -4 -27 -4q-12 0 -24 3zM234 359q-18 0 -31.5 5t-21.5 19q3 21 4.5 48.5t1.5 59.5v36l4 6l2 -10q5 -10 11 -12.5t13 0.5q10 2 12 17t5 17q7 -13 7 -34q0 -6 -1 -19.5t-1 -20.5q0 -22 5 -40t9 -32q-3 -14 -6.5 -22t-12.5 -18zM174 379 q-6 -3 -14 -3q-6 0 -12 2.5l-12 5t-11.5 13.5t-7.5 24q15 65 30 129q4 -12 9 -25l9 -4.5t10 0.5q4 -3 4 -10q-1 -10 -1 -20l-26 8q-3 -4 -5 -8q8 0 17.5 -3t13.5 -4zM259 381q-2 3 1.5 5t3.5 3q1 11 -5 25.5t-7 19.5q7 -4 14.5 -13.5t16.5 -22.5q-1 8 -8.5 23t-7.5 17 q8 -2 13.5 -3.5t8.5 -7.5q-2 10 -14.5 16.5t-23.5 12.5l-2 71l32 -6q-7 -3 -12 -5.5t-9 -8.5q21 5 43 10q-16 -14 -22 -30q11 8 22 15q-5 -56 -10 -113zM112 412l4 -11zM109 419q-4 -1 -10 -1q-10 0 -19.5 5.5t-16.5 15.5l-3 -9q-15 1 -20 15q-4 18 -6 25q17 13 35 10 l-17 -17q3 2 7 4t8 3q-5 -14 -1 -18q11 15 17 29.5t16 46.5q12 15 16 15l2 -5q-3 -8 1.5 -13.5t12.5 -9.5l-10 -55zM496 465q-12 -4 -29 -4q-41 0 -71 24q2 4 9 10.5t8 13.5q-2 0 -17 -15q-14 2 -29.5 8t-27.5 13l-2 8q-1 -6 -5 -4.5t-11 6.5q5 27 9 41.5t12 30.5 q39 -28 79 -56q-1 -6 -1 -12l5 1l3 -5l8 8q5 -4 24 -23.5t35 -25.5q1 -2 6 -3t4 -4zM34 481q0 41 5.5 88t15.5 96q12 8 32 8q15 0 31 -6.5t31 -13.5l-9 21q8 2 12.5 -6.5t9.5 -8.5q17 25 41 25q-29 -11 -45 -37q0 -28 1.5 -45.5t8.5 -34.5q-8 3 -21.5 -6.5t-14.5 -9.5 q-5 0 -10 4q-18 0 -27 -18q-8 -23 -12 -32q0 -15 -15 -15q-11 1 -16 1q-4 0 -7 -2t-5.5 -5.5t-5.5 -2.5zM206 517l11 1q-1 -1 -5 -1h-6zM201 523q-8 11 -4 25q9 3 26 -3q7 -13 -5.5 -17t-16.5 -5zM172 528l-3 -1zM249 530q0 16 -11.5 24t-26.5 8q-14 0 -23 -4 q-10 16 -14.5 33t-4.5 40q-9 6 -2 11q12 14 24.5 23t28.5 9q43 -11 73 -26.5t44 -46.5q-6 -11 -8.5 -19.5t-4.5 -24.5l-3 -4q2 14 2 21q0 6 -2 9q-9 -2 -12 -10q-2 -20 -4 -26q3 -20 -19 -20q-19 2 -37 3zM128 532q-4 -1 -6 2t0 6q11 2 12 -5q-4 -3 -6 -3zM310 532 q-1 13 0 20.5t5 10.5zM160 533q-6 10 -3 17l13 1q11 -5 10 -8q3 -9 -4 -9q-15 0 -16 -1zM97 685l37 -15q0 8 -11.5 10.5t-25.5 4.5zM143 688l-3 -7l-3 1q-7 18 -17.5 44t-10.5 43q3 -4 10 -21.5t10 -22.5q-1 12 -6.5 26.5t-12.5 28.5q-5 0 -9 -1q0 -18 12.5 -51.5 t14.5 -40.5l-47 10l-26 -4q-7 20 -11.5 34t-4.5 26q22 15 41 24t40 9q8 0 12 -1q-1 -4 -1 -8v-6q0 -16 12.5 -54.5t13.5 -45.5q-5 1 -9 8.5t-5 8.5zM165 679q-17 41 -22.5 58t-5.5 43q5 3 9 3q7 0 15 -5.5t15 -10.5q0 -15 8 -40t9 -33zM181 763h4q2 -15 12.5 -40t11.5 -30 q-18 31 -28 70zM220 694q-2 6 -4 11zM208 722q-6 10 -8.5 18t-2.5 16q4 -6 6.5 -18t4.5 -16zM198 489q2 -7 13 -7q18 0 20 -1q-9 10 -23 10q-4 0 -10 -2zM345 543l-5 -10zM115 498l7 -2zM101 498l4 -1z"/>
</svg>