<?xml version="1.0" encoding="utf-8"?>
<!-- Generator: Adobe Illustrator 26.4.1, SVG Export Plug-In . SVG Version: 6.00 Build 0)  -->
<svg version="1.1" id="Layer_1" xmlns="http://www.w3.org/2000/svg" xmlns:xlink="http://www.w3.org/1999/xlink" x="0px" y="0px"
	 viewBox="0 0 642 642" style="enable-background:new 0 0 642 642;" xml:space="preserve">
<path d="M280.4,1c2.7-0.7,7.3-1,14-1c5.3,0,11,1,17,3s11.5,8.2,16.5,18.5s9.2,29.8,12.5,58.5s5.7,46.7,7,54
	c0,23.3,2.8,58.8,8.5,106.5s8.5,81.5,8.5,101.5l6,16c4.7-2.7,18.5-8.8,41.5-18.5s39.8-19.5,50.5-29.5c7.3-3.3,16.8-6.7,28.5-10
	s21.8-5,30.5-5c8,0,17,1.7,27,5c6,4.7,10.7,9.3,14,14s4,10.3,2,17c-3.3,4-11,8.7-23,14s-18.7,8.3-20,9c-10.7,17.3-33,35.8-67,55.5
	s-56,38.5-66,56.5c-12,12.7-26.7,24.3-44,35s-35.7,19.7-55,27c-7.3,10.7-13.2,22.2-17.5,34.5s-7.8,26.2-10.5,41.5
	c-14.7,8-30.3,16.3-47,25s-33,13-49,13h-9c-13.3-4-26.2-9.5-38.5-16.5c-12.3-7-25.5-15.8-39.5-26.5c0-11.3,2.2-23.2,6.5-35.5
	c4.3-12.3,8.5-24.5,12.5-36.5c0-18.7-3.5-48.7-10.5-90s-10.5-70.7-10.5-88c0-14,0.3-24.2,1-30.5s3-16.2,7-29.5s13.8-21.7,29.5-25
	s28.8-6.3,39.5-9c1.3-9.3,4.8-16.3,10.5-21s20.5-12.3,44.5-23l19,6c12.7-14,29-21,49-21v-45c0,0,0.3-15.7,1-47V92
	c0-28.7-2.3-54.7-7-78C273.1,7.3,276.4,3,280.4,1z M282.4,9c-3.3,5.3-5,12-5,20c0,5.3,1.3,14,4,26s4,20.7,4,26l27-3c8,0,12,1.7,12,5
	h8c-1.3-10-2.5-20.5-3.5-31.5s-3.5-20.2-7.5-27.5c-4-4.7-8.3-9-13-13c-4.7-4-9.3-6-14-6S285.8,6.3,282.4,9z M332.4,90
	c-8-2-16-3-24-3s-16,1-24,3c-1.3,8-2,14-2,18c0,6.7,0.3,13.3,1,20l2,20h44c0.7,1.3,1.8,3,3.5,5s3.5,2,5.5,0c0.7-3.3,1-9,1-17
	c0-6-0.3-12.3-1-19l-2-20L332.4,90z M285.4,159c-0.7,8.7-1,15.3-1,20c0,12,4,19.3,12,22c0.7,4.7,3.3,8.7,8,12c4.7,3.3,12,5,22,5
	c8-0.7,13.7-1,17-1c0-11.3-0.8-21.3-2.5-30s-3.2-17.7-4.5-27c-7.3-2.7-16.3-4-27-4C301.4,156,293.4,157,285.4,159z M285.4,202
	c-12,0-22.5,1.7-31.5,5s-16.2,9.7-21.5,19c2,14,3.5,30.2,4.5,48.5s1.5,38.2,1.5,59.5v36l4,6l2-10c3.3-6.7,7-10.8,11-12.5
	c4-1.7,8.3-1.5,13,0.5c6.7,1.3,10.7,7,12,17s3,15.7,5,17c4.7-8.7,7-20,7-34c0-4-0.3-10.5-1-19.5s-1-15.8-1-20.5c0-14.7,1.7-28,5-40
	s6.3-22.7,9-32c-2-9.3-4.2-16.7-6.5-22S291.4,208.7,285.4,202z M225.4,222c-4-2-8.7-3-14-3c-4,0-8,0.8-12,2.5l-12,5
	c0,0-3.8,4.5-11.5,13.5c-7.7,9-10.2,17-7.5,24c10,43.3,20,86.3,30,129c2.7-8,5.7-16.3,9-25l9-4.5c0,0,3.3,0.2,10,0.5
	c2.7-2,4-5.3,4-10c-0.7-6.7-1-13.3-1-20l-26,8c-2-2.7-3.7-5.3-5-8c5.3,0,11.2-1,17.5-3s10.8-3.3,13.5-4L225.4,222z M310.4,224
	c-1.3,2-0.8,3.7,1.5,5s3.5,2.3,3.5,3c0.7,7.3-1,15.8-5,25.5s-6.3,16.2-7,19.5c4.7-2.7,9.5-7.2,14.5-13.5s10.5-13.8,16.5-22.5
	c-0.7,5.3-3.5,13-8.5,23s-7.5,15.7-7.5,17c5.3-1.3,9.8-2.5,13.5-3.5s6.5-3.5,8.5-7.5c-1.3,6.7-6.2,12.2-14.5,16.5
	s-16.2,8.5-23.5,12.5l-2,71l32-6c-4.7-2-8.7-3.8-12-5.5s-6.3-4.5-9-8.5c14,3.3,28.3,6.7,43,10c-10.7-9.3-18-19.3-22-30
	c7.3,5.3,14.7,10.3,22,15c-3.3-37.3-6.7-75-10-113L310.4,224z M163.4,255l4-11L163.4,255z M160.4,262c-2.7-0.7-6-1-10-1
	c-6.7,0-13.2,1.8-19.5,5.5c-6.3,3.7-11.8,8.8-16.5,15.5l-3-9c-10,0.7-16.7,5.7-20,15c-2.7,12-4.7,20.3-6,25c11.3,8.7,23,12,35,10
	l-17-17c2,1.3,4.3,2.7,7,4s5.3,2.3,8,3c-3.3-9.3-3.7-15.3-1-18c7.3,10,13,19.8,17,29.5s9.3,25.2,16,46.5c8,10,13.3,15,16,15l2-5
	c-2-5.3-1.5-9.8,1.5-13.5s7.2-6.8,12.5-9.5l-10-55L160.4,262z M547.4,308c-8-2.7-17.7-4-29-4c-27.3,0-51,8-71,24
	c1.3,2.7,4.3,6.2,9,10.5s7.3,8.8,8,13.5c-1.3,0-7-5-17-15c-9.3,1.3-19.2,4-29.5,8s-19.5,8.3-27.5,13l-2,8c-0.7-4-2.3-5.5-5-4.5
	s-6.3,3.2-11,6.5c3.3,18,6.3,31.8,9,41.5s6.7,19.8,12,30.5c26-18.7,52.3-37.3,79-56c-0.7-4-1-8-1-12l5,1l3-5l8,8
	c3.3-2.7,11.3-10.5,24-23.5c12.7-13,24.3-21.5,35-25.5c0.7-1.3,2.7-2.3,6-3s4.7-2,4-4L547.4,308z M85.4,324c0,27.3,1.8,56.7,5.5,88
	s8.8,63.3,15.5,96c8,5.3,18.7,8,32,8c10,0,20.3-2.2,31-6.5c10.7-4.3,21-8.8,31-13.5l-9,21c5.3,1.3,9.5-0.8,12.5-6.5s6.2-8.5,9.5-8.5
	c11.3,16.7,25,25,41,25c-19.3-7.3-34.3-19.7-45-37c0-18.7,0.5-33.8,1.5-45.5s3.8-23.2,8.5-34.5c-5.3,2-12.5-0.2-21.5-6.5
	s-13.8-9.5-14.5-9.5c-3.3,0-6.7,1.3-10,4c-12,0-21-6-27-18c-5.3-15.3-9.3-26-12-32c0-10-5-15-15-15c-7.3,0.7-12.7,1-16,1
	c-2.7,0-5-0.7-7-2s-3.8-3.2-5.5-5.5S87.4,323.3,85.4,324z M257.4,360l11,1c-0.7-0.7-2.3-1-5-1H257.4z M252.4,366
	c-5.3,7.3-6.7,15.7-4,25c6,2,14.7,1,26-3c4.7-8.7,2.8-14.3-5.5-17S255.1,366.7,252.4,366z M223.4,371l-3-1L223.4,371z M300.4,373
	c0,10.7-3.8,18.7-11.5,24s-16.5,8-26.5,8c-9.3,0-17-1.3-23-4c-6.7,10.7-11.5,21.7-14.5,33s-4.5,24.7-4.5,40c-6,4-6.7,7.7-2,11
	c8,9.3,16.2,17,24.5,23s17.8,9,28.5,9c28.7-7.3,53-16.2,73-26.5s34.7-25.8,44-46.5c-4-7.3-6.8-13.8-8.5-19.5s-3.2-13.8-4.5-24.5
	l-3-4c1.3,9.3,2,16.3,2,21c0,4-0.7,7-2,9c-6-1.3-10-4.7-12-10c-1.3-13.3-2.7-22-4-26c2-13.3-4.3-20-19-20
	C324.8,371.3,312.4,372.3,300.4,373z M179.4,375c-2.7-0.7-4.7,0-6,2s-1.3,4,0,6c7.3,1.3,11.3-0.3,12-5
	C182.8,376,180.8,375,179.4,375z M361.4,375c-0.7,8.7-0.7,15.5,0,20.5s2.3,8.5,5,10.5L361.4,375z M211.4,376c-4,6.7-5,12.3-3,17
	l13,1c7.3-3.3,10.7-6,10-8c2-6,0.7-9-4-9C217.4,377,212.1,376.7,211.4,376z M148.4,528l37-15c0,5.3-3.8,8.8-11.5,10.5
	C166.3,525.2,157.8,526.7,148.4,528z M194.4,531l-3-7l-3,1c-4.7,12-10.5,26.7-17.5,44s-10.5,31.7-10.5,43c2-2.7,5.3-9.8,10-21.5
	s8-19.2,10-22.5c-0.7,8-2.8,16.8-6.5,26.5s-7.8,19.2-12.5,28.5c-3.3,0-6.3-0.3-9-1c0-12,4.2-29.2,12.5-51.5s13.2-35.8,14.5-40.5
	l-47,10l-26-4c-4.7,13.3-8.5,24.7-11.5,34s-4.5,18-4.5,26c14.7,10,28.3,18,41,24s26,9,40,9c5.3,0,9.3-0.3,12-1c-0.7-2.7-1-5.3-1-8
	v-6c0-10.7,4.2-28.8,12.5-54.5s12.8-40.8,13.5-45.5c-3.3,0.7-6.3,3.5-9,8.5S195.1,530.3,194.4,531z M216.4,522
	c-11.3,27.3-18.8,46.7-22.5,58s-5.5,25.7-5.5,43c3.3,2,6.3,3,9,3c4.7,0,9.7-1.8,15-5.5s10.3-7.2,15-10.5c0-10,2.7-23.3,8-40
	s8.3-27.7,9-33L216.4,522z M232.4,606h4c1.3-10,5.5-23.3,12.5-40s10.8-26.7,11.5-30C248.4,556.7,239.1,580,232.4,606z M271.4,537
	c-1.3,4-2.7,7.7-4,11L271.4,537z M259.4,565c-4,6.7-6.8,12.7-8.5,18s-2.5,10.7-2.5,16c2.7-4,4.8-10,6.5-18
	C256.6,573,258.1,567.7,259.4,565z M249.4,332c1.3-4.7,5.7-7,13-7c12,0,18.7-0.3,20-1c-6,6.7-13.7,10-23,10
	C256.8,334,253.4,333.3,249.4,332z M396.4,386l-5-10L396.4,386z M166.4,341l7-2L166.4,341z M152.4,341l4-1L152.4,341z"/>
</svg>
