<?xml version="1.0" encoding="utf-8"?>
<!-- Generator: Adobe Illustrator 26.4.1, SVG Export Plug-In . SVG Version: 6.00 Build 0)  -->
<svg version="1.1" id="Layer_1" xmlns="http://www.w3.org/2000/svg" xmlns:xlink="http://www.w3.org/1999/xlink" x="0px" y="0px"
	 viewBox="0 0 363 363" style="enable-background:new 0 0 363 363;" xml:space="preserve">
<path d="M165,25.5c9.3-16,23.3-24,42-24c14.7,0,25.3,6.7,32,20c5.3,1.3,12.2,0.3,20.5-3s14.8-4,19.5-2c14.7,14,29.7,28,45,42
	c15.3,15.3,28.3,31.3,39,48c0,30-5.3,57.3-16,82s-27.3,45.3-50,62c-5.3,0.7-11.8,5.3-19.5,14s-14.5,13-20.5,13c-3.3,0-7-1-11-3
	c-4-4-8-6-12-6s-8.2,2-12.5,6s-9.7,11-16,21s-13.2,27.3-20.5,52c-8,5.3-17,9-27,11s-21,3-33,3c-14,0-27-1-39-3s-27-5.3-45-10
	c-7.3-8-15-17.2-23-27.5S4,301.2,0,292.5C4.7,279.8,8,271,10,266s5.3-10.5,10-16.5c-1.3-9.3-2-16.3-2-21c0-18.7,4.3-39,13-61
	c12-26,21-46,27-60S69.2,83,73.5,76S83,64.2,89,61.5c11.3,2,24-4,38-18S153.7,23.5,165,25.5z M155,32.5c-6.7,1.3-14.2,6.2-22.5,14.5
	S118.3,60.5,115,62.5c-8.7,2-15.8,3.7-21.5,5s-10.5,5-14.5,11c-9.3,21.3-18.8,43.7-28.5,67s-16.8,44.3-21.5,63c-2.7,5.3-4,11.7-4,19
	c0,4.7,1,12,3,22s3,17.7,3,23c0,6-1,11.5-3,16.5s-6,9.8-12,14.5c8.7,14.7,20.3,26,35,34s30.7,11,48,9l17-44l-41,4
	c-6.7,0.7-11.8-2.8-15.5-10.5s-7.2-12.2-10.5-13.5c6,2,12.5,4,19.5,6s14.5,3,22.5,3c17.3-3.3,30.8-7.3,40.5-12s16.5-12.7,20.5-24
	c-1.3-2-5.7-9.8-13-23.5s-13.3-23.5-18-29.5l-19,17c-0.7-2.7,0.5-6,3.5-10s4.5-7,4.5-9c-4,4-8.2,8-12.5,12s-8.5,6.3-12.5,7
	c7.3-8,13.7-15,19-21s7.3-12.7,6-20c0-6.7-5.2-11.5-15.5-14.5s-17-7.5-20-13.5s-4.2-9.3-3.5-10c3.3,3.3,7.2,6.5,11.5,9.5
	s8.5,4.2,12.5,3.5c-2.7-3.3-5.3-6.5-8-9.5s-4.3-7.2-5-12.5l7-3l76,124v-11c4-6.7,10-10,18-10l8,2c-2-5.3-4.2-14-6.5-26
	s-5.2-21.7-8.5-29l-24,10c-1.3-3.3-4.2-4.2-8.5-2.5s-7.5,1.2-9.5-1.5c2-6,6.7-10.2,14-12.5s13-4.2,17-5.5c-4.7-4.7-7-12.3-7-23
	c0-4-0.3-8.7-1-14s-4.7-9.7-12-13c0-1.3-1.3-4.2-4-8.5s-2.7-8.2,0-11.5c2,3.3,5.3,8,10,14s7.7,10,9,12c3.3-2.7,5-5,5-7
	c-4.7-6-9-12-13-18c3.3-1.3,7.3,0.5,12,5.5s9,7.2,13,6.5c10.7,3.3,17.5,8.8,20.5,16.5s4.5,17.5,4.5,29.5v22c0,9.3,0.7,16,2,20
	c-2,2.7-3.7,3.7-5,3c-1.3,8.7-2,15.3-2,20s1.7,8,5,10l8-8c4-2,7.7-3,11-3c2,0,4.2,0.3,6.5,1s4.8,1.3,7.5,2c6-8,10.2-16.8,12.5-26.5
	s3.5-20.5,3.5-32.5c0-6-0.3-15.5-1-28.5s-1-22.5-1-28.5l-26,5v-6h-19c-2-7.3,2.2-13.3,12.5-18s15.8-7.7,16.5-9
	c-20-14-35.5-24.5-46.5-31.5S165,35.2,155,32.5z M283,28.5c-3.3-3.3-8-5-14-5c-2,0-5.3,0.7-10,2s-8.3,2.3-11,3l57,66
	c2,8.7,5.7,13,11,13c3.3,0,9.2-1.7,17.5-5s14.2-4.7,17.5-4L283,28.5z M199,8.5c-8.7,3.3-14.8,6.7-18.5,10s-5.8,7.3-6.5,12
	c13.3,8.7,27.3,17.5,42,26.5s26.7,18.8,36,29.5c2.7,7.3,4.7,16,6,26s2,19,2,27c0,10.7-1,22.5-3,35.5s-3.3,22.7-4,29
	s-4.3,14.2-11,23.5c-6.7,9.3-10,16-10,20c0,2.7,1,5.7,3,9l2-3c4.7-6,8.5-10.8,11.5-14.5s7.5-4.8,13.5-3.5c6,2.7,10.5,5.2,13.5,7.5
	s4.2,4.8,3.5,7.5c8.7-12,14.5-24.2,17.5-36.5s7.2-42.8,12.5-91.5c-2-3.3-5-5-9-5c-7.3,0.7-12.5,1-15.5,1s-4.8-0.3-5.5-1l16-5
	c-9.3,1.3-16,2-20,2c-3.3,0-6-1.3-8-4l31-10l-15-17c-1.3-2-11.2-14.3-29.5-37S217,11.2,199,8.5z M241,84.5c-10.7,4-21.3,7.7-32,11
	l36-6L241,84.5z M226,97.5c4,0.7,8.3,0,13-2C233.7,96.2,229.3,96.8,226,97.5z M354,106.5l-6-2l-8,2H354z M317,111.5l-8,83
	c2.7,2.7,5.7,4,9,4c5.3,0,11-0.3,17-1c4.7-13.3,9.7-26.7,15-40c4.7-14.7,7-28.7,7-42c-8.7,2-15.3,3-20,3c-3.3,0-6.7-1-10-3
	c0.7-2,2.2-3,4.5-3h7.5L317,111.5z M165,138.5c0,9.3,2.7,17.7,8,25s12.7,13,22,17l2-6c1.3-5.3-1.2-9.3-7.5-12s-10.2-5.3-11.5-8
	c-0.7-4-1-10-1-18s0.3-13.7,1-17c-5.3-2-8.8-1-10.5,3S165,131.8,165,138.5z M183,135.5c0.7,5.3,1.2,10.2,1.5,14.5s3.2,5.5,8.5,3.5
	v-7c0.7-2.7,0.3-6.5-1-11.5s-3-7.5-5-7.5C184.3,130.2,183,132.8,183,135.5z M191,198.5v-8V198.5z M309,203.5l-8,24l10,1
	c5.3-4.7,9.5-8.5,12.5-11.5s4.8-6.5,5.5-10.5L309,203.5z M218,225.5c-7.3,4-10.7,7.7-10,11c8.7,4,15,4.7,19,2
	c2.7-3.3,2.2-6.2-1.5-8.5S219.3,226.2,218,225.5z M182,236.5c-4,2.7-6,4.3-6,5c1.3,0,4.3-0.7,9-2L182,236.5z M259,242.5
	c1.3,6,4.3,7.3,9,4C264.7,244.5,261.7,243.2,259,242.5z M172,255.5h5c8.7-2.7,13.3-5.7,14-9h-14C171.7,246.5,170,249.5,172,255.5z
	 M248,247.5c-2.7,3.3-5,6.3-7,9c8,4,14.3,6,19,6c2.7,0,5.3-0.7,8-2c0.7-4-2-7-8-9L248,247.5z M197,256.5c-3.3,6-9,9-17,9
	c-7.3-0.7-12.7-1-16-1c-8,0-12.3,4.3-13,13c10,3.3,21,5,33,5c6,0,11.7-1,17-3c4-2.7,8.5-6,13.5-10s7.8-8.3,8.5-13c-1.3-4.7-6-7-14-7
	C203,249.5,199,251.8,197,256.5z M25,260.5l-15,34c12.7-6.7,19-18,19-34H25z M145,283.5c0.7,4,1.3,7.7,2,11c3.3,2,7.7,3,13,3
	c4.7,0,7.7-1.7,9-5L145,283.5z M177,294.5h8c-1.3-0.7-3-1.3-5-2S177,292.5,177,294.5z M129,294.5c-5.3,8-10.2,16.7-14.5,26
	s-6.5,16.7-6.5,22c6-8,11-16.2,15-24.5S129,301.8,129,294.5z M125,350.5c12.7,3.3,21.3-0.7,26-12s9.3-22.3,14-33c-6-4-11-6-15-6
	c-6.7,0-12.5,8.3-17.5,25S125,349.8,125,350.5z M174,303.5c-6.7,10-11.2,17.5-13.5,22.5s-4.2,11.2-5.5,18.5c4.7-5.3,9-11.7,13-19
	s7.7-14.7,11-22H174z M185,310.5l-17,31c4.7-1.3,8-5,10-11S182.3,317.8,185,310.5z M119,348.5l3-15l-8,15H119z M259,209.5
	c10.7,0.7,21.3,1,32,1c-2.7,4.7-7.3,7-14,7c-4.7,0-10.3-1.3-17-4L259,209.5z M177,216.5c-4,4.7-7.5,8.3-10.5,11s-6.8,3-11.5,1l-2-3
	L177,216.5z M213,202.5c2.7-2,8-3,16-3c5.3,0,9.3-0.3,12-1c0,4.7-2.7,7-8,7c-5.3,0-8.7,0.3-10,1L213,202.5z M65,133.5l4,26
	c-4-3.3-6-8.7-6-16C63,140.8,63.7,137.5,65,133.5z"/>
</svg>
