<svg xmlns="http://www.w3.org/2000/svg" xmlns:xlink="http://www.w3.org/1999/xlink" version="1.1" viewBox="18 440 363 360">
   <path fill="currentColor" d="M183 464q14 -24 42 -24q22 0 32 20q8 2 20.5 -3t19.5 -2q22 21 45 42q23 23 39 48q0 45 -16 82t-50 62q-8 1 -19.5 14t-20.5 13q-5 0 -11 -3q-6 -6 -12 -6t-12.5 6t-16 21t-20.5 52q-12 8 -27 11t-33 3q-21 0 -39 -3t-45 -10q-11 -12 -23 -27.5t-18 -28.5q7 -19 10 -26.5 t10 -16.5q-2 -14 -2 -21q0 -28 13 -61q18 -39 27 -60t15.5 -31.5t15.5 -14.5q17 3 38 -18t38 -18zM173 471q-10 2 -22.5 14.5t-17.5 15.5q-13 3 -21.5 5t-14.5 11q-14 32 -28.5 67t-21.5 63q-4 8 -4 19q0 7 3 22t3 23q0 9 -3 16.5t-12 14.5q13 22 35 34t48 9l17 -44l-41 4 q-10 1 -15.5 -10.5t-10.5 -13.5q9 3 19.5 6t22.5 3q26 -5 40.5 -12t20.5 -24q-2 -3 -13 -23.5t-18 -29.5l-19 17q-1 -4 3.5 -10t4.5 -9q-6 6 -12.5 12t-12.5 7q11 -12 19 -21t6 -20q0 -10 -15.5 -14.5t-20 -13.5t-3.5 -10q5 5 11.5 9.5t12.5 3.5q-4 -5 -8 -9.5t-5 -12.5 l7 -3l76 124v-11q6 -10 18 -10l8 2q-3 -8 -6.5 -26t-8.5 -29l-24 10q-2 -5 -8.5 -2.5t-9.5 -1.5q3 -9 14 -12.5t17 -5.5q-7 -7 -7 -23q0 -6 -1 -14t-12 -13q0 -2 -4 -8.5t0 -11.5q3 5 10 14t9 12q5 -4 5 -7q-7 -9 -13 -18q5 -2 12 5.5t13 6.5q16 5 20.5 16.5t4.5 29.5v22 q0 14 2 20q-3 4 -5 3q-2 13 -2 20t5 10l8 -8q6 -3 11 -3q3 0 6.5 1t7.5 2q9 -12 12.5 -26.5t3.5 -32.5q0 -9 -1 -28.5t-1 -28.5l-26 5v-6h-19q-3 -11 12.5 -18t16.5 -9q-30 -21 -46.5 -31.5t-31.5 -14.5zM301 467q-5 -5 -14 -5q-3 0 -10 2t-11 3l57 66q3 13 11 13 q5 0 17.5 -5t17.5 -4zM217 447q-13 5 -18.5 10t-6.5 12q20 13 42 26.5t36 29.5q4 11 6 26t2 27q0 16 -3 35.5t-4 29t-11 23.5t-10 20q0 4 3 9l2 -3q7 -9 11.5 -14.5t13.5 -3.5q9 4 13.5 7.5t3.5 7.5q13 -18 17.5 -36.5t12.5 -91.5q-3 -5 -9 -5q-11 1 -15.5 1t-5.5 -1l16 -5 q-14 2 -20 2q-5 0 -8 -4l31 -10l-15 -17q-2 -3 -29.5 -37t-54.5 -38zM259 523q-16 6 -32 11l36 -6zM244 536q6 1 13 -2q-8 1 -13 2zM372 545l-6 -2l-8 2h14zM335 550l-8 83q4 4 9 4q8 0 17 -1q7 -20 15 -40q7 -22 7 -42q-13 3 -20 3q-5 0 -10 -3q1 -3 4.5 -3h7.5zM183 577 q0 14 8 25t22 17l2 -6q2 -8 -7.5 -12t-11.5 -8q-1 -6 -1 -18t1 -17q-8 -3 -10.5 3t-2.5 16zM201 574q1 8 1.5 14.5t8.5 3.5v-7q1 -4 -1 -11.5t-5 -7.5q-4 4 -4 8zM209 637v-8v8zM327 642l-8 24l10 1q8 -7 12.5 -11.5t5.5 -10.5zM236 664q-11 6 -10 11q13 6 19 2 q4 -5 -1.5 -8.5t-7.5 -4.5zM200 675q-6 4 -6 5q2 0 9 -2zM277 681q2 9 9 4q-5 -3 -9 -4zM190 694h5q13 -4 14 -9h-14q-8 0 -5 9zM266 686q-4 5 -7 9q12 6 19 6q4 0 8 -2q1 -6 -8 -9zM215 695q-5 9 -17 9q-11 -1 -16 -1q-12 0 -13 13q15 5 33 5q9 0 17 -3q6 -4 13.5 -10 t8.5 -13q-2 -7 -14 -7q-9 0 -12 7zM43 699l-15 34q19 -10 19 -34h-4zM163 722q1 6 2 11q5 3 13 3q7 0 9 -5zM195 733h8q-2 -1 -5 -2t-3 2zM147 733q-8 12 -14.5 26t-6.5 22q9 -12 15 -24.5t6 -23.5zM143 789q19 5 26 -12t14 -33q-9 -6 -15 -6q-10 0 -17.5 25t-7.5 26z M192 742q-10 15 -13.5 22.5t-5.5 18.5q7 -8 13 -19t11 -22h-5zM203 749l-17 31q7 -2 10 -11t7 -20zM137 787l3 -15l-8 15h5zM277 648q16 1 32 1q-4 7 -14 7q-7 0 -17 -4zM195 655q-6 7 -10.5 11t-11.5 1l-2 -3zM231 641q4 -3 16 -3q8 0 12 -1q0 7 -8 7t-10 1zM83 572l4 26 q-6 -5 -6 -16q0 -4 2 -10z"/>
</svg>