<svg xmlns="http://www.w3.org/2000/svg" xmlns:xlink="http://www.w3.org/1999/xlink" version="1.1" viewBox="20 463 401.64 337">
   <path fill="currentColor" d="M283 465l39 24q4 -1 12 -1q22 0 44 34t23 36.5t12 24t8 35.5q-17 36 -34 71q-24 40 -60 50q-5 1 -11.5 -6t-8.5 -10q-11 -3 -21 -6q-12 8 -48.5 20.5t-41.5 14.5l-29 43q-3 2 -11 3.5t-16 1.5q-22 0 -40.5 -10t-44.5 -30q-11 -18 -20 -35t-15 -34q3 -8 26 -34.5t21 -49.5 q12 -29 35.5 -58.5t40.5 -49.5q5 -3 24.5 -6t27.5 -14q5 -4 12 -4q5 0 11 2l15 5q4 -1 18 -10t23 -9q3 0 9 2zM237 489q6 8 16 26.5t12 21.5q7 -1 7 -3l2 3q-3 6 0 11.5t6 10.5q1 6 7 6q4 0 6 -4q1 -5 -3.5 -8t-5.5 -6l3 -3q9 1 15 12q6 -2 12 1l12 6q7 13 7 26q0 19 -17 43 t-32 44q-3 6 -3 14q0 6 3 11q2 -10 6 -10q11 -2 23 -4q10 0 14 10q5 -1 11 -5t11 -13q-6 1 -13 -5.5t-9 -8.5q6 0 17.5 2.5t14.5 2.5q6 -9 10 -25.5t5.5 -24t6 -19t4.5 -16.5q0 -3 -2 -9q-13 -5 -26 -5q-8 0 -12 1q-2 -3 1 -5.5t6 -5.5q4 -3 11 -2l14 2q-15 -22 -41 -44.5 t-50 -43.5q-6 -2 -9 -2q-11 0 -21 6t-19 12zM200 485q-8 11 -29 14t-28 10q-33 43 -53.5 73.5t-24.5 63.5q2 7 -2 13.5t-6 10.5h4q-1 8 -12.5 18.5t-11.5 21.5q18 28 30 43t30 22l34 -48q-10 -1 -19 -3t-16.5 -8.5t-12 -10t-1.5 -8.5q20 14 24.5 16.5t13.5 2.5 q-22 -12 -30.5 -18t-10.5 -19q4 2 14 10t18.5 12.5t24.5 4.5q12 0 26 -3t21 -4q-6 4 -6 8t6 9t6 7q10 10 22 10q10 0 26 -6t20.5 -8t12.5 -6q5 -4 5 -9q0 -2 -3 -7q-5 1 -8.5 8t-8 9.5t-11.5 2.5q-16 0 -27 -12q-3 -10 -11 -10l-11 2q-17 -5 -22.5 -25t-9.5 -39l-25 16 l18 -23q-3 0 -13 2t-14 -1q5 -4 16 -6t14 -4q-2 -11 -19.5 -21.5t-22.5 -17.5l4 16q-4 -1 -7 -6t-4 -5q0 -18 5 -24q-2 9 4 10.5t12 2.5q4 9 20.5 21.5t18.5 14.5q4 33 7 48.5t11 25.5l2 -5q4 -7 12 -11.5t15 -0.5l8 -48q-16 3 -24 3q-9 0 -13 -6q4 -2 16 -5t19 -6 q-16 -39 -32 -79q1 -2 6 0q4 14 18 39t15.5 32t1.5 19q0 20 -4.5 40t-8.5 39q5 9 9 9q3 -14 22 -17.5t24 -9.5q9 -35 12 -47.5t3 -31.5q-16 -28 -32 -57t-35 -54h-22zM210 484l2 1zM329 497q24 22 41 37.5t22 27.5t5.5 16t6.5 3l-21 -38q-14 -18 -28 -37q-11 -11 -26 -9z M305 565q-5 2 -11 4t-5 8q8 11 8 27q0 14 -5 31q2 5 2.5 7t4.5 1q2 -6 14.5 -23t12.5 -28q0 -6 -2.5 -13.5t-7 -11.5t-11.5 -2zM395 590q-15 45 -30 89q1 3 13 8q2 -5 18.5 -36t16.5 -49q0 -10 -18 -12zM49 670l4 -7l-8 10zM197 682q7 1 11 1q8 0 9 -8q-13 0 -17.5 1.5 t-2.5 5.5zM361 685q-6 1 -12 8t-9 10q4 2 7 17q10 -7 16.5 -12t8.5 -13q-10 -3 -11 -10zM237 702q3 3 12 3t9 -8q-5 -3 -10 -3q-8 0 -11 8zM292 697q-1 4 2 7l5 5q9 6 15 -5q-4 -9 -13 -9q-3 0 -9 2zM320 697l-3 -4zM323 713q-4 1 -1 9q5 3 10 3q6 0 7 -5q-6 -6 -9 -7.5 t-7 0.5zM151 719q-9 2 -17 13t-15 25zM163 723q-16 20 -25 33t-17 31q14 2 23 -5q5 -8 19 -22t18 -23zM116 782l30 -48q-9 10 -19.5 23t-16.5 25h6zM219 599l-10 4l4 -4h6zM267 603l-6 5l20 1q-7 4 -20 4q-12 0 -18 -6z"/>
</svg>