<?xml version="1.0" encoding="utf-8"?>
<!-- Generator: Adobe Illustrator 26.4.1, SVG Export Plug-In . SVG Version: 6.00 Build 0)  -->
<svg version="1.1" id="Layer_1" xmlns="http://www.w3.org/2000/svg" xmlns:xlink="http://www.w3.org/1999/xlink" x="0px" y="0px"
	 viewBox="0 0 401.6 401.6" style="enable-background:new 0 0 401.6 401.6;" xml:space="preserve">
<path d="M263,34.3l39,24c2.7-0.7,6.7-1,12-1c14.7,0,29.3,11.3,44,34c14.7,22.7,22.3,34.8,23,36.5c0.7,1.7,4.7,9.7,12,24
	s10,26.2,8,35.5c-11.3,24-22.7,47.7-34,71c-16,26.7-36,43.3-60,50c-3.3,0.7-7.2-1.3-11.5-6s-7.2-8-8.5-10c-7.3-2-14.3-4-21-6
	c-8,5.3-24.2,12.2-48.5,20.5S179.3,320,176,321.3l-29,43c-2,1.3-5.7,2.5-11,3.5s-10.7,1.5-16,1.5c-14.7,0-28.2-3.3-40.5-10
	s-27.2-16.7-44.5-30c-7.3-12-14-23.7-20-35s-11-22.7-15-34c2-5.3,10.7-16.8,26-34.5s22.3-34.2,21-49.5c8-19.3,19.8-38.8,35.5-58.5
	s29.2-36.2,40.5-49.5c3.3-2,11.5-4,24.5-6s22.2-6.7,27.5-14c3.3-2.7,7.3-4,12-4c3.3,0,7,0.7,11,2l15,5c2.7-0.7,8.7-4,18-10
	c9.3-6,17-9,23-9C256,32.3,259,33,263,34.3z M217,58.3c4,5.3,9.3,14.2,16,26.5c6.7,12.3,10.7,19.5,12,21.5c4.7-0.7,7-1.7,7-3l2,3
	c-2,4-2,7.8,0,11.5s4,7.2,6,10.5c0.7,4,3,6,7,6c2.7,0,4.7-1.3,6-4c0.7-3.3-0.5-6-3.5-8s-4.8-4-5.5-6l3-3c6,0.7,11,4.7,15,12
	c4-1.3,8-1,12,1l12,6c4.7,8.7,7,17.3,7,26c0,12.7-5.7,27-17,43s-22,30.7-32,44c-2,4-3,8.7-3,14c0,4,1,7.7,3,11c1.3-6.7,3.3-10,6-10
	c7.3-1.3,15-2.7,23-4c6.7,0,11.3,3.3,14,10c3.3-0.7,7-2.3,11-5s7.7-7,11-13c-4,0.7-8.3-1.2-13-5.5s-7.7-7.2-9-8.5
	c4,0,9.8,0.8,17.5,2.5s12.5,2.5,14.5,2.5c4-6,7.3-14.5,10-25.5s4.5-19,5.5-24s3-11.3,6-19s4.5-13.2,4.5-16.5c0-2-0.7-5-2-9
	c-8.7-3.3-17.3-5-26-5c-5.3,0-9.3,0.3-12,1c-1.3-2-1-3.8,1-5.5s4-3.5,6-5.5c2.7-2,6.3-2.7,11-2l14,2c-10-14.7-23.7-29.5-41-44.5
	s-34-29.5-50-43.5c-4-1.3-7-2-9-2c-7.3,0-14.3,2-21,6C229.3,50.3,223,54.3,217,58.3z M180,54.3c-5.3,7.3-15,12-29,14
	s-23.3,5.3-28,10c-22,28.7-39.8,53.2-53.5,73.5S47.7,193.3,45,215.3c1.3,4.7,0.7,9.2-2,13.5c-2.7,4.3-4.7,7.8-6,10.5h4
	c-0.7,5.3-4.8,11.5-12.5,18.5S17,272,17,279.3c12,18.7,22,33,30,43s18,17.3,30,22l34-48c-6.7-0.7-13-1.7-19-3s-11.5-4.2-16.5-8.5
	s-9-7.7-12-10s-3.5-5.2-1.5-8.5c13.3,9.3,21.5,14.8,24.5,16.5s7.5,2.5,13.5,2.5c-14.7-8-24.8-14-30.5-18s-9.2-10.3-10.5-19
	c2.7,1.3,7.3,4.7,14,10s12.8,9.5,18.5,12.5s13.8,4.5,24.5,4.5c8,0,16.7-1,26-3s16.3-3.3,21-4c-4,2.7-6,5.3-6,8s2,5.7,6,9s6,5.7,6,7
	c6.7,6.7,14,10,22,10c6.7,0,15.3-2,26-6s17.5-6.7,20.5-8s7.2-3.3,12.5-6c3.3-2.7,5-5.7,5-9c0-1.3-1-3.7-3-7c-3.3,0.7-6.2,3.3-8.5,8
	s-5,7.8-8,9.5s-6.8,2.5-11.5,2.5c-10.7,0-19.7-4-27-12c-2-6.7-5.7-10-11-10l-11,2c-11.3-3.3-18.8-11.7-22.5-25s-6.8-26.3-9.5-39
	l-25,16l18-23c-2,0-6.3,0.7-13,2s-11.3,1-14-1c3.3-2.7,8.7-4.7,16-6s12-2.7,14-4c-1.3-7.3-7.8-14.5-19.5-21.5S100.3,152,97,147.3
	l4,16c-2.7-0.7-5-2.7-7-6s-3.3-5-4-5c0-12,1.7-20,5-24c-1.3,6,0,9.5,4,10.5s8,1.8,12,2.5c2.7,6,9.5,13.2,20.5,21.5
	s17.2,13.2,18.5,14.5c2.7,22,5,38.2,7,48.5s5.7,18.8,11,25.5l2-5c2.7-4.7,6.7-8.5,12-11.5s10.3-3.2,15-0.5l8-48c-10.7,2-18.7,3-24,3
	c-6,0-10.3-2-13-6c2.7-1.3,8-3,16-5s14.3-4,19-6c-10.7-26-21.3-52.3-32-79c0.7-1.3,2.7-1.3,6,0c2.7,9.3,8.7,22.3,18,39
	s14.5,27.3,15.5,32s1.5,11,1.5,19c0,13.3-1.5,26.7-4.5,40s-5.8,26.3-8.5,39c3.3,6,6.3,9,9,9c2-9.3,9.3-15.2,22-17.5
	c12.7-2.3,20.7-5.5,24-9.5c6-23.3,10-39.2,12-47.5s3-18.8,3-31.5c-10.7-18.7-21.3-37.7-32-57c-10.7-19.3-22.3-37.3-35-54H180z
	 M190,53.3l2,1L190,53.3z M309,66.3c16,14.7,29.7,27.2,41,37.5s18.7,19.5,22,27.5s5.2,13.3,5.5,16s2.5,3.7,6.5,3l-21-38
	c-9.3-12-18.7-24.3-28-37C327.7,68,319,65,309,66.3z M285,134.3c-3.3,1.3-7,2.7-11,4s-5.7,4-5,8c5.3,7.3,8,16.3,8,27
	c0,9.3-1.7,19.7-5,31c1.3,3.3,2.2,5.7,2.5,7s1.8,1.7,4.5,1c1.3-4,6.2-11.7,14.5-23s12.5-20.7,12.5-28c0-4-0.8-8.5-2.5-13.5
	s-4-8.8-7-11.5S289.7,133,285,134.3z M375,159.3c-10,30-20,59.7-30,89c0.7,2,5,4.7,13,8c1.3-3.3,7.5-15.3,18.5-36s16.5-37,16.5-49
	C393,164.7,387,160.7,375,159.3z M29,239.3l4-7l-8,10L29,239.3z M177,251.3c4.7,0.7,8.3,1,11,1c5.3,0,8.3-2.7,9-8
	c-8.7,0-14.5,0.5-17.5,1.5S175.7,248.7,177,251.3z M341,254.3c-4,0.7-8,3.3-12,8s-7,8-9,10c2.7,1.3,5,7,7,17
	c6.7-4.7,12.2-8.7,16.5-12s7.2-7.7,8.5-13C345.3,262.3,341.7,259,341,254.3z M217,271.3c2,2,6,3,12,3s9-2.7,9-8c-3.3-2-6.7-3-10-3
	C222.7,263.3,219,266,217,271.3z M272,266.3c-0.7,2.7,0,5,2,7l5,5c6,4,11,2.3,15-5c-2.7-6-7-9-13-9C279,264.3,276,265,272,266.3z
	 M300,266.3l-3-4L300,266.3z M303,282.3c-2.7,0.7-3,3.7-1,9c3.3,2,6.7,3,10,3c4,0,6.3-1.7,7-5c-4-4-7-6.5-9-7.5S305.7,281,303,282.3
	z M131,288.3c-6,1.3-11.7,5.7-17,13s-10.3,15.7-15,25L131,288.3z M143,292.3c-10.7,13.3-19,24.3-25,33s-11.7,19-17,31
	c9.3,1.3,17-0.3,23-5c3.3-5.3,9.7-12.7,19-22s15.3-17,18-23L143,292.3z M96,351.3l30-48c-6,6.7-12.5,14.3-19.5,23s-12.5,17-16.5,25
	H96z M199,168.3l-10,4l4-4H199z M247,172.3l-6,5l20,1c-4.7,2.7-11.3,4-20,4c-8,0-14-2-18-6L247,172.3z"/>
</svg>
