<?xml version="1.0" encoding="utf-8"?>
<!-- Generator: Adobe Illustrator 26.4.1, SVG Export Plug-In . SVG Version: 6.00 Build 0)  -->
<svg version="1.1" id="Layer_1" xmlns="http://www.w3.org/2000/svg" xmlns:xlink="http://www.w3.org/1999/xlink" x="0px" y="0px"
	 viewBox="0 0 547 547" style="enable-background:new 0 0 547 547;" xml:space="preserve">
<path d="M286.3,0c21.3,2.7,38.8,8,52.5,16s28.3,18.3,44,31s26.2,30.2,31.5,52.5s14.7,33.5,28,33.5c4,0,7.3-0.3,10-1
	c3.3,2,6.8,4.3,10.5,7s5.5,6.3,5.5,11c-9.3,34-18.3,68-27,102l-161,168c-2.7,3.3-9,6.2-19,8.5s-15.7,6.8-17,13.5
	c-6.7,22-10,46-10,72c-11.3,10-21.7,17.7-31,23c-9.3,5.3-20.3,8.7-33,10c-17.3-3.3-33.2-9.3-47.5-18s-28.5-17.7-42.5-27
	c-2.7-5.3-2.2-13.8,1.5-25.5s5.2-19.8,4.5-24.5c0-34,7-88.2,21-162.5s21-125.8,21-154.5c1.3-8.7,6.5-16,15.5-22s17.8-11.7,26.5-17
	c12.7-4.7,31.7-20.8,57-48.5C252.7,19.8,272.3,4,286.3,0z M295.3,8c-2.7,4-3.7,6.3-3,7l56,27c14.7,4,26.2,14.5,34.5,31.5
	s16.2,33.2,23.5,48.5c2.7-4.7,4-9.7,4-15s-1.3-11.2-4-17.5s-4.7-11.2-6-14.5c0.7-2.7-1.2-4.5-5.5-5.5s-5.2-3.5-2.5-7.5
	c-20.7-13.3-38.3-24.7-53-34S310,12,295.3,8z M273.3,21l-4,13l-3-5l-7,11c0.7-6-0.3-10.3-3-13c-38.7,42-77.3,83.7-116,125l-8,67
	c2.7-5.3,6.2-15,10.5-29c4.3-14,8.2-24.7,11.5-32c35.3-33.3,71-66.7,107-100l85,11c1.3,1.3,7.3,8,18,20s20,18.3,28,19
	c-2.7-8-5.2-15-7.5-21s-6.5-9-12.5-9c-1.3-1.3-1.3-3.7,0-7c-12.7-10-28-19.5-46-28.5S290.7,26.3,273.3,21z M285.3,68
	c-6-1.3-10.8-1.5-14.5-0.5c-3.7,1-5.2,4.5-4.5,10.5l-3-3l-7,13c-1.3-1.3-2-3.7-2-7s-0.3-5.3-1-6c-31.3,29.3-62.3,58.7-93,88l-38,105
	l-28,168c2,5.3,3,9.7,3,13c0,4.7-1.8,12.5-5.5,23.5S86.3,491,86.3,495c25.3,12.7,51,25,77,37c0-8,1.7-20.8,5-38.5
	c3.3-17.7,5-28.8,5-33.5c-2,0.7-5.3,1-10,1c-7.3,0-12.7-1.7-16-5c0-2.7,3.2-3.7,9.5-3c6.3,0.7,10.5-0.3,12.5-3c-12-1.3-19.3-5-22-11
	h19c14,0,26.7-2.5,38-7.5c11.3-5,19.3-13.5,24-25.5c8.7-10.7,14.8-23,18.5-37c3.7-14,5.5-29.3,5.5-46v-15c-1.3-6.7-2-11.3-2-14
	c-3.3-6-5-14-5-24c0-6,0.3-12.7,1-20c0.7-7.3,1-11.3,1-12c0-6.7-1.3-12.7-4-18c-5.3-0.7-10.3-1.3-15-2l1-4l-7-6c10,0,18.2-1,24.5-3
	c6.3-2,9.5-8.3,9.5-19c2.7-4.7,4-11.3,4-20v-6c-1.3-2.7-2-4.3-2-5c-2,5.3-3.7,10.7-5,16c-1.3-5.3-2.2-9.7-2.5-13
	c-0.3-3.3-2.5-5.3-6.5-6c1.3-4.7,3.3-6.7,6-6c15.3-4,24-14,26-30c-2.7-2.7-5.2-5.5-7.5-8.5c-2.3-3-3.2-5.8-2.5-8.5l10,9
	c4.7,2.7,10.7,4,18,4c8,0,14.7-1.3,20-4c3.3-2.7,5.5-4.5,6.5-5.5s0.8-2.2-0.5-3.5l1-1l4-2l3,20c7.3,8,14.8,16,22.5,24
	s16.2,12,25.5,12c7.3-4,12.5-7,15.5-9s4.2-5.7,3.5-11c-4.7-4-11.3-11.7-20-23s-15.7-19.3-21-24c-3.3-2-6.5-2-9.5,0s-5.8,4-8.5,6
	c1.3-6.7,1.3-11.3,0-14c-5.3-2-13.3-3.5-24-4.5S292.7,70,285.3,68z M178.3,102c-12.7,6.7-23.3,12.5-32,17.5
	c-8.7,5-12.3,12.5-11,22.5L178.3,102z M416.3,120c-2.7,7.3-0.7,13.3,6,18C422.3,131.3,420.3,125.3,416.3,120z M283.3,121l-5,14
	C283,129,284.7,124.3,283.3,121z M316.3,124c-15.3,0-26.8,10.5-34.5,31.5c-7.7,21-12.2,32.8-13.5,35.5c5.3,5.3,12.7,12,22,20
	c9.3,8,20,16.3,32,25c8.7,0,17.8-5.5,27.5-16.5s16.5-17.5,20.5-19.5c0-2.7,1.8-6.8,5.5-12.5s5.5-10.5,5.5-14.5c0-4.7-3-8.7-9-12
	c-8.7,0-18.2-6-28.5-18S324.3,124.7,316.3,124z M404.3,134l-2-3L404.3,134z M431.3,139c2.7,3.3,3,7.5,1,12.5s-4.7,9.2-8,12.5
	c-4.7-1.3-10,0.5-16,5.5s-11.3,7.2-16,6.5c-11.3,11.3-15.7,24-13,38c4.7,7.3,10.2,14.5,16.5,21.5s13.2,11.2,20.5,12.5
	c0,2-1.7,4.7-5,8c-10-1.3-18.5-7.8-25.5-19.5s-12.5-19.2-16.5-22.5l-28,27c0.7,3.3,4.3,13,11,29s10.3,26.7,11,32
	c-4.7-10.7-8.7-19.5-12-26.5s-6.5-13.3-9.5-19c-3-5.7-6.8-9.5-11.5-11.5c2,6.7,6.7,17.3,14,32s12,26.3,14,35l5,6
	c12-10.7,24.5-21.7,37.5-33s22.8-23.7,29.5-37c-2-5.3,0.7-9.3,8-12c-2-12,1.2-27,9.5-45s12.5-32,12.5-42c-2.7-4.7-7-8-13-10
	S436,137,431.3,139z M398.3,142c-0.7,2.7-3.3,6-8,10s-6,7.7-4,11c3.3,2,6.3,3,9,3c8.7,0,14-3.7,16-11L398.3,142z M419.3,146v11
	c5.3-4,7.7-7,7-9L419.3,146z M269.3,160c2-2.7,3-4.7,3-6L269.3,160z M268.3,205l-7,13c-1.3,5.3-2.2,13.3-2.5,24
	c-0.3,10.7-0.5,19-0.5,25c0,15.3,1,31.7,3,49l5-1c0,13.3-0.2,26-0.5,38c-0.3,12-2.2,25.7-5.5,41c0,4-2.8,7-8.5,9c-5.7,2-8.5,5-8.5,9
	l13,3c20.7-7.3,39.3-20.8,56-40.5s30.7-36.2,42-49.5c-0.7-9.3-4.3-21-11-35s-11.7-24.7-15-32h-8c-1.3,3.3-5.7,5.8-13,7.5
	c-7.3,1.7-15.3,3.2-24,4.5c-2.7-4-0.5-6.8,6.5-8.5s11.2-3.8,12.5-6.5c-6.7-2-13.3-4.3-20-7c10,0.7,18,1,24,1c4,0,8-1,12-3
	C301.7,232.7,285,219,268.3,205z M256.3,367l-6,27C256.3,386,258.3,377,256.3,367z M214.3,446l2,2L214.3,446z M197.3,454h5
	c3.3-2.7,4.7-5,4-7c-2,0.7-3.8,1.8-5.5,3.5L197.3,454z M222.3,454c-3.3,7.3-6.8,19.2-10.5,35.5c-3.7,16.3-6.2,26.8-7.5,31.5
	c12-3.3,18.5-14.5,19.5-33.5s2.2-30.2,3.5-33.5H222.3z M210.3,466l2-5L210.3,466z M204.3,462h-11c-2.7,7.3-5.3,19.3-8,36
	c-2.7,16.7-4.7,27.7-6,33c2,1.3,6.7,0.3,14-3L204.3,462z"/>
</svg>
