<svg xmlns="http://www.w3.org/2000/svg" xmlns:xlink="http://www.w3.org/1999/xlink" version="1.1" viewBox="19.32 253 389.68 547">
   <path  d="M227 253q32 4 52.5 16t44 31t31.5 52.5t28 33.5q6 0 10 -1q5 3 10.5 7t5.5 11q-14 51 -27 102l-161 168q-4 5 -19 8.5t-17 13.5q-10 33 -10 72q-17 15 -31 23t-33 10q-26 -5 -47.5 -18t-42.5 -27q-4 -8 1.5 -25.5t4.5 -24.5q0 -51 21 -162.5t21 -154.5q2 -13 15.5 -22 t26.5 -17q19 -7 57 -48.5t59 -47.5zM236 261q-4 6 -3 7l56 27q22 6 34.5 31.5t23.5 48.5q4 -7 4 -15t-4 -17.5t-6 -14.5q1 -4 -5.5 -5.5t-2.5 -7.5q-31 -20 -53 -34t-44 -20zM214 274l-4 13l-3 -5l-7 11q1 -9 -3 -13q-58 63 -116 125l-8 67q4 -8 10.5 -29t11.5 -32 q53 -50 107 -100l85 11q2 2 18 20t28 19q-4 -12 -7.5 -21t-12.5 -9q-2 -2 0 -7q-19 -15 -46 -28.5t-53 -21.5zM226 321q-9 -2 -14.5 -0.5t-4.5 10.5l-3 -3l-7 13q-2 -2 -2 -7t-1 -6q-47 44 -93 88l-38 105l-28 168q3 8 3 13q0 7 -5.5 23.5t-5.5 22.5q38 19 77 37 q0 -12 5 -38.5t5 -33.5q-3 1 -10 1q-11 0 -16 -5q0 -4 9.5 -3t12.5 -3q-18 -2 -22 -11h19q21 0 38 -7.5t24 -25.5q13 -16 18.5 -37t5.5 -46v-15q-2 -10 -2 -14q-5 -9 -5 -24q0 -9 1 -20t1 -12q0 -10 -4 -18q-8 -1 -15 -2l1 -4l-7 -6q15 0 24.5 -3t9.5 -19q4 -7 4 -20v-6 q-2 -4 -2 -5q-3 8 -5 16q-2 -8 -2.5 -13t-6.5 -6q2 -7 6 -6q23 -6 26 -30q-4 -4 -7.5 -8.5t-2.5 -8.5l10 9q7 4 18 4q12 0 20 -4q5 -4 6.5 -5.5t-0.5 -3.5l1 -1l4 -2l3 20q11 12 22.5 24t25.5 12q11 -6 15.5 -9t3.5 -11q-7 -6 -20 -23t-21 -24q-5 -3 -9.5 0t-8.5 6 q2 -10 0 -14q-8 -3 -24 -4.5t-27 -4.5zM119 355q-19 10 -32 17.5t-11 22.5zM357 373q-4 11 6 18q0 -10 -6 -18zM224 374l-5 14q7 -9 5 -14zM257 377q-23 0 -34.5 31.5t-13.5 35.5q8 8 22 20t32 25q13 0 27.5 -16.5t20.5 -19.5q0 -4 5.5 -12.5t5.5 -14.5q0 -7 -9 -12 q-13 0 -28.5 -18t-27.5 -19zM345 387l-2 -3zM372 392q4 5 1 12.5t-8 12.5q-7 -2 -16 5.5t-16 6.5q-17 17 -13 38q7 11 16.5 21.5t20.5 12.5q0 3 -5 8q-15 -2 -25.5 -19.5t-16.5 -22.5l-28 27q1 5 11 29t11 32q-7 -16 -12 -26.5t-9.5 -19t-11.5 -11.5q3 10 14 32t14 35l5 6 q18 -16 37.5 -33t29.5 -37q-3 -8 8 -12q-3 -18 9.5 -45t12.5 -42q-4 -7 -13 -10t-16 0zM339 395q-1 4 -8 10t-4 11q5 3 9 3q13 0 16 -11zM360 399v11q8 -6 7 -9zM210 413q3 -4 3 -6zM209 458l-7 13q-2 8 -2.5 24t-0.5 25q0 23 3 49l5 -1q0 20 -0.5 38t-5.5 41q0 6 -8.5 9 t-8.5 9l13 3q31 -11 56 -40.5t42 -49.5q-1 -14 -11 -35t-15 -32h-8q-2 5 -13 7.5t-24 4.5q-4 -6 6.5 -8.5t12.5 -6.5q-10 -3 -20 -7q15 1 24 1q6 0 12 -3q-25 -20 -50 -41zM197 620l-6 27q9 -12 6 -27zM155 699l2 2zM138 707h5q5 -4 4 -7q-3 1 -5.5 3.5zM163 707 q-5 11 -10.5 35.5t-7.5 31.5q18 -5 19.5 -33.5t3.5 -33.5h-5zM151 719l2 -5zM145 715h-11q-4 11 -8 36t-6 33q3 2 14 -3z"/>
</svg>