<svg xmlns="http://www.w3.org/2000/svg" xmlns:xlink="http://www.w3.org/1999/xlink" version="1.1" viewBox="35 396 713 404">
   <path fill="currentColor" d="M525 396q77 0 115 8.5t60 52.5q14 15 25.5 31.5t22.5 36.5l-21 70q-8 6 -39 32.5t-61 26.5q-21 4 -29.5 -23t-13.5 -32l-3 -4l-110 42q-39 9 -70.5 31t-56.5 57q-7 6 -14 10t-19 4q-6 0 -9 -1q1 15 -6.5 28.5t-14.5 25.5q-7 8 -17 8q-8 0 -14 -2l-9 -3q-4 -21 -5 -41 t-1 -47q0 -17 1 -52t1 -53l32 -72l-3 -3q-43 0 -119.5 4.5t-81.5 4.5q-13 -3 -19 -7t-8 -13.5t-3 -18.5q0 -4 3 -9l7 -5q41 -5 85.5 -12t75.5 -23q79 0 149 -29q33 0 93.5 -10t72.5 -11zM601 409q-25 -7 -54 -7q-31 0 -92.5 12.5t-89.5 12.5q-5 1 -6 6.5t-4 7.5 q-3 -1 -4.5 -3t-1.5 -3q-18 2 -34 7l-32 10l-68 10l-5 -5l-1 12l-4 -4q-5 1 -9 2l-5 -5l-50 17q-12 5 -14 2q-39 5 -52 7t-32 10q0 15 10 25q23 7 43 7q14 0 23 -3t9 -12t6 -8l1 18q6 1 20 1q15 0 23 -1t23 -4q4 -9 6.5 -14t8.5 1q1 12 14 12q5 0 15.5 -2t14.5 -1 q4 -2 12.5 1t11.5 3q7 0 10 -9q4 -4 11 -15t10 -16q7 4 7 9q0 3 -5 11t-5 12h12q12 0 20 4q16 -3 31 19t22 25q5 -5 5 -14q0 -6 -2 -12.5t-4 -13.5q5 1 8.5 12t4.5 13q4 -1 9 -10.5t10 -8.5q-11 34 -75 81t-64 100q5 8 9 12.5t11 4.5q-16 -13 -16 -31q6 -11 14.5 -18.5 t19.5 -7.5q9 4 16.5 11.5t8.5 15.5q5 -6 13.5 -13t17.5 -15l-11 -5q-1 -2 -11 -13t-10 -18l18 17l-20 -25q7 -1 13.5 6t8.5 8l-2 -6l3 -2l-12 -14q11 3 18.5 12.5t9.5 21.5q-4 1 -1.5 6.5t1.5 8.5q17 -18 45.5 -28.5t55.5 -20.5q6 0 18.5 -8.5t20.5 -3.5q28 0 50.5 -26 t42.5 -50q5 0 14 -3t12 -3q6 0 11 4q-11 2 -14 5q16 16 31.5 34t25.5 35q8 -3 16 -12t10 -26q6 -14 6 -26q0 -27 -28 -59q-24 -25 -47 -51q-7 -5 -29.5 -9.5t-27.5 -6.5zM351 530q-5 0 -20 -2.5t-19 -2.5q-12 0 -19 7q26 30 59 41q4 0 13 2.5t12 2.5q7 0 11 -8 q-5 -6 -21.5 -13.5t-17.5 -8.5q6 -1 13.5 1t14.5 4q-4 -4 -17 -8t-15 -10l17 2zM277 536q-17 26 -30 59q9 0 12 2v11q-9 7 -15 9q0 18 1 35l2 34q0 7 -1 15t-1 12l6 4q-2 9 -7 14q-4 15 5 19q4 7 4 13t-2 12t-5 14l24 3q8 -5 11.5 -13.5t7.5 -16t4 -17.5q0 -9 -7.5 -27.5 t-7.5 -25.5q0 -10 5 -19q0 -5 8.5 -16.5t8.5 -15.5q0 -6 -11 -10l7 -3l-3 -5q2 -4 6.5 -1t6.5 3q14 -19 19 -46q-14 -18 -24 -28t-24 -15zM615 549q-10 8 0 13l3.5 -3.5t3.5 -2.5q-1 6 -1 12q0 8 6 9q2 14 10 29t16 29q9 0 19.5 -7.5t15.5 -16.5q-7 -26 -25 -45t-26 -27 q-14 -1 -22 10zM603 564l-3 6l5 1q2 -2 0.5 -4t-2.5 -3zM339 581q-12 6 -8 16q12 0 21 -11q-4 -5 -13 -5zM613 586l25 41q-10 -20 -20 -41h-5zM605 591q7 14 16 29t17 24q-13 -26 -17.5 -33t-15.5 -20zM598 597q2 10 10 25.5t10 21.5q-1 -8 -6.5 -20t-13.5 -27zM344 602 q-10 6 -17 2q-8 8 -4 14q13 -5 21 -16zM320 678q-4 2 -8 5t-13 12q0 8 5.5 15t8.5 11q5 3 8 3q7 0 10.5 -7.5t6.5 -14.5q-5 -3 -9.5 -10t-8.5 -14zM329 679q1 1 5 7.5t8 4.5q-1 -8 -13 -12zM245 770l1 -11zM449 571q20 16 24.5 22.5t4.5 18.5q-5 -5 -14 -20.5t-15 -20.5z M650 427q13 9 24 27q-10 -9 -16 -14.5t-8 -12.5zM359 517q6 -18 10 -25q-2 3 1.5 10.5t-1.5 10.5z"/>
</svg>