<?xml version="1.0" encoding="utf-8"?>
<!-- Generator: Adobe Illustrator 26.4.1, SVG Export Plug-In . SVG Version: 6.00 Build 0)  -->
<svg version="1.1" id="Layer_1" xmlns="http://www.w3.org/2000/svg" xmlns:xlink="http://www.w3.org/1999/xlink" x="0px" y="0px"
	 viewBox="0 0 713 713" style="enable-background:new 0 0 713 713;" xml:space="preserve">
<path d="M490,154.5c51.3,0,89.7,2.8,115,8.5s45.3,23.2,60,52.5c9.3,10,17.8,20.5,25.5,31.5s15.2,23.2,22.5,36.5l-21,70
	c-5.3,4-18.3,14.8-39,32.5s-41,26.5-61,26.5c-14,2.7-23.8-5-29.5-23s-10.2-28.7-13.5-32l-3-4l-110,42c-26,6-49.5,16.3-70.5,31
	s-39.8,33.7-56.5,57c-4.7,4-9.3,7.3-14,10s-11,4-19,4c-4,0-7-0.3-9-1c0.7,10-1.5,19.5-6.5,28.5s-9.8,17.5-14.5,25.5
	c-4.7,5.3-10.3,8-17,8c-5.3,0-10-0.7-14-2l-9-3c-2.7-14-4.3-27.7-5-41s-1-29-1-47c0-11.3,0.3-28.7,1-52s1-41,1-53l32-72l-3-3
	c-28.7,0-68.5,1.5-119.5,4.5s-78.2,4.5-81.5,4.5c-8.7-2-15-4.3-19-7s-6.7-7.2-8-13.5c-1.3-6.3-2.3-12.5-3-18.5c0-2.7,1-5.7,3-9l7-5
	c27.3-3.3,55.8-7.3,85.5-12s54.8-12.3,75.5-23c52.7,0,102.3-9.7,149-29c22,0,53.2-3.3,93.5-10s64.5-10.3,72.5-11L490,154.5z
	 M566,167.5c-16.7-4.7-34.7-7-54-7c-20.7,0-51.5,4.2-92.5,12.5s-70.8,12.5-89.5,12.5c-3.3,0.7-5.3,2.8-6,6.5s-2,6.2-4,7.5
	c-2-0.7-3.5-1.7-4.5-3s-1.5-2.3-1.5-3c-12,1.3-23.3,3.7-34,7l-32,10l-68,10l-5-5l-1,12l-4-4c-3.3,0.7-6.3,1.3-9,2l-5-5l-50,17
	c-8,3.3-12.7,4-14,2c-26,3.3-43.3,5.7-52,7s-19.3,4.7-32,10c0,10,3.3,18.3,10,25c15.3,4.7,29.7,7,43,7c9.3,0,17-1,23-3s9-6,9-12
	s2-8.7,6-8l1,18c4,0.7,10.7,1,20,1c10,0,17.7-0.3,23-1s13-2,23-4c2.7-6,4.8-10.7,6.5-14s4.5-3,8.5,1c0.7,8,5.3,12,14,12
	c3.3,0,8.5-0.7,15.5-2s11.8-1.7,14.5-1c2.7-1.3,6.8-1,12.5,1s9.5,3,11.5,3c4.7,0,8-3,10-9c2.7-2.7,6.3-7.7,11-15s8-12.7,10-16
	c4.7,2.7,7,5.7,7,9c0,2-1.7,5.7-5,11s-5,9.3-5,12h12c8,0,14.7,1.3,20,4c10.7-2,21,4.3,31,19s17.3,23,22,25c3.3-3.3,5-8,5-14
	c0-4-0.7-8.2-2-12.5s-2.7-8.8-4-13.5c3.3,0.7,6.2,4.7,8.5,12s3.8,11.7,4.5,13c2.7-0.7,5.7-4.2,9-10.5s6.7-9.2,10-8.5
	c-7.3,22.7-32.3,49.7-75,81s-64,64.7-64,100c3.3,5.3,6.3,9.5,9,12.5s6.3,4.5,11,4.5c-10.7-8.7-16-19-16-31c4-7.3,8.8-13.5,14.5-18.5
	s12.2-7.5,19.5-7.5c6,2.7,11.5,6.5,16.5,11.5s7.8,10.2,8.5,15.5c3.3-4,7.8-8.3,13.5-13s11.5-9.7,17.5-15l-11-5
	c-0.7-1.3-4.3-5.7-11-13s-10-13.3-10-18l18,17l-20-25c4.7-0.7,9.2,1.3,13.5,6s7.2,7.3,8.5,8l-2-6l3-2l-12-14
	c7.3,2,13.5,6.2,18.5,12.5s8.2,13.5,9.5,21.5c-2.7,0.7-3.2,2.8-1.5,6.5s2.2,6.5,1.5,8.5c11.3-12,26.5-21.5,45.5-28.5
	s37.5-13.8,55.5-20.5c4,0,10.2-2.8,18.5-8.5c8.3-5.7,15.2-6.8,20.5-3.5c18.7,0,35.5-8.7,50.5-26s29.2-34,42.5-50c3.3,0,8-1,14-3
	s10-3,12-3c4,0,7.7,1.3,11,4c-7.3,1.3-12,3-14,5c10.7,10.7,21.2,22,31.5,34s18.8,23.7,25.5,35c5.3-2,10.7-6,16-12s8.7-14.7,10-26
	c4-9.3,6-18,6-26c0-18-9.3-37.7-28-59c-16-16.7-31.7-33.7-47-51c-4.7-3.3-14.5-6.5-29.5-9.5S569.3,168.8,566,167.5z M316,288.5
	c-3.3,0-10-0.8-20-2.5s-16.3-2.5-19-2.5c-8,0-14.3,2.3-19,7c17.3,20,37,33.7,59,41c2.7,0,7,0.8,13,2.5s10,2.5,12,2.5
	c4.7,0,8.3-2.7,11-8c-3.3-4-10.5-8.5-21.5-13.5s-16.8-7.8-17.5-8.5c4-0.7,8.5-0.3,13.5,1s9.8,2.7,14.5,4c-2.7-2.7-8.3-5.3-17-8
	s-13.7-6-15-10l17,2L316,288.5z M242,294.5c-11.3,17.3-21.3,37-30,59c6,0,10,0.7,12,2v11c-6,4.7-11,7.7-15,9c0,12,0.3,23.7,1,35
	l2,34c0,4.7-0.3,9.7-1,15s-1,9.3-1,12l6,4c-1.3,6-3.7,10.7-7,14c-2.7,10-1,16.3,5,19c2.7,4.7,4,9,4,13s-0.7,8-2,12s-3,8.7-5,14l24,3
	c5.3-3.3,9.2-7.8,11.5-13.5s4.8-11,7.5-16s4-10.8,4-17.5c0-6-2.5-15.2-7.5-27.5s-7.5-20.8-7.5-25.5c0-6.7,1.7-13,5-19
	c0-3.3,2.8-8.8,8.5-16.5s8.5-12.8,8.5-15.5c0-4-3.7-7.3-11-10l7-3l-3-5c1.3-2.7,3.5-3,6.5-1s5.2,3,6.5,3c9.3-12.7,15.7-28,19-46
	c-9.3-12-17.3-21.3-24-28S251.3,297.8,242,294.5z M580,307.5c-6.7,5.3-6.7,9.7,0,13l3.5-3.5c0,0,1.2-0.8,3.5-2.5c-0.7,4-1,8-1,12
	c0,5.3,2,8.3,6,9c1.3,9.3,4.7,19,10,29s10.7,19.7,16,29c6,0,12.5-2.5,19.5-7.5s12.2-10.5,15.5-16.5c-4.7-17.3-13-32.3-25-45
	s-20.7-21.7-26-27C592.7,296.8,585.3,300.2,580,307.5z M568,322.5l-3,6l5,1c1.3-1.3,1.5-2.7,0.5-4S568.7,323.2,568,322.5z
	 M304,339.5c-8,4-10.7,9.3-8,16c8,0,15-3.7,21-11C314.3,341.2,310,339.5,304,339.5z M578,344.5l25,41c-6.7-13.3-13.3-27-20-41H578z
	 M570,349.5c4.7,9.3,10,19,16,29s11.7,18,17,24c-8.7-17.3-14.5-28.3-17.5-33S577.3,358.2,570,349.5z M563,355.5
	c1.3,6.7,4.7,15.2,10,25.5s8.7,17.5,10,21.5c-0.7-5.3-2.8-12-6.5-20S568.3,365.5,563,355.5z M309,360.5c-6.7,4-12.3,4.7-17,2
	c-5.3,5.3-6.7,10-4,14C296.7,373.2,303.7,367.8,309,360.5z M285,436.5c-2.7,1.3-5.3,3-8,5s-7,6-13,12c0,5.3,1.8,10.3,5.5,15
	s6.5,8.3,8.5,11c3.3,2,6,3,8,3c4.7,0,8.2-2.5,10.5-7.5s4.5-9.8,6.5-14.5c-3.3-2-6.5-5.3-9.5-10S287.7,441.2,285,436.5z M294,437.5
	c0.7,0.7,2.3,3.2,5,7.5s5.3,5.8,8,4.5C306.3,444.2,302,440.2,294,437.5z M210,528.5l1-11L210,528.5z M414,329.5
	c13.3,10.7,21.5,18.2,24.5,22.5s4.5,10.5,4.5,18.5c-3.3-3.3-8-10.2-14-20.5S418,332.8,414,329.5z M615,185.5c8.7,6,16.7,15,24,27
	c-6.7-6-12-10.8-16-14.5S616.3,190.2,615,185.5z M324,275.5c4-12,7.3-20.3,10-25c-1.3,2-0.8,5.5,1.5,10.5s1.8,8.5-1.5,10.5
	L324,275.5z"/>
</svg>
