<svg xmlns="http://www.w3.org/2000/svg" xmlns:xlink="http://www.w3.org/1999/xlink" version="1.1" viewBox="24 353 480 447">
   <path fill="currentColor" d="M427 367l77 28q-4 41 -6 70t-19 48l-30 48h-7q-25 -20 -42 -33t-37 -19l-12 46q-6 6 -52.5 51t-52.5 89q-7 10 -13.5 38t-12.5 37q-9 6 -20 6q-14 0 -27 -9q-15 -16 -15 -45q0 -10 1.5 -21.5t5.5 -23.5q-19 2 -38 3q-3 1 -6 -3.5t-6 -3.5q-7 10 -21 62.5t-45 64.5 q-16 0 -25 -10q24 -121 49 -242q2 -10 -2.5 -26t-4.5 -21t3 -13q33 -30 92 -61.5t89 -47.5q61 -13 123 -26q30 0 54 14zM333 366q-5 1 -25.5 5t-46 9t-40.5 23q-9 5 -16 9.5t-14 4.5q-17 8 -43 24.5t-40 24.5q6 0 17 -5.5t15 -5.5q-6 7 -27 15.5t-25 22.5q0 26 -9 62.5 t-20 80.5q3 1 7.5 1.5t4.5 3.5q-4 4 -8 4l6 6q-1 4 -7 3t-10.5 23.5t-11.5 68.5q0 12 3 24q-6 10 -11 19q4 4 12 4h6l8 -4t8 -7t9 -15l10 -30q0 -7 -7 -11q10 -7 16 -22t11 -29q0 -3 -3.5 -3.5t-6.5 -1.5l-1 -8l16 -3q9 -30 18 -61q0 -12 -5 -21q3 -3 8 2t9 2l-5 9 q21 5 34 -14q-12 -7 -16 -13q-9 0 -9 -7q2 -7 3 -11.5t0 -7.5q3 0 6 5q-2 15 17.5 24t22.5 17q-1 -8 -9 -18.5t-9 -13.5l22 19q0 -5 -4 -14t-4 -14q7 10 12.5 15t5.5 12q0 5 -2 11.5t-4.5 16.5t-19 52.5t-16.5 65.5q0 19 7 36q5 -15 9 -25t16 -10q20 0 24 13l16 -48 q-5 1 -10.5 1h-7.5q-14 0 -22 -6q2 -1 4.5 -1h5.5l-8 -7q4 -4 11 -4q5 0 15.5 4.5t16.5 2.5q3 -16 21 -40t20 -28l-9 -8l-15 -14q7 2 19 8.5t16 6.5q8 0 15 -11q26 -14 40 -61t31 -61q29 -3 51.5 11.5t41.5 25.5q11 -13 14.5 -29.5t3.5 -39.5v-25q0 -8 -16 -11t-52 -19.5 t-57 -16.5q-18 0 -33 7zM396 475v4l61 48q0 -1 4 -5t2 -7q-11 -15 -26.5 -23t-40.5 -17zM433 482l-20 -9zM391 485q10 10 23 20t23 15q-6 -8 -16.5 -17t-29.5 -18zM78 488q-4 4 -4 9t3 8zM396 507l-15 -8l20 14zM421 519l26 24q1 -1 1 -2t1 -5q-10 -4 -17 -9t-11 -8z M175 583v4q7 0 7 -2q-5 -2 -7 -2zM139 603l-19 59l5 8q8 2 12 2q8 0 17.5 -4t14.5 -6q9 -33 19 -66h-13q-2 17 -6 26t-16 16q5 -9 10 -18.5t5 -19.5q0 -5 -1 -8q-5 2 -14 6t-14 5zM210 725q-7 -3 -10 -3.5t-6 3.5q7 6 18 2zM183 735q-3 12 -3 14q0 5 5 8q12 2 18 2t10 -4 q5 -14 0 -20q-3 2 -9.5 -0.5t-13.5 -5.5q-4 0 -7 6zM178 757q13 15 27 10q-11 -2 -16.5 -3.5t-10.5 -6.5zM37 773v-10l-4 12zM207 657q18 0 30 12zM375 365q7 -2 15 2q10 7 14 10zM256 587l16 6q-4 1 -8 -1t-8 -5zM327 517q6 -25 17 -45.5t30 -32.5q-16 14 -27 42 q-1 -1 -1 -3q-6 6 -10.5 17.5t-8.5 21.5zM143 635q2 1 3.5 5.5t5.5 2.5q-8 6 -10 -2z"/>
</svg>