<?xml version="1.0" encoding="utf-8"?>
<!-- Generator: Adobe Illustrator 26.4.1, SVG Export Plug-In . SVG Version: 6.00 Build 0)  -->
<svg version="1.1" id="Layer_1" xmlns="http://www.w3.org/2000/svg" xmlns:xlink="http://www.w3.org/1999/xlink" x="0px" y="0px"
	 viewBox="0 0 480 480" style="enable-background:new 0 0 480 480;" xml:space="preserve">
<path d="M403,30.5l77,28c-2.7,27.3-4.7,50.7-6,70s-7.7,35.3-19,48l-30,48h-7c-16.7-13.3-30.7-24.3-42-33s-23.7-15-37-19l-12,46
	c-4,4-21.5,21-52.5,51s-48.5,59.7-52.5,89c-4.7,6.7-9.2,19.3-13.5,38s-8.5,31-12.5,37c-6,4-12.7,6-20,6c-9.3,0-18.3-3-27-9
	c-10-10.7-15-25.7-15-45c0-6.7,0.5-13.8,1.5-21.5s2.8-15.5,5.5-23.5c-12.7,1.3-25.3,2.3-38,3c-2,0.7-4-0.5-6-3.5s-4-4.2-6-3.5
	c-4.7,6.7-11.7,27.5-21,62.5s-24.3,56.5-45,64.5c-10.7,0-19-3.3-25-10c16-80.7,32.3-161.3,49-242c1.3-6.7,0.5-15.3-2.5-26
	c-3-10.7-4.5-17.7-4.5-21s1-7.7,3-13c22-20,52.7-40.5,92-61.5s69-36.8,89-47.5c40.7-8.7,81.7-17.3,123-26
	C369,16.5,387,21.2,403,30.5z M309,29.5c-3.3,0.7-11.8,2.3-25.5,5s-29,5.7-46,9s-30.5,11-40.5,23c-6,3.3-11.3,6.5-16,9.5
	s-9.3,4.5-14,4.5c-11.3,5.3-25.7,13.5-43,24.5s-30.7,19.2-40,24.5c4,0,9.7-1.8,17-5.5c7.3-3.7,12.3-5.5,15-5.5
	c-4,4.7-13,9.8-27,15.5s-22.3,13.2-25,22.5c0,17.3-3,38.2-9,62.5s-12.7,51.2-20,80.5c2,0.7,4.5,1.2,7.5,1.5s4.5,1.5,4.5,3.5
	c-2.7,2.7-5.3,4-8,4l6,6c-0.7,2.7-3,3.7-7,3s-7.5,7.2-10.5,23.5s-6.8,39.2-11.5,68.5c0,8,1,16,3,24c-4,6.7-7.7,13-11,19
	c2.7,2.7,6.7,4,12,4h6l8-4c0,0,2.7-2.3,8-7s8.3-9.7,9-15l10-30c0-4.7-2.3-8.3-7-11c6.7-4.7,12-12,16-22s7.7-19.7,11-29
	c0-2-1.2-3.2-3.5-3.5s-4.5-0.8-6.5-1.5l-1-8l16-3c6-20,12-40.3,18-61c0-8-1.7-15-5-21c2-2,4.7-1.3,8,2c3.3,3.3,6.3,4,9,2l-5,9
	c14,3.3,25.3-1.3,34-14c-8-4.7-13.3-9-16-13c-6,0-9-2.3-9-7c1.3-4.7,2.3-8.5,3-11.5s0.7-5.5,0-7.5c2,0,4,1.7,6,5
	c-1.3,10,4.5,18,17.5,24s20.5,11.7,22.5,17c-0.7-5.3-3.7-11.5-9-18.5s-8.3-11.5-9-13.5l22,19c0-3.3-1.3-8-4-14s-4-10.7-4-14
	c4.7,6.7,8.8,11.7,12.5,15s5.5,7.3,5.5,12c0,3.3-0.7,7.2-2,11.5s-2.8,9.8-4.5,16.5s-8,24.2-19,52.5S141,363.2,141,378.5
	c0,12.7,2.3,24.7,7,36c3.3-10,6.3-18.3,9-25s8-10,16-10c13.3,0,21.3,4.3,24,13l16-48c-3.3,0.7-6.8,1-10.5,1H195c-9.3,0-16.7-2-22-6
	c1.3-0.7,2.8-1,4.5-1h5.5l-8-7c2.7-2.7,6.3-4,11-4c3.3,0,8.5,1.5,15.5,4.5s12.5,3.8,16.5,2.5c2-10.7,9-24,21-40s18.7-25.3,20-28
	l-9-8l-15-14c4.7,1.3,11,4.2,19,8.5s13.3,6.5,16,6.5c5.3,0,10.3-3.7,15-11c17.3-9.3,30.7-29.7,40-61s19.7-51.7,31-61
	c19.3-2,36.5,1.8,51.5,11.5s28.8,18.2,41.5,25.5c7.3-8.7,12.2-18.5,14.5-29.5s3.5-24.2,3.5-39.5v-25c0-5.3-5.3-9-16-11
	S423,50,399,39s-43-16.5-57-16.5C330,22.5,319,24.8,309,29.5z M372,138.5v4l61,48c0-0.7,1.3-2.3,4-5s3.3-5,2-7
	c-7.3-10-16.2-17.7-26.5-23S388.7,144.5,372,138.5z M409,145.5l-20-9L409,145.5z M367,148.5c6.7,6.7,14.3,13.3,23,20
	s16.3,11.7,23,15c-4-5.3-9.5-11-16.5-17S379.7,154.5,367,148.5z M54,151.5c-2.7,2.7-4,5.7-4,9s1,6,3,8L54,151.5z M372,170.5l-15-8
	l20,14L372,170.5z M397,182.5l26,24c0.7-0.7,1-1.3,1-2s0.3-2.3,1-5c-6.7-2.7-12.3-5.7-17-9S399.7,184.5,397,182.5z M151,246.5v4
	c4.7,0,7-0.7,7-2C154.7,247.2,152.3,246.5,151,246.5z M115,266.5l-19,59l5,8c5.3,1.3,9.3,2,12,2c5.3,0,11.2-1.3,17.5-4
	s11.2-4.7,14.5-6c6-22,12.3-44,19-66h-13c-1.3,11.3-3.3,20-6,26s-8,11.3-16,16c3.3-6,6.7-12.2,10-18.5s5-12.8,5-19.5
	c0-3.3-0.3-6-1-8c-3.3,1.3-8,3.3-14,6S118.3,265.8,115,266.5z M186,388.5c-4.7-2-8-3.2-10-3.5s-4,0.8-6,3.5c4.7,4,10.7,4.7,18,2
	L186,388.5z M159,398.5c-2,8-3,12.7-3,14c0,3.3,1.7,6,5,8c8,1.3,14,2,18,2s7.3-1.3,10-4c3.3-9.3,3.3-16,0-20c-2,1.3-5.2,1.2-9.5-0.5
	s-8.8-3.5-13.5-5.5C163.3,392.5,161,394.5,159,398.5z M154,420.5c8.7,10,17.7,13.3,27,10c-7.3-1.3-12.8-2.5-16.5-3.5
	S157.3,423.8,154,420.5z M13,436.5v-10l-4,12L13,436.5z M183,320.5c12,0,22,4,30,12L183,320.5z M351,28.5c4.7-1.3,9.7-0.7,15,2
	c6.7,4.7,11.3,8,14,10L351,28.5z M232,250.5l16,6c-2.7,0.7-5.3,0.3-8-1S234.7,252.5,232,250.5z M303,180.5c4-16.7,9.7-31.8,17-45.5
	s17.3-24.5,30-32.5c-10.7,9.3-19.7,23.3-27,42c-0.7-0.7-1-1.7-1-3c-4,4-7.5,9.8-10.5,17.5S305.7,173.8,303,180.5z M119,298.5
	c1.3,0.7,2.5,2.5,3.5,5.5s2.8,3.8,5.5,2.5c-5.3,4-8.7,3.3-10-2L119,298.5z"/>
</svg>
