<svg xmlns="http://www.w3.org/2000/svg" xmlns:xlink="http://www.w3.org/1999/xlink" version="1.1" viewBox="14 174 267 626">
   <path fill="currentColor" d="M167 177q8 -3 14 -3q17 0 25 15q4 13 6 33.5t2 35.5v23q20 34 39.5 104t27.5 90q0 46 -15 91.5t-25 75.5q-9 15 -12.5 36t-3.5 47v28q-12 17 -31 28.5t-58 18.5l-67 -19q0 -12 -5 -38.5t-5 -36.5q-21 -21 -28 -43.5t-17 -79.5q0 -38 5.5 -72t17.5 -72q16 -8 32 -17 q-2 -12 -2 -19q0 -10 5.5 -18t14.5 -11.5t23 -3.5h10q6 6 11 14.5t10 18.5q4 -10 5 -30t1 -23l5 -48q-9 -28 -17 -57q0 -17 14 -26q2 -17 4.5 -27t13.5 -15zM170 181q-14 13 -11 34q14 0 26 15q9 14 19 27v-25q0 -23 -3 -34.5t-12.5 -14.5t-18.5 -2zM155 222q-14 10 -14 23 q0 8 9 27.5t9 24.5q4 10 12 10l38 -12l-16 -38q-8 -11 -16.5 -23t-21.5 -12zM213 302q-12 -3 -22.5 2.5t-19.5 10.5q-3 6 -3 10q0 9 5 17.5t10 16.5l39 -13l3 2l-19 8l27 -5q-3 -12 -4 -18zM157 319l2 11q2 -2 1 -6t-3 -5zM156 339q-2 5 -3 16.5t-1 16.5v26l29 -1 q-2 -15 -4.5 -23t-13.5 -35h-7zM235 359q-3 -1 -9 -1q-11 0 -20 3t-22 10q4 21 6.5 28.5t10.5 14.5q4 -1 12 -1q7 0 19 3t21 5l-4 -18zM89 379q-15 11 -13 26q14 -17 36 -17q9 0 13 4q-4 -16 -21 -16q-7 0 -15 3zM106 398q-7 2 -12 7t-10 14q-4 7 2 9t19 5q-2 -6 3.5 -12 t11.5 -12q-7 -5 -14 -11zM165 402q-6 2 -9.5 3t-4.5 4q5 3 12.5 1t15.5 -5q-13 -3 -14 -3zM134 414q-6 11 -10 16t-11 10q-8 5 -19.5 -2t-15.5 -5v6q21 28 39.5 37.5t34.5 6.5q0 4 -6 6q-3 8 4 14t13 11q-2 2 -3.5 2.5t-2.5 0.5q1 9 8.5 18t11.5 14l-2 2q-11 -4 -18.5 -15 t-10.5 -17q-32 42 -32 97q0 32 11 55q7 1 24 5t25 4q9 0 18 -3q31 -18 37 -46.5t6 -79.5q-1 2 -3.5 3t-5.5 2q5 -7 8.5 -15t3.5 -15q0 -4 -1 -7l-53 -67l-14 17q-12 5 -15 1l23 -31q-5 -6 -21.5 -14t-22.5 -11zM165 416q0 4 7.5 6t5.5 -6h-13zM113 429q11 -6 8 -12 q-3 1 -6.5 5.5t-1.5 6.5zM222 420l-13 -3l-2 2zM185 419q-2 2 -3 6t2 6q4 0 13 -9q-4 -4 -12 -3zM257 435q-3 -1 -19 -5.5t-24 -4.5q-12 0 -19 8q-2 8 4.5 17t10.5 16t15 7q7 0 21 -5t21 -5l-3 -17zM63 433q-11 5 -19.5 10.5t-8.5 18.5q-3 5 -3 11q0 7 4 13t11 6 q-9 -10 -10.5 -13.5t0.5 -8.5l4 1v-8t4 -7q6 31 17 52t17.5 32t15.5 13q-4 -3 -4 -12v-11q2 -13 15 -9q-2 -15 -2.5 -24.5t-4.5 -19.5q-7 -5 -14.5 -14t-21.5 -30zM172 460l6 -11l-9 12zM267 471q-21 0 -44 10l12 16q10 0 21 -6.5t16 -8.5zM115 516q2 -21 8 -27 q-6 -3 -9.5 -2t-3.5 5q2 12 5 24zM261 495h4q2 5 -8 9t-11 9q4 9 4 25q-1 26 -2 51q9 -33 15 -56.5t9 -40.5q-5 -1 -7.5 0.5t-3.5 2.5zM49 503q-2 -1 -8 -6t-10 0q-1 6 -5.5 29.5t-4.5 36.5v11q10 44 17.5 75t29.5 51h12q15 0 26.5 -3.5t19.5 -13.5q-20 -38 -20 -79 q0 -21 5 -35q-4 8 -7.5 16.5t-2.5 15.5q1 8 1 12q0 5 -3 7q-7 -8 -7 -19q0 -10 3.5 -20t7.5 -20l-8 2q-7 -7 -13 -7q-7 0 -14.5 11t-10.5 13l-2 -3l18 -27q-7 -10 -13 -22.5t-11 -24.5zM126 505q-5 5 1 22q4 -1 7 -4.5t8 -14.5q-2 -4 -7.5 -3.5t-8.5 0.5zM102 531q-6 2 -5 8 q2 5 5 10q8 -3 9 -10q-1 -3 -2.5 -7t-6.5 -1zM198 686h8v-5q-7 -2 -8 5zM133 690l1 -5zM201 757q3 -17 3 -30q-1 -22 -1 -35q-5 18 -5 37q0 16 3 28zM126 695l-3 -2zM150 700q-1 -4 -3.5 -3t-4.5 2v87q2 0 8 -1v-85zM156 700q0 10 -0.5 20.5t-0.5 21.5q0 24 4 41l13 -2 q13 -3 18.5 -11t5.5 -20q0 -8 -3 -27t-1 -27zM133 699q0 15 -1 29.5t-2 28.5q0 15 3 30q6 -29 6 -55l-2 -33h-4zM101 715q-6 3 -16 3q-9 0 -12 -7q0 14 2 33t4 33l44 9q1 -6 2 -25.5t1 -20.5v-37zM101 623l14 40q-4 -3 -7.5 -13t-6.5 -19v-8zM147 471q3 -9 11 -18t18 -14 q-9 6 -16.5 16t-12.5 16zM169 475q2 -8 14 -14q-2 6 -14 14z"/>
</svg>