<?xml version="1.0" encoding="utf-8"?>
<!-- Generator: Adobe Illustrator 26.4.1, SVG Export Plug-In . SVG Version: 6.00 Build 0)  -->
<svg version="1.1" id="Layer_1" xmlns="http://www.w3.org/2000/svg" xmlns:xlink="http://www.w3.org/1999/xlink" x="0px" y="0px"
	 viewBox="0 0 626 626" style="enable-background:new 0 0 626 626;" xml:space="preserve">
<path d="M332.5,3c5.3-2,10-3,14-3c11.3,0,19.7,5,25,15c2.7,8.7,4.7,19.8,6,33.5s2,25.5,2,35.5v23c13.3,22.7,26.5,57.3,39.5,104
	s22.2,76.7,27.5,90c0,30.7-5,61.2-15,91.5s-18.3,55.5-25,75.5c-6,10-10.2,22-12.5,36s-3.5,29.7-3.5,47v28c-8,11.3-18.3,20.8-31,28.5
	s-32,13.8-58,18.5l-67-19c0-8-1.7-20.8-5-38.5c-3.3-17.7-5-29.8-5-36.5c-14-14-23.3-28.5-28-43.5s-10.3-41.5-17-79.5
	c0-25.3,1.8-49.3,5.5-72c3.7-22.7,9.5-46.7,17.5-72c10.7-5.3,21.3-11,32-17c-1.3-8-2-14.3-2-19c0-6.7,1.8-12.7,5.5-18
	s8.5-9.2,14.5-11.5s13.7-3.5,23-3.5h10c4,4,7.7,8.8,11,14.5c3.3,5.7,6.7,11.8,10,18.5c2.7-6.7,4.3-16.7,5-30s1-21,1-23l5-48
	c-6-18.7-11.7-37.7-17-57c0-11.3,4.7-20,14-26c1.3-11.3,2.8-20.3,4.5-27S325.2,6.3,332.5,3z M335.5,7c-9.3,8.7-13,20-11,34
	c9.3,0,18,5,26,15c6,9.3,12.3,18.3,19,27V58c0-15.3-1-26.8-3-34.5S360.3,11,354,9S341.5,6.3,335.5,7z M320.5,48
	c-9.3,6.7-14,14.3-14,23c0,5.3,3,14.5,9,27.5s9,21.2,9,24.5c2.7,6.7,6.7,10,12,10l38-12l-16-38c-5.3-7.3-10.8-15-16.5-23
	S329.2,48,320.5,48z M378.5,128c-8-2-15.5-1.2-22.5,2.5s-13.5,7.2-19.5,10.5c-2,4-3,7.3-3,10c0,6,1.7,11.8,5,17.5s6.7,11.2,10,16.5
	l39-13l3,2l-19,8l27-5c-2-8-3.3-14-4-18L378.5,128z M322.5,145l2,11c1.3-1.3,1.7-3.3,1-6S323.8,145.7,322.5,145z M321.5,165
	c-1.3,3.3-2.3,8.8-3,16.5s-1,13.2-1,16.5v26l29-1c-1.3-10-2.8-17.7-4.5-23s-6.2-17-13.5-35H321.5z M400.5,185c-2-0.7-5-1-9-1
	c-7.3,0-14,1-20,3s-13.3,5.3-22,10c2.7,14,4.8,23.5,6.5,28.5s5.2,9.8,10.5,14.5c2.7-0.7,6.7-1,12-1c4.7,0,11,1,19,3s15,3.7,21,5
	l-4-18L400.5,185z M254.5,205c-10,7.3-14.3,16-13,26c9.3-11.3,21.3-17,36-17c6,0,10.3,1.3,13,4c-2.7-10.7-9.7-16-21-16
	C264.8,202,259.8,203,254.5,205z M271.5,224c-4.7,1.3-8.7,3.7-12,7s-6.7,8-10,14c-2.7,4.7-2,7.7,2,9s10.3,3,19,5
	c-1.3-4-0.2-8,3.5-12s7.5-8,11.5-12C280.8,231.7,276.2,228,271.5,224z M330.5,228c-4,1.3-7.2,2.3-9.5,3s-3.8,2-4.5,4
	c3.3,2,7.5,2.3,12.5,1s10.2-3,15.5-5C335.8,229,331.2,228,330.5,228z M299.5,240c-4,7.3-7.3,12.7-10,16s-6.3,6.7-11,10
	c-5.3,3.3-11.8,2.7-19.5-2s-12.8-6.3-15.5-5v6c14,18.7,27.2,31.2,39.5,37.5c12.3,6.3,23.8,8.5,34.5,6.5c0,2.7-2,4.7-6,6
	c-2,5.3-0.7,10,4,14s9,7.7,13,11c-1.3,1.3-2.5,2.2-3.5,2.5s-1.8,0.5-2.5,0.5c0.7,6,3.5,12,8.5,18s8.8,10.7,11.5,14l-2,2
	c-7.3-2.7-13.5-7.7-18.5-15s-8.5-13-10.5-17c-21.3,28-32,60.3-32,97c0,21.3,3.7,39.7,11,55c4.7,0.7,12.7,2.3,24,5s19.7,4,25,4
	c6,0,12-1,18-3c20.7-12,33-27.5,37-46.5s6-45.5,6-79.5c-0.7,1.3-1.8,2.3-3.5,3s-3.5,1.3-5.5,2c3.3-4.7,6.2-9.7,8.5-15
	s3.5-10.3,3.5-15c0-2.7-0.3-5-1-7l-53-67l-14,17c-8,3.3-13,3.7-15,1l23-31c-3.3-4-10.5-8.7-21.5-14S303.5,242,299.5,240z M330.5,242
	c0,2.7,2.5,4.7,7.5,6s6.8-0.7,5.5-6H330.5z M278.5,255c7.3-4,10-8,8-12c-2,0.7-4.2,2.5-6.5,5.5S277.2,253.7,278.5,255z M387.5,246
	l-13-3l-2,2L387.5,246z M350.5,245c-1.3,1.3-2.3,3.3-3,6s0,4.7,2,6c2.7,0,7-3,13-9C359.8,245.3,355.8,244.3,350.5,245z M422.5,261
	c-2-0.7-8.3-2.5-19-5.5s-18.7-4.5-24-4.5c-8,0-14.3,2.7-19,8c-1.3,5.3,0.2,11,4.5,17s7.8,11.3,10.5,16s7.7,7,15,7
	c4.7,0,11.7-1.7,21-5s16.3-5,21-5l-3-17L422.5,261z M228.5,259c-7.3,3.3-13.8,6.8-19.5,10.5s-8.5,9.8-8.5,18.5c-2,3.3-3,7-3,11
	c0,4.7,1.3,9,4,13s6.3,6,11,6c-6-6.7-9.5-11.2-10.5-13.5s-0.8-5.2,0.5-8.5l4,1v-8c0,0,1.3-2.3,4-7c4,20.7,9.7,38,17,52
	c7.3,14,13.2,24.7,17.5,32s9.5,11.7,15.5,13c-2.7-2-4-6-4-12v-11c1.3-8.7,6.3-11.7,15-9c-1.3-10-2.2-18.2-2.5-24.5
	s-1.8-12.8-4.5-19.5c-4.7-3.3-9.5-8-14.5-14S237.8,273,228.5,259z M337.5,286l6-11l-9,12L337.5,286z M432.5,297
	c-14,0-28.7,3.3-44,10l12,16c6.7,0,13.7-2.2,21-6.5c7.3-4.3,12.7-7.2,16-8.5L432.5,297z M280.5,342c1.3-14,4-23,8-27
	c-4-2-7.2-2.7-9.5-2s-3.5,2.3-3.5,5C276.8,326,278.5,334,280.5,342z M426.5,321h4c1.3,3.3-1.3,6.3-8,9c-6.7,2.7-10.3,5.7-11,9
	c2.7,6,4,14.3,4,25c-0.7,17.3-1.3,34.3-2,51c6-22,11-40.8,15-56.5s7-29.2,9-40.5c-3.3-0.7-5.8-0.5-7.5,0.5S427.2,320.3,426.5,321z
	 M214.5,329c-1.3-0.7-4-2.7-8-6s-7.3-3.3-10,0c-0.7,4-2.5,13.8-5.5,29.5c-3,15.7-4.5,27.8-4.5,36.5v11c6.7,29.3,12.5,54.3,17.5,75
	s14.8,37.7,29.5,51h12c10,0,18.8-1.2,26.5-3.5s14.2-6.8,19.5-13.5c-13.3-25.3-20-51.7-20-79c0-14,1.7-25.7,5-35
	c-2.7,5.3-5.2,10.8-7.5,16.5s-3.2,10.8-2.5,15.5c0.7,5.3,1,9.3,1,12c0,3.3-1,5.7-3,7c-4.7-5.3-7-11.7-7-19c0-6.7,1.2-13.3,3.5-20
	s4.8-13.3,7.5-20l-8,2c-4.7-4.7-9-7-13-7c-4.7,0-9.5,3.7-14.5,11s-8.5,11.7-10.5,13l-2-3l18-27c-4.7-6.7-9-14.2-13-22.5
	S217.8,337,214.5,329z M291.5,331c-3.3,3.3-3,10.7,1,22c2.7-0.7,5-2.2,7-4.5s4.7-7.2,8-14.5c-1.3-2.7-3.8-3.8-7.5-3.5
	S293.5,331,291.5,331z M267.5,357c-4,1.3-5.7,4-5,8c1.3,3.3,3,6.7,5,10c5.3-2,8.3-5.3,9-10c-0.7-2-1.5-4.3-2.5-7
	S270.8,355,267.5,357z M363.5,512h8v-5C366.8,505.7,364.2,507.3,363.5,512z M298.5,516l1-5L298.5,516z M366.5,583
	c2-11.3,3-21.3,3-30c-0.7-14.7-1-26.3-1-35c-3.3,12-5,24.3-5,37C363.5,565.7,364.5,575,366.5,583z M291.5,521l-3-2L291.5,521z
	 M315.5,526c-0.7-2.7-1.8-3.7-3.5-3s-3.2,1.3-4.5,2v87c1.3,0,4-0.3,8-1V526z M321.5,526c0,6.7-0.2,13.5-0.5,20.5s-0.5,14.2-0.5,21.5
	c0,16,1.3,29.7,4,41l13-2c8.7-2,14.8-5.7,18.5-11s5.5-12,5.5-20c0-5.3-1-14.3-3-27s-2.3-21.7-1-27L321.5,526z M298.5,525
	c0,10-0.3,19.8-1,29.5s-1.3,19.2-2,28.5c0,10,1,20,3,30c4-19.3,6-37.7,6-55l-2-33H298.5z M266.5,541c-4,2-9.3,3-16,3
	c-6,0-10-2.3-12-7c0,9.3,0.7,20.3,2,33s2.7,23.7,4,33l44,9c0.7-4,1.3-12.5,2-25.5s1-19.8,1-20.5v-37L266.5,541z M266.5,449l14,40
	c-2.7-2-5.2-6.3-7.5-13s-4.5-13-6.5-19V449z M312.5,297c2-6,5.7-12,11-18s11.3-10.7,18-14c-6,4-11.5,9.3-16.5,16
	S315.8,293,312.5,297z M334.5,301c1.3-5.3,6-10,14-14C347.2,291,342.5,295.7,334.5,301z"/>
</svg>
