<svg xmlns="http://www.w3.org/2000/svg" xmlns:xlink="http://www.w3.org/1999/xlink" version="1.1" viewBox="15 393 302 407">
   <path  d="M173 396q4 0 13 -1.5t13 -1.5q11 0 18.5 3t11.5 13q9 -8 26 -8q10 0 19.5 2.5t13.5 3.5q19 29 19 65q0 18 -4 33q8 29 11 41.5t3 30.5q-8 23 -31 50.5t-43 51.5q-10 4 -14 15q-4 20 -8 39l2 31q-15 21 -38 28.5t-54 7.5q-19 0 -45 -12t-31 -13l-4 -5v-18.5t1 -19.5 q0 -21 -2.5 -32.5t-13.5 -23.5q-9 -25 -15 -52t-6 -54q0 -37 14 -68q12 -14 24 -29q16 -16 34 -16q2 -10 10.5 -18.5t15 -12.5t15.5 -4h13q13 0 16 -11t16 -15zM173 402q-9 4 -11.5 14.5t-2.5 16.5q7 55 14 109l4 -3l4 9q4 1 14 1q7 0 11 -4q1 -7 -3 -9t-11 -2q-10 0 -13 -3 l9 -9q21 -4 25 10l4 -22q-4 -8 -13 -8q-14 3 -19 3t-8 -6h21q-13 -19 -20.5 -31t-7.5 -16q0 -7 4.5 -15t9.5 -15q8 -8 24 -8q6 0 9 1v-6q-3 -5 -8 -7t-11 -2q-4 0 -13 1t-12 1zM245 407q-6 1 -9 7t-3 13q10 10 31.5 19.5t28.5 16.5q0 -10 -0.5 -20t-4.5 -20.5t-11 -13 t-20 -2.5h-12zM206 423q-8 2 -11.5 7t-6.5 15q18 16 42 16q3 -2 5 -6q-1 -1 -1 -2q-4 1 -7 2l8 -12q-12 -14 -17 -17.5t-12 -2.5zM129 427q-14 4 -23 10.5t-10 17.5q16 22 21.5 49.5t5.5 63.5l6 6q5 -10 11 -21q6 -3 12 -3t11 3q0 -37 -2.5 -64t-7.5 -43.5t-11.5 -17 t-12.5 -1.5zM179 448q0 15 12.5 28t21 20t22.5 8t19 7q-3 2 -10 2q-8 0 -11 2q-2 4 2.5 9.5t9.5 10.5q-3 4 -7.5 1t-7.5 0q0 14 4.5 25.5t14.5 23.5q-11 0 -17 -13t-9 -22q-21 0 -38.5 18t-33.5 35q-5 9 -5 26q0 8 1 15.5t2 14.5q-8 -5 -15 -11q-3 -9 -3 -23q0 -11 4 -16 q0 9 3 13q0 -9 3 -17l6 -16l-24 -6q-2 4 -8.5 6t-8.5 4q-17 3 -27 -13q-9 -21 -13 -29q-5 -2 -18 -2q-16 1 -23 1q-1 6 -1 16q0 17 2 30t6 29.5t10.5 37t16 27.5t18.5 9t17 2q7 0 16 -1.5t13 -2.5q4 0 10.5 -4t9.5 -2q-4 8 -4.5 20t0.5 14q2 -12 3.5 -20.5t8.5 -14.5 q10 -3 12 2l-6 56q0 24 8 37q8 1 17 -5.5t13 -9.5q-4 -9 -4 -23q0 -7 2 -22t2 -22q-12 -2 -20 -2.5t-10 -8.5q4 -2 14.5 1t15.5 0q-16 0 -24 -2.5t-16 -13.5q-1 -4 -1 -9q8 5 16 10.5t24 5.5q10 0 22 -4.5t23 -10.5q5 -8 36 -43.5t35 -59.5q-1 -3 -9 -38t-14 -50l-9 9 q-4 3 -9.5 6t-9.5 3t-9 -6q6 -9 10.5 -13t9.5 -5l-15 18q15 -7 21 -11.5t6 -14.5l-35 -17q-1 1 -5.5 9.5t-10.5 10.5q-13 3 -26.5 -3t-22.5 -16q-2 -13 7 -19q-5 1 -10 19zM92 464q-7 -2 -14.5 2t-14.5 8l-4 14l-3 -5q-8 5 -12 9.5t-11 16.5q6 5 16 7q-4 -6 -7 -13 q19 6 26 26t13 37t16 17l1 -10q1 -3 4.5 -9.5t11.5 -6.5q0 -15 -1.5 -33t-9.5 -39zM29 517l-4 26l38 1q1 -13 -11 -19q-12 -4 -23 -8zM198 528l-7 -1zM144 557q6 4 11 0q-2 0 -6 -2t-5 2zM173 559v7l6 -3zM144 563q-5 -1 -6 4.5t-2 6.5q4 2 14 2q6 0 12 -2v-4q0 -7 -7 -7 h-11zM107 569l-1 11q9 2 9 -10zM139 637l-1 -6l1 10v-4zM213 706l4 -11zM131 701l-10 4zM200 764q0 -14 2.5 -37t2.5 -26q-6 21 -6 46q0 12 1 17zM151 703q-9 30 -9 62v12q2 8 2 12q6 -1 13 -3q-7 -12 -7 -34v-18.5t1 -19.5v-11zM58 705q5 33 5 64q10 3 32.5 12t35.5 9v-81 q-12 6 -20.5 7t-35.5 4q-7 0 -8 -8.5t-9 -6.5zM119 706l-5 -1zM211 725l-3 29zM271 472l5 -5zM134 528l23 1q-5 6 -14 6t-9 -7zM286 483q0 6 -9 12t-10 7q-1 -1 -6 -1q8 -2 15 -6.5t10 -11.5zM87 543l25 -4q-3 3 -11.5 4t-13.5 0z"/>
</svg>