<?xml version="1.0" encoding="utf-8"?>
<!-- Generator: Adobe Illustrator 26.4.1, SVG Export Plug-In . SVG Version: 6.00 Build 0)  -->
<svg version="1.1" id="Layer_1" xmlns="http://www.w3.org/2000/svg" xmlns:xlink="http://www.w3.org/1999/xlink" x="0px" y="0px"
	 viewBox="0 0 407 407" style="enable-background:new 0 0 407 407;" xml:space="preserve">
<path d="M210.5,3c2.7,0,7-0.5,13-1.5s10.3-1.5,13-1.5c7.3,0,13.5,1,18.5,3s8.8,6.3,11.5,13c6-5.3,14.7-8,26-8
	c6.7,0,13.2,0.8,19.5,2.5s10.8,2.8,13.5,3.5c12.7,19.3,19,41,19,65c0,12-1.3,23-4,33c5.3,19.3,9,33.2,11,41.5s3,18.5,3,30.5
	c-5.3,15.3-15.7,32.2-31,50.5s-29.7,35.5-43,51.5c-6.7,2.7-11.3,7.7-14,15c-2.7,13.3-5.3,26.3-8,39l2,31c-10,14-22.7,23.5-38,28.5
	s-33.3,7.5-54,7.5c-12.7,0-27.7-4-45-12s-27.7-12.3-31-13l-4-5v-18.5c0,0,0.3-6.5,1-19.5c0-14-0.8-24.8-2.5-32.5S80.8,291,73.5,283
	c-6-16.7-11-34-15-52s-6-36-6-54c0-24.7,4.7-47.3,14-68c8-9.3,16-19,24-29c10.7-10.7,22-16,34-16c1.3-6.7,4.8-12.8,10.5-18.5
	s10.7-9.8,15-12.5s9.5-4,15.5-4h13c8.7,0,14-3.7,16-11S201.8,5.7,210.5,3z M210.5,9c-6,2.7-9.8,7.5-11.5,14.5S196.5,36,196.5,40
	c4.7,36.7,9.3,73,14,109l4-3l4,9c2.7,0.7,7.3,1,14,1c4.7,0,8.3-1.3,11-4c0.7-4.7-0.3-7.7-3-9s-6.3-2-11-2c-6.7,0-11-1-13-3l9-9
	c14-2.7,22.3,0.7,25,10l4-22c-2.7-5.3-7-8-13-8c-9.3,2-15.7,3-19,3s-6-2-8-6h21C226.8,93.3,220,83,215,75s-7.5-13.3-7.5-16
	c0-4.7,1.5-9.7,4.5-15s6.2-10.3,9.5-15c5.3-5.3,13.3-8,24-8c4,0,7,0.3,9,1v-6c-2-3.3-4.7-5.7-8-7s-7-2-11-2c-2.7,0-7,0.3-13,1
	S212.5,9,210.5,9z M282.5,14c-4,0.7-7,3-9,7s-3,8.3-3,13c6.7,6.7,17.2,13.2,31.5,19.5c14.3,6.3,23.8,11.8,28.5,16.5
	c0-6.7-0.2-13.3-0.5-20s-1.8-13.5-4.5-20.5s-6.3-11.3-11-13s-11.3-2.5-20-2.5H282.5z M243.5,30c-5.3,1.3-9.2,3.7-11.5,7
	s-4.5,8.3-6.5,15c12,10.7,26,16,42,16c2-1.3,3.7-3.3,5-6c-0.7-0.7-1-1.3-1-2c-2.7,0.7-5,1.3-7,2l8-12c-8-9.3-13.7-15.2-17-17.5
	C252.2,30.2,248.2,29.3,243.5,30z M166.5,34c-9.3,2.7-17,6.2-23,10.5s-9.3,10.2-10,17.5c10.7,14.7,17.8,31.2,21.5,49.5
	c3.7,18.3,5.5,39.5,5.5,63.5l6,6c3.3-6.7,7-13.7,11-21c4-2,8-3,12-3s7.7,1,11,3c0-24.7-0.8-46-2.5-64s-4.2-32.5-7.5-43.5
	s-7.2-16.7-11.5-17S170.5,34.7,166.5,34z M216.5,55c0,10,4.2,19.3,12.5,28s15.3,15.3,21,20s13.2,7.3,22.5,8s15.7,3,19,7
	c-2,1.3-5.3,2-10,2c-5.3,0-9,0.7-11,2c-1.3,2.7-0.5,5.8,2.5,9.5s6.2,7.2,9.5,10.5c-2,2.7-4.5,3-7.5,1s-5.5-2-7.5,0
	c0,9.3,1.5,17.8,4.5,25.5s7.8,15.5,14.5,23.5c-7.3,0-13-4.3-17-13s-7-16-9-22c-14,0-26.8,6-38.5,18s-22.8,23.7-33.5,35
	c-3.3,6-5,14.7-5,26c0,5.3,0.3,10.5,1,15.5s1.3,9.8,2,14.5c-5.3-3.3-10.3-7-15-11c-2-6-3-13.7-3-23c0-7.3,1.3-12.7,4-16
	c0,6,1,10.3,3,13c0-6,1-11.7,3-17l6-16l-24-6c-1.3,2.7-4.2,4.7-8.5,6s-7.2,2.7-8.5,4c-11.3,2-20.3-2.3-27-13c-6-14-10.3-23.7-13-29
	c-3.3-1.3-9.3-2-18-2c-10.7,0.7-18.3,1-23,1c-0.7,4-1,9.3-1,16c0,11.3,0.7,21.3,2,30s3.3,18.5,6,29.5c2.7,11,6.2,23.3,10.5,37
	s9.7,22.8,16,27.5c6.3,4.7,12.5,7.7,18.5,9s11.7,2,17,2c4.7,0,10-0.5,16-1.5s10.3-1.8,13-2.5c2.7,0,6.2-1.3,10.5-4s7.5-3.3,9.5-2
	c-2.7,5.3-4.2,12-4.5,20s-0.2,12.7,0.5,14c1.3-8,2.5-14.8,3.5-20.5s3.8-10.5,8.5-14.5c6.7-2,10.7-1.3,12,2l-6,56c0,16,2.7,28.3,8,37
	c5.3,0.7,11-1.2,17-5.5s10.3-7.5,13-9.5c-2.7-6-4-13.7-4-23c0-4.7,0.7-12,2-22s2-17.3,2-22c-8-1.3-14.7-2.2-20-2.5s-8.7-3.2-10-8.5
	c2.7-1.3,7.5-1,14.5,1s12.2,2,15.5,0c-10.7,0-18.7-0.8-24-2.5s-10.7-6.2-16-13.5c-0.7-2.7-1-5.7-1-9c5.3,3.3,10.7,6.8,16,10.5
	s13.3,5.5,24,5.5c6.7,0,14-1.5,22-4.5s15.7-6.5,23-10.5c3.3-5.3,15.3-19.8,36-43.5c20.7-23.7,32.3-43.5,35-59.5
	c-0.7-2-3.7-14.7-9-38c-5.3-23.3-10-40-14-50l-9,9c-2.7,2-5.8,4-9.5,6s-6.8,3-9.5,3s-5.7-2-9-6c4-6,7.5-10.3,10.5-13s6.2-4.3,9.5-5
	l-15,18c10-4.7,17-8.5,21-11.5s6-7.8,6-14.5l-35-17c-0.7,0.7-2.5,3.8-5.5,9.5s-6.5,9.2-10.5,10.5c-8.7,2-17.5,1-26.5-3
	s-16.5-9.3-22.5-16c-1.3-8.7,1-15,7-19C223.2,36.7,219.8,43,216.5,55z M129.5,71c-4.7-1.3-9.5-0.7-14.5,2s-9.8,5.3-14.5,8l-4,14
	l-3-5c-5.3,3.3-9.3,6.5-12,9.5s-6.3,8.5-11,16.5c4,3.3,9.3,5.7,16,7c-2.7-4-5-8.3-7-13c12.7,4,21.3,12.7,26,26
	c4.7,13.3,9,25.7,13,37s9.3,17,16,17l1-10c0.7-2,2.2-5.2,4.5-9.5s6.2-6.5,11.5-6.5c0-10-0.5-21-1.5-33s-4.2-25-9.5-39L129.5,71z
	 M66.5,124l-4,26l38,1c0.7-8.7-3-15-11-19C81.5,129.3,73.8,126.7,66.5,124z M235.5,135l-7-1L235.5,135z M181.5,164
	c4,2.7,7.7,2.7,11,0c-1.3,0-3.3-0.7-6-2S182.2,161.3,181.5,164z M210.5,166v7l6-3L210.5,166z M181.5,170c-3.3-0.7-5.3,0.8-6,4.5
	s-1.3,5.8-2,6.5c2.7,1.3,7.3,2,14,2c4,0,8-0.7,12-2v-4c0-4.7-2.3-7-7-7H181.5z M144.5,176l-1,11c6,1.3,9-2,9-10L144.5,176z
	 M176.5,244l-1-6l1,10V244z M250.5,313l4-11L250.5,313z M168.5,308l-10,4L168.5,308z M237.5,371c0-9.3,0.8-21.7,2.5-37
	s2.5-24,2.5-26c-4,14-6,29.3-6,46C236.5,362,236.8,367.7,237.5,371z M188.5,310c-6,20-9,40.7-9,62v12c1.3,5.3,2,9.3,2,12
	c4-0.7,8.3-1.7,13-3c-4.7-8-7-19.3-7-34v-18.5c0,0,0.3-6.5,1-19.5V310z M95.5,312c3.3,22,5,43.3,5,64c6.7,2,17.5,6,32.5,12
	s26.8,9,35.5,9v-81c-8,4-14.8,6.3-20.5,7s-17.5,2-35.5,4c-4.7,0-7.3-2.8-8-8.5S100.8,310.7,95.5,312z M156.5,313l-5-1L156.5,313z
	 M248.5,332l-3,29L248.5,332z M308.5,79l5-5L308.5,79z M171.5,135l23,1c-3.3,4-8,6-14,6S171.5,139.7,171.5,135z M323.5,90
	c0,4-3,8-9,12s-9.3,6.3-10,7c-0.7-0.7-2.7-1-6-1c5.3-1.3,10.3-3.5,15-6.5S321.5,94.7,323.5,90z M124.5,150l25-4c-2,2-5.8,3.3-11.5,4
	S127.8,150.7,124.5,150z"/>
</svg>
