<svg xmlns="http://www.w3.org/2000/svg" xmlns:xlink="http://www.w3.org/1999/xlink" version="1.1" viewBox="14 383 288 417">
   <path fill="currentColor" d="M204 405q10 -22 32 -22q12 0 19 12q6 -2 14.5 0t15.5 6q6 11 11.5 23.5t5.5 23.5q0 7 -5.5 23t-9.5 22.5t-18 12.5q8 31 17 62q0 8 -10 34.5t-25 59t-44 56.5q-1 6 -1 18v18q0 16 -3 31q-14 5 -34 10t-35 5q-17 0 -29 -4l-51 -9q-4 -8 -4 -18q0 -9 4.5 -25t4.5 -21 q0 -11 -9 -23t-17 -38t-12 -40q-4 -33 -7 -66q0 -16 2.5 -26.5t11.5 -27t24 -30t37 -17.5q3 -11 23 -19.5t25 -16.5q4 -10 10 -16.5t12 -8.5t15 -2h19zM218 398q-6 7 -8 18t-2 13q0 13 2 24.5t5 23.5q9 11 17 6q-1 -8 1 -21t4 -25q2 -5 0 -15t-2 -13q0 -9 10 -14 q-5 -5 -12 -5q-10 0 -15 8zM188 400q-13 0 -22 2.5t-17 9.5q0 19 10.5 55.5t10.5 53.5q0 6 -2 20l11 -15q5 -5 12.5 -0.5t11.5 1.5v-24q-5 0 -6 1q-9 1 -14 1q-9 0 -10 -6q13 0 20.5 -1.5t13.5 -8.5q-3 -14 -6 -40.5t-6 -39.5zM259 403q-5 2 -7 11h6q2 -4 10 -4h6q4 2 5 2 q-2 -6 -10.5 -7t-9.5 -2zM252 419l-7 27q-2 14 -4 27q0 14 11 18q15 3 18 3q6 0 7 -5q-11 -3 -23.5 -7t-10.5 -15q7 -11 11.5 -17t14.5 -3q8 0 11.5 6t6.5 17q3 -13 6 -27q0 -6 -3 -12q-6 -6 -17 -8t-21 -4zM138 435q-18 6 -30 10.5t-12 19.5q21 21 26 53q2 40 4 58 q2 -7 3.5 -12t7.5 -7q13 -10 23 6v-37q-11 4 -22 7q-5 0 -9 -4q3 -2 15 -5t15 -7q0 -17 -4 -35t-17 -47zM257 457q-4 6 -6 11t3 7q20 5 24 2q5 -11 -4 -14t-17 -6zM82 465q-18 5 -31 19t-17 31l17 6q-4 -5 -4 -14q0 -6 4 -9q3 1 3 7t5.5 11t15 27.5t17.5 30.5l5 -15 q3 -10 16 -8q2 -6 2 -12t-4 -7q-5 6 -14 6q-8 0 -16 -3q2 -3 12.5 -4t13.5 -4q7 -1 7 -7q0 -4 -2.5 -8t-6 -11t-7.5 -18q-7 -12 -16 -18zM218 491q-6 9 -6 17q0 12 13 24t25 23l16 32q-5 -13 -19.5 -23.5t-31.5 -24.5q-11 -1 -21.5 9.5t-19.5 20.5q-26 15 -32.5 40.5 t-6.5 64.5q-8 -12 -8 -29q0 -9 2.5 -22t3.5 -18q-7 15 -10 19.5t-4.5 13t-3.5 11.5q-3 -12 1.5 -23t15.5 -31q-6 -7 -20 -7q-12 0 -19 -1q-10 -4 -15.5 -15l-10.5 -21q-12 0 -25.5 0.5t-20.5 7.5l8 58q9 36 18 60t37 30q11 1 21 -1q13 -5 18 -7q5 2 11 -1.5t9 -0.5 q0 17 -0.5 32.5t-0.5 30.5q0 18 1 29q11 2 28 -6q-1 -9 1.5 -29t2.5 -23q0 -8 -1 -12l-20 2l-4 38l-3 -48q2 -3 0.5 -8.5t-3.5 -13.5q13 7 27 10t28 2q22 -11 40 -44q18 -40 27 -58q1 -8 1.5 -12.5t6.5 -5.5q1 -4 1 -10q0 -11 -8 -33t-8 -34q-4 -1 -18 -9t-23 -4zM26 521 q-2 6 -4 14t-1 14l44 -8q-17 -16 -39 -20zM178 537l-3 13q11 -4 14 -12q-6 0 -11 -1zM109 557l-2 -2zM144 563l6 -1q-2 -1 -4 0zM115 565h-13l-1 8h14v-8zM139 567q-9 0 -6 13q4 -1 14 2q2 -1 4 -12q-1 -2 -5.5 -2t-6.5 -1zM129 709v-4v4zM163 710l-7 -5l-1 4zM120 710 q-11 8 -28 8q-7 0 -19 -2q7 4 16 4q6 0 16 -2.5t15 -2.5v-5zM135 719q-9 33 -9 70l7 2zM183 721q0 7 -3 21t-3 22q0 7 3 15q0 -5 2 -21t2 -24q0 -9 -1 -13zM70 726q-2 12 -4 24.5t-2 14.5q0 8 1 12l46 8q0 -12 4 -32t4 -30q-15 4 -34 4q-10 0 -15 -1zM126 732l1 -6zM191 737 q-2 14 -4 27q0 6 3 11q2 -5 2 -15q-1 -16 -1 -23zM123 749l1 -11z"/>
</svg>