<?xml version="1.0" encoding="utf-8"?>
<!-- Generator: Adobe Illustrator 26.4.1, SVG Export Plug-In . SVG Version: 6.00 Build 0)  -->
<svg version="1.1" id="Layer_1" xmlns="http://www.w3.org/2000/svg" xmlns:xlink="http://www.w3.org/1999/xlink" x="0px" y="0px"
	 viewBox="0 0 417 417" style="enable-background:new 0 0 417 417;" xml:space="preserve">
<path d="M254.5,22c6.7-14.7,17.3-22,32-22c8,0,14.3,4,19,12c4-1.3,8.8-1.3,14.5,0s10.8,3.3,15.5,6c4,7.3,7.8,15.2,11.5,23.5
	s5.5,16.2,5.5,23.5c0,4.7-1.8,12.3-5.5,23s-6.8,18.2-9.5,22.5s-8.7,8.5-18,12.5c5.3,20.7,11,41.3,17,62c0,5.3-3.3,16.8-10,34.5
	s-15,37.3-25,59s-24.7,40.5-44,56.5c-0.7,4-1,10-1,18v18c0,10.7-1,21-3,31c-9.3,3.3-20.7,6.7-34,10s-25,5-35,5c-11.3,0-21-1.3-29-4
	l-51-9c-2.7-5.3-4-11.3-4-18c0-6,1.5-14.3,4.5-25s4.5-17.7,4.5-21c0-7.3-3-15-9-23s-11.7-20.7-17-38c-5.3-17.3-9.3-30.7-12-40
	c-2.7-22-5-44-7-66c0-10.7,0.8-19.5,2.5-26.5s5.5-16,11.5-27s14-21,24-30s22.3-14.8,37-17.5c2-7.3,9.7-13.8,23-19.5
	s21.7-11.2,25-16.5c2.7-6.7,6-12.2,10-16.5s8-7.2,12-8.5s9-2,15-2h19L254.5,22z M268.5,15c-4,4.7-6.7,10.7-8,18s-2,11.7-2,13
	c0,8.7,0.7,16.8,2,24.5s3,15.5,5,23.5c6,7.3,11.7,9.3,17,6c-0.7-5.3-0.3-12.3,1-21s2.7-17,4-25c1.3-3.3,1.3-8.3,0-15s-2-11-2-13
	c0-6,3.3-10.7,10-14c-3.3-3.3-7.3-5-12-5C276.8,7,271.8,9.7,268.5,15z M238.5,17c-8.7,0-16,0.8-22,2.5s-11.7,4.8-17,9.5
	c0,12.7,3.5,31.2,10.5,55.5s10.5,42.2,10.5,53.5c0,4-0.7,10.7-2,20l11-15c3.3-3.3,7.5-3.5,12.5-0.5s8.8,3.5,11.5,1.5v-24
	c-3.3,0-5.3,0.3-6,1c-6,0.7-10.7,1-14,1c-6,0-9.3-2-10-6c8.7,0,15.5-0.5,20.5-1.5s9.5-3.8,13.5-8.5c-2-9.3-4-22.8-6-40.5
	s-4-30.8-6-39.5L238.5,17z M309.5,20c-3.3,1.3-5.7,5-7,11h6c1.3-2.7,4.7-4,10-4h6c2.7,1.3,4.3,2,5,2c-1.3-4-4.8-6.3-10.5-7
	S310.2,20.7,309.5,20z M302.5,36l-7,27c-1.3,9.3-2.7,18.3-4,27c0,9.3,3.7,15.3,11,18c10,2,16,3,18,3c4,0,6.3-1.7,7-5
	c-7.3-2-15.2-4.3-23.5-7c-8.3-2.7-11.8-7.7-10.5-15c4.7-7.3,8.5-13,11.5-17s7.8-5,14.5-3c5.3,0,9.2,2,11.5,6s4.5,9.7,6.5,17
	c2-8.7,4-17.7,6-27c0-4-1-8-3-12c-4-4-9.7-6.7-17-8S309.2,37.3,302.5,36z M188.5,52c-12,4-22,7.5-30,10.5s-12,9.5-12,19.5
	c14,14,22.7,31.7,26,53c1.3,26.7,2.7,46,4,58c1.3-4.7,2.5-8.7,3.5-12s3.5-5.7,7.5-7c8.7-6.7,16.3-4.7,23,6v-37c-7.3,2.7-14.7,5-22,7
	c-3.3,0-6.3-1.3-9-4c2-1.3,7-3,15-5s13-4.3,15-7c0-11.3-1.3-23-4-35S197.2,71.3,188.5,52z M307.5,74c-2.7,4-4.7,7.7-6,11
	s-0.3,5.7,3,7c13.3,3.3,21.3,4,24,2c3.3-7.3,2-12-4-14S312.8,76,307.5,74z M132.5,82c-12,3.3-22.3,9.7-31,19s-14.3,19.7-17,31l17,6
	c-2.7-3.3-4-8-4-14c0-4,1.3-7,4-9c2,0.7,3,3,3,7s1.8,7.7,5.5,11s8.7,12.5,15,27.5c6.3,15,12.2,25.2,17.5,30.5l5-15
	c2-6.7,7.3-9.3,16-8c1.3-4,2-8,2-12s-1.3-6.3-4-7c-3.3,4-8,6-14,6c-5.3,0-10.7-1-16-3c1.3-2,5.5-3.3,12.5-4s11.5-2,13.5-4
	c4.7-0.7,7-3,7-7c0-2.7-0.8-5.3-2.5-8c-1.7-2.7-3.7-6.3-6-11s-4.8-10.7-7.5-18C143.8,92,138.5,86,132.5,82z M268.5,108
	c-4,6-6,11.7-6,17c0,8,4.3,16,13,24s17,15.7,25,23l16,32c-3.3-8.7-9.8-16.5-19.5-23.5c-9.7-7-20.2-15.2-31.5-24.5
	c-7.3-0.7-14.5,2.5-21.5,9.5s-13.5,13.8-19.5,20.5c-17.3,10-28.2,23.5-32.5,40.5s-6.5,38.5-6.5,64.5c-5.3-8-8-17.7-8-29
	c0-6,0.8-13.3,2.5-22c1.7-8.7,2.8-14.7,3.5-18c-4.7,10-8,16.5-10,19.5s-3.5,7.3-4.5,13s-2.2,9.5-3.5,11.5c-2-8-1.5-15.7,1.5-23
	s8.2-17.7,15.5-31c-4-4.7-10.7-7-20-7c-8,0-14.3-0.3-19-1c-6.7-2.7-11.8-7.7-15.5-15l-10.5-21c-8,0-16.5,0.2-25.5,0.5
	s-15.8,2.8-20.5,7.5l8,58c6,24,12,44,18,60s18.3,26,37,30c7.3,0.7,14.3,0.3,21-1c8.7-3.3,14.7-5.7,18-7c3.3,1.3,7,0.8,11-1.5
	s7-2.5,9-0.5c0,11.3-0.2,22.2-0.5,32.5s-0.5,20.5-0.5,30.5c0,12,0.3,21.7,1,29c7.3,1.3,16.7-0.7,28-6c-0.7-6-0.2-15.7,1.5-29
	s2.5-21,2.5-23c0-5.3-0.3-9.3-1-12l-20,2l-4,38l-3-48c1.3-2,1.5-4.8,0.5-8.5s-2.2-8.2-3.5-13.5c8.7,4.7,17.7,8,27,10s18.7,2.7,28,2
	c14.7-7.3,28-22,40-44c12-26.7,21-46,27-58c0.7-5.3,1.2-9.5,1.5-12.5s2.5-4.8,6.5-5.5c0.7-2.7,1-6,1-10c0-7.3-2.7-18.3-8-33
	s-8-26-8-34c-2.7-0.7-8.7-3.7-18-9S274.5,105.3,268.5,108z M76.5,138c-1.3,4-2.7,8.7-4,14s-1.7,10-1,14l44-8
	C104.2,147.3,91.2,140.7,76.5,138z M228.5,154l-3,13c7.3-2.7,12-6.7,14-12C235.5,155,231.8,154.7,228.5,154z M159.5,174l-2-2
	L159.5,174z M194.5,180l6-1c-1.3-0.7-2.7-0.7-4,0L194.5,180z M165.5,182h-13l-1,8h14V182z M189.5,184c-6,0-8,4.3-6,13
	c2.7-0.7,7.3,0,14,2c1.3-0.7,2.7-4.7,4-12c-0.7-1.3-2.5-2-5.5-2S190.8,184.7,189.5,184z M179.5,326v-4V326z M213.5,327l-7-5l-1,4
	L213.5,327z M170.5,327c-7.3,5.3-16.7,8-28,8c-4.7,0-11-0.7-19-2c4.7,2.7,10,4,16,4c4,0,9.3-0.8,16-2.5s11.7-2.5,15-2.5V327z
	 M185.5,336c-6,22-9,45.3-9,70l7,2L185.5,336z M233.5,338c0,4.7-1,11.7-3,21s-3,16.7-3,22c0,4.7,1,9.7,3,15c0-3.3,0.7-10.3,2-21
	s2-18.7,2-24C234.5,345,234.2,340.7,233.5,338z M120.5,343c-1.3,8-2.7,16.2-4,24.5s-2,13.2-2,14.5c0,5.3,0.3,9.3,1,12l46,8
	c0-8,1.3-18.7,4-32s4-23.3,4-30c-10,2.7-21.3,4-34,4C128.8,344,123.8,343.7,120.5,343z M176.5,349l1-6L176.5,349z M241.5,354
	c-1.3,9.3-2.7,18.3-4,27c0,4,1,7.7,3,11c1.3-3.3,2-8.3,2-15C241.8,366.3,241.5,358.7,241.5,354z M173.5,366l1-11L173.5,366z"/>
</svg>
