<?xml version="1.0" encoding="utf-8"?>
<!-- Generator: Adobe Illustrator 26.4.1, SVG Export Plug-In . SVG Version: 6.00 Build 0)  -->
<svg version="1.1" id="Layer_1" xmlns="http://www.w3.org/2000/svg" xmlns:xlink="http://www.w3.org/1999/xlink" x="0px" y="0px"
	 viewBox="0 0 668 668" style="enable-background:new 0 0 668 668;" xml:space="preserve">
<path d="M396.5,0c12,0,22,6.7,30,20c0.7,5.3,1.2,9.7,1.5,13s2.8,5,7.5,5c4.7-1.3,9-1.3,13,0s8.7,4.7,14,10c4.7,14,7,28.7,7,44
	c0,10-1.3,25-4,45s-4,35.3-4,46c0,6.7,0.3,11.7,1,15c-5.3,36-10.3,72-15,108c0,8,0.8,15.5,2.5,22.5s5.5,22,11.5,45s9,40.2,9,51.5
	c0,9.3-0.3,15.8-1,19.5s-2.7,8.5-6,14.5s-9.8,20.7-19.5,44c-9.7,23.3-20.8,39-33.5,47c-5.3,12-9.8,26-13.5,42s-7.8,35.7-12.5,59
	c-2,2.7-5,4.3-9,5s-11.5,2.8-22.5,6.5s-26.2,5.5-45.5,5.5c-13.3,0-25.8-1.7-37.5-5s-21.8-8.5-30.5-15.5c-8.7-7-15.5-12.8-20.5-17.5
	s-7.5-10-7.5-16c0-4.7,1.7-8.7,5-12c8.7-12,13-25,13-39c0-10-4.3-26.8-13-50.5s-13-40.5-13-50.5c0-6.7,0.3-11.7,1-15
	c0.7-7.3-0.3-21.5-3-42.5s-4-33.2-4-36.5c0-12.7,2.2-23.3,6.5-32s12.5-15.7,24.5-21c12,1.3,20.8-3.7,26.5-15s11.3-23,17-35
	s11.8-23.7,18.5-35s16.7-17,30-17c6.7-29.3,12.3-53.5,17-72.5s9.8-33.8,15.5-44.5s10.5-28.3,14.5-53S381.2,4,396.5,0z M382.5,14
	c0,10.7-2.7,25.5-8,44.5s-8,30.2-8,33.5c6.7,0.7,13.5,1.3,20.5,2s13.2,2.7,18.5,6c10-18.7,15-38.3,15-59c0-8-1-15.7-3-23
	c-5.3-5.3-12-8-20-8C392.2,10,387.2,11.3,382.5,14z M428.5,51c0,8.7-2.7,20.7-8,36s-8,27.3-8,36l44,1c1.3-7.3,2-17,2-29
	c-0.7-16-1-28.3-1-37c-3.3-6.7-9.7-10-19-10C435.2,48,431.8,49,428.5,51z M369.5,101c-8,4.7-14.3,13-19,25c-4,14.7-6.7,25.3-8,32
	c5.3-1.3,9.3-2,12-2c4.7,0,11.5,1.8,20.5,5.5s14.8,5.8,17.5,6.5l12-58c-3.3-4-7.5-6.5-12.5-7.5S379.5,101,369.5,101z M414.5,131
	c-5.3,5.3-8.5,13.8-9.5,25.5s-1.8,20.2-2.5,25.5l50,4l2-48c-5.3-4.7-15.3-7-30-7H414.5z M372.5,168l-14-3L372.5,168z M339.5,168
	l-9,42c6.7,0.7,12.7,3.7,18,9s9.3,11.7,12,19c7.3,3.3,12.7,3,16-1c2-9.3,4.5-20.5,7.5-33.5s4.5-20.8,4.5-23.5L339.5,168z M399.5,192
	c-3.3,7.3-5.8,16.2-7.5,26.5s-2.5,17.5-2.5,21.5c6,6,15.3,12,28,18s20.3,10,23,12c5.3-23.3,8-45.7,8-67c-8.7-1.3-15.8-2.5-21.5-3.5
	S412.2,196,399.5,192z M334.5,222c-15.3,0-26,1.5-32,4.5s-10,8.2-12,15.5c4,0.7,6,3.7,6,9c-0.7,5.3-1,10.3-1,15
	c7.3,14,15.5,28.7,24.5,44s14.7,28.7,17,40s4.2,20.3,5.5,27c1.3,6.7,5.3,12.3,12,17c4.7,4.7,11.3,4,20-2c-6.7,0-12-1.7-16-5
	c-0.7-6.7-1.7-15-3-25s-5.7-19.3-13-28c-4,0.7-7.3-0.7-10-4c3.3-3.3,5.8-8.5,7.5-15.5s3.8-15.2,6.5-24.5c7.3-4,11-10.7,11-20
	c0-5.3-1-11-3-17s-4-11.7-6-17L334.5,222z M366.5,252l1,14c8.7,2,20.2,10,34.5,24s25.8,22.3,34.5,25l2-28c-8.7-10-19.3-18-32-24
	S380.5,253.3,366.5,252z M286.5,253l-19,42c2.7-1.3,7.3-3,14-5s11-4,13-6c-6-3.3-9-8.7-9-16C286.2,261.3,286.5,256.3,286.5,253z
	 M377.5,283c-8.7,6.7-12,12.3-10,17c-1.3,4.7,0,8.7,4,12s6.7,5.7,8,7c5.3,2.7,9,1.8,11-2.5s4-8.5,6-12.5c-4.7-7.3-8.3-12.7-11-16
	S380.2,283,377.5,283z M350.5,316c0,10.7,3,20,9,28c9.3,10,16,17.3,20,22c10,2,18.7,10.3,26,25c7.3,14.7,15.7,23,25,25
	c-5.3,1.3-9.7,2.3-13,3c2,5.3,7.2,11.2,15.5,17.5c8.3,6.3,12.8,11.5,13.5,15.5c-8.7-4.7-16.3-8.8-23-12.5s-11.7-7.8-15-12.5l11,15
	l-2,3c-8.7-2-15.2-6.8-19.5-14.5s-8.2-17.2-11.5-28.5c-14.7,2-25.5,7.8-32.5,17.5s-11.2,17.7-12.5,24s-2,13.2-2,20.5
	c0,8,0.7,16.5,2,25.5s3.7,19.8,7,32.5c-3.3-0.7-6.3-3.3-9-8s-4.3-7.3-5-8v14l-4-1c-4-14-6-26.7-6-38c0-6.7,0.5-14.3,1.5-23
	s1.8-15.3,2.5-20c-6-1.3-11-1.7-15-1c-4,8.7-6.8,18-8.5,28s-3.2,21.7-4.5,35c-3.3-5.3-5-11.3-5-18c0-5.3,1.7-13.7,5-25s5-19.7,5-25
	c-4,4.7-9.8,13.5-17.5,26.5s-12.5,20.8-14.5,23.5c0.7-8.7,4.8-20.3,12.5-35s12.2-24.3,13.5-29l-9-18c-3.3-12.7-10-19-20-19
	c-18,3.3-35.7,6.3-53,9l50-18l-1-4c-12-4-21.8-7.3-29.5-10s-13.8-7-18.5-13l3-3c14.7,6.7,27.7,9.3,39,8c-2-6-3-10.7-3-14
	s1.7-5.3,5-6c4.7,12,9.5,22.8,14.5,32.5s11.2,16.2,18.5,19.5c0.7,8.7,3.5,16.3,8.5,23s12.5,14.7,22.5,24c2-1.3,4.3-3,7-5
	c-4-6.7-4.3-12-1-16s5-9,5-15c0-5.3-0.8-10.2-2.5-14.5c-1.7-4.3-4.2-11.2-7.5-20.5s-6.7-20-10-32c-5.3-14-12.3-24-21-30
	c-6.7,0-11.5,1.8-14.5,5.5s-7.2,10.5-12.5,20.5c-2-0.7-3-2.2-3-4.5V310c-16,4.7-30,11.3-42,20s-18.7,20-20,34
	c1.3,6,4.8,33.3,10.5,82s15.2,83.7,28.5,105c4,3.3,9.3,5.7,16,7s13.3,2,20,2c12-0.7,20.7-1,26-1c1.3-0.7,4.3-3.2,9-7.5
	c4.7-4.3,9-6.8,13-7.5c1.3,10.7,0.3,20-3,28c0-3.3,2.2-9,6.5-17s6.5-13,6.5-15c0-4-2.3-8-7-12c3.3-3.3,5.3-4.7,6-4
	c12.7,10,28.7,15,48,15c8,0,14.2-0.5,18.5-1.5s8.2-3.2,11.5-6.5s8-11,14-23c8.7-14,16.3-30,23-48s10-34.3,10-49
	c0-18.7-5.7-35.7-17-51l-13,15c-9.3,4-15.7,4.3-19,1l7-10c-0.7-4.7,1.8-10.7,7.5-18s8.8-11.7,9.5-13c-1.3-4-4.7-7.8-10-11.5
	s-9.3-6.8-12-9.5c-3.3-0.7-6.5,1-9.5,5s-5.8,7.7-8.5,11c-6.7,3.3-13,2.5-19-2.5s-11.7-10.2-17-15.5c-1.3-4-2-7.7-2-11
	c0-6,2-11.7,6-17c-3.3,3.3-6.3,8.7-9,16S351.2,312.7,350.5,316z M434.5,349c-7.3,5.3-10,9.7-8,13L434.5,349z M366.5,374
	c0,3.3,1,6.2,3,8.5s4.3,2.2,7-0.5L366.5,374z M339.5,408c0.7,4,1.7,7.7,3,11c4.7-4.7,6.7-7.7,6-9c0.7-3.3,0-4.8-2-4.5
	S342.2,406.7,339.5,408z M372.5,554l-5-2L372.5,554z M338.5,554c-6,16.7-12,33.5-18,50.5s-9.7,32.8-11,47.5l13,1
	c0-14,2.5-32.8,7.5-56.5S337.8,558.7,338.5,554z M349.5,560l-18,92c5.3-1.3,9.8-2.3,13.5-3s6.2-2.3,7.5-5l18-78
	C363.2,564,356.2,562,349.5,560z M382.5,564c-6,14.7-11,28.5-15,41.5s-6,25.5-6,37.5h4c1.3-11.3,4.3-26.2,9-44.5
	S381.8,568.7,382.5,564z M242.5,571l-15,47c10.7,10.7,21.3,19,32,25s22.3,9,35,9l20-81l-48,10C257.2,581,249.2,577.7,242.5,571z
	 M308.5,377c4.7-6.7,11-9,19-7c-0.7,2.7-2.8,4.7-6.5,6s-7.2,2.7-10.5,4L308.5,377z"/>
</svg>
