<svg xmlns="http://www.w3.org/2000/svg" xmlns:xlink="http://www.w3.org/1999/xlink" version="1.1" viewBox="14 133 273 668">
   <path fill="currentColor" d="M213 133q18 0 30 20q1 8 1.5 13t7.5 5q7 -2 13 0t14 10q7 21 7 44q0 15 -4 45t-4 46q0 10 1 15q-8 54 -15 108q0 12 2.5 22.5t11.5 45t9 51.5q0 14 -1 19.5t-6 14.5t-19.5 44t-33.5 47q-8 18 -13.5 42t-12.5 59q-3 4 -9 5t-22.5 6.5t-45.5 5.5q-20 0 -37.5 -5 t-30.5 -15.5t-20.5 -17.5t-7.5 -16q0 -7 5 -12q13 -18 13 -39q0 -15 -13 -50.5t-13 -50.5q0 -10 1 -15q1 -11 -3 -42.5t-4 -36.5q0 -19 6.5 -32t24.5 -21q18 2 26.5 -15t17 -35t18.5 -35t30 -17q10 -44 17 -72.5t15.5 -44.5t14.5 -53t29 -43zM199 147q0 16 -8 44.5t-8 33.5 q10 1 20.5 2t18.5 6q15 -28 15 -59q0 -12 -3 -23q-8 -8 -20 -8q-8 0 -15 4zM245 184q0 13 -8 36t-8 36l44 1q2 -11 2 -29q-1 -24 -1 -37q-5 -10 -19 -10q-5 0 -10 3zM186 234q-12 7 -19 25q-6 22 -8 32q8 -2 12 -2q7 0 20.5 5.5t17.5 6.5l12 -58q-5 -6 -12.5 -7.5 t-22.5 -1.5zM231 264q-8 8 -9.5 25.5t-2.5 25.5l50 4l2 -48q-8 -7 -30 -7h-10zM189 301l-14 -3zM156 301l-9 42q10 1 18 9t12 19q11 5 16 -1q3 -14 7.5 -33.5t4.5 -23.5zM216 325q-5 11 -7.5 26.5t-2.5 21.5q9 9 28 18t23 12q8 -35 8 -67q-13 -2 -21.5 -3.5t-27.5 -7.5z M151 355q-23 0 -32 4.5t-12 15.5q6 1 6 9q-1 8 -1 15q11 21 24.5 44t17 40t5.5 27t12 17q7 7 20 -2q-10 0 -16 -5q-1 -10 -3 -25t-13 -28q-6 1 -10 -4q5 -5 7.5 -15.5t6.5 -24.5q11 -6 11 -20q0 -8 -3 -17t-6 -17zM183 385l1 14q13 3 34.5 24t34.5 25l2 -28q-13 -15 -32 -24 t-40 -11zM103 386l-19 42q4 -2 14 -5t13 -6q-9 -5 -9 -16q1 -10 1 -15zM194 416q-13 10 -10 17q-2 7 4 12t8 7q8 4 11 -2.5t6 -12.5q-7 -11 -11 -16t-8 -5zM167 449q0 16 9 28q14 15 20 22q15 3 26 25t25 25q-8 2 -13 3q3 8 15.5 17.5t13.5 15.5q-13 -7 -23 -12.5t-15 -12.5 l11 15l-2 3q-13 -3 -19.5 -14.5t-11.5 -28.5q-22 3 -32.5 17.5t-12.5 24t-2 20.5q0 12 2 25.5t7 32.5q-5 -1 -9 -8t-5 -8v14l-4 -1q-6 -21 -6 -38q0 -10 1.5 -23t2.5 -20q-9 -2 -15 -1q-6 13 -8.5 28t-4.5 35q-5 -8 -5 -18q0 -8 5 -25t5 -25q-6 7 -17.5 26.5t-14.5 23.5 q1 -13 12.5 -35t13.5 -29l-9 -18q-5 -19 -20 -19q-27 5 -53 9l50 -18l-1 -4q-18 -6 -29.5 -10t-18.5 -13l3 -3q22 10 39 8q-3 -9 -3 -14t5 -6q7 18 14.5 32.5t18.5 19.5q1 13 8.5 23t22.5 24q3 -2 7 -5q-6 -10 -1 -16t5 -15q0 -8 -2.5 -14.5t-7.5 -20.5t-10 -32 q-8 -21 -21 -30q-10 0 -14.5 5.5t-12.5 20.5q-3 -1 -3 -4.5v-7.5q-24 7 -42 20t-20 34q2 9 10.5 82t28.5 105q6 5 16 7t20 2q18 -1 26 -1q2 -1 9 -7.5t13 -7.5q2 16 -3 28q0 -5 6.5 -17t6.5 -15q0 -6 -7 -12q5 -5 6 -4q19 15 48 15q12 0 18.5 -1.5t11.5 -6.5t14 -23 q13 -21 23 -48t10 -49q0 -28 -17 -51l-13 15q-14 6 -19 1l7 -10q-1 -7 7.5 -18t9.5 -13q-2 -6 -10 -11.5t-12 -9.5q-5 -1 -9.5 5t-8.5 11q-10 5 -19 -2.5t-17 -15.5q-2 -6 -2 -11q0 -9 6 -17q-5 5 -9 16t-5 16zM251 482q-11 8 -8 13zM183 507q0 5 3 8.5t7 -0.5zM156 541 q1 6 3 11q7 -7 6 -9q1 -5 -2 -4.5t-7 2.5zM189 687l-5 -2zM155 687q-9 25 -18 50.5t-11 47.5l13 1q0 -21 7.5 -56.5t8.5 -42.5zM166 693l-18 92q8 -2 13.5 -3t7.5 -5l18 -78q-11 -3 -21 -6zM199 697q-9 22 -15 41.5t-6 37.5h4q2 -17 9 -44.5t8 -34.5zM59 704l-15 47 q16 16 32 25t35 9l20 -81l-48 10q-14 0 -24 -10zM125 510q7 -10 19 -7q-1 4 -6.5 6t-10.5 4z"/>
</svg>