<svg xmlns="http://www.w3.org/2000/svg" xmlns:xlink="http://www.w3.org/1999/xlink" version="1.1" viewBox="15 139.5 277 659.5">
   <path  d="M153 140q9 -2 17.5 4t11.5 20.5t3 38.5q0 17 -3 51t-3 52q1 5 1 15q0 9 -1 20t-1 12q0 9 3 18q2 2 7.5 2h7.5q4 -6 7.5 -22t13 -45.5t15.5 -58.5t6 -52q4 -13 22 -13q6 0 14.5 3t13 13.5t4.5 27.5q-1 14 -1 21q-6 41 -6 82q-13 28 -17.5 65t-4.5 80v21q5 4 9 15.5t7 16.5 q-8 57 -13.5 80t-24.5 44q-13 62 -26 123q-15 10 -26.5 16t-25.5 9h-12q-22 0 -37 -5.5t-60 -30.5q-2 -8 3.5 -23t5.5 -18q7 -13 7 -25q0 -15 -20 -51t-21 -43q0 -18 -7 -51t-7 -52v-14q5 -9 25.5 -26t24.5 -35.5t7 -36t19 -25.5q21 -2 21 -23q-3 -22 -3 -33q0 -4 2 -12 q8 -70 17 -140q5 -5 11.5 -9.5t13.5 -5.5zM154 147q-13 3 -18.5 12t-5.5 22q2 21 2 31q0 9 -3 18h43l5 -30q-2 -15 -4 -31q-5 -18 -19 -22zM247 194q-5 10 -5 28q1 23 1 32q9 0 18 3t18 5q2 -10 2 -28v-27q0 -8 -6 -12t-14 -4t-14 3zM172 243q-4 -8 -14 -8q-17 3 -25 3 q-9 8 -10.5 29.5t-3.5 27.5q3 1 15 0t25 -2q5 0 13 2q2 -12 2 -18q-2 -21 -2 -34zM244 261q-9 9 -14 31t-7 27q13 2 26 3q15 3 19 13q-6 4 -16 0.5t-15 -8.5q-15 0 -20.5 4t-5.5 26v11q9 0 24 10.5t22 11.5q9 -28 14.5 -58t5.5 -58q-7 0 -16 -7t-17 -6zM157 299l-12 -1z M121 305q-3 9 -3 18q0 11 2 18.5t3 11.5q6 -1 11 5.5t10 11.5q12 -3 24 -7q-1 -9 0 -26t1 -18q0 -10 -1 -14q-8 0 -16 0.5t-16 0.5q-10 0 -15 -1zM101 365q-8 4 -13.5 13t-2.5 19l-7 -4v6q9 17 24 36t19.5 25t12 31.5t21.5 31.5q-4 -13 -7.5 -22t-10.5 -15q-13 -18 -13 -43 q0 -9 2 -15t12.5 -16.5t5.5 -18.5q-6 -12 -13.5 -21.5t-17.5 -9.5q-6 0 -12 3zM167 371l-3 -1zM193 382q-22 -1 -33 -1h-9q0 15 16.5 26l31.5 21l52 1q3 -6 3 -11q0 -9 -6.5 -16t-19.5 -15t-23 -8q-6 0 -12 3zM77 413q-4 9 -6 14.5t0 9.5l14 -6q-4 -4 -7 -9t-1 -9zM141 418 q-6 3 -7 11t-1 14q0 -5 4 -14t4 -11zM154 418q-11 7 -11 23q0 5 2 13q11 6 21 3q-1 -6 2.5 -14t6.5 -16q-14 -10 -21 -9zM223 431l-14 2q14 4 24.5 12.5t17.5 21.5v-12q6 -13 -5.5 -14.5t-22.5 -3.5v-6zM204 441q-5 -4 -10 -4q-7 0 -11.5 14t-9.5 16q-14 0 -21 -1.5 t-16 -7.5q3 25 39.5 42t41.5 22q-8 5 -18 3q6 8 24.5 18.5t24.5 16.5q-4 1 -7 1l-15 -6t-15 -5q5 2 4 7q-12 1 -21 -12t-13 -18l-16 12q-6 20 -9 33.5t-3 28.5q0 12 1 18l29 36q29 5 55 -13q6 -7 10.5 -20.5t10.5 -30.5q2 -12 4 -26.5t2 -25.5q0 -20 -4.5 -32.5t-19.5 -25.5 l-18 16q0 -4 8.5 -12.5t5.5 -14.5q-6 9 -13 18.5t-15 9.5q0 -27 20 -36l-10 24q4 -4 7.5 -10t4.5 -16q-4 -7 -12 -11t-15 -8zM96 444q-12 -5 -18.5 8.5t-12.5 15.5l-4 -4l2 -9q-25 14 -39 31q-3 8 -3 17q0 8 2.5 17t7.5 19q0 26 10 58t40 84q11 4 26 4q35 0 62 -22l2 -3 q-8 -5 -19 -16.5t-16 -15.5q-2 -7 -2 -21q0 -8 1.5 -18.5t1.5 -15.5l-2 -4q-10 -1 -13 11t-5 23q-3 -6 -3 -10q0 -3 3 -13t2 -16q-9 -6 -17.5 -17t-18.5 -26q-6 1 -20 9.5t-23 5.5q6 -6 20 -12.5t17 -8.5q2 -11 -12 -11q-24 0 -26 -8q4 -2 12 0.5t12 0.5q-6 -7 -3 -9 q16 8 23 12.5t9 12.5q2 2 15.5 22t24.5 23l-3 -7q-3 -18 7 -28q-3 -3 -7 -13t-8 -12l-10 7l5 6l-3 2q-10 0 -12 -2q7 -14 22 -18l-13 -30zM161 505q-5 7 3 10q9 4 12 -1zM147 539q-1 -2 -10 1q0 10 2 13q4 1 12 -3q0 -7 -4 -11zM181 667v8q16 0 23 -4zM217 676h-4l-7 37z M165 677q-5 7 -7 22.5t-3 27.5zM201 680q-3 2 -11.5 3t-11.5 3q-6 31 -9 51t-3 42q5 0 10 -3l10 -6q0 -14 7.5 -46t7.5 -44zM171 683q-9 27 -13.5 50t-4.5 47q9 -48 18 -97zM149 688q-4 15 -23.5 16t-32.5 1q-5 0 -6 -6t-8 -4q-5 11 -8.5 33.5t-5.5 29.5q30 12 61 24 q4 0 12 -2q7 -46 15 -92h-4zM149 755l4 -12zM199 761l1 -13z"/>
</svg>