<?xml version="1.0" encoding="utf-8"?>
<!-- Generator: Adobe Illustrator 26.4.1, SVG Export Plug-In . SVG Version: 6.00 Build 0)  -->
<svg version="1.1" id="Layer_1" xmlns="http://www.w3.org/2000/svg" xmlns:xlink="http://www.w3.org/1999/xlink" x="0px" y="0px"
	 viewBox="0 0 659.5 659.5" style="enable-background:new 0 0 659.5 659.5;" xml:space="preserve">
<path d="M329.2,0.5c6-1.3,11.8,0,17.5,4s9.5,10.8,11.5,20.5s3,22.5,3,38.5c0,11.3-1,28.3-3,51s-3,40-3,52c0.7,3.3,1,8.3,1,15
	c0,6-0.3,12.7-1,20s-1,11.3-1,12c0,6,1,12,3,18c1.3,1.3,3.8,2,7.5,2h7.5c2.7-4,5.2-11.3,7.5-22s6.7-25.8,13-45.5
	s11.5-39.2,15.5-58.5s6-36.7,6-52c2.7-8.7,10-13,22-13c4,0,8.8,1,14.5,3s10,6.5,13,13.5s4.5,16.2,4.5,27.5c-0.7,9.3-1,16.3-1,21
	c-4,27.3-6,54.7-6,82c-8.7,18.7-14.5,40.3-17.5,65s-4.5,51.3-4.5,80v21c3.3,2.7,6.3,7.8,9,15.5c2.7,7.7,5,13.2,7,16.5
	c-5.3,38-9.8,64.7-13.5,80s-11.8,30-24.5,44c-8.7,41.3-17.3,82.3-26,123c-10,6.7-18.8,12-26.5,16s-16.2,7-25.5,9h-12
	c-14.7,0-27-1.8-37-5.5s-30-13.8-60-30.5c-1.3-5.3-0.2-13,3.5-23s5.5-16,5.5-18c4.7-8.7,7-17,7-25c0-10-6.7-27-20-51
	s-20.3-38.3-21-43c0-12-2.3-29-7-51s-7-39.3-7-52v-14c3.3-6,11.8-14.7,25.5-26s21.8-23.2,24.5-35.5c2.7-12.3,5-24.3,7-36
	s8.3-20.2,19-25.5c14-1.3,21-9,21-23c-2-14.7-3-25.7-3-33c0-2.7,0.7-6.7,2-12c5.3-46.7,11-93.3,17-140c3.3-3.3,7.2-6.5,11.5-9.5
	S324.6,1.2,329.2,0.5z M330.2,7.5c-8.7,2-14.8,6-18.5,12s-5.5,13.3-5.5,22c1.3,14,2,24.3,2,31c0,6-1,12-3,18h43l5-30
	c-1.3-10-2.7-20.3-4-31C345.9,17.5,339.6,10.2,330.2,7.5z M423.2,54.5c-3.3,6.7-5,16-5,28c0.7,15.3,1,26,1,32c6,0,12,1,18,3
	s12,3.7,18,5c1.3-6.7,2-16,2-28v-27c0-5.3-2-9.3-6-12s-8.7-4-14-4C431.9,51.5,427.2,52.5,423.2,54.5z M348.2,103.5
	c-2.7-5.3-7.3-8-14-8c-11.3,2-19.7,3-25,3c-6,5.3-9.5,15.2-10.5,29.5c-1,14.3-2.2,23.5-3.5,27.5c2,0.7,7,0.7,15,0s16.3-1.3,25-2
	c3.3,0,7.7,0.7,13,2c1.3-8,2-14,2-18C348.9,123.5,348.2,112.2,348.2,103.5z M420.2,121.5c-6,6-10.7,16.3-14,31s-5.7,23.7-7,27
	c8.7,1.3,17.3,2.3,26,3c10,2,16.3,6.3,19,13c-4,2.7-9.3,2.8-16,0.5c-6.7-2.3-11.7-5.2-15-8.5c-10,0-16.8,1.3-20.5,4
	s-5.5,11.3-5.5,26v11c6,0,14,3.5,24,10.5s17.3,10.8,22,11.5c6-18.7,10.8-38,14.5-58s5.5-39.3,5.5-58c-4.7,0-10-2.3-16-7
	S425.6,120.8,420.2,121.5z M333.2,159.5l-12-1L333.2,159.5z M297.2,165.5c-2,6-3,12-3,18c0,7.3,0.7,13.5,2,18.5s2.3,8.8,3,11.5
	c4-0.7,7.7,1.2,11,5.5s6.7,8.2,10,11.5c8-2,16-4.3,24-7c-0.7-6-0.7-14.7,0-26s1-17.3,1-18c0-6.7-0.3-11.3-1-14
	c-5.3,0-10.7,0.2-16,0.5s-10.7,0.5-16,0.5C305.6,166.5,300.6,166.2,297.2,165.5z M277.2,225.5c-5.3,2.7-9.8,7-13.5,13
	s-4.5,12.3-2.5,19l-7-4v6c6,11.3,14,23.3,24,36s16.5,21,19.5,25s7,14.5,12,31.5s12.2,27.5,21.5,31.5c-2.7-8.7-5.2-16-7.5-22
	s-5.8-11-10.5-15c-8.7-12-13-26.3-13-43c0-6,0.7-11,2-15s5.5-9.5,12.5-16.5s8.8-13.2,5.5-18.5c-4-8-8.5-15.2-13.5-21.5
	s-10.8-9.5-17.5-9.5C285.2,222.5,281.2,223.5,277.2,225.5z M343.2,231.5l-3-1L343.2,231.5z M369.2,242.5c-14.7-0.7-25.7-1-33-1h-9
	c0,10,5.5,18.7,16.5,26l31.5,21l52,1c2-4,3-7.7,3-11c0-6-2.2-11.3-6.5-16s-10.8-9.7-19.5-15s-16.3-8-23-8
	C377.2,239.5,373.2,240.5,369.2,242.5z M253.2,273.5c-2.7,6-4.7,10.8-6,14.5s-1.3,6.8,0,9.5l14-6c-2.7-2.7-5-5.7-7-9
	S251.9,276.2,253.2,273.5z M317.2,278.5c-4,2-6.3,5.7-7,11s-1,10-1,14c0-3.3,1.3-8,4-14S317.2,279.8,317.2,278.5z M330.2,278.5
	c-7.3,4.7-11,12.3-11,23c0,3.3,0.7,7.7,2,13c7.3,4,14.3,5,21,3c-0.7-4,0.2-8.7,2.5-14s4.5-10.7,6.5-16
	C341.9,280.8,334.9,277.8,330.2,278.5z M399.2,291.5l-14,2c9.3,2.7,17.5,6.8,24.5,12.5s12.8,12.8,17.5,21.5v-12
	c4-8.7,2.2-13.5-5.5-14.5s-15.2-2.2-22.5-3.5V291.5z M380.2,301.5c-3.3-2.7-6.7-4-10-4c-4.7,0-8.5,4.7-11.5,14s-6.2,14.7-9.5,16
	c-9.3,0-16.3-0.5-21-1.5s-10-3.5-16-7.5c2,16.7,15.2,30.7,39.5,42s38.2,18.7,41.5,22c-5.3,3.3-11.3,4.3-18,3
	c4,5.3,12.2,11.5,24.5,18.5s20.5,12.5,24.5,16.5c-2.7,0.7-5,1-7,1l-15-6c0,0-5-1.7-15-5c3.3,1.3,4.7,3.7,4,7c-8,0.7-15-3.3-21-12
	s-10.3-14.7-13-18l-16,12c-4,13.3-7,24.5-9,33.5s-3,18.5-3,28.5c0,8,0.3,14,1,18l29,36c19.3,3.3,37.7-1,55-13
	c4-4.7,7.5-11.5,10.5-20.5s6.5-19.2,10.5-30.5c1.3-8,2.7-16.8,4-26.5s2-18.2,2-25.5c0-13.3-1.5-24.2-4.5-32.5
	c-3-8.3-9.5-16.8-19.5-25.5l-18,16c0-2.7,2.8-6.8,8.5-12.5s7.5-10.5,5.5-14.5c-4,6-8.3,12.2-13,18.5s-9.7,9.5-15,9.5
	c0-18,6.7-30,20-36l-10,24c2.7-2.7,5.2-6,7.5-10s3.8-9.3,4.5-16c-2.7-4.7-6.7-8.3-12-11S384.9,304.2,380.2,301.5z M272.2,304.5
	c-8-3.3-14.2-0.5-18.5,8.5s-8.5,14.2-12.5,15.5l-4-4l2-9c-16.7,9.3-29.7,19.7-39,31c-2,5.3-3,11-3,17c0,5.3,0.8,11,2.5,17
	s4.2,12.3,7.5,19c0,17.3,3.3,36.7,10,58s20,49.3,40,84c7.3,2.7,16,4,26,4c23.3,0,44-7.3,62-22l2-3c-5.3-3.3-11.7-8.8-19-16.5
	s-12.7-12.8-16-15.5c-1.3-4.7-2-11.7-2-21c0-5.3,0.5-11.5,1.5-18.5s1.5-12.2,1.5-15.5l-2-4c-6.7-0.7-11,3-13,11s-3.7,15.7-5,23
	c-2-4-3-7.3-3-10c0-2,1-6.3,3-13s2.7-12,2-16c-6-4-11.8-9.7-17.5-17s-11.8-16-18.5-26c-4,0.7-10.7,3.8-20,9.5
	c-9.3,5.7-17,7.5-23,5.5c4-4,10.7-8.2,20-12.5c9.3-4.3,15-7.2,17-8.5c1.3-7.3-2.7-11-12-11c-16,0-24.7-2.7-26-8
	c2.7-1.3,6.7-1.2,12,0.5s9.3,1.8,12,0.5c-4-4.7-5-7.7-3-9c10.7,5.3,18.3,9.5,23,12.5s7.7,7.2,9,12.5c1.3,1.3,6.5,8.7,15.5,22
	s17.2,21,24.5,23l-3-7c-2-12,0.3-21.3,7-28c-2-2-4.3-6.3-7-13c-2.7-6.7-5.3-10.7-8-12l-10,7l5,6l-3,2c-6.7,0-10.7-0.7-12-2
	c4.7-9.3,12-15.3,22-18l-13-30L272.2,304.5z M337.2,365.5c-3.3,4.7-2.3,8,3,10c6,2.7,10,2.3,12-1L337.2,365.5z M323.2,399.5
	c-0.7-1.3-4-1-10,1c0,6.7,0.7,11,2,13c2.7,0.7,6.7-0.3,12-3C327.2,405.8,325.9,402.2,323.2,399.5z M357.2,527.5v8
	c10.7,0,18.3-1.3,23-4L357.2,527.5z M393.2,536.5h-4l-7,37L393.2,536.5z M341.2,537.5c-3.3,4.7-5.7,12.2-7,22.5s-2.3,19.5-3,27.5
	L341.2,537.5z M377.2,540.5c-2,1.3-5.8,2.3-11.5,3s-9.5,1.7-11.5,3c-4,20.7-7,37.7-9,51s-3,27.3-3,42c3.3,0,6.7-1,10-3l10-6
	c0-9.3,2.5-24.7,7.5-46S377.2,548.5,377.2,540.5z M347.2,543.5c-6,18-10.5,34.7-13.5,50s-4.5,31-4.5,47
	C335.2,608.5,341.2,576.2,347.2,543.5z M325.2,548.5c-2.7,10-10.5,15.3-23.5,16s-23.8,1-32.5,1c-3.3,0-5.3-2-6-6s-3.3-5.3-8-4
	c-3.3,7.3-6.2,18.5-8.5,33.5s-4.2,24.8-5.5,29.5c20,8,40.3,16,61,24c2.7,0,6.7-0.7,12-2c4.7-30.7,9.7-61.3,15-92H325.2z
	 M325.2,615.5l4-12L325.2,615.5z M375.2,621.5l1-13L375.2,621.5z"/>
</svg>
