<svg xmlns="http://www.w3.org/2000/svg" xmlns:xlink="http://www.w3.org/1999/xlink" version="1.1" viewBox="15 148 318 652">
   <path  d="M173 154q8 -2 16.5 -4t9.5 -2q8 0 13 5q7 12 9.5 23.5t2.5 29.5q0 8 -1 24.5t-1 24.5q0 15 2.5 30.5t2.5 25.5q0 16 -3 37.5t-4 33.5q0 1 2.5 1.5t4.5 1.5q23 -41 35.5 -95t17.5 -76t12 -24.5t17 -2.5q19 0 24 13q0 32 -5 78t-7 70q-22 109 -34.5 160.5t-31.5 94.5 q-3 16 -18 58.5t-15 67.5q0 12 3 24q2 17 0 20q-17 11 -43 16.5t-50 10.5q-22 -3 -46 -7t-39 -11l-1 -90q-18 -26 -22.5 -71t-8.5 -86q0 -23 5.5 -46t25.5 -65q9 -6 13 -11q-6 -8 -6 -20q0 -7 4 -11l18 -21q-3 -8 -4 -20.5t-1 -22.5q0 -19 -1.5 -31.5t-6.5 -23.5 q-1 -19 -1 -29q0 -17 3 -26.5t13 -16.5q15 -3 16 -3q4 0 9 3q15 20 19.5 70t12.5 68q2 21 3.5 33t7.5 24q5 -1 6 -9t2 -10v-12q0 -12 2 -26t5 -28q0 -15 -0.5 -31t-0.5 -32q0 -29 2.5 -47t11.5 -37zM173 161q-4 31 -5 46.5t-1 33.5q6 -3 16.5 -4t11.5 -1q12 0 17 1 q1 -12 2.5 -23t1.5 -25q0 -10 -1 -15q1 -10 -6 -16t-18 -6q-12 0 -18 9zM299 194q-12 11 -17 42t-7 37q5 -1 15 -1q7 0 18 1.5t13 1.5l6 -61q0 -11 -8 -17.5t-20 -2.5zM98 194q-18 -2 -25 6q-3 9 -4 23t-1 16q0 18 3 36q4 6 9 6q14 -4 29 -8q-8 1 -16 8t-17 15 q0 15 0.5 30.5t5.5 26.5l43 -15q-4 -25 -8.5 -59t-7.5 -66zM167 252v55q10 -1 17.5 -1.5t11.5 -0.5q12 0 23 4l-4 -62q-7 -7 -20 -7q-19 0 -28 12zM283 279q-12 2 -17 18q-4 21 -6 29q4 -1 12 -1t19.5 3t22.5 5l5 -48q-5 -7 -16 -7q-10 1 -20 1zM167 317q-4 11 -5 27t-1 36 q15 -3 26.5 -4.5t20.5 -0.5q3 -8 5.5 -25t5.5 -29q-7 -7 -19 -7q-17 2 -33 3zM255 340l-16 43q24 6 36.5 10.5t19.5 12.5q7 -31 14 -63q-11 -4 -19 -6t-16 -2q-11 0 -19 5zM122 343q-3 5 -14 7t-15 6q8 0 17.5 7t21.5 15q-2 -5 -3.5 -18.5t-6.5 -16.5zM66 387q-3 10 6.5 13 t16.5 5q11 -12 23 -24q-4 -15 -16 -15q-8 0 -15.5 5.5t-14.5 15.5zM171 383q7 2 19 -0.5t17 -1.5q-5 -4 -12 -4q-4 0 -12 3t-12 3zM120 381v5l-26 25l-32 -8q17 26 27 38t21.5 15.5t22.5 13.5t19 14l-13 1q5 24 22 32q-1 3 -4.5 2t-4.5 1q5 9 23 19.5t20 12.5q-16 0 -29 -9 t-25 -23q-3 6 -13.5 20.5t-14.5 24.5q0 13 -1 28l-2 30q0 17 3.5 29.5t13.5 21.5q12 5 28 9t30 4t28 -6q34 -57 34 -127v-15q-2 -12 -2 -17l-7 -13q-3 3 -9.5 13t-8.5 12q-1 -5 2.5 -10.5t6.5 -9.5t4 -7.5t1 -5.5q0 -8 -9 -17.5t-15.5 -17t-20 -32.5t-26.5 -31 q-12 13 -23 26q8 -7 13 -11.5t9 -5.5q-5 4 -16 17t-21 15q0 -9 8.5 -17t17.5 -16q0 -12 8 -10q-20 -10 -39 -20zM253 394q-14 0 -39 -2.5t-30 -2.5q-8 0 -22 2q10 3 22.5 18.5t12.5 16.5q8 -1 12 -11t6 -14q3 7 -8 23q-5 4 -5 9t7 13.5t9 12.5q3 2 9 2q7 0 20.5 -5t15.5 -5 q-6 6 -18 11t-18 7h22q7 0 11 4q-11 2 -18.5 3t-9.5 5q15 9 23 17.5t8 21.5q-5 1 -8.5 -6.5t-6.5 -8.5q1 4 4.5 29.5t5.5 37.5l23 -90l-15 -7h19q8 -23 8 -57zM61 421q-20 9 -20 33q12 8 21.5 18.5t18.5 25.5q14 15 22.5 20.5t18.5 2.5q8 -3 5 -8q-8 2 -14 2q-8 0 -12 -4 t-4 -10q0 -9 9 -16q9 0 13 0.5t6 3.5v-12q-4 -7 -17 -12t-16 -7q-4 0 -11 5.5t-10 3.5l14 -14zM39 459l-13 48q9 -1 23 -6.5t18 -6.5q-2 -6 -12.5 -11t-11.5 -9q3 -1 4 0t2 1q-2 -7 -3.5 -11t-6.5 -5zM112 487l-3 5l6 -1zM105 497q-2 6 4 12q14 6 17 -4q0 -10 -11 -10 q-6 0 -10 2zM43 505q-12 6 -16.5 11.5t-3.5 16.5q7 21 10 72t14 74q14 9 30 9q6 0 9 -1q13 -10 21 -12q4 2 0 6t-2 7q5 2 9.5 -3.5t5.5 -6.5q-9 -9 -14 -11q-10 -23 -10 -53q0 -47 25 -80l-6 5l-30 70q0 -13 8 -32.5t19 -43.5q-8 -3 -25 -18.5t-28 -15.5q-7 0 -16 6z M125 685q9 11 24.5 13.5t38.5 2.5q-18 0 -34 -3.5t-29 -12.5zM75 698q-1 1 -16 1q-5 0 -6 3q0 13 1 28t2 29q0 12 -1 18l36 5v-12q0 -11 3 -34t3 -34q-8 3 -11.5 5.5t-10.5 2.5q-5 0 -8 -3q13 -3 19.5 -6.5t12.5 -11.5q-4 0 -10.5 3t-13.5 6zM107 695q-3 6 -5 21.5t-3 20.5 q2 -7 5 -21t3 -21zM115 695q-6 19 -11 43t-5 44q8 2 16 3q-4 -13 -4 -30q0 -10 2 -34t2 -26zM125 697q-4 8 -5 23.5t-1.5 27t-0.5 21.5q0 15 11 20q31 -5 41.5 -7.5t26.5 -8.5q1 -6 1 -18q0 -10 -2 -23.5t-4 -26.5q-14 2 -22 2q-26 0 -45 -10zM202 705l1 -6zM202 734l1 -16z M211 755l1 -23zM155 435l15 -23zM147 406l-16 15z"/>
</svg>