<?xml version="1.0" encoding="utf-8"?>
<!-- Generator: Adobe Illustrator 26.4.1, SVG Export Plug-In . SVG Version: 6.00 Build 0)  -->
<svg version="1.1" id="Layer_1" xmlns="http://www.w3.org/2000/svg" xmlns:xlink="http://www.w3.org/1999/xlink" x="0px" y="0px"
	 viewBox="0 0 652 652" style="enable-background:new 0 0 652 652;" xml:space="preserve">
<path d="M325,6c5.3-1.3,10.8-2.7,16.5-4s8.8-2,9.5-2c5.3,0,9.7,1.7,13,5c4.7,8,7.8,15.8,9.5,23.5S376,46,376,58
	c0,5.3-0.3,13.5-1,24.5s-1,19.2-1,24.5c0,10,0.8,20.2,2.5,30.5s2.5,18.8,2.5,25.5c0,10.7-1,23.2-3,37.5s-3.3,25.5-4,33.5
	c0,0.7,0.8,1.2,2.5,1.5s3.2,0.8,4.5,1.5c15.3-27.3,27.2-59,35.5-95c8.3-36,14.2-61.3,17.5-76s7.3-22.8,12-24.5s10.3-2.5,17-2.5
	c12.7,0,20.7,4.3,24,13c0,21.3-1.7,47.3-5,78s-5.7,54-7,70c-14.7,72.7-26.2,126.2-34.5,160.5S419.7,426.3,407,455
	c-2,10.7-8,30.2-18,58.5s-15,50.8-15,67.5c0,8,1,16,3,24c1.3,11.3,1.3,18,0,20c-11.3,7.3-25.7,12.8-43,16.5s-34,7.2-50,10.5
	c-14.7-2-30-4.3-46-7s-29-6.3-39-11l-1-90c-12-17.3-19.5-41-22.5-71s-5.8-58.7-8.5-86c0-15.3,1.8-30.7,5.5-46s12.2-37,25.5-65
	c6-4,10.3-7.7,13-11c-4-5.3-6-12-6-20c0-4.7,1.3-8.3,4-11l18-21c-2-5.3-3.3-12.2-4-20.5s-1-15.8-1-22.5c0-12.7-0.5-23.2-1.5-31.5
	s-3.2-16.2-6.5-23.5c-0.7-12.7-1-22.3-1-29c0-11.3,1-20.2,3-26.5s6.3-11.8,13-16.5c10-2,15.3-3,16-3c2.7,0,5.7,1,9,3
	c10,13.3,16.5,36.7,19.5,70s7.2,56,12.5,68c1.3,14,2.5,25,3.5,33s3.5,16,7.5,24c3.3-0.7,5.3-3.7,6-9s1.3-8.7,2-10v-12
	c0-8,0.7-16.7,2-26s3-18.7,5-28c0-10-0.2-20.3-0.5-31s-0.5-21.3-0.5-32c0-19.3,0.8-35,2.5-47S319,18.7,325,6z M325,13
	c-2.7,20.7-4.3,36.2-5,46.5S319,81,319,93c4-2,9.5-3.3,16.5-4s10.8-1,11.5-1c8,0,13.7,0.3,17,1c0.7-8,1.5-15.7,2.5-23
	s1.5-15.7,1.5-25c0-6.7-0.3-11.7-1-15c0.7-6.7-1.3-12-6-16s-10.7-6-18-6C335,4,329,7,325,13z M451,46c-8,7.3-13.7,21.3-17,42
	s-5.7,33-7,37c3.3-0.7,8.3-1,15-1c4.7,0,10.7,0.5,18,1.5s11.7,1.5,13,1.5l6-61c0-7.3-2.7-13.2-8-17.5S459,43.3,451,46z M250,46
	c-12-1.3-20.3,0.7-25,6c-2,6-3.3,13.7-4,23s-1,14.7-1,16c0,12,1,24,3,36c2.7,4,5.7,6,9,6c9.3-2.7,19-5.3,29-8
	c-5.3,0.7-10.7,3.3-16,8s-11,9.7-17,15c0,10,0.2,20.2,0.5,30.5s2.2,19.2,5.5,26.5l43-15c-2.7-16.7-5.5-36.3-8.5-59S263,86.3,261,65
	L250,46z M319,104v55c6.7-0.7,12.5-1.2,17.5-1.5s8.8-0.5,11.5-0.5c8,0,15.7,1.3,23,4l-4-62c-4.7-4.7-11.3-7-20-7
	C334.3,92,325,96,319,104z M435,131c-8,1.3-13.7,7.3-17,18c-2.7,14-4.7,23.7-6,29c2.7-0.7,6.7-1,12-1s11.8,1,19.5,3s15.2,3.7,22.5,5
	l5-48c-3.3-4.7-8.7-7-16-7C448.3,130.7,441.7,131,435,131z M319,169c-2.7,7.3-4.3,16.3-5,27s-1,22.7-1,36c10-2,18.8-3.5,26.5-4.5
	s14.5-1.2,20.5-0.5c2-5.3,3.8-13.7,5.5-25s3.5-21,5.5-29c-4.7-4.7-11-7-19-7C340.7,167.3,329.7,168.3,319,169z M407,192l-16,43
	c16,4,28.2,7.5,36.5,10.5s14.8,7.2,19.5,12.5c4.7-20.7,9.3-41.7,14-63c-7.3-2.7-13.7-4.7-19-6s-10.7-2-16-2
	C418.7,187,412.3,188.7,407,192z M274,195c-2,3.3-6.7,5.7-14,7s-12.3,3.3-15,6c5.3,0,11.2,2.3,17.5,7s13.5,9.7,21.5,15
	c-1.3-3.3-2.5-9.5-3.5-18.5S277.3,197,274,195z M218,239c-2,6.7,0.2,11,6.5,13s11.8,3.7,16.5,5c7.3-8,15-16,23-24
	c-2.7-10-8-15-16-15c-5.3,0-10.5,1.8-15.5,5.5S222.7,232.3,218,239z M323,235c4.7,1.3,11,1.2,19-0.5s13.7-2.2,17-1.5
	c-3.3-2.7-7.3-4-12-4c-2.7,0-6.7,1-12,3S325.7,235,323,235z M272,233v5l-26,25l-32-8c11.3,17.3,20.3,30,27,38s13.8,13.2,21.5,15.5
	s15.2,6.8,22.5,13.5c7.3,6.7,13.7,11.3,19,14l-13,1c3.3,16,10.7,26.7,22,32c-0.7,2-2.2,2.7-4.5,2s-3.8-0.3-4.5,1
	c3.3,6,11,12.5,23,19.5s18.7,11.2,20,12.5c-10.7,0-20.3-3-29-9s-17-13.7-25-23c-2,4-6.5,10.8-13.5,20.5S267.7,410.3,265,417
	c0,8.7-0.3,18-1,28l-2,30c0,11.3,1.2,21.2,3.5,29.5S272.3,520,279,526c8,3.3,17.3,6.3,28,9s20.7,4,30,4s18.7-2,28-6
	c22.7-38,34-80.3,34-127v-15c-1.3-8-2-13.7-2-17l-7-13c-2,2-5.2,6.3-9.5,13s-7.2,10.7-8.5,12c-0.7-3.3,0.2-6.8,2.5-10.5
	s4.5-6.8,6.5-9.5c2-2.7,3.3-5.2,4-7.5s1-4.2,1-5.5c0-5.3-3-11.2-9-17.5s-11.2-12-15.5-17s-11-15.8-20-32.5s-17.8-27-26.5-31
	c-8,8.7-15.7,17.3-23,26c5.3-4.7,9.7-8.5,13-11.5s6.3-4.8,9-5.5c-3.3,2.7-8.7,8.3-16,17s-14.3,13.7-21,15c0-6,2.8-11.7,8.5-17
	c5.7-5.3,11.5-10.7,17.5-16c0-8,2.7-11.3,8-10C297.7,246.3,284.7,239.7,272,233z M405,246c-9.3,0-22.3-0.8-39-2.5s-26.7-2.5-30-2.5
	c-5.3,0-12.7,0.7-22,2c6.7,2,14.2,8.2,22.5,18.5S349,277.3,349,278c5.3-0.7,9.3-4.3,12-11s4.7-11.3,6-14c2,4.7-0.7,12.3-8,23
	c-3.3,2.7-5,5.7-5,9s2.3,7.8,7,13.5s7.7,9.8,9,12.5c2,1.3,5,2,9,2c4.7,0,11.5-1.7,20.5-5s14.2-5,15.5-5c-4,4-10,7.7-18,11
	s-14,5.7-18,7h22c4.7,0,8.3,1.3,11,4c-7.3,1.3-13.5,2.3-18.5,3s-8.2,2.3-9.5,5c10,6,17.7,11.8,23,17.5c5.3,5.7,8,12.8,8,21.5
	c-3.3,0.7-6.2-1.5-8.5-6.5c-2.3-5-4.5-7.8-6.5-8.5c0.7,2.7,2.2,12.5,4.5,29.5s4.2,29.5,5.5,37.5l23-90l-15-7h19
	c5.3-15.3,8-34.3,8-57L405,246z M213,273c-13.3,6-20,17-20,33c8,5.3,15.2,11.5,21.5,18.5c6.3,7,12.5,15.5,18.5,25.5
	c9.3,10,16.8,16.8,22.5,20.5s11.8,4.5,18.5,2.5c5.3-2,7-4.7,5-8c-5.3,1.3-10,2-14,2c-5.3,0-9.3-1.3-12-4c-2.7-2.7-4-6-4-10
	c0-6,3-11.3,9-16c6,0,10.3,0.2,13,0.5s4.7,1.5,6,3.5v-12c-2.7-4.7-8.3-8.7-17-12s-14-5.7-16-7c-2.7,0-6.3,1.8-11,5.5s-8,4.8-10,3.5
	l14-14L213,273z M191,311l-13,48c6-0.7,13.7-2.8,23-6.5s15.3-5.8,18-6.5c-1.3-4-5.5-7.7-12.5-11s-10.8-6.3-11.5-9c2-0.7,3.3-0.7,4,0
	s1.3,1,2,1c-1.3-4.7-2.5-8.3-3.5-11S194.3,311.7,191,311z M264,339l-3,5l6-1L264,339z M257,349c-1.3,4,0,8,4,12c9.3,4,15,2.7,17-4
	c0-6.7-3.7-10-11-10C263,347,259.7,347.7,257,349z M195,357c-8,4-13.5,7.8-16.5,11.5s-4.2,9.2-3.5,16.5c4.7,14,8,38,10,72
	s6.7,58.7,14,74c9.3,6,19.3,9,30,9c4,0,7-0.3,9-1c8.7-6.7,15.7-10.7,21-12c2.7,1.3,2.7,3.3,0,6s-3.3,5-2,7c3.3,1.3,6.5,0.2,9.5-3.5
	s4.8-5.8,5.5-6.5c-6-6-10.7-9.7-14-11c-6.7-15.3-10-33-10-53c0-31.3,8.3-58,25-80l-6,5l-30,70c0-8.7,2.7-19.5,8-32.5
	s11.7-27.5,19-43.5c-5.3-2-13.7-8.2-25-18.5c-11.3-10.3-20.7-15.5-28-15.5C206.3,351,201,353,195,357z M277,537
	c6,7.3,14.2,11.8,24.5,13.5s23.2,2.5,38.5,2.5c-12,0-23.3-1.2-34-3.5S285.7,543,277,537z M227,550c-0.7,0.7-6,1-16,1
	c-3.3,0-5.3,1-6,3c0,8.7,0.3,18,1,28s1.3,19.7,2,29c0,8-0.3,14-1,18l36,5v-12c0-7.3,1-18.7,3-34s3-26.7,3-34
	c-5.3,2-9.2,3.8-11.5,5.5s-5.8,2.5-10.5,2.5c-3.3,0-6-1-8-3c8.7-2,15.2-4.2,19.5-6.5s8.5-6.2,12.5-11.5c-2.7,0-6.2,1-10.5,3
	S231.7,548,227,550z M259,547c-2,4-3.7,11.2-5,21.5s-2.3,17.2-3,20.5c1.3-4.7,3-11.7,5-21S259,551.7,259,547z M267,547
	c-4,12.7-7.7,27-11,43s-5,30.7-5,44c5.3,1.3,10.7,2.3,16,3c-2.7-8.7-4-18.7-4-30c0-6.7,0.7-18,2-34S267,548.3,267,547z M277,549
	c-2.7,5.3-4.3,13.2-5,23.5s-1.2,19.3-1.5,27S270,614.3,270,621c0,10,3.7,16.7,11,20c20.7-3.3,34.5-5.8,41.5-7.5s15.8-4.5,26.5-8.5
	c0.7-4,1-10,1-18c0-6.7-0.7-14.5-2-23.5s-2.7-17.8-4-26.5c-9.3,1.3-16.7,2-22,2C304.7,559,289.7,555.7,277,549z M354,557l1-6
	L354,557z M354,586l1-16L354,586z M363,607l1-23L363,607z M307,287l15-23L307,287z M299,258l-16,15L299,258z"/>
</svg>
