<svg xmlns="http://www.w3.org/2000/svg" xmlns:xlink="http://www.w3.org/1999/xlink" version="1.1" viewBox="18 239 374 561">
   <path fill="currentColor" d="M296 243l10 14q41 109 83 218q3 15 3 30q0 28 -11.5 81t-13.5 67q11 31 16.5 48.5t5.5 29.5q-14 12 -29 25.5t-29 22.5q-25 9 -43.5 15t-35.5 6q-16 0 -30 -7l-31 -20q-3 -35 -6 -59t-26 -32q-19 -21 -30 -40.5t-22 -50.5q-31 -19 -52 -33t-24 -39q-7 -22 -13 -44 q0 -18 21 -26q6 -1 10 -18q12 -11 46 -23t41 -18q11 -4 47.5 -14t54.5 -16q0 -9 -3.5 -18.5t-11.5 -20.5q-8 3 -19.5 6t-21.5 3q-8 0 -12 -1q-17 2 -22 -14t12.5 -41t20.5 -30t18 -5zM186 248q-11 9 -13 25l10 -1q10 5 10 14q-3 12 -20.5 15.5t-21.5 6.5q1 7 6.5 10t15.5 5 q27 3 46 -11t36 -42q0 7 -7 17t-16 22q10 2 14 2q29 0 49 -27l3 2q-10 17 -26 27t-34 8v6q-1 8 1 10q1 5 10 18.5t6 25.5q11 5 13 4l31 -88q-1 18 -9 42.5t-15 45.5q12 2 18 -3q9 -2 15.5 -3.5t11.5 -1.5q4 0 10 2q-31 8 -61 16q-3 1 -9 -2.5t-9 2.5q0 -3 -2.5 -6.5 t-5.5 -1.5l-16 74q3 4 10 4q6 -7 15.5 -14.5t16.5 -8.5q-1 2 -11.5 12.5t-10.5 18.5q5 6 12 5l44 -24q24 -11 48 -15l2 2q-23 10 -46.5 20t-40.5 24q13 8 29 17t24 13q12 4 19 5.5t10 5.5l-14 1l7 9q-16 -7 -31 -14q17 12 34 23q3 4 6 11t1 15q-3 -3 -18.5 -22t-27.5 -25 l2 -3q-14 -8 -22 -13q-8 -2 -32 -20t-42 -14l-10 14t-1 15l18 -18q-5 11 -8.5 16.5t-11.5 11.5q-2 8 -2 10q0 10 14 29.5t14 28.5q13 11 28.5 22t30.5 11q-5 3 -11 3t-11.5 -1t-9.5 -2l6 9q-5 0 -10.5 -4.5t-10.5 -9.5l-4 4l-9 -13q-5 10 -11.5 19t-16.5 12q5 24 16 42.5 t30 31.5q14 7 32 7q12 0 27.5 -3.5t25.5 -6.5q-7 13 -21 17.5t-31 4.5q-20 0 -31 -4q13 5 34 5q13 0 33 -2q-1 6 -11 9.5t-19 3.5t-17.5 -2.5t-18.5 -7.5q2 15 6 27t12 29h4q35 -4 62.5 -16.5t48.5 -38.5l-8 -39h-4q0 5 3 17t1 18q-5 -4 -8.5 -11.5t-5.5 -15.5l-10 11l-2 -2 q2 -2 2.5 -3.5l1.5 -4.5q-3 -1 -6 2t-6 0q5 -5 8.5 -12.5t7.5 -14.5q9 -40 17 -84t14 -89q-13 -42 -22 -71.5t-19 -51.5q-11 -13 -24.5 -72t-52.5 -59q-8 0 -19 3q-1 0 -5 4q-2 -1 -4 -3q-8 -4 -18 -4q-8 0 -16 1zM156 297h17q13 -4 12 -11h-17q-11 0 -12 11zM185 383 q-7 4 -23.5 8t-19.5 6q8 2 17 4t12 10q-2 2 -6 2q-6 -3 -12 -4.5t-18 -1.5q-13 0 -18 6q0 17 -1.5 45t-1.5 29q0 17 1.5 34t11.5 35q9 1 21 -1t13 -2q-2 9 -10.5 11t-16.5 3l22 24q10 -8 17 -6q8 2 13.5 8.5t14.5 23.5q16 -14 13 -38q-9 -23 -15.5 -33.5t-21.5 -12.5 q6 -6 11 -18t5 -37q0 -19 -6 -39l4 -3l12 25q9 2 16 -10q6 -15 12 -35t6 -47q-12 1 -30 7t-22 7zM57 437q0 25 6.5 52.5t13.5 46t16 21t23 2.5q-6 -23 -8.5 -51t-2.5 -59v-36q-27 3 -48 24zM25 469q0 18 9 38.5t23 41.5q13 13 22 8q-11 -21 -17.5 -44.5t-14.5 -58.5 q-6 -1 -12.5 6t-9.5 9zM205 475l-2 2zM81 567q10 7 22 10q-3 -1 -9.5 -7.5t-12.5 -2.5zM137 581q-4 -5 -9 -10t-9 -5q-5 0 -8 7l28 17l2 -3q1 -1 -4 -6zM113 584l8 5q-2 -3 -8 -5zM163 591v6q3 0 5 -1.5t3 -2.5q-1 -2 -8 -2zM185 600q-3 -3 -10.5 0t-8.5 3q0 5 7 12 q8 2 12 2q6 0 9 -3q0 -7 -9 -14zM153 599q-4 1 -5 1.5t-2 0.5q4 14 15 13q-4 -7 -8 -15zM118 600q31 63 51 82t50 19q-16 -24 -19.5 -30t-8.5 -19l2 24q-6 -5 -8 -14.5t-2 -18.5v-12q-5 -4 -14 -5t-14 -1q-4 -3 -14 -16.5t-23 -8.5zM194 716v-4v4zM235 713l3 26zM223 723 l-20 -2q-1 12 2 30t3 21q11 5 22 9zM195 729l-1 -6l1 10v-4zM239 748q2 12 4.5 21t7.5 14zM249 397v9v-9zM334 569q2 9 -2.5 18.5t-12.5 18.5q-10 7 -13 2q8 -9 17 -19t11 -20z"/>
</svg>