<?xml version="1.0" encoding="utf-8"?>
<!-- Generator: Adobe Illustrator 26.4.1, SVG Export Plug-In . SVG Version: 6.00 Build 0)  -->
<svg version="1.1" id="Layer_1" xmlns="http://www.w3.org/2000/svg" xmlns:xlink="http://www.w3.org/1999/xlink" x="0px" y="0px"
	 viewBox="0 0 561 561" style="enable-background:new 0 0 561 561;" xml:space="preserve">
<path d="M371.5,4l10,14c27.3,72.7,55,145.3,83,218c2,10,3,20,3,30c0,18.7-3.8,45.7-11.5,81s-12.2,57.7-13.5,67
	c7.3,20.7,12.8,36.8,16.5,48.5s5.5,21.5,5.5,29.5c-9.3,8-19,16.5-29,25.5s-19.7,16.5-29,22.5c-16.7,6-31.2,11-43.5,15
	s-24.2,6-35.5,6c-10.7,0-20.7-2.3-30-7l-31-20c-2-23.3-4-43-6-59s-10.7-26.7-26-32c-12.7-14-22.7-27.5-30-40.5
	c-7.3-13-14.7-29.8-22-50.5c-20.7-12.7-38-23.7-52-33s-22-22.3-24-39c-4.7-14.7-9-29.3-13-44c0-12,7-20.7,21-26c4-0.7,7.3-6.7,10-18
	c8-7.3,23.3-15,46-23s36.3-14,41-18c7.3-2.7,23.2-7.3,47.5-14s42.5-12,54.5-16c0-6-1.2-12.2-3.5-18.5s-6.2-13.2-11.5-20.5
	c-5.3,2-11.8,4-19.5,6s-14.8,3-21.5,3c-5.3,0-9.3-0.3-12-1c-11.3,1.3-18.7-3.3-22-14s0.8-24.3,12.5-41s18.5-26.7,20.5-30s8-5,18-5
	L371.5,4z M261.5,9c-7.3,6-11.7,14.3-13,25l10-1c6.7,3.3,10,8,10,14c-2,8-8.8,13.2-20.5,15.5c-11.7,2.3-18.8,4.5-21.5,6.5
	c0.7,4.7,2.8,8,6.5,10s8.8,3.7,15.5,5c18,2,33.3-1.7,46-11s24.7-23.3,36-42c0,4.7-2.3,10.3-7,17s-10,14-16,22c6.7,1.3,11.3,2,14,2
	c19.3,0,35.7-9,49-27l3,2c-6.7,11.3-15.3,20.3-26,27s-22,9.3-34,8v6c-0.7,5.3-0.3,8.7,1,10c0.7,3.3,4,9.5,10,18.5s8,17.5,6,25.5
	c7.3,3.3,11.7,4.7,13,4l31-88c-0.7,12-3.7,26.2-9,42.5s-10.3,31.5-15,45.5c8,1.3,14,0.3,18-3c6-1.3,11.2-2.5,15.5-3.5
	s8.2-1.5,11.5-1.5c2.7,0,6,0.7,10,2c-20.7,5.3-41,10.7-61,16c-2,0.7-5-0.2-9-2.5s-7-1.5-9,2.5c0-2-0.8-4.2-2.5-6.5s-3.5-2.8-5.5-1.5
	l-16,74c2,2.7,5.3,4,10,4c4-4.7,9.2-9.5,15.5-14.5c6.3-5,11.8-7.8,16.5-8.5c-0.7,1.3-4.5,5.5-11.5,12.5s-10.5,13.2-10.5,18.5
	c3.3,4,7.3,5.7,12,5l44-24c16-7.3,32-12.3,48-15l2,2c-15.3,6.7-30.8,13.3-46.5,20s-29.2,14.7-40.5,24c8.7,5.3,18.3,11,29,17
	s18.7,10.3,24,13c8,2.7,14.3,4.5,19,5.5s8,2.8,10,5.5l-14,1l7,9c-10.7-4.7-21-9.3-31-14c11.3,8,22.7,15.7,34,23c2,2.7,4,6.3,6,11
	s2.3,9.7,1,15c-2-2-8.2-9.3-18.5-22s-19.5-21-27.5-25l2-3c-9.3-5.3-16.7-9.7-22-13c-5.3-1.3-16-8-32-20s-30-16.7-42-14l-10,14
	c0,0-0.3,5-1,15l18-18c-3.3,7.3-6.2,12.8-8.5,16.5s-6.2,7.5-11.5,11.5c-1.3,5.3-2,8.7-2,10c0,6.7,4.7,16.5,14,29.5s14,22.5,14,28.5
	c8.7,7.3,18.2,14.7,28.5,22c10.3,7.3,20.5,11,30.5,11c-3.3,2-7,3-11,3s-7.8-0.3-11.5-1s-6.8-1.3-9.5-2l6,9c-3.3,0-6.8-1.5-10.5-4.5
	s-7.2-6.2-10.5-9.5l-4,4l-9-13c-3.3,6.7-7.2,13-11.5,19s-9.8,10-16.5,12c3.3,16,8.7,30.2,16,42.5s17.3,22.8,30,31.5
	c9.3,4.7,20,7,32,7c8,0,17.2-1.2,27.5-3.5s18.8-4.5,25.5-6.5c-4.7,8.7-11.7,14.5-21,17.5s-19.7,4.5-31,4.5c-13.3,0-23.7-1.3-31-4
	c8.7,3.3,20,5,34,5c8.7,0,19.7-0.7,33-2c-0.7,4-4.3,7.2-11,9.5s-13,3.5-19,3.5s-11.8-0.8-17.5-2.5s-11.8-4.2-18.5-7.5
	c1.3,10,3.3,19,6,27s6.7,17.7,12,29h4c23.3-2.7,44.2-8.2,62.5-16.5s34.5-21.2,48.5-38.5l-8-39h-4c0,3.3,1,9,3,17s2.3,14,1,18
	c-3.3-2.7-6.2-6.5-8.5-11.5s-4.2-10.2-5.5-15.5l-10,11l-2-2c1.3-1.3,2.2-2.5,2.5-3.5l1.5-4.5c-2-0.7-4,0-6,2s-4,2-6,0
	c3.3-3.3,6.2-7.5,8.5-12.5s4.8-9.8,7.5-14.5c6-26.7,11.7-54.7,17-84s10-59,14-89c-8.7-28-16-51.8-22-71.5s-12.3-36.8-19-51.5
	c-7.3-8.7-15.5-32.7-24.5-72S365.5,6,339.5,6c-5.3,0-11.7,1-19,3c-0.7,0-2.3,1.3-5,4c-1.3-0.7-2.7-1.7-4-3c-5.3-2.7-11.3-4-18-4
	c-5.3,0-10.7,0.3-16,1L261.5,9z M231.5,58h17c8.7-2.7,12.7-6.3,12-11h-17C236.2,47,232.2,50.7,231.5,58z M260.5,144
	c-4.7,2.7-12.5,5.3-23.5,8s-17.5,4.7-19.5,6c5.3,1.3,11,2.7,17,4s10,4.7,12,10c-1.3,1.3-3.3,2-6,2c-4-2-8-3.5-12-4.5s-10-1.5-18-1.5
	c-8.7,0-14.7,2-18,6c0,11.3-0.5,26.3-1.5,45s-1.5,28.3-1.5,29c0,11.3,0.5,22.7,1.5,34c1,11.3,4.8,23,11.5,35c6,0.7,13,0.3,21-1
	s12.3-2,13-2c-1.3,6-4.8,9.7-10.5,11s-11.2,2.3-16.5,3l22,24c6.7-5.3,12.3-7.3,17-6c5.3,1.3,9.8,4.2,13.5,8.5s8.5,12.2,14.5,23.5
	c10.7-9.3,15-22,13-38c-6-15.3-11.2-26.5-15.5-33.5s-11.5-11.2-21.5-12.5c4-4,7.7-10,11-18s5-20.3,5-37c0-12.7-2-25.7-6-39l4-3
	l12,25c6,1.3,11.3-2,16-10c4-10,8-21.7,12-35s6-29,6-47c-8,0.7-18,3-30,7S263.2,143.3,260.5,144z M132.5,198
	c0,16.7,2.2,34.2,6.5,52.5c4.3,18.3,8.8,33.7,13.5,46s10,19.3,16,21s13.7,2.5,23,2.5c-4-15.3-6.8-32.3-8.5-51
	c-1.7-18.7-2.5-38.3-2.5-59v-36C162.5,176,146.5,184,132.5,198z M100.5,230c0,12,3,24.8,9,38.5c6,13.7,13.7,27.5,23,41.5
	c8.7,8.7,16,11.3,22,8c-7.3-14-13.2-28.8-17.5-44.5c-4.3-15.7-9.2-35.2-14.5-58.5c-4-0.7-8.2,1.3-12.5,6
	C105.7,225.7,102.5,228.7,100.5,230z M280.5,236l-2,2L280.5,236z M156.5,328c6.7,4.7,14,8,22,10c-2-0.7-5.2-3.2-9.5-7.5
	S160.5,325.3,156.5,328z M212.5,342c-2.7-3.3-5.7-6.7-9-10c-3.3-3.3-6.3-5-9-5c-3.3,0-6,2.3-8,7l28,17l2-3
	C217.2,347.3,215.8,345.3,212.5,342z M188.5,345l8,5C195.2,348,192.5,346.3,188.5,345z M238.5,352v6c2,0,3.7-0.5,5-1.5
	s2.3-1.8,3-2.5C245.8,352.7,243.2,352,238.5,352z M260.5,361c-2-2-5.5-2-10.5,0s-7.8,3-8.5,3c0,3.3,2.3,7.3,7,12c5.3,1.3,9.3,2,12,2
	c4,0,7-1,9-3C269.5,370.3,266.5,365.7,260.5,361z M228.5,360c-2.7,0.7-4.3,1.2-5,1.5s-1.3,0.5-2,0.5c2.7,9.3,7.7,13.7,15,13
	C233.8,370.3,231.2,365.3,228.5,360z M193.5,361c20.7,42,37.7,69.3,51,82c13.3,12.7,30,19,50,19c-10.7-16-17.2-26-19.5-30
	s-5.2-10.3-8.5-19l2,24c-4-3.3-6.7-8.2-8-14.5s-2-12.5-2-18.5v-12c-3.3-2.7-8-4.3-14-5s-10.7-1-14-1c-2.7-2-7.3-7.5-14-16.5
	S202.2,357.7,193.5,361z M269.5,477v-4V477z M310.5,474l3,26L310.5,474z M298.5,484l-20-2c-0.7,8,0,18,2,30s3,19,3,21
	c7.3,3.3,14.7,6.3,22,9L298.5,484z M270.5,490l-1-6l1,10V490z M314.5,509c1.3,8,2.8,15,4.5,21s4.2,10.7,7.5,14L314.5,509z
	 M324.5,158v9V158z M409.5,330c1.3,6,0.5,12.2-2.5,18.5s-7.2,12.5-12.5,18.5c-6.7,4.7-11,5.3-13,2c5.3-6,11-12.3,17-19
	S408.2,336.7,409.5,330z"/>
</svg>
