<svg xmlns="http://www.w3.org/2000/svg" xmlns:xlink="http://www.w3.org/1999/xlink" version="1.1" viewBox="28 326 562 474">
   <path  d="M28 349q0 -10 7.5 -16.5t18.5 -6.5q6 0 12 3q16 25 53 62.5t45 48.5q0 -12 8.5 -21.5t20.5 -9.5q6 -2 16 1t14 1q5 -16 21.5 -23.5t34.5 -7.5q12 7 17 7t6 -8q4 -13 18.5 -16.5t34.5 -3.5q22 13 37 38t25 41q-2 8 5.5 24t7.5 19q35 -44 62 -73.5t62 -29.5q11 0 22.5 4.5 t13.5 24.5q-1 6 -11 10.5t-22 9.5q-11 12 -23.5 42.5t-20.5 39.5q-16 29 -26 67l-43.5 58t-46.5 49q-3 5 -4 10.5t-1 12.5q0 5 1 15t1 16t-1 10q-12 13 -18.5 19t-37.5 29q-5 2 -15 3.5t-21 1.5q-23 0 -45 -6t-46 -18q-4 -11 -7 -28.5t-5 -34.5q-26 -30 -42 -79l-40 -146 q-39 -43 -63.5 -72.5t-24.5 -66.5zM37 341q-2 10 -2 15q0 16 8 29.5t23 27.5q7 1 14.5 -5t14.5 -12q-2 7 -6.5 10.5t-15.5 10.5q4 18 20 28q2 -7 13.5 -19.5t11.5 -20.5q-5 -6 -9.5 -10.5t-8.5 -4.5q-3 0 -6 5l4 -12q-3 -3 -17 -26.5t-26 -23.5q-9 0 -18 8zM345 365 q-16 3 -27.5 6.5t-12.5 16.5l4 91q8 3 21.5 0.5t15.5 -2.5q-14 11 -35 11q1 6 5.5 17.5t5.5 14.5l15 -5q10 -3 17 6.5t11 15.5q8 -25 9 -74.5t3 -66.5q6 4 7 15t2 21l9 -15q-7 -16 -19.5 -29t-30.5 -23zM277 386q-18 3 -28 7t-18 16q8 62 16.5 92t35.5 55q0 -4 5 -7t7 -4 q9 -4 15 -1.5t17 9.5l-18 -38q-9 6 -16.5 9t-17.5 3q-2 1 -4 -1.5t-2 -3.5q4 -2 18.5 -5t19.5 -8q-6 -14 -8.5 -29.5t-2.5 -36.5v-22t1 -22q-5 -13 -20 -13zM574 388q-5 -1 -15 -1q-27 0 -48 15.5t-38 40.5q-1 6 9.5 16.5t6.5 16.5q-8 0 -15 -10t-10 -12q-6 5 -12.5 12.5 t-21.5 30.5q5 15 11 30t17 24q-12 -5 -19.5 -17.5t-15.5 -32.5q-8 5 -8 15v20q-1 -6 -5 -7q0 7 2 14.5t5 17.5q-12 -20 -12 -44l-28 15q-1 7 -6.5 13t-9.5 10q-14 -3 -28 10t-24 14q-13 5 -19.5 18t-11.5 33q8 18 12.5 27t14.5 22q17 3 35 3q23 0 41 -3q21 -8 44.5 -36.5 t51.5 -63.5q10 -33 16 -49t18 -35l-9 -4q1 -3 4 -3h6l-6 -6q11 0 15 -3q8 -24 23.5 -45.5t37.5 -33.5l-1 -5zM129 415q-2 -3 -6 -3t-5 4q2 5 -2.5 11t-6.5 8l-2 -2q4 -4 3 -6q-2 2 -8 11l7 -1q-11 7 -11 14q0 6 8 13.5t19 16.5q3 -2 13.5 -15t17.5 -16zM181 421 q-7 4 -9.5 11.5t-2.5 18.5q13 49 25.5 80t48.5 40q-1 -9 4 -15t14 -11q-5 -13 -10 -13q0 4 -5 6.5t-5 4.5q-8 3 -16 3q-9 0 -14 -4q9 0 15.5 -2t24.5 -12q-7 -17 -13.5 -40.5t-14.5 -66.5q-11 -6 -22 -6t-20 6zM396 427l-1 6q1 -2 1 -4v-2zM402 435q-8 9 -15.5 19t-3.5 21 q7 -1 15 -9t11 -9q2 10 -14.5 20t-11.5 22q12 2 17 2q13 0 19 -8q1 -13 -7.5 -33.5t-9.5 -24.5zM164 459q-8 4 -17.5 11t-17.5 13q-3 11 -0.5 19.5t9.5 24.5q7 1 21 -4t22 -2q-11 -17 -21 -34q9 11 15 15q0 -8 -7 -19t-8 -14l6 2zM393 509l-8 -4l-3 4h11zM333 523l6 -1z M325 531l7 16q21 2 26 -9q0 -12 -10 -12q-5 0 -11.5 2t-11.5 3zM161 527q-14 4 -18.5 7.5t-1.5 11.5l38 124q10 20 19 29.5t24 9.5q6 0 9 -1q11 0 27 -9.5t23 -9.5q-3 5 -4.5 8t0.5 7q9 -9 9 -19t-6 -19.5t-11 -18.5q2 -18 5 -36q0 -3 6.5 -14t6.5 -15q0 -6 -8 -9 q-4 7 -15 8t-16 3q-43 -15 -62 -53zM301 551l-6 -2zM308 551q-1 2 -12.5 5.5t-4.5 13.5q10 3 16.5 0t15.5 -9q-4 -5 -7 -8.5t-8 -1.5zM265 557q-2 2 -10 4.5t-4 10.5h8q5 -3 8.5 -5.5t2.5 -7.5zM299 691l-2 4q2 9 3.5 42.5t12.5 49.5q15 1 27.5 -6t21.5 -21q-3 -5 -4 -12 t-1 -15v-17v-9q-2 -4 -2 -5l-26 5q-16 -2 -18 -10q3 -2 7.5 0.5t6.5 1.5q10 0 17.5 -0.5t12.5 -4.5q-26 0 -56 -3zM289 691q-3 12 -3 24q0 14 3.5 40.5t3.5 33.5h12q-7 -16 -10.5 -51.5t-5.5 -46.5zM379 695l1 -4zM367 693q1 2 -6 9v22q0 23 7 31q3 -11 3 -21q-1 -19 -1 -30 v-10zM269 702q-16 8 -27 12.5t-23 4.5q13 0 18.5 -1t31.5 -9v-7zM379 704v21q0 12 2 17zM279 709q-2 14 -2 22q0 26 8 48q1 -5 1 -16q0 -12 -1 -26l-2 -28h-4zM272 714q-13 5 -30.5 9.5t-31.5 5.5l9 42l60 16z"/>
</svg>