<?xml version="1.0" encoding="utf-8"?>
<!-- Generator: Adobe Illustrator 26.4.1, SVG Export Plug-In . SVG Version: 6.00 Build 0)  -->
<svg version="1.1" id="Layer_1" xmlns="http://www.w3.org/2000/svg" xmlns:xlink="http://www.w3.org/1999/xlink" x="0px" y="0px"
	 viewBox="0 0 562 562" style="enable-background:new 0 0 562 562;" xml:space="preserve">
<path d="M0,67c0-6.7,2.5-12.2,7.5-16.5S18.7,44,26,44c4,0,8,1,12,3c10.7,16.7,28.3,37.5,53,62.5s39.7,41.2,45,48.5
	c0-8,2.8-15.2,8.5-21.5S157,127,165,127c4-1.3,9.3-1,16,1s11.3,2.3,14,1c3.3-10.7,10.5-18.5,21.5-23.5S239,98,251,98
	c8,4.7,13.7,7,17,7s5.3-2.7,6-8c2.7-8.7,8.8-14.2,18.5-16.5S313.7,77,327,77c14.7,8.7,27,21.3,37,38s18.3,30.3,25,41
	c-1.3,5.3,0.5,13.3,5.5,24s7.5,17,7.5,19c23.3-29.3,44-53.8,62-73.5S502.7,96,526,96c7.3,0,14.8,1.5,22.5,4.5s12.2,11.2,13.5,24.5
	c-0.7,4-4.3,7.5-11,10.5s-14,6.2-22,9.5c-7.3,8-15.2,22.2-23.5,42.5S490.3,221,485,227c-10.7,19.3-19.3,41.7-26,67l-43.5,58
	c0,0-15.5,16.3-46.5,49c-2,3.3-3.3,6.8-4,10.5s-1,7.8-1,12.5c0,3.3,0.3,8.3,1,15s1,12,1,16s-0.3,7.3-1,10c-8,8.7-14.2,15-18.5,19
	s-16.8,13.7-37.5,29c-3.3,1.3-8.3,2.5-15,3.5s-13.7,1.5-21,1.5c-15.3,0-30.3-2-45-6c-14.7-4-30-10-46-18c-2.7-7.3-5-16.8-7-28.5
	s-3.7-23.2-5-34.5c-17.3-20-31.3-46.3-42-79L88,206c-26-28.7-47.2-52.8-63.5-72.5S0,91.7,0,67z M9,59c-1.3,6.7-2,11.7-2,15
	c0,10.7,2.7,20.5,8,29.5s13,18.2,23,27.5c4.7,0.7,9.5-1,14.5-5s9.8-8,14.5-12c-1.3,4.7-3.5,8.2-6.5,10.5S52.3,130.3,45,135
	c2.7,12,9.3,21.3,20,28c1.3-4.7,5.8-11.2,13.5-19.5S90,128.3,90,123c-3.3-4-6.5-7.5-9.5-10.5S74.7,108,72,108c-2,0-4,1.7-6,5l4-12
	c-2-2-7.7-10.8-17-26.5S35,51,27,51C21,51,15,53.7,9,59z M317,83c-10.7,2-19.8,4.2-27.5,6.5S277.7,97.3,277,106l4,91
	c5.3,2,12.5,2.2,21.5,0.5s14.2-2.5,15.5-2.5c-9.3,7.3-21,11-35,11c0.7,4,2.5,9.8,5.5,17.5c3,7.7,4.8,12.5,5.5,14.5l15-5
	c6.7-2,12.3,0.2,17,6.5s8.3,11.5,11,15.5c5.3-16.7,8.3-41.5,9-74.5s1.7-55.2,3-66.5c4,2.7,6.3,7.7,7,15s1.3,14.3,2,21l9-15
	c-4.7-10.7-11.2-20.3-19.5-29S329,89.7,317,83z M249,104c-12,2-21.3,4.3-28,7s-12.7,8-18,16c5.3,41.3,10.8,72,16.5,92
	s17.5,38.3,35.5,55c0-2.7,1.7-5,5-7s5.7-3.3,7-4c6-2.7,11-3.2,15-1.5s9.7,4.8,17,9.5l-18-38c-6,4-11.5,7-16.5,9s-10.8,3-17.5,3
	c-1.3,0.7-2.7,0.2-4-1.5s-2-2.8-2-3.5c2.7-1.3,8.8-3,18.5-5s16.2-4.7,19.5-8c-4-9.3-6.8-19.2-8.5-29.5S268,175,268,161v-22
	c0,0,0.3-7.3,1-22C265.7,108.3,259,104,249,104z M546,106c-3.3-0.7-8.3-1-15-1c-18,0-34,5.2-48,15.5s-26.7,23.8-38,40.5
	c-0.7,4,2.5,9.5,9.5,16.5s9.2,12.5,6.5,16.5c-5.3,0-10.3-3.3-15-10s-8-10.7-10-12c-4,3.3-8.2,7.5-12.5,12.5S412,199.7,402,215
	c3.3,10,7,20,11,30s9.7,18,17,24c-8-3.3-14.5-9.2-19.5-17.5S400.3,232.3,395,219c-5.3,3.3-8,8.3-8,15v20c-0.7-4-2.3-6.3-5-7
	c0,4.7,0.7,9.5,2,14.5s3,10.8,5,17.5c-8-13.3-12-28-12-44l-28,15c-0.7,4.7-2.8,9-6.5,13s-6.8,7.3-9.5,10c-9.3-2-18.7,1.3-28,10
	s-17.3,13.3-24,14c-8.7,3.3-15.2,9.3-19.5,18s-8.2,19.7-11.5,33c5.3,12,9.5,21,12.5,27s7.8,13.3,14.5,22c11.3,2,23,3,35,3
	c15.3,0,29-1,41-3c14-5.3,28.8-17.5,44.5-36.5s32.8-40.2,51.5-63.5c6.7-22,12-38.3,16-49s10-22.3,18-35l-9-4c0.7-2,2-3,4-3h6l-6-6
	c7.3,0,12.3-1,15-3c5.3-16,13.2-31.2,23.5-45.5S539.3,126,554,118l-1-5L546,106z M101,133c-1.3-2-3.3-3-6-3s-4.3,1.3-5,4
	c1.3,3.3,0.5,7-2.5,11s-5.2,6.7-6.5,8l-2-2c2.7-2.7,3.7-4.7,3-6c-1.3,1.3-4,5-8,11l7-1c-7.3,4.7-11,9.3-11,14c0,4,2.7,8.5,8,13.5
	S89.7,193,97,199c2-1.3,6.5-6.3,13.5-15s12.8-14,17.5-16L101,133z M153,139c-4.7,2.7-7.8,6.5-9.5,11.5S141,161.7,141,169
	c8.7,32.7,17.2,59.3,25.5,80c8.3,20.7,24.5,34,48.5,40c-0.7-6,0.7-11,4-15s8-7.7,14-11c-3.3-8.7-6.7-13-10-13c0,2.7-1.7,4.8-5,6.5
	s-5,3.2-5,4.5c-5.3,2-10.7,3-16,3c-6,0-10.7-1.3-14-4c6,0,11.2-0.7,15.5-2s12.5-5.3,24.5-12c-4.7-11.3-9.2-24.8-13.5-40.5
	s-9.2-37.8-14.5-66.5c-7.3-4-14.7-6-22-6S159,135,153,139z M368,145l-1,6c0.7-1.3,1-2.7,1-4V145z M374,153c-5.3,6-10.5,12.3-15.5,19
	s-6.2,13.7-3.5,21c4.7-0.7,9.7-3.7,15-9s9-8.3,11-9c1.3,6.7-3.5,13.3-14.5,20s-14.8,14-11.5,22c8,1.3,13.7,2,17,2c8.7,0,15-2.7,19-8
	c0.7-8.7-1.8-19.8-7.5-33.5S374.7,155.7,374,153z M136,177c-5.3,2.7-11.2,6.3-17.5,11s-12.2,9-17.5,13c-2,7.3-2.2,13.8-0.5,19.5
	c1.7,5.7,4.8,13.8,9.5,24.5c4.7,0.7,11.7-0.7,21-4s16.7-4,22-2c-7.3-11.3-14.3-22.7-21-34c6,7.3,11,12.3,15,15c0-5.3-2.3-11.7-7-19
	s-7.3-12-8-14l6,2L136,177z M365,227l-8-4l-3,4H365z M305,241l6-1L305,241z M297,249l7,16c14,1.3,22.7-1.7,26-9c0-8-3.3-12-10-12
	c-3.3,0-7.2,0.7-11.5,2S300.3,248.3,297,249z M133,245c-9.3,2.7-15.5,5.2-18.5,7.5s-3.5,6.2-1.5,11.5l38,124
	c6.7,13.3,13,23.2,19,29.5s14,9.5,24,9.5c4,0,7-0.3,9-1c7.3,0,16.3-3.2,27-9.5c10.7-6.3,18.3-9.5,23-9.5c-2,3.3-3.5,6-4.5,8
	s-0.8,4.3,0.5,7c6-6,9-12.3,9-19s-2-13.2-6-19.5s-7.7-12.5-11-18.5c1.3-12,3-24,5-36c0-2,2.2-6.7,6.5-14s6.5-12.3,6.5-15
	c0-4-2.7-7-8-9c-2.7,4.7-7.7,7.3-15,8s-12.7,1.7-16,3c-28.7-10-49.3-27.7-62-53L133,245z M273,269l-6-2L273,269z M280,269
	c-0.7,1.3-4.8,3.2-12.5,5.5s-9.2,6.8-4.5,13.5c6.7,2,12.2,2,16.5,0s9.5-5,15.5-9c-2.7-3.3-5-6.2-7-8.5S283.3,267.7,280,269z
	 M237,275c-1.3,1.3-4.7,2.8-10,4.5c-5.3,1.7-6.7,5.2-4,10.5h8c3.3-2,6.2-3.8,8.5-5.5s3.2-4.2,2.5-7.5L237,275z M271,409l-2,4
	c1.3,6,2.5,20.2,3.5,42.5s5.2,38.8,12.5,49.5c10,0.7,19.2-1.3,27.5-6s15.5-11.7,21.5-21c-2-3.3-3.3-7.3-4-12s-1-9.7-1-15v-17v-9
	c-1.3-2.7-2-4.3-2-5l-26,5c-10.7-1.3-16.7-4.7-18-10c2-1.3,4.5-1.2,7.5,0.5s5.2,2.2,6.5,1.5c6.7,0,12.5-0.2,17.5-0.5
	s9.2-1.8,12.5-4.5C309.7,412,291,411,271,409z M261,409c-2,8-3,16-3,24c0,9.3,1.2,22.8,3.5,40.5s3.5,28.8,3.5,33.5h12
	c-4.7-10.7-8.2-27.8-10.5-51.5S262.3,416.3,261,409z M351,413l1-4L351,413z M339,411c0.7,1.3-1.3,4.3-6,9v22c0,15.3,2.3,25.7,7,31
	c2-7.3,3-14.3,3-21c-0.7-12.7-1-22.7-1-30v-10L339,411z M241,420c-10.7,5.3-19.7,9.5-27,12.5s-15,4.5-23,4.5c8.7,0,14.8-0.3,18.5-1
	s14.2-3.7,31.5-9V420z M351,422v21c0,8,0.7,13.7,2,17L351,422z M251,427c-1.3,9.3-2,16.7-2,22c0,17.3,2.7,33.3,8,48
	c0.7-3.3,1-8.7,1-16c0-8-0.3-16.7-1-26l-2-28H251z M244,432c-8.7,3.3-18.8,6.5-30.5,9.5s-22.2,4.8-31.5,5.5l9,42l60,16L244,432z"/>
</svg>
