<?xml version="1.0" encoding="utf-8"?>
<!-- Generator: Adobe Illustrator 26.4.1, SVG Export Plug-In . SVG Version: 6.00 Build 0)  -->
<svg version="1.1" id="Layer_1" xmlns="http://www.w3.org/2000/svg" xmlns:xlink="http://www.w3.org/1999/xlink" x="0px" y="0px"
	 viewBox="0 0 820 820" style="enable-background:new 0 0 820 820;" xml:space="preserve">
<path d="M169.5,0C226.2,8.7,273.7,15.5,312,20.5S387.2,28,422.5,28c-11.3,9.3-28.8,21.7-52.5,37c-23.7,15.3-49.2,32-76.5,50
	c-16.7,8.7-30.7,19.3-42,32c9.3,2.7,23.8,5,43.5,7s29.8,3,30.5,3c2.7-1.3,3.7-3.8,3-7.5c-0.7-3.7-1.3-7.2-2-10.5
	c8.7,1.3,20.8,5.8,36.5,13.5c15.7,7.7,27.2,12.5,34.5,14.5c-8,2.7-20,6.3-36,11s-28.7,8-38,10c0-1.3,1-4,3-8s1-7-3-9l-175-4
	c60.7-30.7,104.2-53.2,130.5-67.5s54.2-33.2,83.5-56.5l-11-4c-21.3,0-59-0.7-113-2c-54-1.3-82.3-2-85-2c4-3.3,7-9.2,9-17.5
	S166.8,3.3,169.5,0z M457.5,158c8,4.7,15.8,10.8,23.5,18.5s19.8,22.2,36.5,43.5c5.3,8.7,14,19.2,26,31.5c12,12.3,25.8,36.3,41.5,72
	s38.2,87.8,67.5,156.5c0,16.7,2.8,43.2,8.5,79.5s8.5,60.5,8.5,72.5c0,20.7-3.3,40.7-10,60c0,11.3,1.3,23.2,4,35.5s5.3,24.2,8,35.5
	l-57,48c-19.3,6-38.3,9-57,9c-13.3,0-23.8-0.5-31.5-1.5s-19.8-3.5-36.5-7.5c-3.3-9.3-6.3-20-9-32s-5-23.7-7-35
	c-24-15.3-45.3-37.8-64-67.5s-31.3-50.2-38-61.5c-18-18-28.8-29.3-32.5-34s-6.2-11.3-7.5-20c0-24,3.3-49.3,10-76
	c12-12,24.7-18,38-18c10-14,18.8-25.7,26.5-35s17.2-14,28.5-14c4,0,7,0.3,9,1c3.3-3.3,10.8-12,22.5-26s23.5-21,35.5-21l3-2
	c-2.7-13.3-12.2-33.8-28.5-61.5s-25.2-43.8-26.5-48.5c-15.3-21.3-25.8-37-31.5-47s-8.5-22.7-8.5-38c4.7-7.3,11.3-12.3,20-15
	S447.5,156.7,457.5,158z M419.5,175c-2,14.7,0.2,27.5,6.5,38.5s17.2,26.2,32.5,45.5l10,2c18.7-4.7,37.3-9.7,56-15
	c-2-6-5.8-12.3-11.5-19c-5.7-6.7-11.8-14-18.5-22s-14.7-17.2-24-27.5s-18.3-15.5-27-15.5C435.5,162,427.5,166.3,419.5,175z
	 M468.5,272c0,6,2.3,13.2,7,21.5s9.3,16.2,14,23.5c5.3,2.7,12.8,2.3,22.5-1c9.7-3.3,14.8-5,15.5-5c2.7,0,7.5-2.5,14.5-7.5
	s11.5-7.5,13.5-7.5c3.3,0,6,2,8,6c-8.7,6-18.3,11.7-29,17s-21.7,10-33,14c0.7,5.3,4.2,15.2,10.5,29.5c6.3,14.3,8.8,26.5,7.5,36.5h5
	c3.3-2.7,7.5-4.7,12.5-6s9.8-2,14.5-2c14,0.7,24.3,1,31,1c10,0,17.7-3,23-9c-17.3-38.7-30.8-67.7-40.5-87s-20.8-35-33.5-47
	c-14.7,4-27,7.5-37,10.5S475.8,266.7,468.5,272z M444.5,432c3.3,0,8.3-1.7,15-5s11.7-5,15-5c4.7,0,8.3,2.3,11,7
	c-26,4.7-45.7,15.3-59,32c-0.7,10,1.3,21.3,6,34c6.7-0.7,12.7-1.2,18-1.5s9.7-0.5,13-0.5c21.3,0,40,3.3,56,10
	c-3.3-12.7-6.3-22.7-9-30c-2.7-7.3-7-14-13-20c1.3-2,3.5-2.5,6.5-1.5s6.5,1.8,10.5,2.5c-2-21.3-3.7-42.7-5-64c-7.3-6-13.3-9-18-9
	c-8,0-17.2,8-27.5,24S447.2,430,444.5,432z M605.5,390c-7.3,7.3-21.5,11.5-42.5,12.5s-35.2,4.5-42.5,10.5l5,57
	c3.3-2,6.2-6.2,8.5-12.5s4.5-9.8,6.5-10.5c2,6,0.7,14-4,24s-7,16.3-7,19c0,3.3,1.3,6.3,4,9c8-5.3,16.3-13,25-23s18.7-21.3,30-34
	l-3,8l36-27c-2.7-9.3-4.7-16.8-6-22.5S610.8,391.3,605.5,390z M382.5,480l11-6c2,2.7,2.2,4.7,0.5,6s-3.8,2.3-6.5,3h7
	c-0.7,2-2.5,3.8-5.5,5.5s-4.8,3.2-5.5,4.5c-6,0-9.7,4-11,12s-2.3,15.3-3,22c6,8.7,11.3,15.7,16,21s10.7,10.3,18,15
	c-0.7-2.7-1-6.7-1-12c0-9.3,1.5-17.8,4.5-25.5c3-7.7,7.8-15.2,14.5-22.5c-2.7-16-5-32-7-48c5.3-8.7,11-17.3,17-26
	c-12,0-21.7,5.8-29,17.5S388.5,469.3,382.5,480z M621.5,435c-15.3,7.3-26.8,14.8-34.5,22.5S563.5,483,539.5,511
	c4,4.7,10.3,7.8,19,9.5c8.7,1.7,14.3,2.5,17,2.5c9.3-6,18.8-14.5,28.5-25.5s16.8-18.8,21.5-23.5c-2.7,2.7-6.8,9.7-12.5,21
	s-11.5,18.7-17.5,22c2,0,5.3-1.5,10-4.5s8-3.5,10-1.5l-16,16c0.7,1.3,3.3,2.7,8,4s8.7,2.3,12,3c6.7-2,11.3-7.3,14-16
	c2,3.3,1.3,8.2-2,14.5c-3.3,6.3-5,9.8-5,10.5c6.7,4.7,11.8,9.8,15.5,15.5s7.2,12.8,10.5,21.5c1.3-3.3,1.3-8.3,0-15s-2-10.7-2-12
	c0-4.7,2-8.3,6-11h-4c-4.7-24.7-8.7-45.8-12-63.5S630.8,446.3,621.5,435z M339.5,549l17-13l-9,13l10-4c-4.7,5.3-8.8,9.8-12.5,13.5
	s-5.5,7.2-5.5,10.5c0,1.3,1.7,4.7,5,10c3.3,2,12.8,10.2,28.5,24.5c15.7,14.3,28.2,21.5,37.5,21.5c6.7,0,13.7-2.7,21-8v10
	c4,0,8.7-1.8,14-5.5s9-5.8,11-6.5c-19.3-10.7-36.3-22-51-34s-28.7-27-42-45l-7-1c1.3-2.7,2.3-10.8,3-24.5c0.7-13.7,4-23.5,10-29.5
	c-13.3,0-21.5,3.8-24.5,11.5s-4.5,19.5-4.5,35.5C340.5,538,340.2,545,339.5,549z M429.5,505c-9.3,6-14.7,13.3-16,22
	c-1.3,8.7-2,14.7-2,18c0,8,2.7,13.3,8,16l3-22c3.3-8,7.5-15,12.5-21s11.2-9,18.5-9c8,5.3,14.7,10,20,14s8,9,8,15
	c-6,13.3-11.5,24.3-16.5,33s-13.2,11.7-24.5,9c30.7,18,62.3,27,95,27c11.3-1.3,21.3,3,30,13s15.7,16.3,21,19c0,1.3-1.7,2-5,2
	c-5.3-3.3-10-6.2-14-8.5s-7.3-3.8-10-4.5c8,10.7,13.8,18,17.5,22s8.5,7,14.5,9c-6,0-17.2-7.5-33.5-22.5S525.8,615,514.5,617
	c-2.7,0-4.3,2-5,6s-1.5,8-2.5,12s-1.5,7.7-1.5,11c0,10,2.7,18.8,8,26.5c5.3,7.7,18.7,20.2,40,37.5c8,5.3,18.7,8,32,8
	c7.3,0,13.3-0.5,18-1.5s13-2.8,25-5.5c8-4.7,14.8-11.8,20.5-21.5s8.5-23.5,8.5-41.5c0-6.7-0.3-12.8-1-18.5s-1.3-11.5-2-17.5l-8,26
	c-7.3,2.7-13.7,5.7-19,9s-10,3.7-14,1c4-4,6.7-7,8-9c9.3-3.3,15.5-8.5,18.5-15.5s4.5-16.2,4.5-27.5c-0.7-11.3-1-19.7-1-25
	c-7.3-10-12.8-16.8-16.5-20.5s-8.8-5.5-15.5-5.5c-18.7,0-44.7-7.3-78-22c-33.3-14.7-58.7-22-76-22h-16L429.5,505z M445.5,516
	c-6,4-10.5,10.8-13.5,20.5c-3,9.7-4.5,17.2-4.5,22.5c0,11.3,5,16,15,14c10,1.3,15.8-4.8,17.5-18.5s4.8-21.8,9.5-24.5
	C462.2,521.3,454.2,516.7,445.5,516z M465.5,557l8-18C466.2,541,463.5,547,465.5,557z M425.5,584c4.7,4.7,10.3,8.3,17,11
	s14.3,5.3,23,8c-6.7,0.7-13.7-1-21-5C435.2,591.3,428.8,586.7,425.5,584z M481.5,610c-4,0.7-7.8,4-11.5,10s-7.8,10.5-12.5,13.5
	s-12.3,4.5-23,4.5c-8,0-15.5-0.7-22.5-2s-14.2-3-21.5-5l11,13c7.3,6.7,19.8,23.7,37.5,51s37.2,41,58.5,41l17-2c5.3-2,11-4.2,17-6.5
	s9.7-5.8,11-10.5c-13.3-6.7-24.7-16-34-28c-9.3-12-14-25-14-39v-27C494.5,613.7,490.2,609.3,481.5,610z M444.5,628
	c7.3,0,11.3-1.7,12-5C449.2,623,445.2,624.7,444.5,628z M645.5,716l6,46c2-5.3,3-10.3,3-15c0-4-0.8-9.3-2.5-16s-2.5-11.7-2.5-15
	H645.5z M550.5,724c-12,8-22.5,14.2-31.5,18.5s-18.8,6.5-29.5,6.5c8,1.3,18.2-0.5,30.5-5.5c12.3-5,20.8-7.8,25.5-8.5
	c0.7,5.3,1.7,9.8,3,13.5s2,7.2,2,10.5V724z M636.5,727c-1.3,5.3-1.2,12.7,0.5,22s2.5,14.7,2.5,16c-2.7-4-4.8-10-6.5-18
	c-1.7-8-3.2-13.3-4.5-16l-56,12c3.3,22,7,43.7,11,65c11.3-1.3,22-5.3,32-12s20-15.3,30-26c-0.7-2.7-1.3-9.5-2-20.5
	S640.5,731,636.5,727z M555.5,737c0,14.7,0.8,27.2,2.5,37.5s4.2,22.8,7.5,37.5c5.3,0,8.7-1,10-3l-8-46c-2-8.7-3.8-14.8-5.5-18.5
	S558.2,738.3,555.5,737z M486.5,757l9,42c6,6,13.2,9.5,21.5,10.5c8.3,1,19.8,1.5,34.5,1.5c0-13.3-0.7-23.3-2-30s-4.7-19.7-10-39
	c-4,0.7-12,3.7-24,9S493.8,758.3,486.5,757z M537.5,533c-0.7,2.7,2.3,7.3,9,14c0,13.3-2,25.7-6,37c3.3,0.7,6.2-0.7,8.5-4
	s3.8-5.7,4.5-7c1.3-4,1.3-9.5,0-16.5s-2-11.5-2-13.5c2.7,3.3,4,9,4,17c0,4.7-0.7,10.3-2,17c-1.3,2.7-4,5.8-8,9.5s-10,7.2-18,10.5
	c13.3-12,18.3-26.7,15-44l-5,10V533z M535.5,569v6V569z"/>
</svg>
