<svg xmlns="http://www.w3.org/2000/svg" xmlns:xlink="http://www.w3.org/1999/xlink" version="1.1" viewBox="26 -20 523 820">
   <path fill="currentColor" d="M47 -20q85 13 142.5 20.5t110.5 7.5q-17 14 -52.5 37t-76.5 50q-25 13 -42 32q14 4 43.5 7t30.5 3q4 -2 3 -7.5t-2 -10.5q13 2 36.5 13.5t34.5 14.5q-12 4 -36 11t-38 10q0 -2 3 -8t-3 -9l-175 -4q91 -46 130.5 -67.5t83.5 -56.5l-11 -4q-32 0 -113 -2t-85 -2 q6 -5 9 -17.5t7 -17.5zM335 138q12 7 23.5 18.5t36.5 43.5q8 13 26 31.5t41.5 72t67.5 156.5q0 25 8.5 79.5t8.5 72.5q0 31 -10 60q0 17 4 35.5t8 35.5l-57 48q-29 9 -57 9q-20 0 -31.5 -1.5t-36.5 -7.5q-5 -14 -9 -32t-7 -35q-36 -23 -64 -67.5t-38 -61.5 q-27 -27 -32.5 -34t-7.5 -20q0 -36 10 -76q18 -18 38 -18q15 -21 26.5 -35t28.5 -14q6 0 9 1q5 -5 22.5 -26t35.5 -21l3 -2q-4 -20 -28.5 -61.5t-26.5 -48.5q-23 -32 -31.5 -47t-8.5 -38q7 -11 20 -15t28 -2zM297 155q-3 22 6.5 38.5t32.5 45.5l10 2q28 -7 56 -15 q-3 -9 -11.5 -19t-18.5 -22t-24 -27.5t-27 -15.5q-12 0 -24 13zM346 252q0 9 7 21.5t14 23.5q8 4 22.5 -1t15.5 -5q4 0 14.5 -7.5t13.5 -7.5q5 0 8 6q-13 9 -29 17t-33 14q1 8 10.5 29.5t7.5 36.5h5q5 -4 12.5 -6t14.5 -2q21 1 31 1q15 0 23 -9q-26 -58 -40.5 -87t-33.5 -47 q-22 6 -37 10.5t-26 12.5zM322 412q5 0 15 -5t15 -5q7 0 11 7q-39 7 -59 32q-1 15 6 34q10 -1 18 -1.5t13 -0.5q32 0 56 10q-5 -19 -9 -30t-13 -20q2 -3 6.5 -1.5t10.5 2.5q-3 -32 -5 -64q-11 -9 -18 -9q-12 0 -27.5 24t-19.5 27zM483 370q-11 11 -42.5 12.5t-42.5 10.5 l5 57q5 -3 8.5 -12.5t6.5 -10.5q3 9 -4 24t-7 19q0 5 4 9q12 -8 25 -23t30 -34l-3 8l36 -27q-4 -14 -6 -22.5t-10 -10.5zM260 460l11 -6q3 4 0.5 6t-6.5 3h7q-1 3 -5.5 5.5t-5.5 4.5q-9 0 -11 12t-3 22q9 13 16 21t18 15q-1 -4 -1 -12q0 -14 4.5 -25.5t14.5 -22.5 q-4 -24 -7 -48q8 -13 17 -26q-18 0 -29 17.5t-20 33.5zM499 415q-23 11 -34.5 22.5t-47.5 53.5q6 7 19 9.5t17 2.5q14 -9 28.5 -25.5t21.5 -23.5q-4 4 -12.5 21t-17.5 22q3 0 10 -4.5t10 -1.5l-16 16q1 2 8 4t12 3q10 -3 14 -16q3 5 -2 14.5t-5 10.5q10 7 15.5 15.5 t10.5 21.5q2 -5 0 -15t-2 -12q0 -7 6 -11h-4q-7 -37 -12 -63.5t-19 -43.5zM217 529l17 -13l-9 13l10 -4q-7 8 -12.5 13.5t-5.5 10.5q0 2 5 10q5 3 28.5 24.5t37.5 21.5q10 0 21 -8v10q6 0 14 -5.5t11 -6.5q-29 -16 -51 -34t-42 -45l-7 -1q2 -4 3 -24.5t10 -29.5 q-20 0 -24.5 11.5t-4.5 35.5q0 15 -1 21zM307 485q-14 9 -16 22t-2 18q0 12 8 16l3 -22q5 -12 12.5 -21t18.5 -9q12 8 20 14t8 15q-9 20 -16.5 33t-24.5 9q46 27 95 27q17 -2 30 13t21 19q0 2 -5 2q-8 -5 -14 -8.5t-10 -4.5q12 16 17.5 22t14.5 9q-9 0 -33.5 -22.5 t-41.5 -19.5q-4 0 -5 6t-2.5 12t-1.5 11q0 15 8 26.5t40 37.5q12 8 32 8q11 0 18 -1.5t25 -5.5q12 -7 20.5 -21.5t8.5 -41.5q0 -10 -1 -18.5t-2 -17.5l-8 26q-11 4 -19 9t-14 1q6 -6 8 -9q14 -5 18.5 -15.5t4.5 -27.5q-1 -17 -1 -25q-11 -15 -16.5 -20.5t-15.5 -5.5 q-28 0 -78 -22t-76 -22h-16zM323 496q-9 6 -13.5 20.5t-4.5 22.5q0 17 15 14q15 2 17.5 -18.5t9.5 -24.5q-11 -13 -24 -14zM343 537l8 -18q-11 3 -8 18zM303 564q7 7 17 11t23 8q-10 1 -21 -5q-14 -10 -19 -14zM359 590q-6 1 -11.5 10t-12.5 13.5t-23 4.5q-12 0 -22.5 -2 t-21.5 -5l11 13q11 10 37.5 51t58.5 41l17 -2q8 -3 17 -6.5t11 -10.5q-20 -10 -34 -28t-14 -39v-27q0 -14 -13 -13zM322 608q11 0 12 -5q-11 0 -12 5zM523 696l6 46q3 -8 3 -15q0 -6 -2.5 -16t-2.5 -15h-4zM428 704q-18 12 -31.5 18.5t-29.5 6.5q12 2 30.5 -5.5t25.5 -8.5 q1 8 3 13.5t2 10.5v-35zM514 707q-2 8 0.5 22t2.5 16q-4 -6 -6.5 -18t-4.5 -16l-56 12q5 33 11 65q17 -2 32 -12t30 -26q-1 -4 -2 -20.5t-7 -22.5zM433 717q0 22 2.5 37.5t7.5 37.5q8 0 10 -3l-8 -46q-3 -13 -5.5 -18.5t-6.5 -7.5zM364 737l9 42q9 9 21.5 10.5t34.5 1.5 q0 -20 -2 -30t-10 -39q-6 1 -24 9t-29 6zM415 513q-1 4 9 14q0 20 -6 37q5 1 8.5 -4t4.5 -7q2 -6 0 -16.5t-2 -13.5q4 5 4 17q0 7 -2 17q-2 4 -8 9.5t-18 10.5q20 -18 15 -44l-5 10v-30zM413 549v6v-6z"/>
</svg>